<svg xmlns="http://www.w3.org/2000/svg">
<defs>
<font id="TrueNorthRoughBlackW01-Rg" horiz-adv-x="579" >
  <font-face 
    font-family="TrueNorthRoughBlackW01-Rg"
    font-weight="400"
    font-stretch="normal"
    units-per-em="1000"
    panose-1="2 0 5 4 0 0 0 2 0 0"
    ascent="800"
    descent="-200"
    x-height="698"
    cap-height="694"
    bbox="-85 -233 1465 962"
    underline-thickness="50"
    underline-position="-175"
    unicode-range="U+000D-2122"
  />
<missing-glyph horiz-adv-x="572" 
d="M541 137q0 -8 -0.5 -16t-1.5 -16q0 -8 0.5 -24t-0.5 -32.5t-5.5 -29t-14.5 -13.5q-35 -4 -69 -6t-69 -2q-92 3 -184 3q-11 0 -21 1t-20 1q-15 0 -30.5 -1t-30.5 -1q-36 0 -53.5 1t-24.5 9.5t-8 26.5t-4 51q-1 8 -2.5 16.5t-1.5 16.5q0 5 1 8q1 8 0 16t-1 16q0 11 0.5 22
t0.5 22q0 16 -1 31.5t-1 30.5q0 18 1.5 36t1.5 36q0 42 2 82t2 82q0 23 -2 47t-2 47q0 11 1 22.5t1 23.5q0 7 -1 14t-1 15q0 11 5 18t16 7q10 1 19.5 1h19.5q15 0 30 -0.5t30 0.5q39 1 78 2.5t78 1.5q10 0 19.5 -1t19.5 -1q23 0 46 2t46 2q13 0 25.5 -2t25.5 -2
q9 -1 18.5 -0.5t18.5 -0.5q12 0 18 -4.5t9 -15.5q7 -25 9 -49t2 -50q0 -8 -0.5 -14.5t-0.5 -13.5q0 -20 1.5 -40t1.5 -40q0 -9 -0.5 -17.5t-0.5 -16.5q0 -5 0.5 -10t0.5 -10q0 -11 -1.5 -20.5t-1.5 -19.5q0 -12 2 -24t2 -24q0 -30 -0.5 -60t-0.5 -60q0 -9 1 -17.5t1 -17.5
q0 -4 -0.5 -8t-0.5 -8q0 -6 1 -12t1 -11zM376 112q-11 21 -26.5 40t-29.5 38l-36 51q-2 3 -4.5 6t-7.5 4q-3 -3 -10 -13.5t-16.5 -25t-20.5 -31t-20 -31t-15 -25t-7 -13.5q14 0 29 -0.5t30 -0.5q20 0 40.5 1t40.5 1h26t27 -1zM354 584q0 1 -0.5 1.5t-0.5 1.5q-17 2 -34.5 3
t-35.5 1q-24 0 -48.5 -1t-48.5 0h-11l90 -140l9 12l50 75q1 3 6 10t10.5 14.5t9.5 14t4 8.5zM424 309q0 8 -0.5 32.5t-1.5 51.5t-2.5 49.5t-4.5 28.5q-5 -2 -7 -5t-4 -7q-5 -8 -10.5 -16.5t-11.5 -16.5l-10.5 -14t-15.5 -21t-14 -20.5t-6 -13.5q0 -2 12 -18.5t27.5 -37
t29 -38t16.5 -21.5q4 15 3.5 33t-0.5 34zM196 359q0 4 -4 10t-14 20.5t-21.5 30t-21.5 28.5t-14 16q0 -31 -1 -62t-1 -63q0 -42 3 -84l3 -1q9 12 17.5 24.5t16.5 25.5q8 11 16.5 22t16.5 23q4 6 4 10zM513 391q0 14 -0.5 27t-0.5 26q0 16 0.5 32t-1.5 32q-8 -4 -8 -9.5

<glyph glyph-name=".notdef" horiz-adv-x="572" 
d="M541 137q0 -8 -0.5 -16t-1.5 -16q0 -8 0.5 -24t-0.5 -32.5t-5.5 -29t-14.5 -13.5q-35 -4 -69 -6t-69 -2q-92 3 -184 3q-11 0 -21 1t-20 1q-15 0 -30.5 -1t-30.5 -1q-36 0 -53.5 1t-24.5 9.5t-8 26.5t-4 51q-1 8 -2.5 16.5t-1.5 16.5q0 5 1 8q1 8 0 16t-1 16q0 11 0.5 22
t0.5 22q0 16 -1 31.5t-1 30.5q0 18 1.5 36t1.5 36q0 42 2 82t2 82q0 23 -2 47t-2 47q0 11 1 22.5t1 23.5q0 7 -1 14t-1 15q0 11 5 18t16 7q10 1 19.5 1h19.5q15 0 30 -0.5t30 0.5q39 1 78 2.5t78 1.5q10 0 19.5 -1t19.5 -1q23 0 46 2t46 2q13 0 25.5 -2t25.5 -2
q9 -1 18.5 -0.5t18.5 -0.5q12 0 18 -4.5t9 -15.5q7 -25 9 -49t2 -50q0 -8 -0.5 -14.5t-0.5 -13.5q0 -20 1.5 -40t1.5 -40q0 -9 -0.5 -17.5t-0.5 -16.5q0 -5 0.5 -10t0.5 -10q0 -11 -1.5 -20.5t-1.5 -19.5q0 -12 2 -24t2 -24q0 -30 -0.5 -60t-0.5 -60q0 -9 1 -17.5t1 -17.5
q0 -4 -0.5 -8t-0.5 -8q0 -6 1 -12t1 -11zM376 112q-11 21 -26.5 40t-29.5 38l-36 51q-2 3 -4.5 6t-7.5 4q-3 -3 -10 -13.5t-16.5 -25t-20.5 -31t-20 -31t-15 -25t-7 -13.5q14 0 29 -0.5t30 -0.5q20 0 40.5 1t40.5 1h26t27 -1zM354 584q0 1 -0.5 1.5t-0.5 1.5q-17 2 -34.5 3
t-35.5 1q-24 0 -48.5 -1t-48.5 0h-11l90 -140l9 12l50 75q1 3 6 10t10.5 14.5t9.5 14t4 8.5zM424 309q0 8 -0.5 32.5t-1.5 51.5t-2.5 49.5t-4.5 28.5q-5 -2 -7 -5t-4 -7q-5 -8 -10.5 -16.5t-11.5 -16.5l-10.5 -14t-15.5 -21t-14 -20.5t-6 -13.5q0 -2 12 -18.5t27.5 -37
t29 -38t16.5 -21.5q4 15 3.5 33t-0.5 34zM196 359q0 4 -4 10t-14 20.5t-21.5 30t-21.5 28.5t-14 16q0 -31 -1 -62t-1 -63q0 -42 3 -84l3 -1q9 12 17.5 24.5t16.5 25.5q8 11 16.5 22t16.5 23q4 6 4 10zM513 391q0 14 -0.5 27t-0.5 26q0 16 0.5 32t-1.5 32q-8 -4 -8 -9.5
v-12.5q0 -19 1.5 -37.5t3.5 -37.5q1 -13 0 -26t1 -25l2 -4q2 8 2 17.5v17.5zM57 323q0 11 -0.5 22.5t-0.5 22.5q0 7 0.5 18t0.5 22t-0.5 21t-1.5 17l-1 3v-1q-1 -1 -1 -2v-19q-1 -28 -2 -55.5t-1 -55.5v-30v-12t1 -11q2 14 4 30t2 30zM448 118q-1 6 -8 18.5t-16.5 26
t-19 24.5t-14.5 13q-1 -1 -1 -2l7.5 -11.5t16.5 -25l17 -25.5t10 -14q4 -4 8 -4zM282 65q-6 2 -17 3.5t-17 1.5q-12 0 -31 -1.5t-30 -3.5q5 -3 15.5 -3.5t15.5 -0.5h51q6 -1 13 4zM209 256v3l-1 1l-3 -8q-5 -3 -5.5 -7t-5.5 -5q-3 -3 -7.5 -9t-9.5 -13.5t-8.5 -14.5
t-3.5 -10v-2q3 1 10 10t14.5 20t13.5 21.5t6 13.5zM329 646q0 1 -2 3q-23 -4 -46 -3t-46 -2q7 -2 14 -3t14 -1q14 0 29.5 1t29.5 3h4t3 2zM215 417q-2 3 -5.5 8t-3.5 8q-2 9 -10.5 20.5t-14.5 18.5q-2 0 -6 -2q1 -3 6 -11t12 -17t13 -16.5t9 -8.5zM360 484q0 4 -1 6h-3
q-5 -11 -13.5 -19t-11.5 -21h3q2 1 6 6t8.5 11t8 10.5t3.5 6.5zM498 642v10q0 3 -1 7.5t-6 4.5q-4 0 -5.5 -8t-1.5 -10q0 -3 1 -4q1 0 2 -0.5t2 -0.5h2q2 0 3.5 0.5t3.5 0.5zM58 62q0 5 -4.5 14t-7.5 13v-33q2 0 5.5 0.5t5.5 2.5v2q0 1 1 1zM522 41q-1 2 -3 4l-4 4
q-2 -2 -5.5 -3.5t-3.5 -4.5q0 -2 1.5 -5t3.5 -3q7 0 10 5zM87 604q0 8 -5 9l-1 -19h1q5 5 5 10z" />
    <glyph glyph-name="glyph1" horiz-adv-x="0" 
 />
    <glyph glyph-name="glyph1" horiz-adv-x="0" 
 />
    <glyph glyph-name="uni000D" unicode="&#xd;" horiz-adv-x="320" 
 />
    <glyph glyph-name="space" unicode=" " horiz-adv-x="320" 
 />
    <glyph glyph-name="exclam" unicode="!" horiz-adv-x="306" 
d="M234 550q0 -11 -3.5 -22.5t-3.5 -24.5v-27q0 -11 -1 -20.5t-1 -20.5q0 -7 0.5 -13.5t0.5 -13.5q0 -5 -0.5 -8.5t-0.5 -7.5q0 -11 1.5 -22t1.5 -22v-20q0 -5 1 -9.5t1 -9.5q0 -10 0.5 -19t0.5 -19q0 -9 -1 -14q-2 -8 -2 -16v-16q0 -7 -7.5 -11t-17.5 -6t-20 -2.5t-15 -0.5
t-9 0.5t-8 0.5l-18 -2t-17 -1q-26 0 -41 21q-2 4 -2.5 15t-0.5 16q0 6 1.5 12t1.5 12v25.5t-1 25.5l-2 10t-1 10q0 18 -0.5 35.5t-0.5 34.5q0 8 1 16.5t1 16.5q2 33 1 66.5t1 66.5q0 6 1.5 11.5t1.5 10.5q0 9 -3 17t-3 16q0 24 6.5 36t18 16.5t27.5 4t35 -0.5q8 0 16.5 -1
t16.5 -1q17 0 27 -6t12 -25q0 -6 1 -12t1 -11q0 -9 -0.5 -18t-0.5 -17q0 -6 -0.5 -12t-0.5 -12q0 -8 2 -16t2 -16zM236 67q0 -7 -4 -14q-2 -3 -4 -11q-11 -21 -27 -33t-40 -12q-7 0 -13.5 1.5t-12.5 3.5q-32 11 -46.5 30.5t-14.5 52.5q0 20 13.5 37.5t29.5 27.5q6 4 13 4.5
t14 0.5q13 0 19 -3t17 -6q22 -7 39 -31.5t17 -47.5zM137 390q0 28 -4 51q-3 -50 -3 -99q0 -11 1 -21.5t2 -21.5l2 1q1 23 1.5 45t0.5 45zM133 652v11q-7 -2 -7 -12v-54q0 -9 3 -15q3 17 3.5 35t0.5 35zM125 82q0 7 -1 11q-6 -4 -7 -8.5t-1 -12.5v-10q5 4 7 9.5t2 10.5z
M173 512q0 7 -8 11q-2 -3 -3 -5.5t-1 -5.5q0 -4 4 -12q8 6 8 12zM214 239v12h-10q0 -3 1 -6.5t2 -6.5t3 -3q3 1 4 4zM192 71q0 6 -4 6q-5 0 -5 -4v-1q0 -7 5 -7q4 0 4 6z" />
    <glyph glyph-name="quotedbl" unicode="&#x22;" horiz-adv-x="497" 
d="M226 659q0 -31 -3.5 -62t-5.5 -62q-2 -15 -2 -30.5t-1 -31.5q-1 -17 -9.5 -19t-22.5 -2h-87q-6 0 -8.5 1.5t-4.5 7.5l-5 30l-12 100q-2 14 -3.5 28.5t-1.5 28.5q0 5 1 10.5t3 10.5q2 8 4 9.5t10 2.5l35 2q17 2 34.5 4t35.5 2q8 0 16 -0.5t16 -1.5q9 -2 10 -11t1 -17z
M436 659q0 -31 -3.5 -62t-5.5 -62q-2 -15 -2 -30.5t-1 -31.5q-1 -17 -9.5 -19t-22.5 -2h-87q-6 0 -8.5 1.5t-4.5 7.5l-5 30l-12 100q-2 14 -3.5 28.5t-1.5 28.5q0 5 1 10.5t3 10.5q2 8 4 9.5t10 2.5l35 2q17 2 34.5 4t35.5 2q8 0 16 -0.5t16 -1.5q9 -2 10 -11t1 -17z
M191 576v13.5t-1 14.5q-7 -1 -7 -8q-2 -23 -3.5 -46t-1.5 -46q0 -5 1 -7l5 -1q2 20 4.5 40t2.5 40zM401 576v13.5t-1 14.5q-7 -1 -7 -8q-2 -23 -3.5 -46t-1.5 -46q0 -5 1 -7l5 -1q2 20 4.5 40t2.5 40zM106 513q0 2 -0.5 4.5t-0.5 4.5q-4 -2 -7 -3t-3 -6q0 -6 1.5 -12.5
t2.5 -13.5q7 14 7 26zM316 513q0 2 -0.5 4.5t-0.5 4.5q-4 -2 -7 -3t-3 -6q0 -6 1.5 -12.5t2.5 -13.5q7 14 7 26z" />
    <glyph glyph-name="numbersign" unicode="#" horiz-adv-x="895" 
d="M855 503q0 -6 -3 -17t-7 -22t-9 -21l-8 -16q-14 -19 -34 -19q-12 0 -23.5 -0.5t-22.5 -0.5q-17 0 -33.5 0.5t-33.5 0.5q-7 0 -8.5 -2.5t-3.5 -7.5l-15 -43q-6 -16 -12 -31t-11 -30q3 -1 6.5 -2t6.5 -1q8 0 15 1.5t14 1.5q18 0 37 -0.5t36 -2.5q9 -1 17 -8q5 -4 5 -14
q0 -5 -2.5 -17t-6 -24.5t-7.5 -24.5t-6 -17q-6 -15 -22.5 -18.5t-30.5 -1.5q-9 1 -19.5 0t-19.5 -1h-47q-2 0 -4 0.5t-4 0.5q-4 0 -6.5 -6.5t-3.5 -9.5q-12 -34 -22.5 -67.5t-22.5 -67.5q-8 -21 -28 -21q-8 0 -17 -0.5t-17 -0.5q-7 0 -19 1t-24 4.5t-20.5 9.5t-8.5 15
q0 10 6 28t14 38.5t15.5 39.5t10.5 31q-32 1 -65 2t-65 1q-7 0 -10 -7l-9 -29q-7 -27 -14 -53t-18 -52q-5 -14 -12.5 -19t-21.5 -5q-11 -1 -21 -1.5t-21 -0.5q-8 0 -19.5 0.5t-22 3t-17.5 8.5t-7 18q0 5 6 23.5t14 40.5t15.5 42t10.5 27q-31 3 -61 3.5t-60 7.5q-18 3 -18 23
q0 17 7.5 37t14.5 36q5 13 15 15.5t22 2.5q11 0 21 -0.5t21 -0.5q5 0 10 0.5t10 0.5q14 0 28.5 -1t28.5 -1q10 0 13 10q8 26 17 52.5t15 52.5q-11 0 -21 -1t-20 -1q-6 0 -12 1.5t-12 1.5q-5 0 -9 -1t-9 -1q-10 0 -19.5 2.5t-19.5 6.5q-13 6 -13 23q0 20 4 43.5t13 41.5
q6 13 20 13q29 2 57 1t57 -1q8 0 14 0.5t10 10.5q14 35 24.5 72.5t26.5 72.5q6 14 23.5 16.5t30.5 2.5q16 0 34 -2.5t33 -6.5q8 -2 9 -7.5t1 -12.5q0 -9 -5.5 -28.5t-13 -41.5t-15 -41.5t-11.5 -29.5q3 0 6.5 -0.5t6.5 -0.5q13 0 26 1t26 1q11 0 22.5 -1t22.5 -1
q7 0 16.5 0.5t11.5 8.5q11 36 18.5 74t25.5 70q9 17 23.5 21t32.5 4q15 0 31 -2t31 -5q13 -3 13 -15q0 -6 -4.5 -22.5t-10.5 -35t-11.5 -36t-8.5 -25.5q-1 -5 -4.5 -16.5t-3.5 -14.5q0 -5 8 -5q17 -2 35.5 -2h35.5q8 0 15 0.5t15 0.5q12 0 24 -6t12 -21zM528 406h-28
q-23 0 -45.5 -0.5t-45.5 -0.5q-7 0 -10 -3.5t-5 -9.5q-2 -5 -6.5 -19.5t-9.5 -31t-9 -30t-4 -15.5q0 -4 3 -4.5t6 -0.5q13 -2 26 -2h26q5 0 10.5 0.5t10.5 0.5q9 0 18 -1t18 -1q5 0 6 2.5t3 6.5q3 9 8.5 23.5t11 30t10 30.5t6.5 25zM616 383q0 5 -2 7q-1 -1 -4.5 -11.5
t-7.5 -23.5t-7 -24t-3 -13v-3q5 2 6.5 3t2.5 6q2 14 8.5 29.5t6.5 29.5zM412 646q-3 -3 -6.5 -13t-7 -21.5t-6 -22t-3.5 -15.5l5 2q3 5 6.5 14t6 19.5t4 20.5t1.5 16zM491 140v2l-2 2l-6 -3q-5 -18 -11 -34.5t-8 -36.5q2 3 6.5 13.5t9 22t8 21.5t3.5 13zM539 241
q-14 4 -29 5.5t-29 1.5q-8 0 -16 -1.5t-16 -1.5q-3 0 -5.5 0.5t-4.5 -0.5q10 -2 19 -3t18 -1q15 0 30 -0.5t30 -0.5q2 0 3 1zM535 492q-5 2 -13 3t-17 1h-17h-14h-19q-5 0 -13 -0.5t-13 -2.5q16 -1 31 -1.5t31 -0.5h32q3 0 6 0.5t6 0.5zM363 402q0 3 -1 4h-1q0 -1 -2.5 -11
t-5.5 -21.5t-5.5 -22t-2.5 -13.5v-6h1q3 5 6.5 14.5t5.5 19.5t3.5 20t1.5 16zM286 214q-3 4 -15.5 4.5t-17.5 0.5h-12q-8 0 -15 -0.5t-15 -0.5q0 -1 4.5 -2t10 -1.5t10.5 -1t6 -0.5q7 0 13.5 0.5t13.5 0.5q5 0 9 -0.5t8 0.5zM215 420q-7 3 -23.5 4t-24.5 1q-7 0 -11 -4
q3 -3 5 -3h6h9.5h15.5t15 0.5t8 1.5zM631 564q-2 -1 -5 -7t-6 -14t-5 -15t-2 -9t0.5 -3t0.5 -2q1 1 4 7.5t6 15t5 16.5t2 11zM102 243q0 2 -3 5.5t-6 3.5q-2 0 -3.5 -3t-1.5 -5q0 -5 6 -11q2 2 5 4.5t3 5.5zM296 471q0 5 -8 5q-5 0 -8 -4q2 -2 4 -4.5t6 -2.5h5q1 2 1 6z
M713 235q0 5 -8 5q-5 0 -8 -3q4 -8 9 -8h2q3 0 4 1q0 1 0.5 2t0.5 3zM714 665q0 5 -8 5q-5 0 -8 -3q4 -8 9 -8h2q3 0 4 1q0 1 0.5 2t0.5 3zM807 448q0 4 -3 5t-6 1q-7 0 -12 -5q4 -3 10 -3q2 0 5 0.5t5 0.5zM233 59q0 3 -5 6l-2 -1l-2 -4t-1 -4t2 -4l5 2.5t3 4.5z" />
    <glyph glyph-name="dollar" unicode="$" horiz-adv-x="641" 
d="M581 220q0 -18 -4 -39t-11.5 -41t-17.5 -39t-23 -32q-8 -8 -16.5 -16t-16.5 -16q-9 -8 -21 -14t-25.5 -11t-27 -8.5t-24.5 -5.5q-8 -1 -8 -9v-16t-1.5 -19.5t-6.5 -16.5t-15 -7h-17.5t-21.5 1t-21 2.5t-16 4.5q-10 5 -10 19t-1 23q-1 7 -2 9t-8 3q-28 6 -56.5 15
t-53.5 23t-45.5 34.5t-32.5 49.5q-7 15 -10 31.5t-6 33.5q-1 5 -1 16t1 23t14 17q19 7 36 7h40q7 1 13.5 1.5t14.5 0.5q13 0 25 -6q11 -6 11 -21q0 -11 1.5 -23t5.5 -23t10.5 -20.5t16.5 -15.5q3 -2 6.5 -3t6.5 -2q2 26 1.5 52.5t-0.5 53.5q0 13 -1 26l-2 26q-19 4 -35.5 7
t-33.5 12q-10 5 -21 8t-19 10q-26 20 -43 37.5t-28 50.5q-5 19 -8.5 38.5t-3.5 39.5q0 29 7 55t24 52q2 3 4 6.5t5 7.5q16 22 44.5 36t52.5 26q11 6 21 9.5t22 5.5q4 2 4.5 4l1.5 6q1 8 1.5 15t2.5 14q2 11 9 16.5t16 8t19 3t19 0.5h16t17 -1.5t13.5 -6t7.5 -13.5l5 -34
q0 -6 8 -7q11 -3 23 -5t23 -5q2 0 6 -2q18 -11 38 -16.5t37 -19.5q8 -7 15.5 -14t12.5 -17q4 -8 6.5 -15.5t6.5 -15.5q7 -19 7 -35q0 -10 1.5 -17t1.5 -14q0 -8 -4 -16.5t-10 -13.5q-4 -4 -17 -5.5t-19 -1.5q-7 0 -13.5 1t-13.5 1q-13 0 -25.5 -2.5t-24.5 -2.5
q-11 0 -21.5 7.5t-13.5 18.5q-4 14 -7 25t-21 15q-2 -14 -2 -28.5v-28.5v-51q0 -7 7 -9q22 -7 43.5 -13.5t42.5 -17.5l25 -11q25 -11 42 -28.5t27.5 -39.5t14.5 -47t4 -50zM444 207q0 12 -6 21t-15 15.5t-20 10.5t-21 7q-2 -10 -1.5 -19.5t-0.5 -19.5q0 -19 -1.5 -37.5
t-1.5 -37.5q0 -4 0.5 -7t1.5 -7h5q13 0 24 7.5t19 18.5t12.5 24t4.5 24zM272 454q0 12 -1 23.5t-2 23.5h1l-2 46q-1 3 -1.5 6t-5.5 3t-7 -1q-17 -7 -31 -16t-14 -31q0 -10 5 -21t13.5 -20t18.5 -14.5t21 -5.5q5 0 5 7zM484 345q-3 4 -7.5 8.5t-9.5 6.5q-2 1 -10.5 3.5
t-17.5 5.5t-17 5t-9 2q-2 0 -4 -2q3 -2 13.5 -7t23 -10t22.5 -9.5t11 -4.5q4 0 5 1v1zM320 549q0 10 -0.5 19.5t-1.5 19.5h-2q0 -8 -1 -14.5t-1 -14.5q0 -9 0.5 -18t0.5 -18v-10v-15t1 -14t3 -7q0 14 0.5 26.5t0.5 25.5v20zM228 328q0 5 -7 7q-21 6 -42 16l-7 2
q0 -1 -0.5 -1.5t-0.5 -2.5q0 -3 7.5 -7t17 -7.5t18 -6.5t11.5 -3l3 2v1zM341 218q0 2 -1 7t-3 5t-2.5 -12t-0.5 -15v-11q0 -11 1 -21t3 -20q2 11 2 22t1 22v23zM136 487q0 6 -5 9q-1 -1 -2 -6.5t-2 -11.5t-1.5 -12t-0.5 -8q0 -4 1 -6l6 4q2 7 3 15.5t1 15.5zM524 232
q0 7 -8 7v-9q0 -3 1 -6t1 -7q0 -7 -4 -14.5t-4 -9.5q0 -1 0.5 -1t0.5 -1q8 5 10.5 18.5t2.5 22.5zM461 613q-2 1 -6.5 3.5t-9.5 5.5t-9.5 5t-5.5 2q-3 0 -3 -1q1 -8 13 -12.5t18 -7.5zM478 70q-11 -2 -20 -6t-16 -13h4q8 0 17.5 7t14.5 12zM294 702q0 10 -4 18l-3 -5l-1 -6
v-6q0 -11 3 -20q5 3 5 6v8v5zM490 511q-8 5 -20 5q-14 0 -23 -5q5 -1 9.5 -1.5t9.5 -0.5h6h9t9 2zM329 355q0 3 -2.5 6t-5.5 3h-8q0 -5 1 -10.5t7 -5.5q8 0 8 7zM352 -42l-7 3.5t-7 1.5q-5 0 -11 -2t-10 -4q5 -1 9 -1.5t9 -0.5q4 0 8.5 0.5t8.5 2.5zM106 144q0 3 -3.5 10.5
t-4.5 14.5q0 4 -3 4q-2 -4 -2 -8q0 -5 4 -13.5t9 -10.5v3zM320 50q0 2 -2.5 4t-4.5 4l-4 -2t-2 -3t1.5 -6t3.5 -4t5 2.5t3 4.5zM228 123q0 3 -3.5 6.5t-6.5 3.5q-4 0 -4 -5q0 -2 4 -5t6 -3t3 1t1 2zM207 608q0 4 -4 4q-2 0 -3 -2.5t-2 -4.5l3 -1q6 0 6 4z" />
    <glyph glyph-name="percent" unicode="%" horiz-adv-x="1062" 
d="M457 539q0 -34 -10 -64l-6 -20q-2 -13 -7.5 -23t-13.5 -20q-20 -25 -46 -44t-59 -24q-12 -2 -25.5 -3.5t-25.5 -1.5h-4v-1l-46 8l-26 10q-14 5 -26.5 8t-25.5 13q-13 9 -23.5 20.5t-20.5 23.5q-17 21 -24.5 48t-7.5 53q0 40 18.5 79t53.5 60q12 8 22 14t24 9q20 4 41.5 9
t41.5 5q38 0 77.5 -13.5t70.5 -36.5q7 -5 11 -11t9 -12q17 -21 22.5 -40t5.5 -46zM1002 190q0 -18 -1 -30.5t-3.5 -23t-6.5 -22t-11 -28.5q-5 -11 -11.5 -18.5t-15.5 -15.5q-14 -12 -23.5 -20.5t-26.5 -17.5q-20 -11 -36.5 -17t-38.5 -6q-43 0 -90 15t-80 42
q-26 22 -34.5 56t-8.5 66q0 34 10 65t34 56q8 9 16 13.5t18 12.5q17 13 35 19t38 8q14 2 29 3t29 1q30 0 62 -8.5t58 -25.5q11 -7 19.5 -16.5t16.5 -19.5q4 -6 8 -17.5t7 -24.5t5 -25.5t2 -20.5zM801 685q0 -5 -2 -9.5t-4 -8.5q-16 -27 -33.5 -53.5t-34.5 -53.5
q-18 -29 -35.5 -59t-34.5 -59q-28 -48 -54.5 -94.5t-53.5 -94.5q-11 -20 -21 -40t-22 -39q-23 -37 -45 -73t-44 -73q-6 -10 -13 -18t-21 -8h-79q-8 0 -16 2t-8 12q0 4 5.5 16t13 25.5t14.5 25.5t10 17t5.5 10t4.5 10q14 28 30 55.5t30 55.5q6 13 13 22q7 8 12.5 17.5
t10.5 18.5q23 35 44 71.5t43 71.5q9 15 18.5 29t18.5 28q7 11 12 23.5t12 23.5q8 14 16 27l16 26q2 3 4.5 6t4.5 6q14 20 26 41.5t25 41.5q9 14 25.5 14.5t30.5 0.5q16 0 32 -0.5t31 -3.5q5 -1 9 -3t4 -7zM307 533q0 11 -6 22.5t-15.5 21t-21 15.5t-22.5 6q-13 0 -22 -8
t-14.5 -19.5t-8 -24.5t-2.5 -23q0 -23 16 -43t40 -20q31 0 43.5 23t12.5 50zM851 178q0 26 -18.5 45t-44.5 19q-11 0 -18 -8t-11 -19t-5.5 -23t-1.5 -20q0 -26 11.5 -47t40.5 -21q22 0 34 20t13 40v14zM896 64h-2q-4 0 -7 -3t-7 -6.5l-8 -7t-10 -4.5q-3 0 -9 -0.5t-12 -1.5
t-10.5 -2t-4.5 -2t3 -4l3 -1q6 0 16.5 2.5t21 6.5t18.5 10t8 13zM329 406q0 3 -3 3q-4 0 -7.5 -1t-8.5 -2q-11 -2 -21.5 -2.5t-21.5 -1.5l-7 -2v-1q5 -2 9 -3.5t10 -1.5q2 0 9 1t14.5 2.5t14.5 3t9 2.5zM263 648q-1 3 -4 4h-5q-5 0 -10 -1t-10 -1q-9 0 -22 -8t-18 -16h4
q11 5 21.5 12t21.5 7q3 -1 11.5 -0.5t10.5 2.5v1zM500 330q0 1 -0.5 1.5t-0.5 1.5q-2 -1 -7 -8.5t-10.5 -16.5t-10 -17t-4.5 -10t1.5 -2.5t2.5 -1.5q1 3 6 10.5t10 16.5t9 16.5t4 9.5zM871 301q0 5 -11.5 8.5t-16.5 3.5h-26q1 0 2 -1l2 -2q5 -2 14 -4.5t15 -2.5h10t11 -2z
M671 130q0 7 -1.5 14t-1.5 15v5q0 4 -1 5v1q-1 -1 -2 -1q0 -3 -0.5 -6t-0.5 -6q0 -5 -1.5 -8t-1.5 -8q0 -3 2.5 -10.5t4.5 -9.5q3 4 3 9zM630 552q-1 0 -4 -3.5t-6 -7.5t-5.5 -8.5t-2.5 -5.5q-2 -8 -6.5 -16t-5.5 -16q2 1 7 10t10 18.5t9 18t4 10.5zM121 585q0 3 -1 6.5
t-5 5.5q-2 -1 -4.5 -8t-2.5 -10q0 -6 7 -8q5 2 5.5 6t0.5 8zM442 168v3q-6 -7 -12 -13t-9 -14h1q7 0 13.5 8.5t6.5 15.5zM751 648q0 2 -1.5 3.5l-2.5 2.5q-3 -3 -5.5 -6.5t-2.5 -8.5q0 -2 2 -4l1 -1q3 0 6 6t3 8zM150 437q-2 2 -4.5 6t-5.5 4h-2l-2 -4q0 -4 3.5 -7.5
t7.5 -3.5q3 0 3 5zM328 41q0 1 -1 2l-3 1q-3 0 -6.5 -3t-3.5 -7t5 -4q2 0 5.5 4t3.5 7zM403 548q0 4 -3 5.5t-6 1.5q-5 0 -5 -4q0 -7 10 -9q1 2 2.5 3t1.5 3zM939 164q0 4 -4 6.5t-7 2.5q-2 0 -4 -5q-1 -3 4 -5t7 -2q4 0 4 3zM595 401q0 5 -3 5q-4 0 -5.5 -4t-1.5 -7
q0 -4 4 -4t5 3.5t1 6.5zM700 275q0 4 -3 6q-2 -1 -4.5 -3t-2.5 -4q0 -6 6 -7q4 6 4 8z" />
    <glyph glyph-name="ampersand" unicode="&#x26;" horiz-adv-x="694" 
d="M644 55q0 -4 -1.5 -6.5t-1.5 -5.5q0 -9 -0.5 -14t-10.5 -9q-6 -2 -18 -3.5t-25 -3t-25.5 -2t-19.5 -0.5q-19 0 -34 6.5t-26.5 15t-18.5 15t-9 6.5q-4 0 -7 -2t-7 -4q-9 -6 -18.5 -12t-20.5 -11q-5 -2 -5 -3q-23 -14 -56 -21t-59 -7q-9 0 -23.5 1.5t-29 4.5t-28 7t-21.5 9
q-11 7 -26 12q-12 5 -22 11.5t-19 15.5t-17.5 19.5t-16.5 21.5q-9 14 -9 26q-2 14 -3.5 27.5t-4.5 27.5q-1 3 -1 6.5v6.5q0 9 1.5 17.5t1.5 17.5q1 30 7.5 51.5t17.5 40t26 35t35 35.5q5 5 5 7t-1 3.5t-2 3.5q-8 13 -14 25.5t-10 26.5q-5 17 -10.5 31.5t-5.5 32.5
q0 9 1.5 18.5t1.5 18.5q0 18 6.5 34.5t17.5 30.5q17 23 35.5 42t47.5 27h1q22 11 46.5 15.5t49.5 4.5q32 0 64 -12.5t57 -34.5t40.5 -51.5t15.5 -63.5q0 -7 -1 -14t-3 -14q-4 -13 -7 -25.5t-8 -24.5q-3 -8 -13.5 -21t-23 -26.5t-25.5 -25t-20 -15.5q-3 -2 -5.5 -4t-4.5 -4
q17 -23 33.5 -46t36.5 -43l16 23q9 14 20 29t30 15q6 0 19.5 -6.5t28.5 -14.5t28 -17t17 -13q6 -8 6 -16q0 -9 -8.5 -25t-13.5 -26q-2 -5 -9 -14.5t-14.5 -19.5t-13.5 -19t-6 -12t11 -17t25.5 -30t27.5 -31t18 -19q8 -8 8 -15zM359 171q-11 15 -22.5 28.5t-22.5 27.5
q-14 17 -27 31.5t-30 28.5q-22 -11 -34 -32.5t-12 -45.5q0 -11 3.5 -22.5t10.5 -21t16.5 -15.5t21.5 -6h25q6 0 17 2t21.5 5.5t20 8.5t12.5 11zM326 528q0 11 -6 25t-19 14q-11 0 -22.5 -3.5t-16.5 -13.5q0 -1 -2 -3q-7 -7 -7 -17q0 -14 2 -24t5.5 -19t9 -18t13.5 -20
q16 18 29.5 35.5t13.5 43.5zM365 236v3l-12.5 17.5t-16 20.5t-17 19t-15.5 14l-1 -1q8 -14 18.5 -28t22.5 -24q7 -5 11 -10.5t10 -10.5zM457 508v4t-2 1q-4 -19 -15.5 -37.5t-25.5 -30.5q-4 -3 -7 -7l-6 -8h1q10 0 17.5 12t14.5 16q5 2 8 6.5t5 9.5q4 8 7 16.5t3 17.5z
M507 172q-2 3 -7 9.5t-12 13.5t-13.5 13t-9.5 8q-2 -4 -2 -7q0 -2 6 -8l13 -13t13.5 -13t8.5 -7h2q2 0 1.5 0.5t-0.5 3.5zM289 71q-11 4 -24 6.5t-24 4.5q-2 0 -3 -1l2 -6q11 -5 23 -5h24q1 1 2 1zM224 428l-20 41l-3 -1q5 -11 7.5 -22.5t12.5 -19.5zM170 290h-3
q-7 1 -10 -5t-5 -11q2 -1 7 -1t7 6.5t4 10.5zM172 620q-4 -2 -9 -7.5t-5 -10.5q0 -3 2 -9q5 6 8.5 12.5t3.5 14.5zM378 555q-2 10 -7.5 17.5t-16.5 8.5zM314 658q-5 4 -14 4q-4 0 -7 -0.5t-7 -1.5q5 -2 9 -4t9 -2q4 0 10 4zM434 81q-7 -2 -12.5 -6.5t-10.5 -8.5q1 -1 5 -1
q16 0 18 16zM528 308q0 6 -3 6q-4 0 -5.5 -4.5t-1.5 -6.5q0 -5 3 -5h2q3 0 4 4t1 6zM119 127q0 2 -2 5.5t-4 3.5h-2v-12l3 -3h1q4 2 4 6zM613 44q0 2 -2 5t-4 3h-1l-1 -3q0 -2 1.5 -5t3.5 -3q3 0 3 3z" />
    <glyph glyph-name="quotesingle" unicode="'" horiz-adv-x="287" 
d="M226 659q0 -31 -3.5 -62t-5.5 -62q-2 -15 -2 -30.5t-1 -31.5q-1 -17 -9.5 -19t-22.5 -2h-87q-6 0 -8.5 1.5t-4.5 7.5l-5 30l-12 100q-2 14 -3.5 28.5t-1.5 28.5q0 5 1 10.5t3 10.5q2 8 4 9.5t10 2.5l35 2q17 2 34.5 4t35.5 2q8 0 16 -0.5t16 -1.5q9 -2 10 -11t1 -17z
M191 576v13.5t-1 14.5q-7 -1 -7 -8q-2 -23 -3.5 -46t-1.5 -46q0 -5 1 -7l5 -1q2 20 4.5 40t2.5 40zM106 513q0 2 -0.5 4.5t-0.5 4.5q-4 -2 -7 -3t-3 -6q0 -6 1.5 -12.5t2.5 -13.5q7 14 7 26z" />
    <glyph glyph-name="parenleft" unicode="(" horiz-adv-x="379" 
d="M339 -6q0 -10 -11.5 -22.5t-27.5 -23.5t-32 -18.5t-26 -7.5q-5 0 -10.5 4.5t-11 11t-10.5 13t-8 10.5q-15 18 -32.5 43.5t-34 54t-30 56t-19.5 50.5q-6 20 -10.5 41.5t-9.5 42.5q-3 11 -4.5 27t-1.5 27q0 17 0.5 41.5t2.5 40.5q6 42 18 86t30.5 86t43 80t54.5 70
q8 9 18.5 19.5t24.5 10.5t34.5 -11.5t31.5 -19.5q8 -5 11.5 -13.5t5.5 -17.5q-5 -13 -13 -24l-16 -22q-22 -29 -39 -65q-7 -14 -15 -28.5t-13 -30.5q-14 -42 -20.5 -83t-6.5 -85q0 -42 12 -87.5t23 -84.5q7 -21 16 -41t21 -39q4 -6 13 -19t18.5 -27t16.5 -26.5t7 -18.5z
M264 678q0 6 -5 6q-6 0 -10 -7t-3 -12v-2h1q6 -1 11.5 3.5t5.5 11.5zM133 469q-2 0 -3 0.5t-2 0.5q-6 0 -6 -8q0 -4 3 -5.5t6 -1.5zM182 144q-6 20 -14 45t-19 43l-2 -1q0 -2 1 -8.5t2.5 -14t3 -14t2.5 -7.5q1 -2 5 -9.5l8 -15t7.5 -13.5t5.5 -5zM301 -7q0 5 -3 9.5t-8 4.5
q-4 0 -4 -2q0 -4 5.5 -11.5t8.5 -9.5q1 3 1 9z" />
    <glyph glyph-name="parenright" unicode=")" horiz-adv-x="379" 
d="M115 678q0 -7 5.5 -11.5t11.5 -3.5h1v2q1 5 -3 12t-10 7q-5 0 -5 -6zM248 455q3 0 6 1.5t3 5.5q0 8 -6 8q-1 0 -2 -0.5t-3 -0.5zM197 144q2 -1 5.5 5t7.5 13.5t7.5 15t5.5 9.5q1 1 2.5 7.5t3 14t2.5 14t1 8.5l-2 1q-11 -18 -19 -43t-14 -45zM78 -7q0 -6 1 -9q3 2 8.5 9.5
t5.5 11.5q0 2 -4 2q-5 0 -8 -4.5t-3 -9.5zM40 -6q0 6 7 18.5t16.5 26.5t18.5 27t13 19q12 19 21 39t16 41q11 39 23 84.5t12 87.5q0 44 -6.5 85t-20.5 83q-5 16 -13 30.5t-15 28.5q-17 36 -39 65l-16 22t-13 24q2 9 5.5 17.5t11.5 13.5q11 8 31.5 19.5t34.5 11.5t24.5 -10.5
t18.5 -19.5q30 -32 54.5 -70t43 -80t30.5 -86t18 -86q2 -16 2.5 -40.5t0.5 -41.5q0 -11 -1.5 -27t-4.5 -27q-5 -21 -9.5 -42.5t-10.5 -41.5q-6 -23 -19.5 -50.5t-30 -56t-34 -54t-32.5 -43.5q-3 -4 -8 -10.5t-10.5 -13t-11 -11t-10.5 -4.5q-10 0 -26.5 7.5t-32 18.5
t-27 23.5t-11.5 22.5z" />
    <glyph glyph-name="asterisk" unicode="*" horiz-adv-x="454" 
d="M394 529q0 -4 -4.5 -13.5t-11 -20t-12.5 -20t-9 -13.5q-2 -4 -6 -8t-9 -4t-13.5 4.5t-17.5 9.5t-17.5 10t-14.5 6q-3 -8 -3 -15q0 -5 0.5 -14.5t0 -18.5t-4 -16t-10.5 -7q-10 0 -19.5 0.5t-18.5 0.5q-5 0 -9 -0.5t-8 -0.5h-10t-10 1q-11 1 -12 12q-1 9 -1 18.5v18.5
q0 5 0.5 9t-3.5 8q-5 -3 -14.5 -8.5t-20 -11.5t-20 -10t-14.5 -4q-4 0 -6 3l-4 6q-3 4 -8 15t-10.5 23.5t-9.5 24t-4 15.5q0 5 8.5 10.5t19.5 11.5t22 11.5t16 10.5l-53 28q-5 2 -8.5 5t-3.5 9q0 5 4.5 15.5t10 22.5t11.5 23t9 16q2 2 4 4.5t6 2.5q3 0 11.5 -5t18 -11
l19 -12t15.5 -8v8q0 12 -1 24.5t-1 24.5t9.5 15t18.5 3q7 0 13 -0.5t13 -0.5q8 0 15 0.5t15 0.5q15 0 18 -13q4 -11 4 -30v-32q4 2 13.5 7t19 10.5t18 10t10.5 4.5q3 0 11.5 -11t16.5 -25t14.5 -27t6.5 -17q0 -8 -9 -13q-11 -7 -23 -12.5t-23 -12.5q5 -3 16 -8.5t22 -12
t19 -14t8 -13.5zM235 585q0 7 -1 12.5t-3 12.5l-2 -1q-1 -16 -1 -32t-3 -32q-1 -1 -1 -4q0 -8 5 -15q6 28 6 59zM327 505q-5 4 -15.5 10.5t-15.5 6.5q-4 0 -5 -1q3 -2 10 -8.5t11 -6.5q2 0 2.5 1t1.5 1q2 0 4 -2t4 -2q1 0 1.5 0.5t1.5 0.5zM172 618q-2 2 -10 8t-11 6
q-2 0 -4 -2q2 -8 8.5 -10t13.5 -4zM208 690q0 9 -1 14q-4 -1 -4 -4v-6v-4q0 -7 2 -17l1 -2q2 2 2 7.5v7.5v4zM334 662q0 2 -3 3.5l-5 2.5q-2 -2 -3.5 -4t-1.5 -4t3.5 -3.5t5.5 -2.5q1 2 2.5 4t1.5 4zM202 433q0 2 -2 5t-4 3q-5 0 -5 -6q0 -5 6 -5q5 0 5 3zM128 507q0 1 -2 3
q-8 -4 -12 -9q1 0 1.5 -0.5t1.5 -0.5q7 0 11 7z" />
    <glyph glyph-name="plus" unicode="+" horiz-adv-x="546" 
d="M495 351v-17.5v-24t-1 -23.5t-2 -14q-3 -9 -6 -10.5t-12 -2.5q-9 0 -18 -0.5t-18 -0.5q-19 0 -37.5 1t-37.5 1h-17l-1 -17q0 -28 2 -56t2 -56q0 -22 -20 -23q-19 -2 -37.5 -2.5t-37.5 -0.5q-8 0 -19 1t-18 4q-16 7 -17 23q-1 28 -0.5 55.5t-1.5 55.5q0 6 -1.5 9t-8.5 3
q-11 0 -21.5 -2t-20.5 -2q-14 -1 -26.5 -1.5t-26.5 -0.5t-26 3.5t-14 20.5q-2 16 -2 31.5v30.5q0 10 -0.5 20t1.5 20q1 10 4.5 13t13.5 3q21 1 42.5 1h43.5q13 0 22 0.5t13.5 4.5t6.5 11.5t2 22.5q0 17 -1.5 32.5t-1.5 31.5q0 17 4 30q4 12 8.5 18t18.5 6h59h20.5t20.5 -1
t15 -6t5 -15q1 -17 1 -32.5v-31.5t-1 -33t3 -32q11 -2 23 -3t24 -1q19 0 37.5 0.5t36.5 -1.5q11 -2 16 -6.5t6 -15.5q1 -5 1 -10.5v-10.5zM258 275v17.5v26.5t-0.5 25.5t-1.5 14.5q-3 -3 -3.5 -6t-1.5 -6q0 -19 -1.5 -37.5t-1.5 -37.5q0 -7 6 -7q2 0 3 4t1 6zM315 503
q0 8 -3 16q-5 -3 -6 -10.5t-1 -12.5q0 -20 2 -40.5t2 -40.5v-3q1 1 2.5 13.5t2 28.5t1 30.5t0.5 18.5zM445 323q-11 4 -27.5 5t-27.5 1h-8.5t-9.5 -2l2 -6q10 0 19 -0.5t18 -0.5h16q4 0 9.5 0.5t8.5 2.5zM108 323q-2 4 -3.5 11.5t-6.5 7.5q-9 0 -9 -10q0 -5 3 -8zM308 153
q0 2 -1.5 4.5t-3.5 4.5q-2 -2 -4.5 -5t-2.5 -7q0 -3 4 -7q2 2 5 4.5t3 5.5z" />
    <glyph glyph-name="comma" unicode="," horiz-adv-x="290" 
d="M250 102q0 -4 -5 -19.5t-11 -33.5t-12 -35t-8 -23q-8 -25 -14.5 -49.5t-14.5 -48.5q-7 -20 -26 -20q-25 0 -49 1t-49 1q-8 0 -14.5 1t-6.5 12q0 3 3.5 15t8.5 26.5t9 28t6 18.5q3 11 5.5 21t4.5 21q5 21 12 41.5t12 41.5q4 13 14.5 14.5t21.5 1.5t22.5 -1t23.5 -2
q14 -1 27.5 -0.5t27.5 -1.5q5 -1 8.5 -3t3.5 -7zM178 -5q0 4 -5 4q-4 0 -7 -6t-5 -9l2 -4t3 -2q4 0 8 6.5t4 10.5zM84 -92q-1 2 -1.5 3.5t-2.5 1.5q-4 0 -7.5 -2.5t-3.5 -6.5q0 -8 6 -8q5 0 6 4.5t3 7.5zM126 87l-1 2h-4q-5 -5 -6 -11.5t-2 -12.5l5 2z" />
    <glyph glyph-name="hyphen" unicode="-" horiz-adv-x="490" 
d="M440 312q0 -9 -3 -21.5t-14 -13.5l-24 -2t-24 -1q-20 0 -41 1t-42 1q-54 0 -108.5 -0.5t-108.5 -0.5q-9 0 -17 4.5t-8 15.5q0 15 1 30.5t2 30.5q2 19 14.5 22.5t26.5 3.5q8 0 15.5 -0.5t15.5 -0.5q15 0 30 0.5t30 0.5q7 0 13.5 -0.5t13.5 -0.5q29 0 58.5 1.5t58.5 1.5
q10 0 19 -1.5t17 -1.5q5 0 10.5 1t10.5 1q16 0 31 -3q8 -1 10.5 -3t4.5 -10q2 -14 5 -27.5t3 -27.5zM355 348l-1 2q-3 1 -9 1h-41h-15.5t-24.5 -0.5t-23.5 -1.5t-12.5 -2l2 -3q3 0 6 -0.5t6 -0.5h57t56 5zM133 310q-4 2 -7 2q-5 0 -11 -4q6 -4 9 -4q5 0 9 6z" />
    <glyph glyph-name="period" unicode="." horiz-adv-x="242" 
d="M202 67q0 -7 -4 -14q-2 -2 -2.5 -5t-2.5 -6q-11 -21 -26.5 -33t-40.5 -12q-7 0 -13 1.5t-13 3.5q-32 11 -46 30.5t-14 52.5q0 20 13.5 37.5t29.5 27.5q6 4 12.5 4.5t13.5 0.5q13 0 19 -3t17 -6q23 -7 40 -31.5t17 -47.5zM158 71q0 6 -5 6q-4 0 -4 -4v-1q0 -7 4 -7
q5 0 5 6zM91 82q0 3 -0.5 5.5t-1.5 5.5q-6 -4 -6.5 -8.5t-0.5 -12.5v-10q9 7 9 20z" />
    <glyph glyph-name="slash" unicode="/" horiz-adv-x="493" 
d="M463 682q0 -7 -6 -23t-9 -23q-8 -17 -17.5 -33.5t-16.5 -33.5q-6 -15 -12.5 -30t-13.5 -30l-60 -142q-14 -34 -26.5 -68t-28.5 -66q-11 -23 -21.5 -46t-19.5 -47q-3 -8 -6 -17t-7 -17q-2 -5 -4.5 -9t-4.5 -9q-8 -18 -14.5 -35t-18.5 -33q-18 -24 -50 -24q-19 0 -41 7
t-39 12q-11 3 -14 7t-3 15q0 15 8 29q14 27 24 55.5t22 55.5q9 20 17 39t16 39l25 54q14 31 27 62t29 61q13 25 23.5 50t24.5 50q8 14 16 34q13 28 25.5 55.5t26.5 54.5q7 14 15 24t26 10q7 0 25 -0.5t36.5 -3t32.5 -8t14 -16.5zM360 513q-3 -3 -7.5 -9.5t-8.5 -14t-7.5 -15
t-5.5 -11.5h10q3 13 10 24.5t9 25.5zM136 190q-9 -13 -16.5 -26.5t-10.5 -28.5q11 11 17.5 26t11.5 30zM246 292q-6 -12 -12 -23.5t-11 -23.5q2 1 6 2t5 3q5 4 8 19.5t4 22.5zM72 61h-4q-8 0 -8 -8q0 -5 4 -9q9 6 8 14v3zM356 661q-3 -2 -3.5 -5t-0.5 -6v-1q1 -2 4 -2
q5 0 7 3.5t3 7.5zM238 401v-4q0 -5 4 -9q6 4 6 14z" />
    <glyph glyph-name="zero" unicode="0" horiz-adv-x="597" 
d="M537 324q0 -16 -1.5 -31t-1.5 -31q0 -8 -2 -19.5t-4.5 -24t-5.5 -24t-5 -19.5q-2 -7 -4.5 -13t-4.5 -12q-4 -15 -8.5 -25.5t-12.5 -23.5q-8 -14 -11 -22t-17 -19q-6 -5 -11 -10.5t-12 -10.5q-21 -15 -47 -30q-7 -4 -19 -7t-25.5 -5.5t-26.5 -5t-21 -3.5q-5 -1 -14 -1
q-3 0 -9.5 1.5t-13.5 3t-13 3.5t-8 4q-7 5 -12.5 8t-13.5 5q-23 8 -44 29t-38 47t-29 53.5t-16 50.5q-10 48 -18 94.5t-8 95.5q0 45 6.5 90.5t21.5 87.5q2 7 6 12.5t8 11.5q10 14 20 28.5t23 25.5q16 14 34 29.5t38 22.5q16 6 33 8t34 2q52 0 98 -25q6 -5 12 -6
q21 -8 35.5 -19.5t28.5 -27.5q24 -26 39 -63t24 -78t12.5 -82t3.5 -75zM372 416v4q-1 17 -3 36.5t-7 38t-16 33t-30 20.5q-8 3 -14 3q-10 0 -20.5 -6t-19.5 -15t-15 -19.5t-8 -19.5q-8 -41 -13 -82t-5 -83q0 -12 1 -28.5t3.5 -33.5t6 -33t9.5 -26q5 -9 10.5 -20t12.5 -20.5
t16.5 -16t21.5 -6.5q9 0 16 4q13 6 20.5 16.5t12 23t6.5 26t4 26.5q2 10 3.5 19.5t1.5 20.5q0 4 -0.5 8t-0.5 8q0 18 3 35.5t3 35.5q0 7 -0.5 13.5t-0.5 13.5q0 6 1.5 12t0.5 12zM152 275q0 17 -2.5 34.5t-2.5 34.5v6.5t1 6.5q0 1 -0.5 1.5t-0.5 1.5q-9 -3 -9 -12
q0 -7 0.5 -21.5t2 -30.5t4 -30t5.5 -19q0 2 1 2q0 7 0.5 13t0.5 13zM263 69q-5 6 -15 7t-18 6q-3 2 -9.5 6t-13.5 8t-13 7.5t-9 3.5q4 -7 18 -17t21 -18q8 -8 18 -8q5 0 10.5 1.5t10.5 3.5zM432 534q0 9 -10.5 24t-17.5 21l-11 -8q4 -3 8.5 -5.5t7.5 -5.5q4 -6 9.5 -16
t12.5 -12l1 1v1zM277 630h-3q-9 0 -25 -4.5t-19 -14.5q1 -1 3 -2.5t4 -1.5q3 0 9 2.5t12.5 6.5t11.5 7.5t7 6.5zM482 333q0 3 -2 9q-5 0 -7.5 -6t-2.5 -11q0 -2 2 -8h2q5 0 6.5 6t1.5 10zM133 512q0 3 -1 4h-2q-5 0 -8 -7t-3 -12v-3q1 -1 4 -1q4 0 7 7.5t3 11.5zM427 141v6
q-5 -2 -10 -8t-5 -11v-1l3 -2q6 0 9 5.5t3 10.5z" />
    <glyph glyph-name="one" unicode="1" horiz-adv-x="389" 
d="M319 81q0 -15 -0.5 -34t-4.5 -33q-1 -8 -11 -11q-6 -2 -19.5 -3t-29.5 -2t-30.5 -1.5t-21.5 -0.5t-16 2.5t-17 7t-13.5 11t-5.5 15.5q0 22 2.5 43.5t2.5 44.5q0 8 -2 16t-2 16t0.5 15.5t0.5 15.5q0 16 -1.5 31t-1.5 31q0 22 3 43.5t3 43.5q0 5 -0.5 10.5t-0.5 10.5
q0 8 1.5 15t1.5 15q0 11 -1.5 21t-1.5 21q0 12 1 23.5t2 23.5l-13 -5q-9 -4 -20 -10.5t-22 -6.5t-18 5t-10.5 13t-5.5 17.5t-3 17.5q-1 9 -3 18.5t-2 18.5q0 14 7 24t18 18q12 9 23.5 19.5t22.5 20.5q18 17 36 33t37 30q21 15 45 15q25 0 42.5 -10.5t19.5 -37.5q3 -30 4 -60
t1 -60q0 -41 -1.5 -81.5t-1.5 -81.5q0 -72 3 -144t3 -144zM244 309q0 26 -1 53t-1 53v5t-2 4q-2 -4 -1.5 -10t-4.5 -11q-2 -15 -1 -32.5t1 -33.5q0 -10 1.5 -20.5t3.5 -20.5l1 -1q3 5 3.5 7t0.5 7zM212 216h-10q0 -8 -1 -15.5t-1 -15.5q0 -11 5 -20q3 12 5 24.5t2 24.5v2z
M182 592l-5 11q-8 -8 -17 -16t-11 -19h3zM258 550v10q0 2 -1.5 5.5t-2.5 5.5q-10 -5 -10 -14q0 -2 0.5 -2.5t0.5 -2.5zM260 47q0 7 -6 10q-5 -2 -5 -11v-3q0 -7 6 -7q4 0 4.5 4t0.5 7z" />
    <glyph glyph-name="two" unicode="2" horiz-adv-x="561" 
d="M501 532q0 -19 -2.5 -34t-5.5 -28.5t-6.5 -27.5t-5.5 -31q0 -3 -2 -7q-5 -8 -10.5 -16.5t-10.5 -16.5q-11 -19 -22 -37t-21 -38q-10 -18 -28 -33q-11 -9 -18.5 -21t-16.5 -23q-14 -18 -29 -35t-28 -37l2 -2q7 -1 13.5 -1.5t13.5 -0.5q20 0 40.5 2t40.5 2q14 0 27 -1
t27 -3q10 -1 16 -7.5t9 -15.5t3.5 -19t0.5 -18q0 -17 -1.5 -35t-3.5 -35q-3 -14 -18 -16q-5 0 -9.5 -0.5t-9.5 -0.5q-14 0 -28 3t-28 3q-15 0 -29.5 -2.5t-29.5 -2.5h-1q-27 3 -58 4.5t-59 1.5q-5 0 -8.5 -1t-8.5 -1q-4 0 -8 0.5t-9 0.5q-9 0 -18 -0.5t-19 -0.5
q-9 0 -21.5 -0.5t-24.5 1t-21.5 6.5t-13.5 17q-1 1 -1 4q0 8 1.5 16.5t3.5 15.5q-2 8 -2 13q0 17 3.5 32.5t14.5 28.5q5 5 9 10t7 11q8 15 22 27t26 24q24 24 45 50.5t41 53.5t44 58.5t38 60.5q11 7 12 17q8 9 8 20q7 10 7 23q0 15 -6.5 25t-16.5 15.5t-22.5 7.5t-25.5 2
q-7 0 -14 -5q-14 -3 -27.5 -7t-25.5 -12q-7 -4 -13.5 -7.5t-12.5 -8.5t-15.5 -14t-20 -18.5t-20.5 -16.5t-16 -7t-14.5 5t-10.5 12q-3 18 -4.5 37.5t-1.5 37.5q0 17 2.5 37t9.5 35q2 3 6.5 11t8.5 10q10 5 18 11t17 13q11 9 23 13t23 11q17 11 32 11.5t33 5.5q3 1 10.5 2
t16 1.5t16.5 0.5h12q11 0 21 -0.5t20 -0.5q12 -1 23 -6.5t22 -9.5q16 -5 30 -11t28 -16q11 -9 19 -19t13 -24q2 -3 3 -5.5t3 -4.5q3 -5 6 -14.5t6 -19.5t4.5 -19.5t1.5 -15.5zM261 650q-3 1 -9 1q-7 0 -11 -3t-10 -5q-3 -1 -11 -4t-16 -7t-14 -8.5t-6 -7.5q1 -1 3 -1
t2.5 0.5t2.5 0.5q13 8 27 13.5t28 9.5q11 2 14 11zM380 385h-1q-3 -4 -10.5 -13t-16 -19.5t-15 -19.5t-7.5 -13l1 -1q7 3 14 11t13.5 18t12 20t9.5 17zM327 50q-6 5 -17 5q-3 0 -10.5 -0.5t-16 -1.5t-15.5 -2.5t-9 -2.5v-1q6 -2 10 -2h12.5t17.5 1t16.5 1.5t11.5 2.5z
M241 234q0 2 -1 3t-1 3q-2 -2 -6.5 -7.5t-10 -12.5t-9.5 -12.5t-4 -6.5q0 -5 5 -5q3 0 7.5 6t9 13t7.5 13zM354 621q-1 6 -5.5 8.5t-10.5 2.5q-8 0 -8 -7q0 -5 4.5 -8.5t9.5 -3.5q7 0 10 8zM114 41q0 4 -1 12.5t-5 10.5q-4 -2 -5 -10.5t-2 -13.5q3 -4 9 -4q4 0 4 5zM157 543
h-4q-5 0 -13.5 -7t-8.5 -12q0 -2 1 -3q7 2 15 8t10 14zM444 549q0 3 -5 3q-2 0 -3.5 -6t-1.5 -8q0 -8 4 -11q0 -2 3 -2q1 0 1 1t1 2q1 5 1 16v5zM434 31q0 2 -2 5t-5 3q-4 -1 -4 -5q0 -3 1 -6t5 -3l1 1v1l1 -1q3 0 3 5z" />
    <glyph glyph-name="three" unicode="3" horiz-adv-x="563" 
d="M503 184q0 -30 -12.5 -63t-35.5 -53q-7 -5 -12 -13.5t-10 -12.5q-38 -25 -73.5 -37.5t-80.5 -12.5q-16 0 -31.5 2.5t-31.5 3.5q-9 1 -26 4t-35.5 7.5t-35 9.5t-24.5 10q-4 2 -8 3t-8 3q-8 4 -13.5 12.5t-5.5 18.5q0 23 2.5 46.5t4.5 46.5q1 9 7 21t17 12q5 0 8 -2
q24 -10 44.5 -20t46.5 -17q12 -3 25.5 -2.5t26.5 0.5q11 0 19 0.5t15.5 2.5t14.5 5t17 8q17 8 20 17.5t9 14.5q6 4 6 10q0 5 -2 11.5t-4 11.5q-3 13 -14 20.5t-24.5 11.5t-28.5 4.5t-26 0.5t-20.5 -1.5t-20.5 -1.5q-5 0 -10.5 0.5t-10.5 0.5h-16t-16.5 1.5t-13.5 6t-7 14.5
q-2 20 -4 39.5t-2 39.5q0 24 7.5 43t36.5 19q4 0 7.5 -1t8.5 -1q2 0 4 0.5t4 0.5q15 4 37.5 5t44.5 5t37.5 14t15.5 33t-16 33.5t-36 10.5q-6 0 -11 2t-11 2h-28.5t-33 -2t-31.5 -6t-25 -13q-4 -3 -17 -10.5t-19 -10.5q-5 -3 -12 -3q-18 0 -27 14.5t-9 30.5q0 17 1 34.5
t1 34.5v26q2 14 12 20q42 26 92.5 36.5t98.5 10.5h15t15 -2q13 -2 26 -2t26 -2q15 -2 33 -8.5t35 -16t32 -21t24 -23.5q10 -11 11 -21t7 -21q4 -6 7.5 -20t3.5 -22q0 -5 -1.5 -10t-1.5 -10t1.5 -10t1.5 -10q0 -9 -2 -20t-5.5 -22t-9 -20.5t-12.5 -15.5q-4 -4 -5 -7
q-6 -11 -11.5 -18t-16.5 -14q-4 -2 -7 -5.5t-3 -8.5t9 -14.5t20 -20.5t21.5 -22.5t13.5 -19.5q11 -8 10 -17.5t3 -20.5q6 -16 7 -33t1 -34zM258 617l-3 3q-11 2 -22 2h-22t-23 -0.5t-20 -6.5v-2h8q11 0 20.5 1t19.5 1h36h3.5t2.5 2zM414 109q-2 -1 -7.5 -5.5t-11.5 -9.5
t-11.5 -10t-6.5 -6l4 -5q11 3 21 14t12 22zM424 606v5q-6 8 -14.5 13t-16.5 11q0 1 -2 1q-6 0 -6 -5h1q11 -5 17.5 -13.5t20.5 -11.5zM287 381q-6 1 -11.5 2.5t-10.5 1.5q-8 0 -15.5 -0.5t-15.5 -0.5l-1 -1q5 -4 12.5 -5t13.5 -1h8h9t9 1zM448 205q0 5 -1.5 10t-1.5 10v8h-9
q3 -10 4 -20t3 -20h2q3 6 3 12zM268 92q-12 5 -21 5q-5 0 -8.5 -1t-7.5 -3q7 -2 13.5 -4.5t13.5 -2.5q4 0 6 2zM176 326l-26 3v-15q8 2 14.5 3.5t11.5 8.5zM84 521q0 2 -4.5 10t-5.5 11q-4 -8 -4 -14v-2q0 -6 3 -10q2 1 5.5 2t5.5 3zM115 57q-8 -2 -13 -2t-8 3.5t-8 5.5v-14
q3 -1 8 -1t9 1t9 3zM377 314q0 6 -6 6q-7 0 -7 -8q0 -5 5 -5q8 0 8 7zM405 509q0 3 -0.5 5.5t-0.5 5.5q-7 -4 -7 -11q0 -3 2 -4q1 -1 2 -1q4 0 4 5z" />
    <glyph glyph-name="four" unicode="4" horiz-adv-x="567" 
d="M517 183q0 -15 -1 -30t-2 -29q0 -8 -5 -11.5t-13 -5.5l-32 -2q-9 -1 -11.5 -3.5t-2.5 -11.5q0 -5 0.5 -10t0.5 -10q0 -13 -1 -26t-3 -24q-3 -13 -18 -16q-5 -2 -11 -2.5t-12 -1.5q-15 -4 -33 -4q-12 0 -24 2.5t-25 2.5q-1 0 -2 -0.5t-2 -0.5q-10 -1 -20 10t-11 20v18
q0 9 1 19.5t-1 19.5q-1 11 -12 12h-34q-11 0 -21.5 1t-21.5 1q-34 0 -67 -1t-67 -1q-13 0 -14 13q-1 11 -1.5 23.5t-0.5 23.5v16t0.5 23t1 22.5t2.5 13.5l21 39q4 7 6.5 13.5t4.5 13.5q5 12 10 18q9 14 15.5 29t13.5 30q19 42 38 82t39 80q16 33 36 74.5t40 71.5q7 9 17 9
q14 2 27.5 3.5t26.5 1.5q7 0 13.5 -1t12.5 -1q10 0 19.5 1t18.5 1q18 0 22 -16q6 -27 5.5 -56.5t1.5 -57.5h-1q0 -10 -0.5 -19.5t0.5 -19.5t3.5 -19t2.5 -19q0 -7 -0.5 -13t-0.5 -13q0 -8 2.5 -16.5t2.5 -16.5t-1.5 -14.5t-1.5 -14.5q0 -11 1 -25.5t2.5 -30t3 -30.5t3.5 -25
q2 -8 14.5 -10t20.5 -4q19 -7 21 -29q1 -17 2 -33.5t1 -33.5zM293 267q0 11 -0.5 21t-0.5 21q-1 17 -0.5 34t-1.5 34l-3 1q-6 -10 -17.5 -27.5t-22.5 -36.5t-20 -36t-11 -26h20q12 0 24 1t23 3q7 1 8.5 2t1.5 9zM393 380q0 24 -0.5 50t-5.5 49q-5 -13 -5.5 -30t-0.5 -31
q0 -6 3 -16.5t3 -21.5q1 -8 1 -23.5t2 -23.5h1q1 7 1.5 14t0.5 14v19zM394 193q-5 2 -9 2.5t-8 0.5q-22 0 -43.5 -0.5t-42.5 -2.5q-8 -1 -16.5 -2t-16.5 -1q-3 0 -5.5 0.5t-5.5 -0.5q4 -1 16.5 -2t27 -1.5t27.5 -0.5h19q10 0 29.5 1.5t27.5 5.5zM240 400q0 2 -2 4
q-4 -1 -5 -4q0 -5 -2 -7.5t-4 -4.5q-3 -3 -8.5 -13t-11.5 -22t-10.5 -22.5t-5.5 -14.5q4 0 6 5q11 19 23 38.5t20 40.5zM337 51q0 12 -0.5 24t-0.5 24q0 2 -0.5 4t-2.5 2l-1 -1q-1 -15 -1.5 -30t-0.5 -30q0 -5 2 -9q4 3 4.5 7t0.5 9zM244 538l-1 1l-2 2q-2 0 -5.5 -5.5
t-7 -12.5t-6.5 -13.5t-3 -9.5l5 3q1 1 4.5 6.5l7 11t6 10.5t2.5 7zM94 135q0 5 -4 10.5t-5 12.5q-1 1 -1 2q-1 1 -1 2l-2 -3q-1 -3 -1 -9t1 -12t2 -11h2q3 -1 6 1.5t3 6.5zM326 612q-1 0 -2 -0.5t-2 -0.5l-12 -24q4 -2 5 -2q5 0 7.5 11.5t3.5 15.5zM473 141q0 4 -1 5l-3 1
q-4 0 -6 -3t-2 -5q0 -7 6 -7q3 0 4.5 3t1.5 6zM399 647q0 8 -8 8q-1 0 -3 -3t-2 -4q0 -3 3 -5t5 -2q5 0 5 6zM157 234l-1 3q-4 2 -7.5 1.5t-7.5 -0.5v-6q2 0 3.5 -1t3.5 -1t8 2z" />
    <glyph glyph-name="five" unicode="5" horiz-adv-x="589" 
d="M529 259q0 -9 -1 -18t-1 -18q0 -13 -3.5 -24.5t-6.5 -23.5q-8 -29 -21.5 -62.5t-33.5 -56.5q-2 -3 -9.5 -8t-16 -10.5t-16.5 -10.5t-12 -7q-5 -3 -14.5 -5.5t-20.5 -5t-21.5 -4.5t-16.5 -3q-11 -2 -20.5 -3.5t-20.5 -1.5q-24 0 -48.5 2t-47.5 7q-12 3 -31 11t-38 19
t-35 23t-23 23q-3 5 -6 11t-4 12q-1 1 -1 3q0 13 11 22q38 29 74 53q10 8 21 8t18.5 -7.5t13.5 -14.5q14 -17 31 -19t35 -5q4 -1 10 -1q8 0 15 1.5t15 3.5q14 3 22.5 11t18.5 17q11 12 15 25t4 29q0 19 -3.5 39.5t-12 37.5t-22.5 29.5t-36 15.5q-8 2 -14.5 2h-13.5
q-15 0 -23 -2.5t-13.5 -5.5t-10 -5.5t-11.5 -2.5q-5 0 -10.5 0.5t-11.5 0.5h-26t-26 -2q-2 -1 -5 -1q-14 0 -23 5.5t-9 20.5q0 31 0.5 61.5t0.5 62.5q0 49 -3 100q-1 11 -2 23t-1 23q0 9 2 20t7 20.5t12 17t18 8.5q10 1 19 1.5t18 2.5q18 2 37 1.5t37 -0.5t36.5 -2t36.5 -2
q16 0 31.5 2t32.5 2q10 0 20 -0.5t20 0.5q13 0 25 -3l24 -6q19 -4 19 -23q1 -14 1.5 -27t0.5 -26q0 -6 -0.5 -11.5t-0.5 -10.5t1 -10.5t1 -10.5v-3q-2 -9 -8 -14t-13.5 -7.5t-16 -3t-15.5 -0.5q-29 0 -56.5 2t-56.5 2q-14 0 -29 -2t-30 -2q-5 0 -7.5 -0.5t-4.5 -5.5
q-2 -11 -1 -23.5t0 -23.5q23 -2 50.5 -2t48.5 -3q18 -3 38 -7.5t39.5 -12.5t35.5 -20t27 -28q8 -12 13.5 -25t12.5 -25q5 -9 6 -19t1 -20q1 -19 5 -37t4 -37zM146 474q0 18 0.5 38t-4.5 37q-1 -9 -0.5 -19.5t-1.5 -19.5q-1 -7 -1.5 -14t-0.5 -15v-14q0 -9 0.5 -18.5
t-0.5 -18.5l8 -3v47zM358 617q-1 2 -10 3t-19.5 1.5t-20 0.5h-12.5q-9 0 -18 -6h10h18t17 -2q5 -1 8.5 -1.5t8.5 -0.5q10 0 18 5zM305 404q-2 5 -9 5.5t-12 1.5t-10.5 1.5t-11.5 0.5q-8 0 -12 -2l-2 -2q0 -2 2 -4q4 -1 16.5 -1.5t17.5 -0.5q6 0 14 2l6 -3q1 0 1 2zM443 197
q0 8 0.5 16t-6.5 13q0 -4 -1 -7.5t-1 -7.5q0 -6 0.5 -11.5t0.5 -10.5v-23h3q4 0 4 7.5v10.5v13zM185 112q-2 1 -8.5 3t-8.5 2q-5 0 -5 -3q0 -9 10 -9q4 0 7 2.5t5 4.5zM325 50q0 4 -4 5.5t-7 1.5q-4 0 -6 -2l-1 -3q0 -7 9 -7q2 0 5.5 1t3.5 4zM435 387q0 4 -3 6t-6 3
q-4 -6 -4 -11q0 -2 0.5 -3t0.5 -3q4 2 8 2t4 6zM443 659q0 5 -1 6t-4 5l-7 -14l9 -3l3 2v4zM157 645q0 2 -2.5 2.5t-4.5 1.5q-4 -3 -4 -7t4 -4q7 0 7 7z" />
    <glyph glyph-name="six" unicode="6" horiz-adv-x="605" 
d="M544 274v-15v-21t-1 -20.5t-2 -13.5q-8 -26 -15.5 -51t-19.5 -49q-5 -11 -18.5 -26.5t-22.5 -25.5l-4.5 -4.5t-4.5 -6.5q-5 -8 -10.5 -11t-14.5 -6q-12 -4 -23 -10.5t-24 -8.5q-19 -4 -33 -9.5t-35 -5.5q-20 0 -46 2.5t-42 13.5q-7 5 -14 6t-13 5q-9 5 -18 12t-17 13
q-23 19 -38 44t-28 51q-4 8 -7 15.5t-4 16.5q-1 7 -3 13l-4 12q-8 32 -15 65.5t-7 65.5v62q0 6 1 9q5 17 8 33t6 33q3 20 8 44.5t13 42.5q15 32 36 59t50 47q4 3 8 7t9 6q10 5 20.5 9t21.5 9q18 8 36.5 10.5t38.5 2.5h18.5t18.5 -2q20 -2 38.5 -9.5t35.5 -18.5
q30 -20 55 -42.5t31 -60.5q1 -5 2 -10.5t1 -10.5q0 -10 -6 -19q-8 -11 -13 -16.5t-10.5 -8.5t-13 -5t-20.5 -5q-11 -2 -21.5 -5t-21.5 -3q-13 0 -23.5 6t-19 15t-14.5 20t-11 21q-5 9 -12.5 11t-15.5 2q-33 0 -52 -29q-7 -10 -12.5 -19.5t-8.5 -20.5q-2 -10 -4 -19.5
t-4 -19.5q-2 -6 -2 -10q0 -7 3 -11q21 6 42.5 13t43.5 7q8 0 20.5 -1t25.5 -2.5t24.5 -4t18.5 -5.5l49 -26q5 -3 9 -7l8 -8q16 -14 28.5 -25.5t21.5 -32.5q8 -17 13.5 -30.5t5.5 -32.5zM382 223q0 11 -2.5 20.5t-6.5 19.5q-10 27 -33 37.5t-49 10.5q-16 0 -27.5 -8.5
t-18.5 -21.5t-10.5 -28.5t-3.5 -28.5q0 -35 22.5 -55.5t56.5 -20.5q32 0 52 22t20 53zM157 411q0 3 -1 5q-4 -14 -6.5 -27t-2.5 -28q0 -8 0.5 -15.5t2.5 -15.5q5 19 6 40t1 41zM326 73q-8 -2 -15.5 -3.5t-14.5 -1.5q-8 0 -14 3t-9 3t-5 -6q1 -1 5.5 -2.5t10 -3t10.5 -2.5
t7 -1q8 0 14 4.5t11 9.5zM345 374q-2 8 -13.5 11.5t-19.5 3.5h-6.5t-6.5 -1l-2 -1l2 -4h2q11 0 22 -2.5t22 -6.5zM472 160l-3 1q-6 -1 -10.5 -9t-7.5 -13q1 0 1.5 -0.5t1.5 -0.5q9 0 13 7.5t5 14.5zM320 634q-8 2 -12 2q-18 0 -31 -11q3 0 9 0.5t13 2t12.5 3t8.5 3.5z
M471 570q0 5 -3.5 8.5t-8.5 4.5q-2 -2 -2 -5q0 -2 2.5 -8.5t5.5 -6.5q2 0 4 2.5t2 4.5zM180 560q-2 0 -3 0.5t-3 0.5q-5 0 -9 -10t-6 -14q7 5 12.5 10t8.5 13zM410 509q0 4 -2.5 7t-4.5 5q-6 -4 -6 -8q0 -3 2.5 -6t4.5 -5q2 1 4 3t2 4zM184 143q0 2 -1.5 7.5t-4.5 5.5
q-1 0 -3.5 -0.5t-3.5 -0.5q0 -3 2.5 -9.5t6.5 -6.5t4 4zM435 314q0 2 -1 6.5t-5 4.5q-2 0 -3 -2t-1 -4v-2q0 -2 1.5 -5t3.5 -3q5 0 5 5z" />
    <glyph glyph-name="seven" unicode="7" horiz-adv-x="517" 
d="M477 553q0 -8 -9.5 -22.5t-12.5 -30.5q-2 -11 -5.5 -21t-6.5 -21q-13 -40 -26 -79t-25 -79q-10 -29 -19.5 -59t-16.5 -60q-3 -13 -8 -24.5t-9 -24.5t-8.5 -30.5t-10 -36t-12 -35t-14.5 -26.5q-7 -7 -16 -7q-8 0 -14.5 1.5t-13.5 1.5q-4 0 -7 -0.5t-7 -0.5q-14 0 -29 1.5
t-29 1.5q-5 0 -9 -0.5t-9 -0.5q-15 0 -20 11t-5 24q0 3 1 9t2.5 13t3.5 13t4 8q5 7 7 13t4 14q2 6 3.5 12.5t4.5 13.5q9 21 11.5 39t8.5 37q7 21 15 41.5t15 40.5q4 9 6.5 18.5t5.5 18.5q6 16 8.5 31t12.5 29q2 2 2.5 5t1.5 5q5 26 15 49.5t17 49.5q2 9 2.5 18t2.5 17
q-8 2 -12 2q-10 0 -19.5 -0.5t-19.5 -0.5q-11 0 -22.5 1t-22.5 1q-6 0 -12 -0.5t-12 -0.5h-17.5t-17.5 1q-5 0 -9.5 1t-9.5 1q-11 0 -22.5 -2t-22.5 -2q-13 0 -21 14.5t-8 25.5q0 10 -0.5 19.5t-0.5 20.5q0 8 1.5 15t1.5 15v30t18 23q14 8 29 8q23 0 46 -1.5t46 -1.5
q8 0 16 1.5t16 1.5q14 0 27.5 -3.5t28.5 -3.5t30 0.5t30 1.5q11 1 23 0.5t24 1.5q4 1 8 1h9q14 0 28.5 -0.5t27.5 -6.5q8 -3 14.5 -4t9.5 -11q2 -11 2.5 -20t0.5 -20q0 -17 -1 -34t-1 -34q0 -5 1 -9t1 -9zM376 622h-1q-8 2 -13 2q-11 1 -21.5 1h-21.5q-4 0 -8 0.5t-9 0.5
q-10 0 -17 -5q15 -2 29.5 -2.5t29.5 -0.5q8 0 16 0.5t16 2.5v1zM319 384q-3 -5 -6.5 -13.5t-7.5 -18t-6.5 -18t-2.5 -13.5q0 -4 2 -8q4 4 7.5 13.5t6.5 20.5t5 21t2 16zM252 38v2q-5 1 -8.5 1h-7.5h-11h-16.5t-13.5 -6h10v-1l1 1q8 -1 17 -1.5t18 -0.5q6 0 9 1q2 2 2 4z
M147 670q-11 4 -26 4q-8 0 -16 -1t-15 -5q5 -1 9.5 -1h9.5h7q5 -1 16 0t15 3zM274 185q0 3 -2 11q-13 -4 -13 -15q0 -8 6 -12q5 0 7 5.5t2 10.5zM394 544q0 2 -1 5t-4 3q-2 0 -6.5 -3t-4.5 -5q0 -7 7 -7q2 0 5.5 2.5t3.5 4.5z" />
    <glyph glyph-name="eight" unicode="8" horiz-adv-x="615" 
d="M555 227q0 -18 -2.5 -35.5t-6.5 -34.5q-2 -10 -5 -19.5t-4 -20.5q0 -8 -4 -12q-17 -27 -41 -49.5t-51 -40.5q-2 -1 -11 -4l-19.5 -6.5l-19.5 -6.5t-11 -3q-17 -2 -34 -3t-34 -1q-25 0 -49 3q-22 3 -37.5 6.5t-29.5 8t-28.5 11t-33.5 16.5q-16 7 -25 20q-2 4 -6 7t-6 7
q-11 20 -19 40.5t-13 41.5q-2 5 -3.5 9.5t-1.5 9.5q0 20 2 40.5t5 40.5t16 42q4 7 8 13.5t8 14.5q6 12 15.5 22.5t19.5 21.5q-4 7 -10.5 16t-13 19t-12 19t-7.5 16q-5 18 -7.5 36.5t-2.5 36.5q0 42 19 72.5t48 59.5q10 10 21.5 14.5t22.5 12.5q17 14 37.5 20t41.5 11
q8 2 13 2q2 0 4.5 -0.5t4.5 -0.5q14 0 27 2.5t27 2.5t28 -1.5t28 -6.5q9 -4 18.5 -8t17.5 -9q11 -5 19 -13l16 -16q13 -11 23.5 -27t17.5 -34.5t10.5 -38t3.5 -35.5q0 -32 -6.5 -68t-22.5 -63q-2 -5 -7 -10.5t-5 -10.5q0 -4 4 -8q13 -8 21 -23q15 -26 28.5 -51t13.5 -55z
M403 196q0 17 -8 32.5t-21.5 27t-30 18.5t-32.5 7t-33 -4.5t-31 -13.5t-23 -23t-9 -32q0 -20 10.5 -35.5t26.5 -26t35 -15.5t37 -5q14 0 28 5t25.5 14.5t18.5 22.5t7 28zM372 508q0 12 -6.5 21t-16.5 15t-22 9t-22 3q-12 0 -24 -2.5t-22.5 -8.5t-17 -15.5t-6.5 -23.5
q0 -32 23.5 -47.5t52.5 -15.5q25 0 43 20t18 45zM449 123l-1 1q-8 -5 -13.5 -15.5t-22.5 -20.5q-7 -4 -14 -4.5t-15 -5.5q-4 -2 -17.5 -2.5t-17.5 -2.5q7 -5 14 -5q3 0 6 0.5t6 0.5q26 5 40.5 14t29.5 31q1 2 3 4.5t2 4.5zM182 442l-9 39q-5 -3 -5 -11v-21q0 -8 5 -20l6 15z
M441 303q-5 8 -18.5 18.5t-23.5 12.5q0 -9 10 -16q8 -4 16 -8.5t16 -6.5zM472 591q1 11 -10.5 23.5t-22.5 12.5q6 -11 15.5 -19t17.5 -17zM133 119l-7 8q-10 19 -14 40l-1 -1q-2 -8 -2 -12q0 -3 2 -9t5.5 -12t7.5 -10.5t7 -4.5q1 0 2 1zM171 305l-3 3q-1 0 -5 -2
q-3 -7 -5.5 -14t-3.5 -15q11 4 13 11t4 17zM309 632q-1 2 -6.5 5t-7.5 3q-3 0 -6 -3l-5 -5l-2 -2q8 -4 14 -4q4 0 8 1t5 5zM446 492q0 7 -1 10q-9 -2 -9 -8q0 -7 1.5 -13.5t2.5 -13.5l4 12t2 13zM150 580l-6 -1q-3 -8 -6 -10.5t-3 -11.5q0 -2 0.5 -5t2.5 -3l2 4t4 9.5
t3.5 10.5t2.5 7zM295 384q0 3 -1 7t-5 4t-5 -4t-1 -6l1 -3q1 -2 5 -6l6 6v2zM508 212q0 5 -4 9q-6 -3 -6 -10v-2q0 -7 6 -7q2 0 3 4t1 6zM252 61v2l-22 5q2 -5 6.5 -8.5t9.5 -3.5q6 0 6 5z" />
    <glyph glyph-name="nine" unicode="9" horiz-adv-x="626" 
d="M566 367q0 -23 -3.5 -48t-7.5 -48q-1 -8 -3 -14.5t-4 -14.5l-8 -34q-3 -11 -9 -26t-13 -30t-14.5 -28.5t-14.5 -22.5l-34 -39q-2 -2 -4 -4.5t-5 -3.5q-13 -5 -21.5 -14t-19.5 -17q-18 -11 -38.5 -16t-41.5 -6q-13 0 -25 -1t-25 -1q-4 0 -11 2t-15 4.5t-15.5 5t-12.5 3.5
q-25 6 -46 21q-35 23 -52 46.5t-25 65.5q-1 2 -1 7q0 13 7.5 20.5t18 12t21.5 7.5t19 7q21 12 47 12q16 0 22.5 -7t9.5 -17t7 -19.5t17 -14.5q7 -3 17 -6.5t18 -3.5q12 0 24 6.5t21 16t14.5 22t6.5 24.5q0 3 1 5q5 6 8.5 18.5t3.5 20.5q0 3 -0.5 5.5t-1.5 5.5
q-16 -7 -28 -13t-24 -10t-25 -6t-31 -2q-12 0 -27.5 2t-31.5 6t-30.5 10t-24.5 14l-6 4q-22 11 -39 30.5t-28 43.5t-17 50t-6 49q0 7 0.5 13t1.5 13q1 8 0.5 15.5t1.5 15.5q11 62 41.5 104t88.5 67q21 9 34 14.5t25 8t26.5 3.5t37.5 1q24 0 52.5 -4.5t51.5 -9.5
q27 -6 43 -24q11 -11 20.5 -25t17.5 -28q0 -2 2 -4q19 -21 33 -54t17 -61q2 -19 6 -37t4 -38q0 -13 1 -25t1 -25zM390 481q0 19 -7.5 32t-19.5 22t-27 14.5t-30 8.5q-3 1 -8 1q-16 0 -30.5 -7t-25.5 -18.5t-17.5 -26.5t-6.5 -31q0 -7 2 -15.5t4 -14.5q8 -31 29 -48t53 -17
q17 0 30 7t23 18t16.5 25t10.5 29q2 5 3 10.5t1 10.5zM296 648q-12 1 -24 1.5t-24 0.5q-2 0 -8 -2t-13 -4.5t-13.5 -5t-8.5 -3.5q-11 -4 -14 -13q2 0 3 -0.5t3 -0.5q3 0 11 4t19 8.5t22.5 8.5t21.5 4h25v2zM470 452q0 11 -2 20.5t-5 20.5q-3 -5 -3 -9q0 -5 1 -10.5t1 -10.5
q0 -11 -1.5 -21t-1.5 -21q0 -6 4 -9q3 10 5 19.5t2 20.5zM462 176q-2 -3 -8 -10.5t-12 -15.5t-11.5 -15.5t-5.5 -8.5l2 -2q11 6 23 22.5t12 29.5zM317 52q-2 2 -3 2q-7 1 -13.5 2t-12.5 1q-5 0 -10.5 -1t-10.5 3q-1 -1 -1 -4q1 -3 7 -4.5t12.5 -2.5t13 -1h9.5q4 0 9 5z
M191 330q-23 12 -37 36q-2 -2 -2 -5q0 -11 13.5 -22t23.5 -11q1 0 1 1zM140 482q0 3 -0.5 5.5t-1.5 5.5q-5 -2 -8 -5t-3 -8q0 -8 4 -13q5 0 7 5t2 10zM414 584q-2 7 -6.5 12.5t-9.5 10.5h-15q7 -7 14 -12t15 -11h2zM195 137q0 7 -7 8q-2 -4 -6.5 -7t-3.5 -8v-1l4 -2t4 -1
q5 0 7 3.5t2 7.5zM344 318q0 2 -1.5 4.5t-3.5 4.5q-11 -8 -12 -19q4 1 10.5 3t6.5 7zM529 320q0 2 -2 8q-7 -7 -7 -16q0 -4 2 -6h1q2 0 3 1q1 2 2 6t1 7z" />
    <glyph glyph-name="colon" unicode=":" horiz-adv-x="242" 
d="M202 437q0 -7 -4 -14q-2 -2 -2.5 -5t-2.5 -6q-11 -21 -26.5 -33t-40.5 -12q-7 0 -13 2t-13 4q-32 10 -46 30t-14 53q0 20 13.5 37t29.5 27q6 4 12.5 4.5t13.5 0.5q13 0 19 -3t17 -6t21.5 -11.5t18.5 -19.5t12.5 -23.5t4.5 -24.5zM158 441q0 6 -5 6q-4 0 -4 -4v-1
q0 -7 4 -7q5 0 5 6zM91 452q0 3 -0.5 5.5t-1.5 5.5q-6 -4 -6.5 -8.5t-0.5 -11.5v-11q9 7 9 20zM202 67q0 -7 -4 -14q-2 -2 -2.5 -5t-2.5 -6q-11 -21 -26.5 -33t-40.5 -12q-7 0 -13 1.5t-13 3.5q-32 11 -46 30.5t-14 52.5q0 20 13.5 37.5t29.5 27.5q6 4 12.5 4.5t13.5 0.5
q13 0 19 -3t17 -6q23 -7 40 -31.5t17 -47.5zM158 71q0 6 -5 6q-4 0 -4 -4v-1q0 -7 4 -7q5 0 5 6zM91 82q0 3 -0.5 5.5t-1.5 5.5q-6 -4 -6.5 -8.5t-0.5 -12.5v-10q9 7 9 20z" />
    <glyph glyph-name="semicolon" unicode=";" horiz-adv-x="321" 
d="M250 99q0 -4 -5 -19.5t-11 -33.5t-12 -35t-8 -23q-8 -24 -14.5 -48.5t-14.5 -49.5q-7 -19 -26 -19q-25 0 -49 0.5t-49 0.5q-8 0 -14.5 1t-6.5 12q0 3 3.5 15.5t8.5 27t9 27.5t6 18q3 11 5.5 21.5t4.5 21.5q5 21 12 41.5t12 40.5q4 14 14.5 15t21.5 1t22.5 -1t23.5 -1
q14 -1 27.5 -1t27.5 -2q5 0 8.5 -2.5t3.5 -7.5zM281 437q0 -7 -4 -14q-2 -2 -2.5 -5t-2.5 -6q-11 -21 -26.5 -33t-40.5 -12q-7 0 -13 2l-12 4q-32 10 -46.5 30t-14.5 53q0 20 13.5 37t29.5 27q6 4 13 4.5t13 0.5q13 0 19 -3t17 -6t21.5 -11.5t18.5 -19.5t12.5 -23.5
t4.5 -24.5zM138 75l-2 4h-1q-4 0 -6.5 -4.5t-4 -10t-2.5 -11t-1 -8.5l6 3zM162 -79q-3 -1 -5 -1t-3 -3q-1 -2 -3.5 -10.5t-2.5 -10.5t2 -6q6 7 8 15zM170 452q0 3 -0.5 5.5t-1.5 5.5q-6 -4 -6.5 -8.5t-0.5 -11.5v-11q9 7 9 20zM111 -45q-1 2 -1.5 3.5t-2.5 1.5
q-4 0 -7.5 -2.5t-3.5 -6.5q0 -8 6 -8q4 0 5.5 4.5t3.5 7.5zM237 441q0 6 -5 6q-4 0 -4 -4v-1q0 -7 4 -7q5 0 5 6zM189 27v3h-4l-5 -7l3 -4l3 1z" />
    <glyph glyph-name="less" unicode="&#x3c;" horiz-adv-x="486" 
d="M50 271q0 20 0.5 38.5t0.5 37.5q0 4 0.5 10.5t2 13.5t3.5 12.5t6 7.5q12 7 25 13.5t26 12.5q20 8 39 18t38 22q36 23 73 44.5t73 44.5q11 7 29 16t31 9q21 0 25 -15.5t4 -31.5q0 -12 -1 -24t-1 -24v-22q0 -18 -16 -30q-25 -16 -55 -34q-24 -16 -47.5 -31.5t-48.5 -29.5
q-5 -3 -8.5 -6t-5.5 -8q22 -17 47.5 -27.5t48.5 -27.5q14 -10 26.5 -19t27.5 -16q12 -4 12 -19q0 -30 -1 -59.5t-1 -59.5q0 -8 -0.5 -19t-11.5 -11q-1 0 -5.5 2t-9.5 4.5t-9.5 5t-6.5 3.5q-17 9 -33 17.5t-33 18.5l-31 19q-5 3 -9 5l-8 4l-45 28q-13 8 -26 15.5t-27 15.5
q-8 4 -16 6t-15 7q-14 11 -29 19t-29 19q-7 6 -8 11.5t-1 13.5zM231 428q0 -3 4 -3q3 0 6 3t7 3q13 4 22.5 11.5t21.5 11.5q4 2 4 4q2 4 5.5 5.5t7.5 3.5q-2 2 -5 2t-4 -1q-10 -6 -20 -12.5t-22 -10.5q-9 -2 -13 -5l-12 -9q0 -1 -1 -1.5t-1 -1.5zM268 225q3 -8 16 -13.5
t18 -10.5q4 -2 9.5 -3t10.5 -3q0 2 -7 7t-16 10t-17.5 9t-11.5 5zM117 277q5 -5 11.5 -10t13.5 -7q2 -1 4 -3.5t4 -2.5q3 1 3 3v1l-15 12.5t-17 7.5q-1 0 -2 -0.5t-2 -0.5zM169 352q0 -4 2.5 -8t6.5 -4t5 4.5t1 6.5q-1 2 -2.5 5.5t-4.5 3.5q-8 0 -8 -8zM364 94q0 -2 3.5 -4
t5.5 -2q5 0 5 5q0 4 -3.5 5.5t-6.5 1.5q-4 -4 -4 -6zM372 529q6 2 7.5 5t2.5 9h-2q-5 0 -6.5 -3.5t-1.5 -6.5v-4z" />
    <glyph glyph-name="equal" unicode="=" horiz-adv-x="490" 
d="M440 353q0 -9 -3 -21.5t-14 -13.5q-24 -3 -48 -3q-20 0 -41 1t-42 1q-54 0 -108.5 -0.5t-108.5 -0.5q-9 0 -17 4.5t-8 14.5q0 15 1 31t2 31q2 19 14.5 22.5t26.5 3.5q8 0 15.5 -0.5t15.5 -0.5q15 0 30 0.5t30 0.5q7 0 13.5 -0.5t13.5 -0.5q29 0 58.5 1t58.5 1q10 0 19 -1
t17 -1q5 0 10.5 1t10.5 1q8 0 15.5 -1t15.5 -2t10.5 -3t4.5 -10q2 -14 5 -27.5t3 -27.5zM440 179q0 -8 -3 -21t-14 -14q-12 -1 -24 -1.5t-24 -0.5q-20 0 -41 1t-42 1q-54 0 -108.5 -1t-108.5 -1q-9 0 -17 5t-8 15q0 15 1 31t2 31q2 18 14.5 21.5t26.5 3.5h31v-1q15 1 30 1.5
t30 0.5q7 0 13.5 -1t13.5 -1q29 0 58.5 1.5t58.5 1.5q10 0 19 -1.5t17 -1.5q5 0 10.5 1t10.5 1q8 0 15.5 -0.5t15.5 -1.5q8 -2 10.5 -3.5t4.5 -9.5q2 -14 5 -28t3 -28zM355 216l-1 2q-2 0 -4.5 0.5t-4.5 0.5h-39h-16t-25 -0.5t-24 -1.5t-13 -2l2 -3q4 -1 12 -1q28 0 57 -0.5
t56 5.5zM355 389l-1 2q-3 1 -9 1h-39h-16t-25 -0.5t-24 -1.5t-13 -2l2 -3q3 0 6 -0.5t6 -0.5h57t56 5zM133 351q-4 2 -7 2q-6 0 -11 -5q2 -1 4.5 -2t4.5 -1q5 0 9 6zM133 177q-3 3 -7 3q-3 0 -6 -1.5t-5 -3.5q4 -3 9 -3q3 0 5 1.5t4 3.5z" />
    <glyph glyph-name="greater" unicode="&#x3e;" horiz-adv-x="486" 
d="M436 271q0 -8 -1 -13.5t-8 -11.5q-14 -11 -29 -19t-29 -19q-7 -5 -15 -7t-16 -6q-14 -8 -27 -15.5t-26 -15.5l-45 -28l-8 -4t-9 -5l-31 -19q-17 -10 -33 -18.5t-33 -17.5q-2 -1 -6.5 -3.5t-9.5 -5t-9.5 -4.5t-5.5 -2q-11 0 -11.5 11t-0.5 19q0 30 -1 59.5t-1 59.5
q0 15 12 19q15 7 27.5 16t26.5 19q23 17 48.5 27.5t47.5 27.5q-2 5 -5.5 8t-8.5 6q-25 14 -48.5 29.5t-47.5 31.5q-30 18 -55 34q-16 12 -16 30v22q0 12 -1 24t-1 24q0 16 4 31.5t25 15.5q13 0 31 -9t29 -16q36 -23 73 -44.5t73 -44.5q19 -12 38 -22t39 -18q13 -6 26 -12.5
t25 -13.5q4 -2 6 -7.5t3.5 -12.5t2 -13.5t0.5 -10.5q0 -19 0.5 -37.5t0.5 -38.5zM255 428q0 1 -1 1.5t-1 1.5l-12 9q-4 3 -13 5q-12 4 -22 10.5t-20 12.5q-1 1 -4 1t-5 -2q4 -2 7.5 -3.5t5.5 -5.5q0 -2 4 -4q12 -4 21.5 -11.5t22.5 -11.5q4 0 7 -3t6 -3q4 0 4 3zM218 225
l-2 1q-3 -1 -11.5 -5t-17.5 -9t-16 -10t-7 -7q5 2 10.5 3t9.5 3q5 5 18 10.5t16 13.5zM369 277q-1 0 -2 0.5t-2 0.5q-8 0 -17 -7.5l-15 -12.5v-1q0 -2 3 -3q2 0 4 2.5t4 3.5q7 2 13.5 7t11.5 10zM317 352q0 8 -8 8q-3 0 -4.5 -3.5t-2.5 -5.5q0 -2 1 -6.5t5 -4.5t6.5 4t2.5 8
zM122 94q0 2 -4 6q-3 0 -6.5 -1.5t-3.5 -5.5q0 -5 5 -5q2 0 5.5 2t3.5 4zM114 533q0 3 -1.5 6.5t-6.5 3.5h-2q1 -6 2.5 -9t7.5 -5v4z" />
    <glyph glyph-name="question" unicode="?" 
d="M529 473q0 -22 -8.5 -41.5t-20.5 -36.5q-29 -38 -69.5 -60.5t-83.5 -32.5q-9 -2 -16.5 -9.5t-7.5 -17.5q0 -6 0.5 -12t0.5 -12q0 -24 -22 -25q-19 -2 -37.5 -4t-36.5 -2q-10 0 -19 1t-18 1q-25 0 -32 16t-7 37q0 9 2 23.5t6 29.5t8.5 28t10.5 19q15 16 32.5 28t39.5 18
q14 4 28 8.5t27 11.5q8 5 20 8q17 5 29 17.5t12 30.5q0 26 -19 36t-41 10h-21q-10 0 -22 -7q-7 -4 -13.5 -7t-11.5 -9q-18 -23 -21 -50q-2 -13 -10.5 -18t-20.5 -5t-24 1t-24 1q-9 0 -18 -1t-17 -1q-17 0 -31 3.5t-22 19.5q0 1 -0.5 2t-0.5 2q0 13 3 27.5t5 27.5
q4 24 16 46.5t29 42t37.5 36t41.5 27.5q7 4 22.5 7.5t32 5.5t32.5 3.5t25 1.5q30 0 51.5 -5t49.5 -14q11 -4 19 -7.5t16 -11.5q2 -3 9 -5q14 -8 25.5 -18t22.5 -22q4 -5 9 -9t8 -9q6 -10 10.5 -26.5t8 -34.5t5 -35t1.5 -29zM318 74q0 -14 -6 -27.5t-15.5 -24.5t-22.5 -18
t-28 -7h-17q-15 0 -30 6.5t-26 17t-18 25t-7 30.5q0 6 2.5 16t7 20.5t9.5 19t11 12.5q13 8 28.5 14t30.5 6q24 0 45 -14.5t31 -37.5q2 -5 3.5 -18t1.5 -20zM209 609h-1l-2 1q-6 -2 -12.5 -4.5t-11.5 -6.5q-2 -2 -4.5 -3.5t-5.5 -3.5q-11 -5 -13 -13.5t-6 -18.5v-2q1 -1 4 -1
q2 3 4.5 8.5t4.5 7.5q19 18 42 33q0 1 0.5 1.5t0.5 1.5zM308 321v1h-1l-22 -16t-13 -24l3 -3q1 0 4 3q2 5 3 8t5 7q1 1 4 4.5t7 8t7 8zM373 419q-3 3 -6 3q-5 0 -13.5 -7.5t-12.5 -11.5v-1q1 -1 2 -1q2 0 13 6.5t15 8.5zM431 599q-2 8 -6.5 14t-13.5 6q-6 0 -12 -3
q10 -4 17 -7.5t15 -9.5zM275 93l-3 3q-4 -8 -8.5 -16.5t-5.5 -18.5l3 1q6 7 9 15t5 16zM92 492q-1 1 -1.5 3t-2.5 2q-5 -2 -6.5 -7t-2.5 -10l3 -3q2 0 2.5 0.5t1.5 0.5zM203 47q0 3 -1 6.5t-2 6.5l-5 2q-2 -3 -2 -3.5v-4.5q0 -3 0.5 -7.5t5.5 -4.5q4 0 4 5zM198 278
q0 6 -1 9q-8 -6 -8 -13t6 -11q3 7 3 15zM295 650q0 5 -6 5h-1q-7 0 -7 -6q0 -2 2.5 -5t4.5 -3q7 2 7 9zM416 503q0 9 -7 12q-2 -4 -2 -6t0.5 -6.5t3.5 -4.5q5 0 5 5z" />
    <glyph glyph-name="at" unicode="@" horiz-adv-x="914" 
d="M854 342q0 -7 -1.5 -13.5t-1.5 -12.5q0 -12 -4 -23q-1 -4 -4 -15t-7 -23l-7.5 -22.5t-4.5 -12.5q-21 -30 -43.5 -54t-53.5 -43q-6 -3 -16.5 -6t-22.5 -5.5t-23.5 -3.5t-18.5 -1q-17 0 -33 3.5t-32 8.5q-13 5 -25 10t-23 12q-2 1 -3.5 2t-3.5 1t-7 -5q-23 -24 -52.5 -36.5
t-62.5 -12.5q-6 0 -12 0.5t-12 0.5q-5 0 -8.5 -0.5t-8.5 -0.5q-10 0 -19 3q-17 7 -37.5 13t-34.5 20q-8 7 -16.5 20.5t-16.5 28.5t-13.5 29.5t-7.5 25.5q-3 18 -3 37q0 71 35 132q8 15 16.5 29.5t19.5 27.5q11 12 25 21t23 22q8 10 19 16t22 11q5 2 9.5 2.5t8.5 2.5
q12 7 22 6t22 2q9 3 20 3q16 0 39 -8t37 -16q14 -9 22.5 -19.5t17.5 -22.5l10 22t19 12q12 0 26.5 1.5t25.5 1.5q13 0 29 -4.5t16 -21.5q0 -11 -1.5 -21.5t-3.5 -20.5q-5 -24 -11.5 -51.5t-12.5 -56t-10 -56t-4 -51.5q0 -15 15 -15q14 0 25 12q17 18 26 34.5t13 34t5.5 36.5
t3.5 42q1 4 1 14q0 16 -3 31.5t-6 31.5q-8 36 -28 63t-46 52q-8 8 -15.5 11.5t-16.5 8.5q-20 11 -41 19t-44 14t-47 6q-46 0 -93.5 -14t-86.5 -37q-14 -8 -29 -21t-29 -28.5t-25.5 -31.5t-18.5 -30q-6 -11 -12 -21.5t-11 -21.5q-3 -6 -6 -16.5t-5.5 -22t-4 -22t-1.5 -17.5
q0 -16 -0.5 -31.5t-0.5 -31.5q0 -29 5.5 -56t19.5 -52q19 -33 44 -63.5t58 -50.5q29 -17 61.5 -24t65.5 -7q19 0 40 1.5t41.5 6t39.5 12.5t35 20q5 5 9.5 10t12.5 5q7 0 14 -7q3 -3 8 -13.5t10 -23t8.5 -24t3.5 -15.5q0 -8 -11.5 -19t-19.5 -14q-14 -6 -35.5 -17t-35.5 -14
q-20 -5 -37.5 -8t-34.5 -5t-34.5 -3t-38.5 -1q-25 0 -47 4.5t-46 10.5q-13 4 -25 8.5t-25 9.5q-8 3 -14.5 7t-13.5 9q-26 19 -47.5 37t-39 38.5t-31.5 45t-26 54.5q-4 10 -8.5 25.5t-9 33t-7.5 33t-3 25.5q0 36 0.5 72t6.5 72q3 20 9.5 38.5t14.5 37.5q2 3 2 6t2 6
q2 7 5.5 13t7.5 13q10 18 17.5 32t16.5 26t20 23t28 25q3 3 5.5 6.5t6.5 5.5l13.5 13.5t14.5 11.5q5 4 13 7q18 9 37 19.5t39 14.5q22 5 43 12.5t44 11.5q8 2 17 2t17 1q14 1 28.5 3t28.5 2q9 0 23 -3t27 -3q4 0 7 1t6 1t13 -3t22 -6.5t22.5 -7.5t14.5 -5q14 -5 27 -9.5
t26 -12.5q5 -2 9.5 -4t7.5 -6q12 -12 26.5 -21t27.5 -21q7 -6 13 -13t13 -13q13 -11 20.5 -24t13.5 -29l15 -43q12 -31 14.5 -66t4.5 -67l2 -18t1 -17zM520 330q0 20 -16 40t-36 24q-5 1 -11.5 2.5t-11.5 1.5q-8 0 -15.5 -6t-15.5 -8q-6 -2 -10.5 -5t-9.5 -7t-11.5 -10
t-8.5 -11q-8 -18 -13 -37.5t-5 -39.5q0 -28 15 -40t41 -12q1 0 8 1.5t15 3.5t15 3.5t9 2.5q10 3 21 14.5t20 26.5t14.5 30.5t5.5 25.5zM472 -53q-14 3 -37 2.5t-40 1.5q-10 1 -19 4t-19 2q-10 0 -19 3t-18 5q1 -2 10.5 -5.5t21 -7t22 -6.5t13.5 -3t5.5 1t5.5 1q5 0 9 -0.5
t9 -1.5q11 -1 21.5 -2t21.5 -1q8 0 13 7zM640 344q0 4 -4 10q-2 -6 -4.5 -18.5t-4.5 -26t-3 -26t-1 -18.5q0 -9 1 -18t3 -18q2 3 2 10q0 12 1.5 22t3.5 22v19q2 10 4 20.5t2 21.5zM460 448l-1 1q-4 2 -8.5 2.5t-9.5 0.5q-16 0 -28.5 -5t-24.5 -14q-2 -2 -2 -3q9 6 19 6
q4 0 6 -1q12 5 22.5 7t22.5 4q1 0 2 1q1 0 2 1zM801 494q0 3 -3 13.5t-7 22t-8.5 19.5t-8.5 7q1 -14 9 -32t16 -29zM536 643q-11 3 -22 5.5t-22 2.5q-3 0 -9 -2l-1 -2q1 -3 8 -4.5t15.5 -2.5t17 -1.5t11.5 -1.5zM590 139q-5 8 -11.5 12.5t-10.5 12.5q-2 4 -3.5 9t-4.5 8v-15
q0 -11 7.5 -19.5t18.5 -8.5h2q1 1 2 1zM802 341q0 7 -1 10h-2q-5 0 -6 -5q-1 -8 -2 -15.5t-1 -15.5q0 -6 6 -12q2 9 4 18.5t2 19.5zM314 668q-8 -1 -14.5 -2t-13.5 -6t-14 -9t-12 -11q15 5 28 12t26 16zM155 453l-9 3q-5 -10 -8.5 -19.5t-5.5 -20.5l2 -1q6 10 11 19t10 19z
M191 72q-2 5 -7 12.5t-10 10.5q-7 -2 -9 3.5t-5 5.5q1 -6 11 -18t15 -17zM276 396q0 1 -0.5 1.5t-0.5 2.5q-15 -10 -15 -25q0 -6 1 -9q1 1 4 5t5 9t4 9.5t2 6.5zM433 143q-9 6 -19 8.5t-20 4.5q5 -7 14.5 -10.5t17.5 -3.5q5 0 7 1zM660 458q0 6 -3 11q-9 -5 -9 -14
q0 -6 3 -10q9 3 9 13zM303 249q0 7 -6 7q-5 0 -5 -6q0 -4 4 -8q7 0 7 7zM92 214q0 4 -4 5.5t-7 1.5l-3 -3q1 -2 4 -5.5t6 -3.5q4 0 4 5zM650 648q-4 3 -7.5 6t-8.5 3h-3v-1q0 -5 5.5 -7t9.5 -2q3 0 4 1zM740 187h-6q-2 0 -3 -0.5t-2 -0.5l-4 -5q2 -2 6 -4q9 1 9 10zM617 5v3
q-1 0 -2 0.5t-3 0.5t-3 -2t-1 -4v-2q0 -3 1 -4q8 2 8 8zM182 541l-1 3h-1l-2 -1q-2 -2 -4 -5l-4 -6q2 0 2.5 -0.5t1.5 -0.5q6 0 8 10z" />
    <glyph glyph-name="A" unicode="A" horiz-adv-x="587" 
d="M557 18q0 -11 -9 -16.5t-19 -5.5q-9 0 -18 1l-18 2h-62q-4 0 -7.5 -0.5t-8.5 -0.5t-10.5 0.5t-11.5 1.5q-9 1 -12 11l-1 3q-4 11 -7 20.5t-5 20.5q-1 7 -3.5 13.5t-3.5 13.5q-1 8 -2.5 9.5t-9.5 1.5t-16 0.5t-16 0.5h-46.5t-46.5 -1h-4q-7 0 -8.5 -1t-3.5 -8
q-5 -14 -7 -28.5t-4 -28.5q-3 -14 -9 -19.5t-20 -6.5h-8q-13 0 -25.5 0.5t-25.5 0.5q-12 0 -24.5 -1t-24.5 -1q-10 0 -20 3.5t-10 15.5q0 3 1.5 10t4 14.5t4.5 14t3 10.5q6 20 9.5 40.5t10.5 40.5q3 10 6.5 19.5t4.5 20.5q0 2 1 4l2 4q4 8 6.5 16t4.5 17q12 49 27.5 96.5
t31.5 95.5q2 5 2.5 9t1.5 9q5 26 13 52.5t16 52.5q10 31 18.5 61.5t19.5 61.5q5 12 12 20q8 10 24 10.5t28 1.5v2q11 -1 22 -1.5t21 -3.5t17.5 -10t12.5 -20q14 -43 28.5 -85.5t26.5 -87.5q2 -5 1.5 -9.5t0.5 -9.5q1 -8 5 -16t6 -15q4 -11 7.5 -23t6.5 -23t6.5 -20.5
t5.5 -20.5q4 -14 6.5 -27t6.5 -27l21 -68q9 -29 18.5 -58.5t19.5 -58.5q8 -23 17 -45t17 -45q2 -6 2 -10zM334 219q-3 14 -9.5 25.5t-10.5 24.5q-1 4 -5.5 16t-9 25t-9 23.5t-5.5 12.5q-11 -32 -20.5 -63t-19.5 -63q8 -2 17.5 -1.5t17.5 0.5h54zM232 423q0 6 -2 8
q-2 -1 -3 -3.5t-2 -4.5l-2 -8q-1 -7 -4.5 -18.5t-7 -23.5t-6 -22t-2.5 -14t1 -5q4 7 9 19t9 25.5t7 26t3 20.5zM348 147q-1 1 -5 2t-6 1q-7 0 -13.5 -0.5t-13.5 -0.5h-14q-9 0 -18 0.5t-18 0.5q-4 0 -7.5 -0.5t-7.5 -2.5q14 -4 29 -5t30 -1q8 0 23 0.5t21 5.5zM455 217
q0 2 -2 11t-5 19t-6 19.5t-4 12.5l-8 -2l20 -73l4 1q0 3 0.5 6t0.5 6zM265 634q0 4 -3.5 7t-6.5 5q-5 -9 -5.5 -18.5t-2.5 -19.5h5q3 5 8 12.5t5 13.5zM356 472q0 18 -9 33l-5 -5t-3 -6q0 -4 6.5 -16t9.5 -17q1 4 1 11zM144 200v6q-2 -2 -4 -2t-3 -2q-3 -4 -5 -14.5
t-4 -15.5h10q1 4 3.5 14.5t2.5 13.5zM505 48q0 3 -2 7.5t-7 4.5q-4 0 -4 -3q0 -5 2 -12t5 -10q6 4 6 13zM89 44q0 2 -2 4t-4 2q-4 0 -8.5 -6t-6.5 -9q1 -1 4 -1q5 0 11 2.5t6 7.5z" />
    <glyph glyph-name="B" unicode="B" horiz-adv-x="614" 
d="M564 233q0 -47 -13 -92q-5 -18 -15 -33t-21 -29q-8 -11 -19 -20t-16 -15q-11 -14 -22 -18.5t-25 -12.5q-12 -6 -18 -11.5t-21 -5.5q-20 0 -40 -1.5t-40 -1.5q-10 0 -20 0.5t-20 0.5q-20 -1 -39.5 -2t-39.5 -1q-15 0 -33 5q-9 2 -23 2t-27.5 1.5t-24 6.5t-13.5 17
q-2 5 -2 9.5v9.5q0 11 1 21.5t1 21.5q1 14 0.5 27.5t-0.5 27.5q0 9 1 18.5t1 18.5q0 5 -0.5 10.5t-0.5 10.5q0 23 0.5 44.5t0.5 44.5q0 8 -1 15t-1 14q0 5 1 10t1 10q0 14 -1.5 27t-1.5 27q0 8 1.5 15t1.5 15t-2.5 14.5t-2.5 13.5t2.5 13t2.5 13q0 5 -1 10t-2 11l-2 30
t-1 30v93q0 26 12.5 35t37.5 9q5 0 9 -0.5t9 -0.5t10 2t10 2h21q24 0 47.5 3.5t47.5 3.5q23 0 46 -3.5t46 -5.5q17 -2 33.5 -5t32.5 -10q1 -1 7.5 -5t13.5 -9.5t13.5 -10t7.5 -5.5q8 -8 14.5 -16t14.5 -16t11.5 -17t8.5 -19q8 -17 14.5 -35.5t6.5 -37.5q0 -14 -2.5 -26.5
t-4.5 -25.5q-3 -20 -10 -36t-21 -30q-6 -6 -6 -11t6 -11q2 -3 5 -5.5t5 -4.5q19 -29 33.5 -59t14.5 -65zM408 210q0 22 -2.5 40.5t-19.5 35.5q-5 6 -22 10.5t-25 6.5q-11 2 -23 4t-23 2q-13 0 -26.5 -1.5t-27.5 -3.5q-6 0 -7 -2t-2 -8v-58q0 -44 3 -87q1 -8 4 -10t11 -2
q9 0 25 0.5t33.5 1.5t32.5 3t23 5q13 6 22.5 16.5t17.5 22.5q6 10 6 24zM380 496q0 6 -1 12.5t-3 12.5l-4 5q-13 12 -23 16.5t-27 4.5h-39.5t-39.5 -4q-5 -3 -6 -5q-3 -6 -4 -16t-1 -20.5v-21v-17.5v-9q0 -7 2 -9.5t10 -3.5q12 -2 24 -3t24 -1q16 0 31.5 2t28 8t20.5 17.5
t8 31.5zM324 34q-4 5 -10.5 4t-11.5 -1q-4 0 -7 1t-7 1q-5 0 -9 -0.5t-9 -0.5q-10 0 -19.5 1t-19.5 1q-5 0 -13 -3t-11 -5q10 -4 18 -4h1q28 3 54 3q3 0 6 0.5t6 0.5q5 0 10 -0.5t10 -0.5q6 0 12 3zM128 297q0 8 -0.5 16.5t-1.5 16.5v6t-2 4q-3 0 -3 -4v-6q0 -12 -1 -24
t-1 -23q0 -8 0.5 -24.5t3.5 -23.5q2 4 3 12.5t1.5 17.5t0.5 18v14zM444 240q0 7 -7 7h-2v-64q1 2 3 3.5t2 3.5q2 11 3 25t1 25zM164 493q0 11 -1.5 22t-5.5 21q-1 -5 -1 -9v-9v-11.5t0.5 -15.5t1.5 -15.5t2 -10.5q4 12 4 28zM384 665q0 2 -2.5 3t-4.5 1q-7 0 -19 -3.5
t-12 -11.5v-1q8 1 15.5 3t15.5 4q3 1 5 1.5t2 3.5zM511 457q0 2 -1 4l-4 2q-1 -14 -7.5 -23t-14.5 -19l4 -2q10 5 16.5 15.5t6.5 22.5zM123 636q0 2 -1 7.5t-5 5.5q-2 0 -3.5 -4.5t-2 -10t-0.5 -10.5v-7q0 -1 1.5 -2t2.5 -3q8 11 8 24zM481 305q-2 5 -6 12.5t-9 7.5
q-6 0 -6 -6q0 -5 5 -12t10 -7q3 0 6 5zM471 100q0 4 -1 7.5t-6 3.5t-6.5 -7t-1.5 -10q0 -6 5 -6t7.5 4t2.5 8zM316 375q0 3 -2 7q-6 0 -8.5 -6t-2.5 -11t5 -8q2 4 5 8.5t3 9.5zM462 542q0 7 -5 14q-6 -3 -6 -8t1.5 -11t8.5 -7q0 3 0.5 6t0.5 6zM312 580q-6 3 -13 3h-9t-9 -2
l-2 -2l3 -1h30v2zM182 138l-1 3q-1 0 -1 0.5t-1 0.5q-3 0 -6.5 -4t-3.5 -7l1 -2l4 -2q3 0 5.5 4.5t2.5 6.5z" />
    <glyph glyph-name="C" unicode="C" horiz-adv-x="631" 
d="M591 575q0 -4 -1 -15.5t-2.5 -24.5t-2.5 -24t-2 -14q-2 -5 -5.5 -8.5t-8.5 -3.5q-4 0 -14 6.5t-21.5 14.5t-22 16.5t-15.5 11.5q-4 3 -16 6.5t-25.5 6.5t-25.5 5t-18 2q-15 0 -33 -5l-18 -4t-17 -6q-15 -6 -28.5 -16t-26 -22.5t-23 -26t-18.5 -26.5q-9 -15 -12 -30.5
t-4 -32.5q0 -12 -2 -23.5t-2 -23.5q0 -20 5.5 -41.5t12.5 -40.5q2 -4 5 -7t5 -7q5 -6 7.5 -14t7.5 -14l16.5 -16.5t19.5 -13.5q14 -7 29.5 -12t30.5 -11q28 -11 56 -11q20 0 46.5 6.5t44.5 16.5q11 7 25.5 19.5t26.5 12.5q3 0 6 -0.5t6 -0.5q6 -1 8.5 -8t3.5 -15.5t1 -17
v-12.5q0 -24 -0.5 -49t-4.5 -50q-1 -18 -20 -27q-21 -11 -39 -17t-36 -8.5t-37 -2.5h-42h-35.5t-35.5 6q-11 4 -22.5 6t-22.5 6q-9 3 -24.5 10.5t-31.5 17.5t-30.5 19.5t-21.5 16.5l-24 23q-6 6 -8 10q-8 11 -16 21.5t-16 21.5q-20 29 -33 58t-19 64q-1 6 -3 15t-3.5 18.5
t-3 18t-1.5 13.5t1 9.5t1 9.5q0 15 1.5 28.5t3.5 27.5q2 11 6 21.5t8 21.5q14 44 41.5 84.5t62.5 69.5q11 10 22.5 18t22.5 17q14 11 31.5 16.5t33.5 13.5q19 9 46 16t48 7q6 0 12 -0.5t11 -0.5q8 0 16 0.5t16 0.5q11 0 23 -1t23 -2q8 -1 16 -4t16 -5q16 -3 28.5 -12
t23.5 -20q8 -6 10.5 -14.5t2.5 -17.5q0 -13 2 -26t2 -25zM171 360q0 2 -0.5 7t-1 11t-1.5 11t-1 7q0 1 -1 1q-2 0 -2 1q-2 -2 -3.5 -7t-2 -11.5t-1 -12t-0.5 -8.5q0 -10 3.5 -21.5t5.5 -21.5q3 6 3 10q0 3 -0.5 6t-0.5 7q0 5 1.5 10t1.5 11zM469 628l-1 2q-11 2 -24 6t-24 4
q-8 0 -18 -8l1 -2q1 0 9.5 -1t19 -1.5t19 -1.5t10.5 -1q5 0 8 3zM357 98q-2 4 -6.5 7.5t-8.5 6.5q-2 -7 -6.5 -8t-9.5 -5q9 -7 18 -7t13 6zM174 516q0 2 -2.5 4.5t-4.5 2.5q-5 0 -10 -6.5t-8 -10.5q4 -2 7 -2q5 0 11.5 3.5t6.5 8.5zM515 64q0 2 -2.5 3t-4.5 1q-8 0 -11 -5.5
t-5 -12.5h2q5 0 13 4t8 10zM199 160q0 1 -3 6t-6.5 10.5t-6.5 11t-4 8.5l-2 1q-1 0 -2 -2.5t-1 -3.5q0 -8 9 -17l14 -14h2zM304 616q0 4 -3.5 5t-6.5 1q-5 0 -9 -3t-9 -5q5 -4 11 -4h2q4 0 6 1q4 0 8 1q1 1 1 2v2zM556 559q0 2 -2.5 7.5t-5.5 5.5q-2 0 -4 -2t-2 -4t2 -9
t5 -7t5 3t2 6z" />
    <glyph glyph-name="D" unicode="D" horiz-adv-x="661" 
d="M601 376q0 -42 -10.5 -83.5t-29.5 -80t-45.5 -72.5t-58.5 -60q-11 -9 -38 -21.5t-57.5 -25t-59 -22t-42.5 -10.5q-14 -2 -26.5 -2.5t-26.5 -1.5v1q-14 0 -28.5 1t-28.5 1q-4 0 -7.5 -1t-7.5 -1q-5 0 -13 2q-14 5 -27 8t-15 21q-5 32 -4.5 65t0.5 65q0 8 -1 15t-1 15
q0 10 2 19.5t2 19.5q0 20 -1 41t-1 41q0 15 1 29.5t1 29.5q0 14 -1 29t-1 29q0 15 -1 30t-1 30q0 8 1 15t1 15q0 6 -0.5 21t-2.5 20q-3 9 -3 17t3 16t3 16q0 14 -2.5 27t-2.5 26q0 16 6 24t15.5 10.5t21.5 2t23 -0.5h34.5t34.5 3q5 1 10.5 1.5t11.5 0.5q19 0 36.5 -4
t35.5 -9q10 -2 19 -3.5t19 -4.5q23 -7 47.5 -17t45.5 -23q5 -4 10.5 -8t11.5 -8q66 -40 107 -104.5t41 -143.5zM433 374q0 8 -2.5 19t-4.5 19q-5 23 -23 43.5t-37 34.5q-11 8 -21 15.5t-22 12.5l-23 10q-11 6 -29.5 12.5t-32.5 6.5q-5 0 -5.5 -3.5t-0.5 -7.5q0 -28 1 -56
t1 -57t-1.5 -58t-1.5 -58q0 -14 0.5 -29t1.5 -29q0 -12 2 -24t3 -25q1 -10 4.5 -13.5t14.5 -3.5q5 0 11 1t11 2q14 2 27.5 3t25.5 9q9 6 20 13t19 15q5 4 7.5 8.5t7.5 8.5q10 9 15.5 19.5t10.5 22.5q4 8 7.5 19.5t6.5 24t5 24.5t2 21zM157 397v17.5v26t-0.5 24.5t-1.5 13
q-4 -6 -4 -12t-3 -9q-3 -4 -3 -8v-9q0 -12 0.5 -23.5t0.5 -23.5t-1.5 -23.5t-1.5 -24.5q0 -3 1 -5.5t3 -5.5q4 9 3 14t0 7l1 3q5 5 3.5 10.5t-1.5 11.5q0 5 2 8.5t2 8.5zM307 97q-5 -3 -15.5 -5.5l-21 -5t-19.5 -5t-10 -5.5q0 -2 3 -4t5 -2q4 0 13 3t18.5 7t17 8.5t9.5 8.5z
M438 459v4.5t-1 3.5q-2 2 -7.5 8.5t-11.5 13.5t-12 12.5t-7 5.5q-3 0 -7 -4zM553 293q0 6 -7 6l-20 -60q2 1 4.5 2t2.5 3q1 2 4.5 9.5t7 16t6 15.5t2.5 8zM121 94q0 8 -0.5 15.5t-1.5 15.5q0 2 -2 3.5t-3 2.5l-3 -2q2 -6 1.5 -12.5t-0.5 -13.5v-6q0 -13 4 -21l3 2q2 10 2 16
zM548 425q0 4 -1 7.5t-2 7.5l-2 2q-7 -2 -9.5 -9t-3.5 -14q1 0 1 -1t1 -1q5 4 7.5 4.5t8.5 -0.5v4zM350 602q0 5 -3.5 9t-6.5 6q-3 -5 -3 -9q0 -11 10 -11l2 1q1 1 1 4zM433 182h-8q-7 0 -7 -7t7 -7q2 0 4.5 6t3.5 8zM167 621l-3 13l-3 1l-8 -14h14z" />
    <glyph glyph-name="E" unicode="E" horiz-adv-x="600" 
d="M550 57q0 -14 -4.5 -28.5t-19.5 -20.5q-11 -4 -17 -6t-11 -3t-11 -1.5t-18 -0.5q-44 0 -87 3t-88 3q-11 0 -21.5 -1t-21.5 -1q-14 0 -28.5 1.5t-28.5 1.5q-8 0 -16.5 -2t-17.5 -2q-11 -1 -22.5 -0.5t-22.5 0.5q-16 0 -23.5 8t-10.5 18.5t-3.5 20.5t-3.5 13v4q0 41 1 81.5
t1 81.5q0 10 -0.5 19.5t-0.5 19.5q0 17 2 32.5t2 31.5q0 14 -2.5 27.5t-2.5 27.5q0 12 1 23.5t1 23.5q0 18 -1.5 36.5t-1.5 36.5q0 12 1 23.5t1 23.5q0 9 -2.5 17.5t-2.5 18.5q0 17 0.5 34t0.5 34q0 16 12 30t29 14q11 0 20.5 -2t19.5 -2q8 0 14.5 1t13.5 1q12 0 23.5 2.5
t22.5 2.5q9 0 18 0.5t18 0.5q6 0 12 -0.5t12 -0.5q18 0 36 2t36 2q6 0 12 -1t12 -1q8 0 15.5 -1t15.5 -1q16 -1 31 -1.5t30 -0.5q10 0 19.5 0.5t18.5 0.5q11 0 20.5 -8.5t9.5 -19.5v-48.5t-1 -47.5q-1 -9 -5.5 -18.5t-15.5 -9.5q-6 0 -12.5 1t-12.5 1q-8 0 -16.5 -1
t-17.5 -1q-13 0 -25.5 0.5t-25.5 0.5q-45 0 -90 -1t-90 -3v-24q0 -11 -0.5 -21.5t2.5 -18.5t10 -12.5t22 -4.5q12 0 24 2.5t24 2.5q8 0 16 -1t16 -1q10 0 19.5 0.5t20.5 0.5q7 0 14 -0.5t15 -0.5q5 0 10 0.5t10 0.5q11 0 22.5 -0.5t22.5 -0.5q9 0 15 -6l7 -3q8 -3 10.5 -7.5
t3.5 -12.5l4 -24t2 -23q0 -8 -0.5 -17t-0.5 -17q0 -17 -4.5 -26t-23.5 -11q-18 -2 -36.5 -4t-37.5 -2t-37.5 1.5t-37.5 1.5q-22 0 -50 -0.5t-49 -4.5q-5 -1 -6.5 -6.5t-1.5 -9.5q-2 -26 -3.5 -51.5t-1.5 -51.5v-37q1 -7 8 -7q17 -2 33 -2h33q11 0 21 0.5t21 0.5
q12 0 23.5 -0.5t23.5 -0.5q5 0 10.5 1t10.5 0h48.5t48.5 -2q4 0 8 -0.5t9 -0.5q12 0 16.5 -11.5t4.5 -21.5q0 -9 -1 -18.5t-1 -18.5q0 -5 1.5 -10t1.5 -10zM382 363q-2 2 -3 4t-5 3q-13 2 -27.5 1t-27.5 -1q-8 0 -22 -2.5t-23 -4.5l1 -1l4 -2v-1l1 1q13 -1 26.5 -2.5
t27.5 -1.5q10 0 25 1t23 6zM337 74q0 2 -4 3t-9 1h-10h-7q-5 0 -8.5 0.5t-8.5 0.5q-13 0 -27 -7v-1q16 -1 31.5 -1.5t30.5 -0.5q3 0 7.5 0.5t4.5 4.5zM329 639l-3 1q-14 0 -29 1t-29 2h-3q-3 0 -8 -1.5t-7 -5.5q7 -1 13.5 -2t13.5 -1h24t24 2q3 1 4 4zM132 376v19v12t-5 10
l-2 -3q2 -15 1 -30.5t4 -30.5q2 5 2 11v12zM503 63q-6 2 -9 2q-7 0 -10.5 -4t-6.5 -9q8 -4 13 -4q6 0 9 5t4 10zM138 643q0 7 -8 7q-4 0 -6 -3t-2 -6t2.5 -6t5.5 -3t5.5 4.5t2.5 6.5zM160 183q-2 1 -8 1q-3 0 -6.5 -1.5t-3.5 -6.5q0 -1 5 -6q7 3 9 4t4 9zM478 416
q-2 0 -4 0.5t-4 0.5q-3 0 -6.5 -2t-3.5 -6q0 -2 1.5 -3t3.5 -3q7 2 9 3.5t4 9.5zM517 608l-4 3q-2 0 -6.5 -3.5t-4.5 -6.5l1 -3q1 -1 2 -1q3 0 7.5 4t4.5 7z" />
    <glyph glyph-name="F" unicode="F" 
d="M528 666q0 -45 -6 -88q-1 -11 -13 -14q-18 -5 -33 -5q-6 0 -12 1t-12 1q-11 0 -21 -2t-21 -2q-13 0 -26 -1t-26 -1q-7 0 -13.5 1t-13.5 1q-6 0 -11.5 -1t-11.5 -1q-9 0 -17.5 0.5t-17.5 0.5h-17t-17 -1t-8 -9q0 -30 3 -58q0 -6 6 -6h18q13 0 25.5 1.5t25.5 1.5
q11 0 22.5 -1.5t22.5 -1.5q15 0 30 1t31 1q9 0 18 -1t18 -1q8 0 15 1.5t14 1.5q16 0 22.5 -17t6.5 -30q0 -20 -1.5 -46t-3.5 -47q0 -8 -7 -11q-11 -5 -18.5 -6.5t-19.5 -1.5q-11 0 -23 0.5t-24 0.5q-19 0 -37.5 -1.5t-37.5 -1.5q-23 0 -45 -0.5t-45 -2.5q-8 0 -9 -8v-47
q0 -25 0.5 -49.5t1.5 -49.5v-52q1 -14 2 -29t1 -29q0 -10 -0.5 -19t-1.5 -19q0 -13 -13 -16q-23 -5 -48 -5.5t-48 -0.5q-9 0 -22.5 1.5t-21.5 5.5q-5 2 -7 7t-3 10q-2 11 -3 22.5t-1 22.5t0.5 22.5t0.5 22.5q0 22 -0.5 44t-1.5 44q-1 20 -0.5 40t-1.5 40q-1 4 -1 8v8
q0 17 1.5 32.5t1.5 32.5q0 21 0.5 41.5t0.5 40.5q0 15 -0.5 30.5t-0.5 30.5q0 4 0.5 8t0.5 8q0 8 -0.5 14.5t-0.5 14.5q0 20 2 39t2 39q0 10 -1 19.5t-1 19.5q0 12 5 25q2 6 7.5 7.5t10.5 2.5q21 1 41.5 1.5t40.5 0.5q8 0 14 -1t13 -1q28 0 55.5 1t54.5 1h96t96 -2
q16 -1 17.5 -11.5t1.5 -22.5zM146 146q0 14 -0.5 31.5t-4.5 31.5l-4 6q-1 -3 -1.5 -5.5t-0.5 -5.5v-47.5t4 -47.5h3q4 6 4 17.5v19.5zM148 598q0 5 -0.5 12.5t-6.5 9.5v-17.5t-1 -17.5q0 -4 -2 -10v-64v-18.5t4 -16.5q2 21 2.5 42.5t0.5 43.5q0 9 1.5 18t1.5 18zM358 426
q-2 5 -8 5h-10q-8 0 -14 -2t-13 -2h-19t-18 -1q-7 0 -11 -4q5 -4 14 -4q10 0 20 1t20 3q9 3 19 2.5t20 1.5zM324 637q-6 2 -16 3t-17 1t-18 -1t-17 -4q6 -3 15.5 -4t16.5 -1q8 0 18.5 1t17.5 5zM476 601h-3q-7 1 -14 -1.5t-10 -9.5q5 -1 9 -2t9 -1q7 0 8 4.5t1 9.5zM173 350
q0 11 -8 17q-2 -5 -2.5 -9t-0.5 -10q0 -10 3 -14q8 6 8 16zM431 388l-1 4q-4 2 -7 2q-2 0 -6.5 -2t-4.5 -5q0 -4 3.5 -4.5t6.5 -1.5q6 4 9 7zM202 42q0 7 -6 11q-2 -3 -3.5 -6t-1.5 -6q0 -1 0.5 -2t0.5 -2l8 -2q2 4 2 7z" />
    <glyph glyph-name="G" unicode="G" horiz-adv-x="683" 
d="M613 210q0 -4 -0.5 -8t-0.5 -9q0 -26 0.5 -51.5t0.5 -51.5q0 -9 -1 -17.5t-4 -16.5q-3 -6 -7 -10l-9 -9q-25 -27 -61 -33.5t-71 -6.5t-71.5 3.5t-69.5 15.5q-11 5 -21.5 8t-22.5 5q-6 1 -19.5 9t-28.5 18t-28.5 19.5t-20.5 14.5q-11 7 -20.5 16.5t-17.5 19.5
q-14 15 -26 35q-7 11 -11 24t-12 24q-10 17 -15.5 32t-7.5 35q-1 6 -3.5 12.5t-2.5 11.5q0 12 -1 23.5t-1 23.5q0 9 2 16t4 16q3 14 3.5 23t2 16.5t4 16.5t9.5 23q8 19 17 37.5t19 36.5q8 14 24.5 33t28.5 30q16 15 34 25l6 3q11 10 21.5 15.5t24.5 11.5q18 8 36 16.5
t37 12.5q5 2 8.5 1.5t7.5 1.5q12 3 29.5 5.5t35.5 4.5t35 3t30 1q26 0 53 -10t50 -22q7 -4 7 -13l4 -62h-2q1 -13 1.5 -26t0.5 -26v-15t-1 -15q-1 -9 -10 -10q-2 -1 -7 -1q-9 0 -17 5q-12 7 -23 12t-25 8l-8 3q-15 9 -32.5 9.5t-34.5 0.5q-32 0 -67.5 -12t-64.5 -33.5
t-48 -51.5t-19 -65q0 -17 2 -32t5 -31q3 -13 10 -28t16.5 -28.5t21.5 -24t25 -15.5q14 -6 28 -11l28 -10q22 -8 44 -8q5 0 9.5 0.5t9.5 0.5q9 0 13.5 0.5t5.5 3t0.5 8t-0.5 16.5q0 12 0.5 20t-1.5 13t-8 7t-20 2q-6 0 -12 -0.5t-13 -0.5q-13 0 -23 3q-6 1 -9.5 7.5t-6 14
t-3.5 15.5t-1 13q0 20 1.5 40t5.5 40q2 11 9 14.5t18 3.5q8 0 14.5 -0.5t14.5 -0.5q3 0 6 0.5t6 0.5q8 0 14.5 -1.5t14.5 -1.5q7 0 13.5 1.5t12.5 1.5h41q9 0 19.5 0.5t21 -0.5t19 -5.5t11.5 -14.5q2 -6 4 -12.5t2 -13.5q0 -6 0.5 -11.5t1.5 -11.5q2 -29 4 -63t2 -63z
M156 185q-2 13 -10.5 26t-12.5 27q-3 10 -5.5 20t-4.5 20q-1 3 -2 10t-6 7q-2 -6 -2 -10q0 -16 6 -35t11 -33q5 -11 10 -19t16 -13zM403 633v1q-5 3 -14 3h-16q-8 0 -16 -1.5t-16 -1.5q-15 -2 -26.5 -10t-23.5 -16q2 -2 4 -2q1 0 6.5 2t12 5t11.5 5.5l7 3.5q11 6 24.5 7
t25.5 1q5 0 11 -0.5t10 3.5zM560 140v14t-0.5 19t-1.5 18.5t-3 12.5q-3 -3 -3 -8v-38q0 -17 4 -32h2q1 4 1.5 7t0.5 7zM530 334q-12 4 -25.5 4.5t-26.5 0.5q-4 0 -7 -0.5t-7 -1.5q8 -3 17.5 -5.5t17.5 -2.5q16 0 31 5zM524 596q0 4 -2 9t-7 5q-10 0 -10 -9q0 -5 3.5 -9.5
t8.5 -4.5q7 0 7 9zM325 97l-5 23l-4 1l-15 -24h24zM207 448q0 7 -5 7t-10 -5.5t-5 -10.5t5 -5q4 0 9.5 5t5.5 9zM406 368q0 3 -2 7q-6 0 -8.5 -6t-2.5 -11t5 -8q2 5 5 9t3 9zM555 52q0 2 -3 4l-19 -11q6 -2 10 -2t8 2t4 7z" />
    <glyph glyph-name="H" unicode="H" horiz-adv-x="726" 
d="M656 411q0 -11 -1.5 -20.5t-1.5 -19.5q0 -5 0.5 -10.5t0.5 -10.5q0 -4 -0.5 -7.5t-0.5 -7.5q0 -7 0.5 -13.5t0.5 -13.5q0 -19 0.5 -37t0.5 -36q0 -8 -1.5 -15t-1.5 -15q0 -7 1 -13.5t1 -13.5v-59q0 -10 -1 -20.5t1 -19.5q1 -5 1 -14q0 -10 -1 -19.5t-1 -19.5q0 -8 -2 -12
t-10 -7q-10 -4 -27.5 -4.5t-28.5 -0.5q-10 0 -19.5 0.5t-19.5 0.5q-11 0 -21.5 -0.5t-21.5 0.5q-8 1 -10.5 3.5t-4.5 10.5q-3 16 -3 32q0 10 0.5 19t0.5 19q0 22 -1 43t-1 43q0 23 0.5 46t0.5 46q0 8 0.5 17.5t-1.5 17.5t-8 8q-5 0 -9.5 -0.5t-9.5 -0.5q-8 0 -17 0.5
t-17 0.5t-15 -1t-15 -1q-21 0 -42 1.5t-42 1.5q-14 0 -26.5 -0.5t-26.5 -0.5q-5 -1 -8 -3t-4 -8q-1 -10 -0.5 -20t-0.5 -21q0 -11 -0.5 -21.5t-0.5 -21.5q0 -9 2 -17.5t2 -17.5q0 -8 -1.5 -16.5t-1.5 -17.5q0 -31 1.5 -63.5t-2.5 -63.5q-1 -8 -4 -11t-11 -5q-10 -3 -20 -3.5
t-20 -0.5q-18 0 -36.5 0.5t-36.5 1.5q-22 2 -29 24q-2 8 -4.5 17t-2.5 17q0 12 1 23.5t1 23.5q0 11 -0.5 21t-1.5 20q-1 18 -1.5 36t-0.5 35q0 8 2.5 15.5t2.5 15.5t-1.5 15t-1.5 15q-1 14 -0.5 28t-0.5 28q0 5 -0.5 11t-0.5 11t1 9.5t1 9.5q0 35 -2 70.5t-3 70.5
q0 14 0.5 27.5t-0.5 27.5q0 3 -1 6t-1 7q0 13 -0.5 26t-0.5 27q0 8 1 14.5t2 14.5q1 13 10.5 19.5t22.5 9.5t26.5 3.5t22.5 0.5q17 0 31.5 -0.5t31.5 -4.5q17 -3 20 -21l4 -20t3 -20q1 -14 0 -28t0 -28q0 -18 2.5 -35.5t3.5 -36.5q0 -5 1 -9t1 -9q0 -4 -1 -6q-1 -6 7 -9
t19 -4t21.5 -1h14.5q11 0 21.5 1.5t21.5 2.5q24 2 48 1.5t49 1.5q6 0 11 2t5 9q1 14 1 28v28q0 20 -1.5 39.5t-1.5 39.5q0 28 3 57q2 10 10.5 15.5t17.5 5.5q10 0 19 -2t18 -2q11 0 20.5 0.5t20.5 0.5q7 0 14 -1t14 -1q5 0 8.5 1t8.5 1q16 0 22.5 -10t6.5 -25
q0 -8 -0.5 -15.5t-0.5 -15.5q0 -28 1 -55t1 -55q0 -6 -1 -12.5t-1 -12.5q0 -20 3 -41t3 -41zM609 530q0 4 -0.5 8t-3.5 7q-5 -4 -5 -11q-1 -6 -3 -19t-2 -15q0 -5 0.5 -16.5t1.5 -23.5t2 -22.5t2 -14.5q5 2 5 9v16q0 6 1 12t1 12q0 15 0.5 29.5t0.5 28.5zM148 302v22.5
t-5 20.5l-2 -1q-2 -10 -3.5 -19.5t-1.5 -19.5v-72q0 -5 3 -8q0 8 2 12q6 8 6.5 20.5t0.5 23.5v21zM557 169q0 19 -3 38.5t-7 37.5l-1 -1q0 -14 -0.5 -27t-0.5 -27v-15v-13t1 -18.5t2 -17.5t3 -9q3 1 3 7v15q0 8 1.5 15t1.5 15zM405 393q-5 2 -11 3t-11 1q-3 0 -14.5 -0.5
t-24 -1.5t-22.5 -1.5t-11 -1.5l-1 -1q8 -2 14 -5t15 -3q11 0 21.5 3t21.5 3q6 0 12 -0.5t11 4.5zM209 483q0 6 -0.5 12t-1.5 12q-5 -8 -8 -19t-3 -22v-6q4 -2 6 -2q5 0 6 10.5t1 14.5zM549 601q0 5 -4 7.5t-8 4.5q-4 -4 -4 -10q0 -3 2 -9t6 -6q3 0 5.5 5t2.5 8zM141 634
q0 5 -1 11.5t-7 6.5h-3v-14q0 -10 4 -18q7 7 7 14zM622 31q0 6 -6 12q-3 -4 -5.5 -8t-2.5 -9q0 -6 4 -10q4 3 7 6.5t3 8.5zM599 348q0 7 -10 7h-11q1 -6 2.5 -10t8.5 -4q10 0 10 7zM157 75q0 2 -1 5.5t-3 3.5q-7 0 -7.5 -5t-1.5 -10q1 -1 4 -1h1q8 0 8 7z" />
    <glyph glyph-name="I" unicode="I" horiz-adv-x="315" 
d="M245 130q0 -15 -3 -30t-3 -31q0 -6 1.5 -12t1.5 -13q0 -17 -5 -29t-24 -14q-11 -2 -21 -3t-21 -1q-18 0 -39 2t-38 7q-16 4 -18 23q-1 8 -1 16v16q0 15 1 30t1 31q0 15 -0.5 29.5t-0.5 29.5q0 4 0.5 7.5t0.5 7.5q0 19 -1 37.5t-1 37.5q0 8 0.5 16.5t-0.5 16.5
q0 11 -0.5 23t-0.5 24q0 35 0.5 70t0.5 70q0 22 -1 43t-1 42l1 19q0 14 -2 27t-2 27v11t1 11q1 10 13 16.5t21 6.5h83q17 0 22 -3.5t19 -9.5q10 -4 10 -18q2 -10 1.5 -19.5t-0.5 -19.5t0.5 -20t0.5 -21q0 -20 -0.5 -39t-0.5 -39v-70q1 -25 2.5 -49t1.5 -49q0 -15 -1.5 -29.5
t-3.5 -28.5v-3q-1 -8 2 -14.5t3 -13.5q0 -15 -2 -30.5t-2 -30.5q0 -14 2.5 -28.5t2.5 -28.5zM177 413q0 8 -3.5 14.5t-5.5 12.5h-1q-2 -10 -2 -14q0 -5 0.5 -10t0.5 -10q0 -15 -1.5 -29.5t-1.5 -28.5v-13.5t0.5 -15.5t3 -14.5t7.5 -10.5v9q0 14 1 28.5t1 29.5q0 8 -0.5 16
t-0.5 16q0 5 1 10t1 10zM139 632q0 4 -1 8t-6 4q-12 0 -12 -13v-8.5t4 -6.5q7 0 11 5t4 11zM191 49q0 8 -1.5 15t-7.5 13q-2 -5 -3.5 -10.5t-1.5 -10.5q0 -4 2 -9t7 -5t5 7z" />
    <glyph glyph-name="J" unicode="J" horiz-adv-x="531" 
d="M471 371q0 -9 -2 -17.5t-2 -17.5l-1 -63q0 -8 1 -15t1 -14q0 -12 -3 -24t-3 -23v-21.5t-5 -20.5l-2 -6q-3 -15 -8.5 -27.5t-16.5 -23.5l-3 -3t-2 -3q-7 -18 -17.5 -29t-24.5 -24q-11 -11 -25.5 -17t-28.5 -11q-8 -2 -19 -5.5t-19 -3.5h-33t-32 1q-8 1 -20 4t-24 7
t-23.5 8.5t-18.5 8.5q-11 5 -20.5 12t-20.5 14q-7 5 -13.5 9t-11.5 11q-9 10 -15.5 19t-9.5 23q-2 6 -5.5 10.5t-3.5 12.5q0 11 10 19q4 4 16 12.5t26 17.5t26.5 15.5t17.5 6.5q24 0 39 -17q23 -28 58 -40q1 0 2 -0.5t3 -0.5q5 0 9 2l8 4q20 7 28 28t10 40q2 14 3 29t1 29
q0 19 -1.5 38t-1.5 38q0 25 0.5 49t0.5 49q0 15 -1.5 30t-1.5 31q0 32 1.5 65t1.5 65q0 4 -0.5 7.5t0.5 7.5q4 17 16 22.5t28 5.5q2 0 5 -0.5t5 -0.5q15 0 29.5 0.5t29.5 0.5q13 0 28.5 -3.5t18.5 -20.5q2 -7 4.5 -15t2.5 -14q0 -34 0.5 -67t0.5 -66q0 -5 -0.5 -10.5
t-0.5 -10.5q0 -13 2.5 -25.5t2.5 -26.5q0 -6 -1 -12t-1 -13q0 -11 3 -20.5t3 -19.5zM398 464q0 8 -4 16q-2 -12 -3.5 -23t-1.5 -24v-11v-9.5t0.5 -14t1.5 -13.5t3 -7q2 2 2.5 5.5t0.5 6.5q0 19 0.5 37t0.5 37zM278 53q-2 4 -4 4q-8 0 -16.5 -2t-16.5 -2q-5 0 -8.5 2t-8.5 2
h-15q-1 0 -2.5 -1.5t-3.5 -1.5q5 -4 16.5 -8t17.5 -4q4 0 6 1q8 4 17 4t15 2zM397 169q0 8 -4 15q-3 -3 -5.5 -9t-4.5 -13t-3.5 -14t-1.5 -10v-3q10 3 14.5 14t4.5 20zM399 620q0 4 -1.5 7.5t-6.5 3.5q-8 0 -8 -10.5t-1 -15.5q7 0 12 4t5 11zM102 124l-1 6q0 6 -5 6t-10 1
q3 -5 6 -7t7 -7z" />
    <glyph glyph-name="K" unicode="K" horiz-adv-x="633" 
d="M583 685q0 -11 -9 -22.5t-15 -19.5q-41 -57 -78 -114q-11 -17 -20.5 -35t-20.5 -35l-27 -40q8 -22 14.5 -44t15.5 -42q3 -8 13 -31.5t23.5 -55.5t28 -68.5t26.5 -69.5t20 -58.5t8 -35.5q0 -5 -4.5 -8t-11 -4.5t-13 -1.5h-10.5q-6 0 -12.5 0.5t-12.5 0.5q-14 0 -28 -0.5
t-28 -0.5q-7 0 -13 0.5t-13 0.5q-16 -1 -19.5 6.5t-8.5 19.5l-36 91q-13 32 -27 64t-27 64q-14 -23 -28.5 -45t-29.5 -45q0 -32 -0.5 -63t-0.5 -63q0 -3 0.5 -6t0.5 -6q0 -12 -8.5 -14.5t-18.5 -2.5q-4 0 -7.5 -1t-7.5 -1q-13 -1 -26 -1h-27q-20 0 -39 3t-24 7.5t-7 24.5
q-2 18 -2 36v36q0 9 1 18t1 18q0 54 -1 108t-1 108q0 24 0.5 48t-0.5 48q0 20 -1.5 39.5t-1.5 39.5q0 12 1 23.5t1 23.5q0 6 -1 12t-1 11q0 14 0.5 27.5t0.5 27.5t1.5 21.5t5.5 11.5t11 4.5t19 1.5q34 3 71 3q4 0 8 -0.5t8 -0.5h8q17 -2 26 -6.5t9 -24.5q0 -27 -1 -54
t-1 -54q0 -26 1 -51t3 -51q26 38 50 75.5t50 75.5l15 23q18 23 29 45q9 19 31 22q9 2 18.5 1.5t19.5 -0.5h76q7 0 13.5 0.5t13.5 0.5q8 0 17.5 -2t9.5 -13zM448 143l-5.5 13.5t-12.5 30.5t-14 32.5t-9 21.5q-2 3 -4.5 6.5t-4.5 6.5q0 -2 -2 -4q2 -9 8 -25t13.5 -32.5t15 -31
t13.5 -22.5q2 2 2 4zM383 541q-3 0 -5 -1q-7 -6 -17.5 -19t-21 -27.5t-19.5 -28.5t-13 -22l2 -1q2 0 3 1.5t3 3.5q6 8 16 20.5t20 25.5t18.5 26t13.5 22zM160 232q0 4 -0.5 12.5t-3.5 11.5q-4 -2 -4 -8.5v-10.5q0 -5 0.5 -9t0.5 -9t-1.5 -9t-1.5 -8v-25t2 -25q4 -2 6 -11
q1 3 1 9q0 9 -1 18t-1 19q0 3 1.5 6t1.5 7v32zM456 43q-1 8 -6 18t-10 15l-5 -15l11 -27q2 3 3.5 6t6.5 3zM130 644q0 2 -1.5 4.5t-2.5 4.5l-4 2q-2 -2 -2 -5v-6v-10v-10t8 -7q1 7 1.5 13.5t0.5 13.5zM284 346q0 3 -5.5 7t-8.5 5q0 -4 -0.5 -7.5t-0.5 -6.5q0 -6 4 -10
q3 2 7 4.5t4 7.5zM433 669q-8 -4 -12 -11t-4 -15v-1q11 7 13 10t3 17zM112 42q-2 2 -5 2q-6 0 -6 -8q0 -5 3 -6t7 -2zM155 478q-2 0 -3 0.5t-3 0.5q-5 0 -5 -8q0 -7 9 -7z" />
    <glyph glyph-name="L" unicode="L" horiz-adv-x="477" 
d="M426 55q0 -5 -0.5 -12.5t-2 -15t-4 -13.5t-7.5 -8q-8 -2 -17 -4.5t-18 -2.5q-5 0 -8.5 1t-8.5 1q-20 0 -40 -1t-40 -1q-9 0 -18 -1t-18 -1q-14 0 -27 0.5t-27 1.5q-25 1 -53.5 1t-51.5 11q-3 1 -5.5 5.5t-5 10.5t-3.5 12t-1 9v16t1 16l1 1v69q0 7 1.5 14t1.5 14t-1.5 13
t-1.5 12q0 5 1.5 10.5t1.5 11.5q0 18 -2 35.5t-2 35.5q0 6 2 12t2 13q0 6 -0.5 12t-0.5 13t1 13.5t1 13.5v48t-1 48q0 9 -0.5 18t-0.5 18q0 6 1 11.5t1 11.5q0 11 -1.5 22.5t-1.5 23.5q0 11 2 20.5t2 20.5q0 13 -1 26t-1 26q0 23 11 29.5t31 6.5q12 0 23.5 -2.5t23.5 -2.5
q8 0 16 0.5t16 0.5h17.5t15 -2t10.5 -8.5t4 -18.5q0 -17 -2.5 -34t-2.5 -34q0 -6 1 -12t1 -12q0 -14 -0.5 -28.5t-0.5 -28.5q0 -12 2 -24.5t2 -24.5t-2 -23.5t-2 -23.5q0 -13 2 -26t2 -26q0 -14 -2 -27.5t-2 -27.5q0 -16 2 -31t2 -31q0 -13 -1.5 -25t-1.5 -25
q0 -9 0.5 -18.5t1.5 -18.5q0 -6 2.5 -7.5t8.5 -1.5q12 0 24.5 1t25.5 1q21 0 42 -1t42 -1q4 0 8 0.5t8 0.5q7 0 12.5 -4.5t7.5 -10.5t2.5 -18t0.5 -26v-27v-20zM132 183v18t-1 18q0 5 -4 5q-1 0 -2 -0.5t-2 -0.5q-1 -15 -2 -29.5t-1 -28.5q0 -21 3 -40q2 3 4 11t3 17t1.5 17
t0.5 13zM132 462v11q0 7 -0.5 21t-3.5 19h-1q-3 -14 -4 -29t-1 -29q0 -9 1 -19t3 -20l3 -3q3 24 3 49zM330 62q0 5 -8.5 6t-12.5 1q-6 0 -11.5 -2t-11.5 -2q-5 0 -10 0.5t-10 0.5t-5 -3q0 -6 7 -6h61q0 1 0.5 2t0.5 3zM149 638q0 6 -4 9.5t-9 5.5q-7 -7 -7 -15q0 -6 4 -12
q6 2 11 2.5t5 9.5zM189 332v11.5t-5 7.5t-6 -4.5t-1 -8.5v-12h6q6 0 6 6zM180 71q0 7 -6 13q-5 -1 -5.5 -5t-0.5 -8q0 -2 1 -6.5t4 -4.5t5 4t2 7zM382 127q0 7 -5 7t-7 -4.5t-2 -8.5q0 -5 5 -5q4 0 6.5 3.5t2.5 7.5z" />
    <glyph glyph-name="M" unicode="M" horiz-adv-x="803" 
d="M743 15q0 -8 -8 -11q-28 -7 -58.5 -6.5t-58.5 0.5q-13 0 -25 1t-23 8q-2 1 -3.5 6.5t-2 13t-1 14t-0.5 9.5q0 2 0.5 5t0.5 5v42q0 13 -2 25.5t-4 25.5q-3 23 -5 45l-4 44l-4 22t-2 22q0 8 -2 12.5t-5 11.5q-4 -5 -8 -11t-7 -12q-3 -5 -5.5 -11t-5.5 -12q-6 -15 -14 -29.5
t-17 -28.5q-2 -2 -4 -6q-5 -11 -11 -21.5t-15 -19.5q-4 -6 -5 -10l-12 -24t-13 -24q-4 -6 -10 -9.5t-12 -7.5q-3 0 -9 9t-12.5 20.5t-11.5 21.5l-6 12q-14 27 -29.5 53t-31.5 52q-10 17 -18.5 34t-18.5 34q-7 -2 -10 -5t-3 -11l-3 -39q-1 -5 -2.5 -8.5t-1.5 -8.5
q0 -14 -1 -26.5t-3 -26.5l-6 -98q-1 -11 -3 -23.5t-2 -23.5q0 -8 0.5 -17t0.5 -17v-8q-1 -5 -6 -7t-11 -3t-12 -0.5t-10 0.5q-8 0 -15 0.5t-14 0.5q-10 0 -19.5 -1t-18.5 -1q-4 0 -7 0.5t-7 0.5q-7 0 -13.5 -2t-13.5 -2q-17 0 -19 19q4 11 4 26q0 42 3 83q1 11 2.5 22
t1.5 22q0 19 4.5 37t4.5 38q0 6 -1 11.5t-1 11.5q0 7 1 17t2.5 21t2.5 21.5t2 18.5q2 20 4 39.5t4 39.5v13.5t2 12.5q4 20 8 40.5t4 40.5q0 4 -0.5 7t-0.5 7q0 14 1.5 29t5.5 28q2 6 1.5 12t0.5 12q2 13 3.5 25t3.5 24q1 11 14 16q21 8 43 8q21 0 36 -4t28 -22
q8 -11 14.5 -23.5t14.5 -24.5q24 -37 45 -76t41 -78l18 -36t20 -35l28 47q8 14 17.5 27.5t17.5 27.5q23 46 47.5 90t49.5 89q8 14 20.5 18t27.5 4q4 0 7.5 -0.5t8.5 -0.5h22t19 -9q13 -13 13 -32q1 -25 5 -49t7 -49q3 -30 7.5 -59.5t9.5 -59.5v-4q0 -35 6 -70t6 -69
q0 -19 2 -36.5t4 -35.5q4 -34 6.5 -67t5.5 -66q1 -11 4 -21t3 -21q0 -9 1 -18t1 -18zM188 296q0 7 -5 7q-3 -25 -6.5 -49t-2.5 -49v-11q10 3 10 11q2 23 3 45.5t1 45.5zM340 358q0 9 -4 16q-9 14 -18.5 27.5t-18.5 27.5h-14q3 -5 11 -16.5t16.5 -23.5t16 -21.5t11.5 -12.5v3
zM172 637q0 7 -5 8q-8 -10 -10.5 -27.5t-2.5 -30.5q0 -6 3 -10q5 3 8 11t4.5 17t2 17.5t0.5 14.5zM638 469q0 8 -1 15.5t-2 15.5h-11q1 -6 1.5 -18t1.5 -24.5t2.5 -23t3.5 -13.5h1q2 11 3 24t1 24zM638 52q0 15 -3 31t-5 30l-8 -1l8 -74h4q2 4 3 7t1 7zM442 241q0 2 -1 3
q-5 -5 -11 -13t-11 -18t-8.5 -19.5t-4.5 -15.5q4 3 10 11.5t12 18t10 19t4 14.5zM104 51q0 3 -1 9.5t-5 6.5q-5 0 -6 -5.5t-1 -8.5v-7.5t5 -5.5q4 0 6 4t2 7zM617 632q-1 -1 -1 3q0 2 -1 5t-3 4q-3 0 -5 -2q-2 -3 -3 -8.5t-1 -8.5q0 -2 2 -6q8 2 9 3.5t3 9.5zM525 410
q0 2 -3 8.5t-5 8.5l-5 3q-2 -2 -2 -7v-3q0 -9 4 -13q4 -2 5 -2q6 0 6 5zM168 448q-6 -1 -8 -2t-3 -7q-2 -6 -2 -12t-1 -11q6 7 10 14.5t4 17.5zM650 274q-2 1 -6 1q-6 0 -6 -7q0 -5 3 -6t7 -2z" />
    <glyph glyph-name="N" unicode="N" horiz-adv-x="684" 
d="M614 672q0 -19 -1.5 -37.5t-1.5 -38.5q0 -8 0.5 -16.5t0.5 -16.5q0 -11 -1.5 -22t-1.5 -22q0 -16 1 -32t1 -32q0 -8 -2 -18t-2 -20q0 -7 1 -13t1 -13q0 -42 -0.5 -84.5t-0.5 -85.5q0 -13 1.5 -25.5t1.5 -24.5q0 -7 -0.5 -13.5t-0.5 -13.5q0 -15 0.5 -32t0.5 -34t-2 -33.5
t-6 -30.5q-4 -11 -18 -13t-37 -2h-38t-30 1t-29 9q-11 6 -20.5 13.5t-15.5 18.5q-14 23 -34.5 53.5t-36.5 52.5q-11 14 -18 29.5t-17 29.5q-8 11 -15 22l-14 22q-10 14 -18.5 30.5t-22.5 27.5q-3 -6 -3.5 -15t-0.5 -16q0 -10 1 -19t1 -19v-33.5t1 -33.5q0 -9 1.5 -18.5
t1.5 -19.5v-24.5t-1 -24.5q0 -4 -0.5 -7.5t-0.5 -7.5q0 -9 0.5 -18t0.5 -18q0 -6 -2.5 -12t-6.5 -11q-3 -5 -8.5 -6t-10.5 -1q-6 0 -23.5 0.5t-37 1t-36 1.5t-20.5 2q-21 7 -21 30q0 26 1.5 51t1.5 51q0 35 -0.5 70.5t-1.5 71.5q-1 48 -3 96t-2 96q0 14 0.5 26.5t0.5 25.5
q0 34 0.5 75t7.5 73q2 10 9.5 15.5t17 8.5t20 3.5t19.5 0.5q5 0 9 -1.5t9 -1.5q3 0 6 1t6 1q9 0 15.5 -5t11.5 -12q21 -31 39.5 -63.5t38.5 -64.5l34 -50l11 -18q5 -8 11.5 -15.5t11.5 -15.5q23 -33 43.5 -67.5t43.5 -66.5h3q3 19 3.5 38.5t0.5 37.5q0 14 -0.5 26.5
t-0.5 25.5q0 48 2.5 94.5t2.5 94.5q0 8 -1 16t-1 16q0 12 4.5 17.5t12 8t16.5 3t17 0.5q6 0 12 0.5t12 0.5h1q11 -4 24.5 -5.5t24.5 -1.5h15t15 -2t11.5 -7t4.5 -15zM492 617q0 5 -0.5 15.5t-5.5 14.5q-4 -17 -5 -42.5t-1 -42.5q0 -10 1 -19t3 -18l3 -4h1q2 24 3 48t1 48z
M143 372q0 7 -1 21t-5 20l-2 -1l-2 -24t-1 -25q0 -12 1 -24t1 -25q0 -6 -0.5 -15t8.5 -9q0 7 0.5 13.5t0.5 13.5q0 9 -0.5 18t-0.5 17q0 5 0.5 10t0.5 10zM535 303q0 8 -2 10q-2 -3 -3.5 -20t-2.5 -38t-1.5 -40t-0.5 -26q0 -2 0.5 -6t3.5 -4t4.5 4t1.5 9v10v7
q-1 24 -0.5 47.5t0.5 46.5zM342 385q0 1 -2 3q-8 16 -18.5 30.5t-25.5 25.5q2 -6 6 -11t4 -12q7 -8 17 -21t17 -18q2 2 2 3zM428 133q0 7 -5 14q-3 4 -7 12t-8.5 16t-9 14.5t-6.5 8.5l-7 3q4 -12 10.5 -22.5t11.5 -21.5q4 -7 10 -11.5t10 -12.5h1zM144 69q0 6 -7 16.5
t-12 12.5v-23q0 -8 1 -12l16 -1q2 4 2 7zM162 583q0 3 -1 6.5t-5 3.5t-6.5 -4.5t-2.5 -7.5q0 -4 2 -5q1 -1 4 -1t6 2t3 6zM537 64q0 7 -5 10q-3 0 -4.5 -3.5t-1.5 -5.5v-8q4 0 7.5 1t3.5 6zM537 456q-2 0 -3 0.5t-3 0.5q-6 0 -6 -8q0 -7 10 -7z" />
    <glyph glyph-name="O" unicode="O" horiz-adv-x="840" 
d="M780 377q0 -17 -2.5 -44t-4.5 -44q-1 -4 -3.5 -10.5t-2.5 -8.5q0 -5 -2 -12.5t-5 -16t-6.5 -16t-6.5 -11.5q-8 -11 -13 -21t-9 -23l-3 -7q-24 -36 -54.5 -65.5t-68.5 -49.5q-6 -3 -16.5 -9.5t-22 -12.5t-21.5 -11t-15 -6l-46 -8t-46 -4q-10 0 -21 0.5t-20 2.5
q-20 4 -38.5 8.5t-37.5 9.5q-28 7 -49.5 16t-40.5 21t-37.5 26.5t-39.5 32.5q-9 8 -17 16.5t-14 19.5q-4 8 -9 14t-10 13q-11 18 -15 39t-12 41q-1 3 -3 14t-3.5 23t-3 22.5t-1.5 14.5q0 18 2 36l4 36q0 11 5 19t8 17q11 33 27 71.5t42 63.5l51 46q3 3 5.5 6.5t6.5 6.5
q11 8 22 15t23 13q8 4 15.5 6t15.5 5q23 9 41.5 16.5t44.5 9.5q12 1 24 1h25q7 0 14 -0.5t14 -0.5q5 0 9.5 0.5t9.5 0.5q21 0 41 -6q17 -5 34 -8.5t34 -9.5q11 -4 21 -9.5t21 -11.5q17 -10 31 -21.5t26 -28.5q2 -2 2.5 -3t2.5 -2q13 -11 21.5 -24.5t17.5 -27.5
q6 -9 10 -18.5t9 -18.5q12 -23 20.5 -41.5t12.5 -44.5q2 -11 4.5 -23.5t2.5 -23.5zM599 358q0 16 -6.5 37t-12.5 36q-7 20 -20 35.5t-28 29.5q-5 5 -17.5 10.5t-27.5 10.5t-29 8t-21 3h-32q-12 0 -20.5 -1.5t-15 -4t-12.5 -5t-13 -3.5q-9 -1 -14.5 -4.5t-12.5 -8.5
q-8 -6 -17.5 -11.5t-17.5 -12.5q-11 -9 -19 -22.5t-16 -26.5q-5 -9 -9.5 -21.5t-7.5 -26.5t-5 -27.5t-2 -23.5q0 -14 3.5 -33t11.5 -30q9 -16 28.5 -32.5t43.5 -30.5t48.5 -23t42.5 -9q6 0 11.5 1t10.5 2l53 5q6 1 14.5 4.5t17.5 8t16.5 9.5t12.5 9q8 6 12 13.5t11 14.5
q3 4 7 6.5t7 7.5q12 21 18.5 51t6.5 55zM329 579q0 1 -5 4q-5 -2 -8.5 -1.5t-6.5 -4.5q-2 -2 -5 -2q-14 -3 -21 -11t-15 -18v-3q0 -4 4 -4q3 0 6 3t4 5q5 7 13 11t15.5 7t13 6t5.5 8zM150 407v3l-2 1q-11 -15 -13.5 -35t-2.5 -38q0 -9 7 -15q3 10 3 18v15q0 14 4 27t4 24z
M660 203v3l-9 -15t-10 -13q-8 -5 -15.5 -14.5t-9.5 -17.5q7 1 15 7.5t15 15t11 18t3 16.5zM215 182q-5 10 -11 18.5t-15 14.5q-2 -2 -2 -8q0 -8 4 -17t11 -13zM456 71l-6 2t-7 1q-5 0 -8.5 -2.5t-8.5 -2.5q-26 0 -46 8h-4q1 -5 1 -6.5t5 -2.5q8 -2 15.5 -3t15.5 -1
q10 0 20 1t20 3zM704 412v11q0 5 -5 8q-3 -2 -6 -3t-5 -5q-4 -11 -4 -25v-4q3 3 11.5 8.5t8.5 9.5zM454 656q-1 5 -1.5 6.5t-5.5 2.5q-6 2 -12 2h-11q-24 0 -48 -6l-2 -3q6 -2 12 -2q5 0 9 3t9 3q13 0 23.5 -1t22.5 -5h4zM596 566v8q-4 2 -16 9t-15 7q-5 0 -9 -6zM178 508
q0 8 -8 8q-2 0 -5 -6.5t-3 -8.5q0 -4 3 -7q5 0 9 4.5t4 9.5z" />
    <glyph glyph-name="P" unicode="P" horiz-adv-x="633" 
d="M583 421q0 -7 -0.5 -13t-1.5 -13q-6 -29 -12 -50.5t-16 -39t-25 -32.5t-39 -31l-8 -6q-8 -11 -18 -15.5t-23 -9.5q-32 -13 -65.5 -19t-67.5 -10q-11 -1 -22.5 -1h-23.5q-8 -1 -10 -3.5t-3 -10.5q-1 -17 -1.5 -33t-0.5 -33v-34.5t2 -34.5q1 -3 1 -10q0 -5 -2.5 -14.5
t-10.5 -9.5q-10 0 -20 0.5t-19 1.5q-7 1 -13 2t-13 1q-16 0 -31.5 -1.5t-30.5 -1.5q-13 0 -22 9.5t-9 22.5v41.5t-2 42.5q0 4 -0.5 7.5t-0.5 8.5q0 9 3 17.5t3 17.5q0 11 -1.5 22.5t-1.5 23.5q0 18 0.5 36t0.5 36q0 13 -2 26t-2 24q0 9 0.5 17.5t-0.5 16.5q-1 14 -3 27
t-2 27q0 12 2.5 23t2.5 22t-1 23.5t-2 23.5h1q0 11 -1 21t-1 21q0 10 1 19t1 19q0 8 -0.5 15t-0.5 14q0 13 2 24t4 23q4 19 23 19q5 0 19.5 0.5t30 1t28.5 1t16 1.5q14 5 29 6t29 1q6 0 12 -0.5t12 -1.5q19 -2 37.5 -2.5t37.5 -1.5t37 -4t36 -9q11 -4 24 -7t23 -11
q15 -11 30.5 -22.5t27.5 -26.5q16 -20 26.5 -43t16.5 -48.5t8 -51.5t2 -51zM415 458q0 24 -11.5 42t-29.5 30t-40 17.5t-43 5.5q-10 0 -20 -0.5t-21 -0.5q-12 -1 -12 -12q0 -45 2 -90.5t2 -90.5q0 -8 -0.5 -14t0.5 -10t5 -6t14 -2q9 0 17.5 1.5t17.5 1.5q21 0 36.5 6.5
t32.5 18.5q10 7 17 16.5t14 18.5q14 17 17 40q1 7 1.5 13.5t0.5 14.5zM152 264q0 8 -1.5 26t-3.5 27h-2q-2 -21 -3 -41t-1 -41q0 -5 1 -6.5t3 -5.5q2 11 4.5 20.5t2.5 20.5zM309 245q-3 1 -8 1q-4 0 -7.5 -0.5t-7.5 -0.5q-8 0 -14.5 1.5t-13.5 1.5q-10 0 -13 -7q12 -6 25 -6
q10 0 19.5 2.5t19.5 5.5v2zM508 406v11v11t-5 9q-3 -37 -15 -70q3 0 6.5 4.5t6.5 11.5t5 13.5t2 9.5zM205 494q0 7 -0.5 13.5t-0.5 13.5q0 2 -2 3.5t-3 2.5l-3 -2q1 -4 1 -12q0 -11 -1 -21t4 -20l2 2q3 9 3 20zM437 291q0 5 -4.5 8t-8.5 5q-6 -8 -6 -17q0 -5 2 -13
q4 3 10.5 7.5t6.5 9.5zM142 634q0 5 -5 8t-8 5q-6 -8 -6 -17q0 -5 2 -13q3 3 10 7.5t7 9.5zM153 72q0 9 -9 14q-7 -9 -7 -18v-3q0 -7 4 -7q5 0 8.5 4.5t3.5 9.5zM307 630q-6 2 -9 2h-3q-3 0 -7.5 -1t-4.5 -5q0 -6 8 -6q9 0 11 1t5 9zM467 587q-2 0 -3 0.5t-2 0.5q-6 0 -6 -8
q0 -7 9 -7z" />
    <glyph glyph-name="Q" unicode="Q" horiz-adv-x="883" 
d="M823 -8q0 -8 -11.5 -7.5t-16.5 0.5q-24 0 -47.5 1t-47.5 1q-9 0 -18 -1t-18 -1q-17 0 -32 3q-7 1 -14.5 8t-14 15t-12.5 14.5t-10 6.5q-2 0 -7 -2t-7 -4q-9 -6 -15.5 -7t-17.5 -3q-8 -2 -14 -4q-23 -8 -49.5 -10t-50.5 -2q-2 0 -10 2q-7 4 -12 4.5t-13 0.5q-18 1 -43 5
t-50.5 11t-49 15.5t-38.5 18.5q-20 13 -38 29.5t-35 35.5q-12 14 -20 31.5t-16 34.5l-12 18q-8 13 -14 35t-6 36q0 5 0.5 8.5t0.5 8.5q0 11 -2 21t-2 21q0 10 1 20t1 20v10q0 6 4 20.5t9.5 31t10.5 31t8 22.5q14 37 35 67t49 58q7 7 17.5 14.5t22 14t23 12.5t20.5 10
q24 11 50 19.5t52 11.5q15 2 33.5 2.5t34.5 0.5q13 0 25 -1t25 -1q14 0 26.5 -3.5t26.5 -6.5q23 -6 42.5 -13t41.5 -19q7 -4 13 -9t13 -9q9 -5 19 -14.5t19.5 -21t18 -22.5t15.5 -20q16 -21 26 -38.5t16.5 -35.5t10.5 -37.5t9 -43.5q4 -17 6.5 -34t2.5 -34q0 -31 -8 -54
q-5 -20 -8 -38t-13 -37q-10 -20 -22 -40.5t-23 -40.5q6 -12 24 -31t37 -39.5t34 -38.5t15 -27zM613 356q0 7 -2 17.5t-5 21.5t-6.5 21.5t-6.5 17.5t-10 18.5t-16 23t-18 21.5t-15 16q-8 8 -17.5 13.5t-20.5 7.5q-18 5 -36 8t-37 3q-14 0 -25 -2.5t-24 -5.5
q-38 -7 -68.5 -32.5t-55.5 -53.5q-5 -6 -10 -17.5t-9.5 -24t-7 -25t-2.5 -19.5q0 -13 2 -25t3 -24q0 -33 18 -60q2 -3 4 -7t5 -8q33 -35 70.5 -60t89.5 -25q14 0 35.5 3t31.5 14q-20 23 -39.5 46t-39.5 46q-4 5 -8.5 9.5l-9.5 9.5q-3 4 -3 10q0 8 10 11q22 5 46.5 4.5
t46.5 0.5q13 1 26 3t25 2q23 0 35 -16t25 -32q13 18 13 35.5t4 37.5q1 5 1.5 8.5t0.5 7.5zM644 571q-4 11 -6 15.5t-10 12.5q-10 9 -17 14.5t-21 8.5q0 -8 8 -13q11 -8 20.5 -18t20.5 -18zM601 145q0 1 -4.5 9t-10.5 17t-12.5 16.5t-9.5 7.5q-2 0 -3.5 -1t-3.5 -2l1 -3
l40 -49q3 1 3 5zM468 267q-5 1 -9.5 2t-9.5 1q-7 0 -7 -6q0 -8 7 -17t14 -13q4 4 4 6q0 5 -1.5 8.5t-1.5 7.5q0 7 4 11zM726 332q0 4 -2 12q-1 -2 -3 -9t-4 -16t-4 -17.5t-3 -13.5q-1 -2 -1 -7v-11q8 13 12.5 30.5t4.5 31.5zM323 561l-2 1q-11 -3 -24.5 -6.5t-21.5 -13.5
q-2 -2 -3.5 -4.5t-1.5 -5.5v-2l5 1q7 5 14 12t15 9q5 2 10 3.5t9 5.5zM151 162q0 5 -5.5 11t-10.5 6q-3 0 -4 -1q2 -8 5.5 -14t12.5 -9q2 4 2 7zM152 384q0 11 -5 21q-2 -2 -4.5 -3.5t-2.5 -4.5q0 -4 4 -13.5t6 -13.5q2 10 2 14zM684 430q0 7 -3 15q-2 -1 -5 -3t-3 -5
q0 -4 3 -13t4 -14q2 5 3 10t1 10zM391 75q-7 0 -12 4q-2 1 -11.5 2.5t-11.5 1.5q-1 0 -2 -0.5t-2 -0.5q4 -5 11 -7.5t14 -2.5q8 0 14 3zM357 659q-4 4 -7 4q-4 0 -10.5 -3.5t-6.5 -8.5v-2q8 1 14 2t10 8zM705 37q0 5 -4 8t-9 3q-3 0 -6 -3q7 -9 17 -9h2v1z" />
    <glyph glyph-name="R" unicode="R" horiz-adv-x="700" 
d="M571 -2q-16 0 -31 -1t-31 -1q-23 0 -39 6.5t-28 26.5q-4 7 -12.5 18.5t-18 23.5t-18.5 23.5t-15 18.5q-11 13 -23 25t-21 26q-5 8 -10.5 13.5t-13.5 10.5q-2 1 -4.5 2t-4.5 1h-25.5t-26.5 -1q-1 -28 -1.5 -55.5t-0.5 -55.5q0 -14 0.5 -27.5t0.5 -27.5q0 -8 -6.5 -17
t-15.5 -9q-6 0 -12 0.5t-13 0.5h-29q-8 0 -15 -1t-15 -1q-10 0 -20.5 1t-20.5 3t-13.5 10.5t-4.5 16.5q-2 14 -3.5 26.5t-1.5 26.5q0 5 0.5 9.5t0.5 9.5q0 14 -2 26.5t-2 26.5q0 23 -0.5 45.5t-0.5 45.5q0 11 3 22t3 22q0 13 -2.5 27.5t-2.5 30.5q0 15 1 30.5t1 30.5
q0 13 -1.5 25t-2.5 25v125q0 17 -1.5 34t-1.5 34v15.5t1 15.5q3 12 14 15q22 5 43 5t43 1q5 1 11 2t11 1q8 0 16.5 -1t16.5 -1q10 0 20 0.5t20 0.5q20 0 38.5 -1t38.5 -1q12 0 22.5 -3.5t21.5 -5.5q15 -3 26 -3.5t21 -2t20.5 -6t25.5 -15.5q10 -8 18 -13t14 -17
q6 -11 11.5 -16t10 -9.5t9 -11.5t7.5 -22t11 -26q9 -10 10 -32t1 -36q0 -6 1 -12t1 -12v-25.5t-1 -25.5q0 -7 -2.5 -13t-3.5 -12q-2 -11 -5 -21t-8 -21q-3 -8 -6 -19t-8 -17l-45 -52q-2 -2 -8.5 -7.5t-6.5 -7.5q0 -1 10 -15.5t25.5 -35.5t34 -46t35.5 -48t30.5 -40t18.5 -23
q6 -8 6 -13q0 -11 -8.5 -15t-19.5 -5t-22.5 0t-18.5 1zM263 559q-11 0 -18 -1t-7 -13q0 -31 1 -62l2 -62v-10t1 -10q1 -11 2.5 -22t2.5 -22q2 -16 8 -17t23 -1q10 0 19 1t19 3q11 2 18.5 8.5t15.5 12.5q7 4 17 12t19 17.5t15 19.5t6 19q0 5 -1.5 8.5t-1.5 7.5q0 5 2 9.5
t2 9.5q0 22 -10.5 36.5t-26 24t-34.5 15.5t-36 11q-10 2 -19 3.5t-19 1.5zM521 492q0 11 -5 19q-1 -1 -2 -1q-1 -6 -3 -11t-2 -11q0 -2 0.5 -4.5t0.5 -4.5q0 -4 -1 -6q-2 -5 -2 -11v-12q0 -15 -6 -31q11 7 13.5 16t4.5 21q1 9 1.5 18t0.5 18zM469 86v4q0 3 -5.5 10.5
t-12 16.5t-13 17t-9.5 11q-5 4 -12 6q0 -2 -0.5 -3t-0.5 -2q11 -21 23.5 -32.5t29.5 -27.5zM142 328q0 5 -0.5 10.5t-1.5 10.5h-1q-1 -3 -1.5 -14.5t-1 -25.5t-0.5 -27v-18v-9.5t1 -9.5h1q2 0 3 2l2 4q2 9 1.5 28.5t-2.5 28.5v20zM357 633q-3 4 -9 4q-16 0 -32 -0.5
t-32 -0.5q-4 0 -6 -4l3 -3q2 -1 4.5 -0.5t4.5 0.5q7 0 13.5 -1.5t12.5 -1.5q11 0 21 2t20 5zM394 297q-2 1 -5 1l-6.5 -2.5t-14.5 -5.5t-15 -6t-8 -4q4 -2 7.5 -4t8.5 -2q8 0 18.5 8t14.5 15zM127 643q0 3 -1.5 9.5t-5.5 6.5q-5 0 -5 -7v-3q0 -3 1 -8.5t5 -5.5q3 0 4.5 3
t1.5 5zM137 58q0 11 -4 18q-7 -2 -7 -8q0 -4 3.5 -13t5.5 -14q1 5 1.5 8.5t0.5 8.5zM179 500q0 5 -3 8.5t-7 5.5q-1 -3 -2 -7t-1 -7q0 -6 7 -6q6 0 6 6zM556 55q0 4 -4 6t-7 2l-3 -3v-1q0 -9 8 -9v-1l1 1q5 2 5 5z" />
    <glyph glyph-name="S" unicode="S" horiz-adv-x="638" 
d="M578 246q0 -8 -1.5 -16.5t-1.5 -16.5q0 -10 1 -19t1 -18q0 -11 -1.5 -16.5t-4 -10t-5.5 -9.5t-5 -14q-5 -17 -14 -30t-20 -26q-8 -9 -16.5 -18.5t-17.5 -17.5q-2 -2 -7 -5q-14 -6 -26.5 -11.5t-26.5 -10.5q-6 -2 -18 -4t-25.5 -3.5t-25.5 -2t-19 -0.5q-23 0 -48 5t-48 11
q-26 6 -49 19l-28 14q-23 15 -39.5 29.5t-30.5 38.5q-8 13 -15 25t-12 26q-4 11 -9.5 30t-5.5 29q0 12 8 19t19 10.5t23 4.5t20 1h39.5t39.5 -1q7 -1 12.5 -7t9 -14t5.5 -16.5t4 -14.5q4 -14 15.5 -24t26.5 -17.5t30.5 -11t28.5 -3.5q34 0 54.5 16t20.5 52q0 13 -4.5 20
t-15.5 14q-13 9 -38.5 19t-55 19t-57 17t-44.5 13q-7 2 -14 3.5t-14 3.5q-10 3 -17 9q-8 8 -16.5 16t-17.5 16t-16.5 22.5t-13.5 31t-9 33t-3 28.5q0 5 1 14t2.5 18.5t3.5 18t4 13.5q4 10 7.5 19t6.5 19q4 14 12.5 24t18.5 21q3 3 9 9.5t12.5 13t13 12t9.5 6.5
q38 16 69.5 24t73.5 8q16 0 31 -3q10 -2 19.5 -3t19.5 -3t23 -6.5t26.5 -11t25.5 -13.5t20 -13t13 -17q9 -20 21 -36q14 -20 18.5 -47.5t4.5 -51.5q0 -3 -0.5 -6.5t-0.5 -7.5q0 -29 -28 -33q-18 -3 -39 -3q-9 0 -20 0.5t-23 2t-23 4t-19 7.5q-9 4 -10 14q-1 9 -4 20.5
t-7.5 22t-11.5 19t-16 11.5l-18 6t-19 3q-9 0 -20.5 -3.5t-19.5 -8.5q-6 -3 -9 -7.5t-7 -9.5q-5 -6 -7 -10.5t-2 -12.5q0 -14 6 -23t15 -15t20 -10.5t21 -8.5q28 -12 60.5 -20t63.5 -18.5t58 -26.5t45 -43q6 -8 16.5 -18t14.5 -18q6 -14 11.5 -29t5.5 -30zM520 215
q0 14 -8 23q-5 -13 -5 -31q0 -7 0.5 -13t0.5 -13q8 7 10 15t2 19zM223 623q-2 0 -4 1t-4 1q-4 0 -10.5 -8.5t-12.5 -19.5t-11 -21.5t-6 -14.5l1 -4q7 5 9 8.5t2 6.5v5.5t3 6.5q7 11 13.5 19t16.5 16zM431 63q0 3 -1 4l-62 -15l4 -2t4 -1q10 0 25 3l25 5q5 2 5 6zM398 321
q-3 5 -7 9t-9 6q-2 1 -8 3.5t-13 5t-13 4.5t-7 2q-5 0 -3 -5q16 -3 30 -11.5t30 -13.5zM185 191q-2 8 -4.5 15t-10.5 10v-4q0 -10 2 -15t13 -6zM493 526q0 6 -2 14t-7 13q-1 -2 -1 -6q0 -7 2 -17t5 -15q2 2 2.5 5t0.5 6zM345 637l-14 6l-2 -3v-1q0 -5 3 -8.5t8 -3.5t5 3v7z
M148 424l-8 13l-4 -2q-2 -1 -2 -3v-4q0 -10 8 -10q2 0 3.5 2.5t2.5 3.5zM224 66q-2 1 -6 1q-6 0 -6 -7q0 -5 3 -6t7 -2z" />
    <glyph glyph-name="T" unicode="T" horiz-adv-x="616" 
d="M566 645q0 -17 -0.5 -34.5t-1.5 -35.5q-1 -21 -6.5 -27.5t-26.5 -7.5q-8 0 -17 -2t-12 -2q-6 0 -12 1t-12 1q-7 0 -13 -1t-13 -1q-14 0 -27.5 0.5t-27.5 -2.5q-2 -12 -3.5 -24.5t-1.5 -24.5q0 -23 2.5 -45.5t2.5 -45.5q0 -11 -1 -22t-1 -22q0 -20 0.5 -39t3.5 -38
q0 -2 0.5 -3.5t0.5 -3.5q0 -9 -2.5 -18.5t-2.5 -20.5q0 -15 1.5 -30.5t1.5 -31.5q0 -12 -0.5 -24.5t-0.5 -24.5q0 -26 0.5 -52t-7.5 -52q-2 -9 -5.5 -9t-8.5 -5q-4 -6 -11 -6q-6 0 -11.5 1t-11.5 1q-20 1 -41.5 1.5t-41.5 3.5q-16 2 -24 15q-1 7 -3 14t-2 14q0 14 1.5 26.5
t1.5 26.5q0 19 -3 37t-3 37q0 8 1.5 16t1.5 16q0 22 -2.5 44t-2.5 44q0 11 2.5 21.5t2.5 21.5q0 9 -1 18t-1 18v56q0 22 -1 43.5t-2 43.5q0 20 -17 20q-8 0 -15 -1t-15 -1q-20 0 -39 2t-39 2q-6 0 -12 -1t-12 -1q-8 0 -13 5t-6 13q-1 12 -1.5 24t-2.5 25q-2 7 -2 14v15v23
t3.5 21.5t11.5 16t23 6.5q11 0 23 -1t23 -1t21 1t21 1q18 0 35.5 -0.5t35.5 -0.5q12 0 24 1.5t24 1.5h12t12 -1q10 -2 19.5 -1.5t18.5 -0.5q14 0 27.5 -1.5t27.5 -1.5q26 0 50.5 2t50.5 2q10 0 26.5 -0.5t20.5 -12.5q2 -9 3.5 -17.5t1.5 -18.5zM288 160q0 23 -0.5 46.5
t-1.5 46.5q0 8 -4 15q-2 -7 -2.5 -13t-0.5 -14v-19q0 -22 0.5 -43.5t0.5 -43.5q0 -9 4 -14q2 1 3 6.5t1 11.5v12v9zM333 527q0 12 -6 21q-5 -10 -5 -18v-15t0.5 -21t1.5 -20.5t2 -12.5l6 -5v10q0 5 -0.5 8.5t-0.5 7.5q0 11 1 22.5t1 22.5zM306 633q-10 5 -22.5 5h-23.5
q-7 0 -13 -0.5t-13 -0.5q-5 -1 -6.5 -1.5t-1.5 -5.5v-2h42q3 0 7 2t9 2t10.5 -0.5t10.5 -0.5zM477 617q-2 3 -2 5t-5 4q-3 0 -7.5 -5.5t-4.5 -8.5q0 -8 6 -8q8 0 10 3t3 10zM111 637q0 7 -9 9q-7 -7 -7 -14q0 -3 1 -6t4 -3q5 0 8 5t3 9zM351 335q0 10 -7 14q-3 -8 -3 -14v-6
q0 -4 0.5 -7.5t-0.5 -7.5q7 3 8.5 8.5t1.5 12.5zM355 42v6.5t-4 3.5t-4 -6t1 -9l3 -2q4 1 4 7z" />
    <glyph glyph-name="U" unicode="U" horiz-adv-x="609" 
d="M549 458q0 -8 -1 -15.5t-1 -15.5q0 -15 1 -29.5t1 -29.5q0 -17 -3 -34.5t-3 -34.5t-0.5 -39t-3 -45.5t-6 -45t-9.5 -36.5q-28 -66 -77.5 -100t-121.5 -34q-26 0 -54 2.5t-54.5 10t-49.5 21.5t-39 37q-34 48 -46 103q-2 11 -6 22t-4 22q0 15 -1 29t-5 29q0 3 -0.5 6
t-0.5 6q0 7 0.5 13.5t0.5 13.5q0 18 -2 36t-2 35q0 13 2 26t2 26q0 14 -1 28.5t-3 28.5q-1 5 -1 14q0 6 1 12.5t1 12.5q0 11 -1.5 20.5t-1.5 19.5q0 24 1 48t3 47q1 11 5.5 18.5t15.5 9.5t22 2.5t22 0.5q14 0 28.5 -0.5t28.5 -0.5q12 0 17 -8q4 -3 7.5 -7.5t5.5 -8.5
q1 -2 2 -8.5t1.5 -14t0.5 -14.5v-10q0 -8 -1 -15t-1 -15q0 -26 2.5 -50.5t2.5 -49.5q0 -19 0.5 -37t0.5 -36q0 -12 -0.5 -24t-0.5 -24q0 -23 1 -47t4 -48q2 -20 5 -41.5t11.5 -39t23.5 -29t42 -11.5q40 0 57.5 23.5t17.5 61.5q0 10 -0.5 20t-0.5 20q1 26 2 50.5t1 50.5
q0 8 -0.5 15.5t-0.5 15.5q0 11 1 23t1 24q0 5 -1 11t-1 11q0 6 1 12.5t1 12.5q0 28 -2.5 56t-2.5 56q0 13 0.5 25.5t0.5 25.5q1 17 14.5 22.5t27.5 5.5q19 0 46.5 -0.5t45.5 -3.5q10 -2 14.5 -7t6.5 -14q2 -8 3.5 -23t2 -32t0.5 -33v-25h-1v-34v-11t1 -12q0 -12 2 -24.5
t2 -24.5zM153 485v15.5t-0.5 19.5t-1.5 19t-3 14q-5 -9 -5 -23q0 -22 1 -46.5t6 -44.5q2 11 2.5 23t0.5 23zM473 607q0 5 -4 5q-5 0 -5.5 -8.5t-0.5 -11.5v-75q0 -6 5 -8q3 2 3.5 6.5t0.5 8.5q0 6 -1 12t-1 12v41h2v9q0 2 0.5 4.5t0.5 4.5zM166 88q-5 5 -5.5 10t-3.5 10
l-29 45q-3 4 -7 5q1 -4 5.5 -15.5t11 -23.5t13 -21.5t11.5 -9.5h4zM439 263l-1 1q-9 -6 -9 -20q0 -16 -1 -30t-5 -29v-11h1q2 6 5.5 12t4.5 13zM128 315q0 5 -1 7t-2 2.5t-3 2.5q-2 -4 -2.5 -6t-0.5 -7t1 -14t5 -12q3 12 3 27zM512 370q0 4 -3.5 13.5t-5.5 13.5
q-2 -10 -2 -17q0 -10 4 -18q2 2 4.5 3.5t2.5 4.5zM307 78q0 3 -2 7q-6 0 -8.5 -6t-2.5 -11t5 -7q2 4 5 8t3 9zM419 640q0 6 -3 12q-5 -3 -5 -9q0 -4 0.5 -9t5.5 -6q2 8 2 12zM179 651q0 9 -6 15q-2 -4 -2 -9v-10l3 -4q5 1 5 8z" />
    <glyph glyph-name="V" unicode="V" horiz-adv-x="634" 
d="M604 688q0 -14 -4 -30.5t-10 -33.5t-12.5 -34t-10.5 -30q-6 -18 -11 -36.5t-10 -37.5q-5 -15 -10.5 -30.5t-10.5 -30.5q-8 -23 -14 -45t-13 -45q-20 -60 -42 -119.5t-42 -119.5q-3 -9 -5 -18t-5 -17q-2 -6 -5 -12l-6 -12q-4 -11 -6.5 -21.5t-16.5 -13.5q-9 -3 -18 -3
q-3 0 -5.5 0.5t-5.5 0.5q-14 0 -26.5 -1.5t-26.5 -1.5q-12 0 -24 4.5t-17 17.5q-25 60 -43.5 123t-38.5 125q-17 51 -34.5 101t-33.5 101q-5 17 -10 33t-11 33q-2 6 -4.5 11.5t-4.5 11.5q-7 17 -13 35t-13 36q-2 8 -6.5 20.5t-4.5 20.5q0 6 1 9q1 7 13 11.5t18 4.5
q23 0 37 4.5t34 4.5q19 0 35.5 -3t23.5 -24q4 -12 8.5 -23.5t9.5 -22.5q15 -42 28.5 -84t27.5 -84l31 -87q4 -11 7.5 -22.5t8.5 -21.5l3 2q11 31 21.5 61.5t21.5 62.5q6 17 10 33t12 33q9 17 15.5 43t12.5 46q5 16 13.5 35t16.5 34q6 12 21 14q11 2 23.5 2h24.5q6 0 12 -0.5
t12 -0.5q8 0 16.5 0.5t16.5 0.5t14.5 -1t14.5 -2q4 0 7 -1t3 -6zM221 418v3l-19 42q-4 13 -8 25.5t-9 24.5q-2 6 -8 6h-2q2 -5 6 -14t4 -15q1 -10 4 -20t7 -19q3 -9 8.5 -16t8.5 -17q0 -4 4 -4t4 4zM471 487q-2 0 -4 -2q-2 -3 -8.5 -17t-13.5 -30t-12 -30t-5 -17v-4q4 1 5 3
t3 5q2 6 7.5 19.5t11.5 28t11 27t5 17.5zM323 53q0 5 -12 10t-16 7q-2 -3 -2 -9q0 -5 2.5 -10.5t8.5 -5.5q3 0 11 1.5t8 6.5zM540 639q0 8 -6 8t-10 -8t-4 -13q0 -2 0.5 -3t0.5 -3q8 1 13.5 6t5.5 13zM239 247q0 2 -3.5 10.5t-4.5 10.5q-2 2 -6 2q-3 -3 -3 -5q0 -9 3 -15
t12 -10q0 2 1 3.5t1 3.5zM110 636q-2 5 -4.5 11t-8.5 6t-6 -7q0 -4 4 -10.5t8 -6.5q3 0 4 2.5t3 4.5zM391 234q0 4 -0.5 6.5t-5.5 2.5q-6 -8 -6 -15q0 -6 1 -9q11 4 11 15z" />
    <glyph glyph-name="W" unicode="W" horiz-adv-x="776" 
d="M746 661q0 -11 -3 -24.5t-5 -24.5q-2 -12 -5 -17.5t-4 -21.5q-1 -14 -1.5 -27t-2.5 -26q-1 -10 -4 -24.5t-6.5 -29.5t-7.5 -29t-7 -23q-6 -17 -9 -35t-5 -36q-2 -11 -4 -21t-7 -21q-8 -14 -9.5 -34.5t-5.5 -37.5q-3 -13 -7 -25t-7 -24q-3 -14 -5 -29t-5 -29l-25 -102
q-4 -16 -16.5 -22.5t-27.5 -6.5q-14 0 -27 2.5t-27 2.5q-17 0 -30.5 6.5t-23.5 20.5q-5 7 -9.5 24.5t-7.5 27.5q-3 9 -6.5 17.5t-5.5 18.5q-2 9 -2.5 20.5t-5.5 19.5q-6 11 -9 23t-6 25q-3 17 -6.5 36t-11.5 36q-7 -4 -9 -13q-5 -20 -9 -40.5t-10 -40.5q-5 -15 -7 -31
t-6 -31q-4 -12 -5 -24t-4 -24q-2 -6 -5 -18t-7.5 -24.5t-11 -21.5t-13.5 -9q-6 0 -14 3t-17 3q-16 0 -31.5 -2.5t-31.5 -2.5q-11 0 -21.5 2.5t-16.5 12.5q-4 6 -4 10q-2 21 -9.5 44.5t-7.5 42.5q0 8 -5 25.5t-7 26.5q-6 21 -11 42t-8 43t-7 43.5t-10 43.5q-4 15 -4.5 31
t-5.5 30q-6 20 -9 41q-2 10 -4 17q-5 16 -8.5 31.5t-6.5 31.5t-8.5 36t-11 39.5t-9.5 38t-4 32.5q0 11 7.5 20.5t19.5 10.5q23 1 44 6.5t43 5.5q11 0 24.5 -3.5t18.5 -14.5q8 -20 10.5 -40t7.5 -40l16 -66q1 -5 2.5 -13t3 -17t2.5 -16.5t3 -10.5q5 -11 6 -20.5t2 -22.5
q0 -10 2.5 -20t5.5 -20q1 3 2.5 9t3 13.5t2.5 14t1 9.5v6q0 15 5 38.5t10 37.5q2 8 4 22q5 21 10.5 42.5t9.5 43.5q2 11 5.5 21t8.5 20q5 9 15.5 13.5t22.5 5.5t24.5 1h21.5h7q9 0 18.5 -1t18.5 -3q10 -1 13 -11q8 -18 13 -36.5t9 -36.5q4 -19 9 -37.5t10 -37.5
q8 -35 17 -69.5t22 -69.5q6 10 6 26q2 25 6.5 49t10.5 48q3 12 5 24.5t4 25.5q6 25 11.5 50t10.5 51q4 23 18.5 27t34.5 4q12 0 24 -1t23 -1q3 0 6 0.5t6 0.5q16 0 32.5 -9t16.5 -27zM621 388q0 7 -4 11q-3 -3 -6 -10t-5 -15.5t-3.5 -17t-2.5 -12.5q-1 -5 -4 -9t-3 -9
q0 -14 -1 -26.5t-2 -26.5q4 0 4 6l8 30q2 5 3.5 8.5t2.5 8.5q4 14 7 27.5t5 27.5q0 2 0.5 3.5t0.5 3.5zM207 199q-3 10 -4 19t-4 19q-8 25 -14.5 48.5t-18.5 46.5h-1q2 -22 10 -49.5t15 -49.5l8 -31l4 -6q1 0 2 -0.5t2 -0.5v1zM470 382l-33 100q-1 5 -8 8q0 -1 -0.5 -2
t-0.5 -3q0 -11 6 -27t11 -26q8 -12 12 -26t12 -27h1v3zM337 392q0 3 -2 4l-2 1q-1 -3 -4.5 -14.5t-7 -25.5t-6 -27t-2.5 -19v-4l2 1q8 20 15 41t7 43zM166 629q-2 11 -4 21t-7 19q-2 -3 -3.5 -6.5t-1.5 -7.5t4.5 -14t6.5 -14q2 -2 3 -2q2 2 2 4zM538 95q0 12 -11 21
q-2 -6 -2 -10q0 -6 2 -12t7 -10q4 6 4 11zM258 48q0 2 -4 6t-6 4q-3 0 -6.5 -3t-3.5 -6q0 -8 8 -8q2 0 7 2t5 5zM649 562q0 2 -1 4.5t-2 4.5q-8 -10 -8 -24q0 -3 2 -6q2 1 3 1t2 1q2 5 3 9.5t1 9.5zM140 506q0 4 -2.5 12.5t-6.5 8.5q-1 0 -1.5 -0.5t-1.5 -0.5v-5
q0 -5 1.5 -11.5t8.5 -6.5l2 1v2zM360 647v4l-5 5q-6 -4 -6 -12q0 -4 2 -6q1 0 1.5 -0.5t1.5 -0.5q4 0 5 3.5t1 6.5z" />
    <glyph glyph-name="X" unicode="X" horiz-adv-x="693" 
d="M663 35q0 -2 -0.5 -3.5t-0.5 -3.5q-4 -11 -7.5 -15.5t-8 -6.5t-10.5 -2t-16 -2q-11 -3 -21 -3q-8 0 -15.5 1t-15.5 1q-16 0 -31.5 -1.5t-31.5 -1.5q-10 0 -15 1q-15 3 -23.5 14t-14.5 24q-14 26 -29 50.5t-29 50.5q-8 15 -16.5 31.5t-19.5 29.5q-6 -8 -11.5 -15
t-12.5 -15q-5 -5 -10.5 -13.5t-8.5 -13.5q-7 -15 -17 -32.5t-21.5 -35.5t-23.5 -35t-22 -30q-8 -9 -17 -12t-20 -3q-8 0 -16.5 0.5t-16.5 0.5q-26 1 -51.5 1.5t-51.5 3.5q-8 1 -17 5t-9 14q0 6 3.5 14t7.5 13q5 6 8.5 13l7.5 15l22 32q34 51 65 102.5t61 105.5q2 3 6 10
t8.5 14.5t7.5 14t3 8.5q0 4 -1.5 7t-3.5 6q-24 34 -47.5 68t-46.5 69q-18 27 -35 55.5t-36 55.5q-5 8 -10 15t-11 14q-2 2 -5.5 7t-4.5 8q-1 1 -1 4q0 8 9 12q9 3 22 5t27.5 2.5t28 1t23.5 0.5h17.5t24 -1t23.5 -2.5t14 -4.5q7 -6 12.5 -17t11.5 -19q14 -17 26.5 -35
t23.5 -36q7 -11 15.5 -26t17.5 -24q2 -5 6 -5q2 0 3 2t2 3q8 12 15.5 23.5t15.5 22.5q19 27 34 55.5t32 55.5q5 9 16 11t21.5 2.5t21.5 0.5h113q6 0 14.5 -1.5t8.5 -9.5q0 -4 -1 -5q-5 -11 -11.5 -19.5t-12.5 -18.5q-22 -35 -42 -71.5t-42 -71.5q-3 -6 -15.5 -26t-26 -42.5
t-24.5 -42t-11 -23.5q0 -6 5 -11q30 -40 56 -81q8 -12 17 -23.5t16 -23.5q11 -19 25 -35t25 -34q4 -7 16.5 -24.5t25.5 -37.5t23.5 -37.5t10.5 -23.5zM274 218h-2q-5 0 -6 -4q-4 -7 -12.5 -20t-17.5 -27t-16 -26t-7 -17t1 -8h2q3 0 3 4q9 16 20 30.5t18 31.5q3 10 8.5 18
t8.5 18zM545 162l-14 23q-7 11 -13.5 21.5t-16.5 20.5q-1 1 -4 5.5t-6 9.5t-6 8.5t-4 3.5q-2 0 -2.5 -0.5t-1.5 -0.5q3 -8 9 -16t11 -15q8 -13 15 -24.5t14 -24.5q3 -3 4 -3q5 -2 11 -8l3 -2zM471 574v3l-2 1q-4 -5 -7 -11t-7 -12q-8 -11 -13.5 -22t-10.5 -24
q-2 -5 -8.5 -15t-6.5 -14q0 -3 3 -4q6 7 10 15.5t9 16.5l29 48q2 4 2 5v6t2 7zM272 540q-8 11 -21 29t-24 25v-2q17 -31 42 -53l3 -1v2zM92 649q-2 4 -4.5 10.5t-7.5 6.5q-3 0 -7 -1.5t-4 -5.5t6.5 -11t11.5 -7q3 0 4 3t1 5zM484 95q0 6 -2 12.5t-4 12.5q-9 -9 -9 -17t5 -18
q5 2 7.5 3.5t2.5 6.5zM111 71v3l-4 1q-1 -2 -3 -5.5t-4.5 -8t-4.5 -8.5t-2 -5t0.5 -2t0.5 -2q8 -1 12.5 9.5t4.5 17.5zM336 357q0 8 -6 13q-5 -2 -5 -8q0 -5 1.5 -10.5t7.5 -6.5q2 8 2 12zM581 653q0 6 -6 6q-4 0 -8.5 -6t-6.5 -9q2 -1 5 -1q4 0 10 2.5t6 7.5z" />
    <glyph glyph-name="Y" unicode="Y" horiz-adv-x="667" 
d="M637 681q0 -8 -5 -18q-9 -17 -20 -33.5t-20 -33.5l-25 -44q-13 -23 -25.5 -46.5t-23.5 -46.5q-9 -22 -20 -42l-22 -40q-7 -14 -14.5 -26.5t-12.5 -26.5q-3 -8 -7 -14t-8 -11.5t-7 -12.5t-3 -17v-11q0 -17 1.5 -33t1.5 -33q0 -14 0.5 -26.5t0.5 -26.5q0 -10 -1 -20t-1 -20
q0 -5 1 -9.5t1 -9.5q0 -14 -2 -26.5t-3 -26.5q0 -11 -6.5 -17t-15.5 -9t-19 -3.5t-18 -0.5q-14 0 -27 3t-27 5q-26 3 -37 9t-11 36q0 38 -1 76l-2 76v44q-1 2 -1 5t-2 5q-11 16 -18 33t-16 34l-47 86q-5 9 -10.5 17.5t-9.5 19.5q-5 15 -14.5 28t-16.5 28q-15 32 -32.5 61.5
t-34.5 59.5q-2 3 -6.5 11t-9 17t-8 17t-3.5 10q0 10 10 16.5t19 6.5h70q9 0 21 0.5t24.5 -0.5t23.5 -4t17 -10q10 -13 18 -27.5t15 -28.5l57 -113q8 -15 15.5 -30.5t16.5 -29.5q14 18 24 42.5t21 45.5q17 35 34 69.5t34 69.5q5 8 13 12q8 5 16.5 6.5t17.5 1.5q22 0 44 -2.5
t44 -2.5h21t21 -3q7 -2 8 -4.5t2 -9.5v-2zM500 579q0 1 -3 4q-2 -2 -9.5 -14.5t-15.5 -26.5t-14.5 -26.5t-6.5 -14.5q0 -3 4 -5l3 3l3 3q2 3 8.5 15t13 25l12 24t5.5 13zM230 547l-3 6.5t-7 14.5t-7.5 14.5t-4.5 8.5l-7 8l-1 -1l4 -10t3 -9q2 -12 7.5 -19t12.5 -15l3 -1v3z
M586 661l-2 4q-7 -2 -12 -10t-5 -15q0 -6 5 -6t8.5 11t5.5 16zM275 357q-2 6 -6 14.5t-9 13.5q-2 2 -2 4q-1 4 -5.5 14t-8.5 10h-2v-4q2 -7 3.5 -10.5t3.5 -6l4 -5t5 -6.5l14 -22zM328 158q0 12 -3 24h-2q-2 -11 -2 -23v-23q0 -5 6 -5q0 5 0.5 9.5t0.5 9.5v8zM91 657
q0 6 -4 11.5t-11 6.5q0 -2 -0.5 -3.5t-0.5 -3.5q0 -6 4.5 -9.5t9.5 -6.5q2 2 2 5zM387 366q0 4 -3 4t-6.5 -4t-3.5 -7q0 -4 5 -4q3 0 5.5 4t2.5 7zM384 46q0 4 -3 4t-6.5 -4t-3.5 -7q0 -4 5 -4q3 0 5.5 4.5t2.5 6.5z" />
    <glyph glyph-name="Z" unicode="Z" horiz-adv-x="560" 
d="M500 63q0 -4 -1 -13t-3.5 -18t-6 -16t-9.5 -8q-17 -2 -35 -2.5t-35 -1.5q-8 0 -14.5 -1t-14.5 -1q-16 0 -31.5 1t-31.5 1q-18 0 -35.5 -2t-34.5 -2q-13 0 -25.5 0.5t-25.5 0.5q-7 0 -14 -1t-14 -1q-6 0 -11.5 2t-11.5 2l-34 1q-8 0 -15 -1.5t-15 -1.5q-9 0 -15.5 5.5
t-6.5 14.5q0 17 1 33.5t3 32.5q1 2 1 6q0 12 -2 23.5t-2 23.5q0 11 4.5 24t11.5 26.5t14 26.5t13 22q2 4 5.5 8.5t5.5 9.5q5 16 13 28.5t17 26.5q2 3 4 5.5t4 6.5l18 42q4 8 8.5 14t9.5 17q5 13 9.5 25t10.5 24q2 5 5.5 9t6.5 9q2 4 7.5 14.5t11 22.5t9.5 22.5t4 13.5
q0 5 -4 6.5t-9 1.5q-22 0 -43.5 -0.5t-43.5 0.5q-7 0 -13.5 1t-13.5 1q-9 0 -18 -1.5t-17 -1.5q-15 0 -17.5 10t-2.5 21q0 8 1 15.5t1 15.5q0 16 -2 31.5t-2 31.5q0 20 14 24.5t30 4.5q5 0 9.5 -0.5t9.5 -0.5q10 0 19.5 1t19.5 1q13 0 26 -0.5t26 0.5q11 0 22 1t22 1
q7 0 13.5 -0.5t13.5 -0.5q13 0 25.5 1t25.5 1q23 0 46 -0.5t46 -0.5q17 0 26.5 -2t14 -7.5t6.5 -15.5t4 -25q1 -8 2 -15t1 -14q0 -9 -0.5 -18t-0.5 -18q0 -6 -0.5 -10.5t-5.5 -9.5q-4 -8 -8 -15q-3 -6 -6 -11t-4 -7q-17 -26 -30 -52t-27 -53q-10 -18 -21 -34.5t-20 -34.5
q-7 -14 -14 -26t-19 -22q-5 -5 -10.5 -19t-10.5 -22q-10 -16 -18 -32t-19 -31q-7 -9 -10 -16.5t-5 -18.5q9 -1 17.5 -2t17.5 -1q10 0 19 0.5t19 0.5q8 0 16.5 -1t16.5 -1t14.5 1t14.5 1q39 3 81 3q14 0 17.5 -10.5t3.5 -21.5q0 -20 0.5 -39t0.5 -39zM380 67q0 2 -2 2
q-34 -4 -67.5 -3t-66.5 -1q22 -5 40 -5q22 0 43.5 1t43.5 3q2 0 4 1q5 0 5 2zM375 507q0 1 -0.5 1.5t-0.5 1.5q-2 -1 -7.5 -8.5t-11.5 -16.5l-11 -16.5l-5 -7.5q0 -4 1 -7.5t2 -8.5q12 12 15 26q2 9 10 20t8 16zM261 362q0 2 -1 3t-2 3q-2 -3 -7 -11t-10 -17.5t-9 -17.5
t-4 -10q0 -1 0.5 -2t0.5 -2q2 2 7.5 10t11 17t9.5 17t4 10zM193 577l-1 2q-23 -4 -46 -3t-46 -1q15 -5 27 -5q15 0 30 1t30 3q1 1 3.5 1t2.5 2zM304 649q-11 4 -26 4q-8 0 -16 -1t-16 -5q5 -1 10 -1h10h6q5 -1 16.5 0t15.5 3zM167 191q0 6 -6 6q-4 0 -7.5 -2.5t-3.5 -6.5
q0 -8 8 -8q9 0 9 11zM427 612q0 5 -1.5 7.5t-7.5 2.5q-2 0 -4 -0.5t-2 -2.5q0 -3 1.5 -9t5.5 -6q8 0 8 8zM460 133q-2 6 -8 6q-4 0 -10 -6q4 -6 9 -6q6 0 9 6z" />
    <glyph glyph-name="bracketleft" unicode="[" horiz-adv-x="454" 
d="M403 -115v-26.5t-1 -25.5q0 -5 -1 -9t-8 -5h-18q-38 0 -76.5 -2.5t-77.5 -2.5h-5q-8 -2 -12 -2h-33q-18 0 -35.5 3t-35.5 5q-11 1 -15 4.5t-7 14.5q-4 17 -3 35t-2 35q0 2 -0.5 2.5t-0.5 2.5q0 16 -1 31.5t-1 31.5q0 11 3 21.5t3 21.5q0 13 0.5 26t0.5 27q0 11 -0.5 22.5
t1.5 22.5q0 4 0.5 7.5t0.5 7.5q0 5 -1 9t-1 8q0 12 1.5 24t1.5 24q0 9 -1 18.5t-1 18.5q0 5 0.5 11t0.5 11q0 7 -0.5 13.5t-0.5 13.5q0 11 1 20.5t1 19.5q0 4 -1 7.5t-1 7.5q0 12 1 24.5t1 24.5q0 20 -1 41t-2 41v84q-1 23 -2 47t-1 48q0 21 7 31.5t19 14t27 3.5h31h49
q4 0 10.5 -1.5t10.5 -3.5q7 2 14 3t15 1q11 0 21.5 -1.5t21.5 -1.5q13 0 25.5 1.5t26.5 1.5q22 0 38 -4q6 -1 9 -7t4 -13.5t0.5 -15t-0.5 -12.5v-25.5t-1 -25.5q0 -6 -1 -10t-8 -5h-18q-27 1 -54.5 0t-55.5 -4h-10q-5 0 -11 0.5t-11 -0.5q-1 -5 -1 -9v-9v-30.5t1 -30.5
q0 -3 1 -6.5t1 -7.5q0 -31 -0.5 -61t-1.5 -61q-1 -19 -2 -37t-1 -37q0 -16 0.5 -31t0.5 -30q0 -9 -0.5 -18t-0.5 -17q0 -22 1 -43.5t1 -42.5q0 -42 -2.5 -82.5t-1.5 -82.5l1 -6q7 1 13.5 2.5t14.5 1.5q11 0 21.5 -1.5t21.5 -1.5q13 0 25.5 1.5t26.5 1.5q10 0 19.5 -1
t18.5 -3q6 -2 9 -8t4 -13.5t0.5 -15t-0.5 -11.5zM191 502v13.5t-0.5 17.5t-1.5 16.5t-3 12.5q-2 -6 -2 -8q0 -11 -0.5 -22t-0.5 -22q0 -10 0.5 -19t0.5 -19q0 -9 -1 -18t-1 -18q0 -8 0.5 -16t0.5 -16q0 -4 2 -4q3 0 3.5 3.5t0.5 5.5q0 9 -0.5 18.5t-0.5 19.5q0 14 1.5 27.5
t1.5 27.5zM157 127q0 9 -1 18.5t-3 20.5q-2 -22 -3 -44t-1 -43v-22q0 -14 0.5 -27.5t2.5 -27.5q4 31 4.5 62t0.5 63zM365 -135l-14 2t-13 1q-11 -1 -23 -1.5t-23 -0.5q-2 0 -4.5 0.5t-4.5 0.5q-6 0 -11 -2t-10 -2l-1 -2q5 -1 9 -1h9h52h14.5t14.5 2zM313 610q-10 4 -21.5 3
t-21.5 -1q-7 0 -14 -7q3 0 6 -0.5t6 -0.5q10 0 22 1.5t23 4.5zM122 -153q-3 4 -10 4t-13 -4q7 -5 14 -5q6 0 9 5zM125 647q0 5 -3 11q-6 -11 -6 -21v-5q9 4 9 15zM366 674q0 7 -6 7q-3 0 -5 -3t-2 -5q0 -5 5 -5q2 0 5 2t3 4zM142 318q0 4 -3 9q-2 -2 -4 -6t-2 -6t3.5 -3.5
t5.5 -2.5v9z" />
    <glyph glyph-name="backslash" unicode="\" horiz-adv-x="513" 
d="M473 27q0 -11 -14 -16.5t-32.5 -8t-36.5 -3t-25 -0.5q-18 0 -26 10t-15 24q-14 27 -26.5 54.5t-25.5 55.5q-8 20 -16 34q-14 25 -24.5 50t-23.5 50q-16 30 -29 61t-27 62l-25 54q-8 20 -16 39t-17 39q-12 27 -22 55.5t-24 55.5q-8 14 -8 29q0 11 3 15t14 7q17 5 39 12
t41 7q32 0 50 -24q12 -16 18.5 -33t14.5 -35q2 -5 4.5 -9t4.5 -9q4 -8 7 -17t6 -17q9 -24 19.5 -47t21.5 -46q16 -32 28.5 -66t26.5 -68l60 -142q7 -15 13.5 -30t12.5 -30q7 -17 16.5 -33.5t17.5 -33.5q3 -7 9 -23t6 -23zM370 196q-2 14 -9 25.5t-10 24.5h-10
q2 -4 5.5 -11.5t7.5 -15t8.5 -14t7.5 -9.5zM148 518q-5 15 -11.5 30t-17.5 26q3 -15 10.5 -28.5t16.5 -26.5zM256 417q-1 7 -4 22.5t-8 19.5q-1 2 -5 3t-6 2q5 -12 11 -23.5t12 -23.5zM82 651q1 8 -8 14q-4 -4 -4 -9q0 -8 8 -8h4v3zM376 51q-1 4 -3 7.5t-7 3.5q-3 0 -4 -2
v-1q0 -3 0.5 -6t3.5 -5zM258 307q0 10 -6 14q-4 -4 -4 -9v-4z" />
    <glyph glyph-name="bracketright" unicode="]" horiz-adv-x="454" 
d="M51 -115q0 4 -0.5 11.5t0.5 15t4 13.5t9 8q9 2 18.5 3t19.5 1q14 0 26.5 -1.5t25.5 -1.5q11 0 21.5 1.5t21.5 1.5q8 0 14.5 -1.5t13.5 -2.5l1 6q1 42 -1.5 82.5t-2.5 82.5q0 21 1 42.5t1 43.5q0 8 -0.5 17t-0.5 18q0 15 0.5 30t0.5 31q0 19 -1 37t-2 37q-1 31 -1.5 61
t-0.5 61q0 4 1 7.5t1 6.5q1 15 1 30.5v30.5v9t-1 9q-5 1 -11 0.5t-11 -0.5h-10q-28 3 -55.5 4t-54.5 0h-18q-7 1 -8 5t-1 10q-1 13 -1 25.5v25.5q0 5 -0.5 12.5t0.5 15t4 13.5t9 7q16 4 38 4q14 0 26.5 -1.5t25.5 -1.5q11 0 21.5 1.5t21.5 1.5q8 0 15 -1t14 -3q4 2 10.5 3.5
t10.5 1.5h49h31t27 -3.5t19 -14t7 -31.5q0 -24 -1 -48t-2 -47v-84q-1 -20 -2 -41t-1 -41q0 -12 1 -24.5t1 -24.5q0 -4 -1 -7.5t-1 -7.5q0 -10 1 -19.5t1 -20.5q0 -7 -0.5 -13.5t-0.5 -13.5q0 -5 0.5 -11t0.5 -11q0 -9 -1 -18.5t-1 -18.5q0 -12 1.5 -24t1.5 -24q0 -4 -1 -8
t-1 -9q0 -4 0.5 -7.5t0.5 -7.5q2 -11 1.5 -22.5t-0.5 -22.5q0 -14 0.5 -27t0.5 -26q0 -11 3 -21.5t3 -21.5q0 -16 -1 -31.5t-1 -31.5q0 -2 -0.5 -2.5t-0.5 -2.5q-3 -17 -2 -35t-3 -35q-3 -11 -7 -14.5t-15 -4.5q-18 -2 -35.5 -5t-35.5 -3h-33q-4 0 -12 2h-5q-39 0 -77.5 2.5
t-76.5 2.5h-18q-7 1 -8 5t-1 9q-1 13 -1 25.5v26.5zM263 502q0 -14 1.5 -27.5t1.5 -27.5q0 -10 -0.5 -19.5t-0.5 -18.5q0 -2 0.5 -5.5t3.5 -3.5q2 0 2 4q0 8 0.5 16t0.5 16q0 9 -1 18t-1 18q0 10 0.5 19t0.5 19q0 11 -0.5 22t-0.5 22q0 2 -2 8q-2 -5 -3 -12.5t-1.5 -16.5
t-0.5 -17.5v-13.5zM297 127q0 -32 0.5 -63t4.5 -62q2 14 2.5 27.5t0.5 27.5v22q0 22 -1 44t-3 44q-2 -11 -3 -20.5t-1 -19.5zM94 -138q8 -2 14.5 -2h14.5h52h9t9 1l-1 2q-5 0 -10 2t-11 2q-2 0 -4.5 -0.5t-4.5 -0.5q-11 0 -23 0.5t-23 1.5q-6 0 -13 -1l-14 -2zM141 610
q11 -3 23 -4.5t22 -1.5q3 0 6 0.5t6 0.5q-7 7 -14 7q-10 0 -21.5 1t-21.5 -3zM332 -153q2 -5 9 -5t14 5q-6 4 -13 4t-10 -4zM329 647q0 -11 9 -15v5q0 10 -6 21q-3 -6 -3 -11zM88 674q0 -2 3 -4t5 -2q5 0 5 5q0 2 -2 5t-5 3q-6 0 -6 -7zM312 309q2 1 5.5 2.5t3.5 3.5t-2 6
t-4 6q-3 -5 -3 -9v-9z" />
    <glyph glyph-name="asciicircum" unicode="^" horiz-adv-x="614" 
d="M564 359q0 -11 -11.5 -11.5t-18.5 -0.5q-29 0 -59 -1t-60 -1q-15 0 -19 12q-7 16 -16 28.5t-19 26.5q-17 23 -27.5 48t-27.5 48q-5 -2 -8 -5.5t-6 -8.5q-14 -25 -29.5 -49t-30.5 -48l-35 -55q-11 -16 -30 -16q-5 0 -11 0.5t-11 0.5q-12 0 -24 -1t-24 -1q-16 0 -31.5 4
t-15.5 24q0 13 9 31t16 29q23 37 44.5 74t44.5 73q24 36 41 76q5 14 11.5 26.5t14.5 25.5q5 8 20 9.5t23 1.5q19 0 37.5 1t38.5 1q8 0 13.5 -1t11.5 -9q18 -22 28.5 -44.5t23.5 -43.5q7 -14 14.5 -27t15.5 -27l28 -44l9 -17l19 -32q10 -16 18.5 -32.5t17.5 -33.5
q1 -2 3.5 -6t5 -9.5t4.5 -10t2 -5.5zM196 516q0 3 -3 3q-1 0 -3 -2l-8 -11q-4 -6 -6 -13q-3 -12 -10 -22t-13 -21q0 -1 -0.5 -1.5t-0.5 -2.5t2 -4q2 3 4 7t5 6q2 -1 4 3q4 13 11.5 22.5t11.5 21.5q1 2 1 4t2 4q3 3 3 6zM426 429q-1 4 -2 10t-4 9q-5 6 -10.5 18.5t-12.5 16.5
l-2 -2q1 -3 5 -11.5t9 -17.5t10 -16t7 -7zM367 600q0 2 -2.5 4.5t-2.5 4.5q-2 7 -7.5 13.5t-10.5 11.5v-4q0 -8 7 -17t12 -15l1 -1zM282 572q0 5 -4.5 7.5t-8.5 2.5q-3 0 -5.5 -3t-2.5 -6q0 -2 3.5 -3.5t5.5 -2.5q2 0 7 1t5 4zM533 378q0 2 -2 5.5t-4 3.5t-3 -1.5t-2 -2.5
q0 -3 1 -7t5 -4q5 0 5 6zM92 378l-4 1q-3 0 -6 -2t-3 -6v-3q11 2 13 10z" />
    <glyph glyph-name="underscore" unicode="_" horiz-adv-x="352" 
d="M437 -114v-10q-2 -8 -6.5 -10.5t-12.5 -3.5q-27 -3 -57 -3t-60.5 2t-61.5 2q-32 0 -63.5 -1.5t-63.5 -1.5h-102q-17 0 -34 -1.5t-34 -1.5q-20 0 -23.5 10.5t-3.5 26.5q0 8 0.5 17t0.5 17q0 10 2.5 23t15.5 15q12 2 25.5 3t26.5 1q10 0 19.5 -2.5t20.5 -2.5q15 0 30.5 1.5
t30.5 1.5q5 0 9 -0.5t9 -0.5q18 0 35.5 0.5t35.5 0.5q19 0 37 -0.5t37 -0.5h36.5t37.5 1q7 0 14 0.5t14 0.5q4 0 7.5 -0.5t7.5 -0.5q8 0 15 1t14 1t11.5 -1t8.5 -6q5 -5 11.5 -6.5t7.5 -10.5q1 -15 1.5 -30t0.5 -30zM368 -114q-6 2 -19 3t-27.5 1.5t-28 0.5h-20.5
q-5 0 -9.5 -0.5t-9.5 -0.5q10 -5 17.5 -6t18.5 -1h13q32 0 65 3zM39 -84q-6 3 -19 3.5t-21 0.5q-7 0 -20 -0.5t-19 -3.5q3 -3 11 -3h34t34 3zM180 -91q-4 2 -7.5 5t-8.5 3q-3 0 -7 -1.5t-4 -5.5v-2q3 -1 8 -1h3q5 0 8.5 0.5t7.5 1.5z" />
    <glyph glyph-name="grave" unicode="`" horiz-adv-x="229" 
d="M229 534q0 -5 -8.5 -7.5t-19 -3.5t-20.5 -1h-14q-7 0 -13 1t-13 1q-15 0 -22 10q-4 5 -14.5 17.5t-24 29.5t-27.5 35t-26 34t-19.5 26.5t-7.5 12.5q0 5 13 7t30 3t32.5 0.5t20.5 -0.5q13 0 24.5 -2.5t19.5 -13.5q1 -3 8.5 -14t17.5 -26.5t21 -33t20.5 -33.5t15.5 -27.5
t6 -14.5zM186 558v4q-1 2 -4 7l-6 10t-6 9t-5 4q-5 0 -5 -4q0 -2 5 -12t7 -13q2 -2 5.5 -3.5t6.5 -3.5zM61 655q0 10 -14 15q0 -2 -0.5 -3.5t-0.5 -3.5q0 -11 12 -11l3 1v2z" />
    <glyph glyph-name="a" unicode="a" 
d="M549 21q0 -8 -6 -12.5t-14.5 -6t-17 -1.5h-14.5q-24 0 -47.5 2t-46.5 2q-17 0 -24 7t-10 22q-1 4 -2.5 13t-3.5 19t-4 18t-4 10l-2 1q-11 2 -22.5 2h-22.5q-5 0 -9.5 1t-9.5 1q-13 0 -25.5 -2.5t-24.5 -1.5h-21q-5 0 -7 -1q-2 -2 -4 -13.5t-3 -15.5q-3 -11 -5 -23t-7 -22
t-13.5 -16.5t-23.5 -6.5q-8 0 -14.5 1t-14.5 1l-69 2q-3 0 -9 2q-18 5 -18 21q0 7 7.5 34t17 58t19 60t13.5 41q9 30 16 61t18 60q4 11 7 26q1 9 5 22l8 26t7.5 24.5t3.5 18.5q0 3 -1 6.5t-1 6.5q0 7 2 14l4 14q3 13 6.5 25.5t5.5 26.5q2 15 7.5 29t8.5 29q5 17 9 31t9 31
q4 15 21 18q11 10 25.5 11.5t28.5 1.5v2l43 -4q15 -2 21 -15q11 -23 17 -49t13 -51q9 -33 19 -65.5t19 -65.5q5 -16 9.5 -32t9.5 -32l7 -17q8 -21 15.5 -42t15.5 -42q20 -57 38 -112.5t35 -112.5q2 -6 6 -19.5t4 -20.5zM327 220q-9 32 -20 67.5t-25 64.5
q-10 -32 -19.5 -64.5t-17.5 -65.5q20 -1 39 -1.5t39 -0.5h4zM233 495l-9 -1v3q-1 -4 -3.5 -14.5t-5.5 -22.5t-4.5 -21.5t-1.5 -11.5v-5q4 3 7.5 13t6.5 21.5t5.5 22t4.5 16.5zM173 81h-10q-3 -9 -6.5 -21t-3.5 -21q0 -2 2 -6q3 1 6 7.5t5 14l4 15t3 11.5zM325 142
q-11 6 -22.5 6.5t-23.5 2.5v-13h6q10 0 21 -0.5t19 4.5zM285 603q0 4 -4 11.5t-9 7.5q-3 0 -3.5 -2.5t-2.5 -4.5l2.5 -12.5t7.5 -7.5q9 0 9 8zM458 158q0 2 -2.5 9t-6 15t-6.5 14.5t-4 6.5t-1 -1q1 -4 2 -6.5t1 -7.5q0 -2 1.5 -7t4 -10.5t5 -10t4.5 -4.5t2 2zM369 323
q0 3 -1 13t-3 21t-4.5 19.5t-4.5 8.5q-4 0 -4 -3zM512 40q0 5 -5 10l-8 8q-3 -5 -3 -10t1 -8t1 -8q3 1 8.5 2.5t5.5 5.5zM158 242q0 5 -1 9t-1 9q-2 -5 -5.5 -10.5t-3.5 -10.5q0 -6 5 -9q6 4 6 12z" />
    <glyph glyph-name="b" unicode="b" horiz-adv-x="612" 
d="M562 244q0 -21 -4.5 -45t-8.5 -45q-2 -6 -4.5 -12t-4.5 -12q-11 -28 -28 -51q-3 -5 -7.5 -8.5t-9.5 -7.5q-22 -20 -55 -33t-69.5 -20t-73 -9.5t-64.5 -2.5q-14 0 -27 0.5t-27 1.5q-22 2 -44 1.5t-45 0.5q-8 0 -9.5 1.5t-3.5 8.5q-2 6 -3 26t-2 43.5t-1 45v30.5q0 38 2 77
t2 77q0 11 -1 22t-1 22q0 6 1 12t1 12q0 7 -0.5 13.5t-0.5 12.5q0 10 1 19t1 19q0 3 -1 6.5t-1 6.5q-2 23 -3 45.5t-1 44.5q0 29 1 57t1 57q0 7 3 15t5 15q2 5 11.5 7t20.5 2.5t21.5 0t15.5 -0.5h11.5t11.5 1q29 2 57.5 2.5t57.5 0.5q17 0 32.5 -2t32.5 -3q11 -1 22.5 -1
t22.5 -2l7 -2t15 -4t15 -4l7 -2q5 -3 13 -7t16 -9t15 -10t11 -9l16 -16t13 -19q3 -9 6 -22.5t6 -28t5 -28.5t2 -23q0 -31 -13.5 -64t-32.5 -57q-2 -1 -4 -5q4 -6 7 -8q12 -11 23.5 -27t19.5 -34t13 -36.5t5 -35.5zM436 607q-5 8 -13.5 13t-16.5 7l-3 -1l1 -2q1 -1 6 -4
l10 -6t9.5 -5.5t5.5 -2.5zM492 506q0 4 -3 4t-5 -11t-4 -15q-2 -3 -7.5 -11.5t-6.5 -10.5q4 -2 5 -2q4 0 7.5 6t6.5 13.5t5 15.5t2 11zM264 664q-5 3 -11 3q-3 0 -8.5 -1t-5.5 -5q0 -3 4 -4.5t7 -1.5q9 0 14 9zM400 514q0 17 -16.5 29t-32.5 12q-10 0 -19.5 2t-20.5 2
q-20 0 -40 -1l-40 -2q-1 -8 -2 -14.5t-1 -14.5q0 -17 0.5 -33t1.5 -33q0 -7 5.5 -8.5t10.5 -1.5q9 0 18.5 0.5t18.5 1.5q16 1 32.5 1t32 3.5t28 12t20.5 26.5q2 5 3 9t1 9zM459 343q-3 7 -6.5 13t-10.5 9q-5 2 -14.5 6.5t-14.5 5.5l-1 -1q4 -5 9 -9.5t10 -8.5q4 -3 8.5 -3
t7.5 -5q4 -7 11 -11zM139 627q0 4 -2 12h-2l-1 -5t-1.5 -10t-1.5 -10l-1 -5q0 -7 1 -13.5t1 -12.5q0 -4 -0.5 -7t-0.5 -6v-9.5t1 -9.5q2 3 3.5 14t2 23t1 23t0.5 16zM318 394q0 5 -10.5 6.5t-15.5 2.5q2 -2 2 -5q0 -4 -4 -5.5t-5 -6.5q2 0 4.5 -0.5t4.5 -0.5q3 0 13.5 2
t10.5 7zM506 223v12.5t-2 12.5q-7 -11 -8.5 -23t-1.5 -24q-1 -8 -2 -15.5t-4 -15.5q-3 -7 -4 -14t-3 -14l2 -6q5 6 9 17.5t7 24.5t5 25t2 20zM413 228q0 14 -4 28t-11 27q-9 19 -32 25t-42 6h-20.5h-26t-26 -1t-18.5 -2q-2 -17 -3 -35t-1 -35q0 -12 0.5 -23.5t0.5 -23.5
q0 -18 -0.5 -28t3.5 -14t13 -4.5t29 -0.5q36 0 74 3q30 2 47 26t17 52zM156 358q0 8 -7 8q-6 0 -6 -7q0 -3 1.5 -6.5t5.5 -3.5q3 0 4.5 3t1.5 6zM361 86q0 3 -2.5 4.5t-4.5 3.5q-6 -1 -11 -4.5t-5 -9.5q0 -5 5 -5q4 0 11 3t7 8zM166 71q0 4 -1 7t-1 7q0 11 -0.5 23t-0.5 23
q0 8 1.5 16t1.5 16v20l-3 5q-4 -13 -4.5 -24.5t-1.5 -25.5t-2 -29t-1 -30v-14.5t3 -13.5q3 5 6 9.5t3 10.5z" />
    <glyph glyph-name="c" unicode="c" horiz-adv-x="639" 
d="M599 521q0 -8 -2.5 -11.5t-8.5 -7.5q-5 -2 -7.5 -6.5t-8.5 -4.5q-3 0 -8.5 3t-11.5 7.5t-11.5 8.5t-8.5 6q-11 8 -18 10.5t-12 3.5t-10.5 1.5t-13.5 4.5q-21 10 -50 10q-14 0 -37 -3.5t-37 -9.5q-11 -4 -22.5 -6t-19.5 -10q-18 -17 -33.5 -33t-26.5 -38q-4 -8 -4 -16
t-4 -15q-8 -13 -9.5 -26.5t-1.5 -27.5q0 -8 -0.5 -18t1.5 -18l7 -27q4 -26 12.5 -42t22.5 -37q11 -15 27 -23l32 -16q41 -19 82 -19q13 0 23 4.5t15 4.5q17 0 38 10.5t35 21.5q13 12 32 12q3 0 6 -0.5t6 -0.5q8 -2 12 -12t5.5 -23t2 -26t0.5 -19q1 -7 2 -13t1 -12
q0 -17 -5 -36.5t-22 -29.5q-4 -2 -7 -5t-7 -6q-12 -11 -27 -17.5t-32 -10t-34.5 -5t-32.5 -1.5q-29 0 -57 5l-56 10q-9 2 -22.5 8t-28 13.5t-28.5 15t-24 11.5q-3 1 -11.5 8t-18.5 15.5t-18.5 17t-12.5 11.5q-9 8 -18 17t-15 20l-22 39q-5 11 -8.5 21.5t-8.5 20.5
q-6 12 -7.5 24.5t-3.5 26.5q-2 12 -5 25.5t-3 25.5q0 20 1.5 46t5.5 46q2 10 5.5 18.5t3.5 18.5q1 8 2.5 14.5t6.5 13.5q5 6 8 13t6 15q5 12 10.5 24.5t12.5 23.5q3 5 9.5 14t14.5 19t15 18t12 11l40 26q8 5 17 6.5t18 8.5q5 3 10 4.5t10 3.5q25 9 48.5 14.5t49.5 10.5
q5 1 11 2t11 1t11 -0.5t11 -0.5q11 0 21.5 1t21.5 1q13 0 25 -4.5t23 -4.5q2 0 4.5 0.5t4.5 0.5q6 0 16 -3t20.5 -6.5t20 -7.5t14.5 -7q8 -5 12 -10t4 -15t-0.5 -20t-0.5 -21v-48q1 -10 2 -19.5t1 -18.5zM182 237q-2 8 -3 15.5t-6 14.5l-4 8q0 7 -1 13.5t-1 12.5q0 5 1 8.5
t1 7.5q0 10 -4 15l-3 1q-3 0 -3 -5v-45q0 -11 7 -25t14 -22zM162 525v2l-3 1l-2 -1l-4.5 -4.5t-3.5 -5.5q-2 -5 -6.5 -14t-8.5 -19.5t-7 -20t-3 -13.5v-1q4 0 4 2q7 12 13.5 29t14.5 31l3.5 7t2.5 7zM449 57q0 5 -4.5 5h-8.5q-11 0 -23 -1t-20 9l-16 -6q7 -11 23 -11
q6 0 12.5 1t12.5 1q5 0 9.5 -1t9.5 -1t5 4zM274 115l-1 2q-9 4 -18 6q-1 0 -3 -1.5t-2 -2.5q0 -2 2 -4q3 -3 9 -5q2 0 7 1.5t6 3.5zM316 587l-3 3q-3 -1 -7 -5.5t-6 -7.5l-1 -2q1 -2 3.5 -3.5t4.5 -1.5t5.5 7.5t3.5 9.5zM550 566q0 3 -2 8t-4 8h-2q-3 -3 -3 -5v-6
q0 -2 1.5 -6.5t3.5 -4.5t4 2t2 4zM541 154q0 3 -2 3q-3 -1 -9 -5l-9 -6q1 -1 2 -2.5t3 -1.5q3 0 9 4t6 8zM443 654l-3 14l-3 1l-10 -15h16z" />
    <glyph glyph-name="d" unicode="d" horiz-adv-x="658" 
d="M598 346q0 -7 -1 -14l-2 -14q-3 -20 -7 -35.5t-9 -30t-11 -29.5t-13 -33q-7 -16 -20 -29t-25 -27q-7 -7 -13 -14t-14 -15q-11 -11 -22 -20t-25 -16l-11 -9q-14 -10 -30 -18.5t-33 -14.5q-38 -14 -79 -19t-83 -5q-9 0 -18 -1t-18 -1q-11 0 -21 1l-20 2l-13 1
q-11 1 -17.5 6.5t-10 13.5t-4.5 17.5t-1 18.5l1 1q-2 38 -3 76t-1 77q0 12 2.5 24.5t2.5 24.5q0 4 -1 6q-2 5 -2 10.5v10.5q0 20 -1 40.5t-1 41.5q0 11 1 21.5t1 21.5t-1.5 21t-1.5 21v13q0 9 -1.5 17.5t-1.5 18.5q0 11 1 21t1 21q0 9 -1 18t-1 17q0 10 4 16t5 14
q0 14 3 27.5t8 26.5q5 12 15.5 18.5t23 9t26 2.5h24.5q6 0 12 -1t12 -1q4 0 7.5 0.5t6.5 0.5q17 0 34.5 -3t34.5 -4q17 -8 36.5 -11t36.5 -10q20 -8 39.5 -18.5t36.5 -21.5q20 -13 38.5 -26t35.5 -27q22 -17 34 -42t26 -48q7 -11 12 -29.5t9 -38.5t6 -39.5t2 -32.5zM435 347
q0 10 -1 19t-2 19q-3 50 -39 86l-13 11q-23 24 -48 34.5t-56 18.5q-8 2 -15 2h-14q-2 -9 -3.5 -18.5t-2.5 -19.5q-2 -31 -2.5 -61t-0.5 -61q0 -5 -0.5 -10t-0.5 -10q0 -20 0.5 -40t1.5 -40q0 -11 -0.5 -22.5t-0.5 -23.5q0 -8 1.5 -17t0.5 -17v-18q0 -5 0.5 -10.5t7.5 -5.5
q18 0 31.5 3t25.5 8t24.5 12t27.5 15q3 2 9.5 8.5l8.5 8.5q20 23 35 47t20 55q1 8 3 13.5t2 13.5zM124 223q0 13 -1 25.5t-2 24.5l-1 1q-2 -5 -3.5 -9.5t-1.5 -9.5q0 -2 0.5 -4t0.5 -5q0 -8 -1.5 -17.5t-1.5 -18.5q0 -6 1 -20t3 -19q2 2 2 4.5t1 5.5q1 10 1 19.5t3 19.5v3z
M365 606q0 2 -9 5t-21 5.5t-23 5t-15 3.5l-5 -2q4 -2 13.5 -5.5t20.5 -8t20 -7.5t12 -3q7 0 7 7zM543 372q0 5 -1.5 16t-4.5 14q-3 -5 -2 -8.5t1 -8.5q0 -1 -0.5 -1.5t-0.5 -1.5q-2 -11 -4 -24t-2 -25v-3l3 -3q1 1 3 7.5t4 14t3 14t1 9.5zM445 140v2h-3q0 -1 -5 -3t-6 -3
q-9 -4 -17.5 -8t-16.5 -9q2 -2 5 -2q8 0 22 9t21 14zM136 639q0 3 -2 7.5t-7 4.5t-5.5 -7t-1.5 -11l15 -3q0 2 0.5 4.5t0.5 4.5zM190 61q0 7 -6.5 7t-10.5 1l-8 -12l2 -2q4 0 13.5 0.5t9.5 5.5zM463 513q0 2 -6 5.5t-8 3.5q-1 0 -5 -2l-6 -3q3 -2 8.5 -6t10.5 -4q1 0 2 0.5
t2 0.5q2 2 2 5zM165 452q0 6 -4 8q-5 -2 -6.5 -6.5t-1.5 -9.5q0 -3 2 -9q4 4 7 7.5t3 9.5z" />
    <glyph glyph-name="e" unicode="e" horiz-adv-x="602" 
d="M552 64q0 -9 -1 -20.5t-4.5 -22t-10.5 -17.5t-19 -7q-14 0 -29 1.5t-29 1.5q-21 0 -42 -1l-42 -2l-48 -2t-48 -1q-5 0 -17 1t-25 2t-24.5 2.5t-16.5 2.5q-2 1 -6 1q-6 0 -12 -1.5t-12 -1.5q-13 0 -25.5 0.5t-25.5 1.5q-24 3 -31 25q-3 9 -5 18.5t-2 19.5q0 8 -0.5 16.5
t-0.5 16.5q0 26 -3 51.5t-3 51.5q0 5 1.5 10t1.5 10q0 12 0.5 23.5t0.5 23.5v24q0 13 1 25t1 25v2q-3 9 -3 20q0 14 1 27.5t1 27.5q0 5 -1 9t-1 9q0 9 1 17.5t1 17.5q0 15 -1.5 30.5t-1.5 30.5q0 11 1 22t1 22q0 3 -1 6t-1 6t0.5 6t0.5 6q1 12 1.5 26.5t3.5 28.5t9.5 25
t20.5 14l24 6l3 -5q15 0 29.5 -0.5t29.5 -0.5q8 0 17 1t17 1q24 2 48 3t47 1q6 0 11 -2.5t11 -2.5q8 0 16.5 1t16.5 1t16 -1t16 -1q23 0 46 2.5t46 2.5q10 0 21.5 -4.5t12.5 -17.5t1.5 -25.5t0.5 -24.5v-14t-0.5 -18.5t-1.5 -18t-2 -12.5q-4 -11 -9.5 -15t-16.5 -5
q-30 -1 -60.5 -1h-61.5q-11 0 -22.5 1t-22.5 1q-13 0 -26 -2t-26 -2q-9 0 -17.5 1t-17.5 1q-12 0 -15 -2.5t-4 -15.5v-32q0 -5 -0.5 -10t-0.5 -10q0 -10 10 -10q6 0 12 1t12 1q12 1 24.5 1h24.5q39 0 77.5 0.5t77.5 0.5q15 0 28.5 -4.5t13.5 -22.5q0 -10 -1 -19.5t-1 -19.5
t-0.5 -21t1.5 -21q-5 -23 -12 -33.5t-17.5 -14t-25 -3t-34.5 0.5q-9 0 -18 -0.5t-18 -0.5q-12 0 -24 2.5t-24 2.5q-9 0 -17.5 -1t-16.5 -1q-9 0 -18.5 1t-19.5 1q-9 0 -18.5 -0.5t-9.5 -13.5v-118q0 -10 1 -18.5t3 -18.5q15 -1 30 -1h30q11 0 21.5 -0.5t21.5 -0.5
q25 0 49.5 0.5t49.5 0.5h42.5t42.5 -5q11 -3 15 -11t5 -19q0 -11 0.5 -22.5t0.5 -23.5zM126 441q0 10 -1.5 19.5t-1.5 19.5q0 9 1 14t-8 11q-1 -18 -1.5 -36t-0.5 -36q0 -1 0.5 -2t0.5 -2q5 -10 5 -18q0 -1 1 -2t2 -1l1 1q0 1 0.5 1t0.5 1q0 8 0.5 15t0.5 15zM202 220v11.5
t-0.5 18.5t-1 18t-1.5 9q-2 -14 -3.5 -29t-1.5 -30v-12q0 -11 0.5 -22.5t1.5 -22.5q5 8 5.5 28t0.5 31zM261 63v1q-2 1 -5 2t-5 1q-5 0 -8.5 -1t-8.5 -1h-19q-5 0 -17.5 0.5t-17.5 -3.5l26 -7q14 2 27.5 4t27.5 4zM398 603q-6 2 -13.5 3.5t-12.5 1.5q-14 0 -28 -1.5
t-28 -3.5v-1q3 -1 5.5 -1.5t5.5 -0.5q9 0 18 0.5t18 0.5q4 0 17 -0.5t18 2.5zM342 380q-12 3 -24 2.5t-24 1.5q-4 -1 -9.5 -3t-8.5 -4q12 -3 23 -3t21.5 2t21.5 4zM443 366q-8 2 -12 2q-5 0 -10 -9q4 -3 9 -3q9 0 13 10zM164 648q-1 1 -4 1q-5 0 -8 -3l-6 -6q2 -1 4.5 -3
t4.5 -2q3 0 5.5 5.5t3.5 7.5zM507 672q-5 3 -11 3q-8 0 -15 -9h6q5 0 10 2zM473 83q-4 2 -5 2q-3 0 -9.5 -2.5t-5.5 -5.5v-1q2 0 3 -0.5t3 -0.5q9 0 14 8z" />
    <glyph glyph-name="f" unicode="f" horiz-adv-x="571" 
d="M521 656q0 -16 -2 -31.5t-3 -31.5q0 -13 -7 -20.5t-17 -11.5t-22 -5t-22 -1q-5 0 -10.5 -1t-10.5 -1t-10.5 2t-11.5 2q-5 0 -10.5 -0.5t-10.5 -0.5q-8 0 -16.5 1t-16.5 1t-15 -1t-15 -1q-5 0 -11 1t-11 1q-15 0 -32 -1t-31 -4q-5 -1 -7.5 -7.5t-3 -14t-0.5 -15.5v-12
v-16.5t2 -16.5q0 -6 7 -6l16 -2t16 -1h7q10 2 19.5 -0.5t20.5 -2.5q38 0 74.5 2t74.5 2q15 0 22.5 -4.5t10 -12.5t2.5 -18.5v-22.5q0 -14 -0.5 -28.5t-1.5 -28.5q0 -15 -4.5 -20.5t-17.5 -11.5q-13 -5 -25.5 -5t-26.5 -1l-78 -2q-14 -1 -29 -2t-30 -1q-7 0 -13 0.5t-13 0.5
t-12.5 -1t-6.5 -9q-1 -14 -1.5 -27t-0.5 -26q0 -49 1.5 -97.5t1.5 -97.5v-15t-1 -14q-2 -8 -7.5 -13t-12.5 -7q-9 -2 -23 -3t-29 -1h-29.5h-24.5q-11 0 -20.5 8t-14.5 18q-3 5 -3.5 11.5t-0.5 12.5q0 9 1 18.5t1 18.5q0 14 -1.5 27.5t-1.5 27.5q0 7 0.5 13t0.5 12
q-1 15 -2.5 30.5t-1.5 30.5q0 17 2 34.5t2 34.5q0 16 -1 32t-1 33q0 5 0.5 11t0.5 12q0 5 -1 11t-1 12q0 13 1 25.5t0 25.5q0 19 -1 38t-1 39q0 10 1 19.5t1 19.5q0 13 -0.5 25.5t-0.5 26.5q0 30 11 58q1 4 6.5 7t12.5 4.5t13.5 2.5t10.5 1t7.5 -0.5t7.5 -0.5q8 0 17 1t18 1
t18 -1t18 -1t18 2.5t17 2.5q4 0 7.5 -1t7.5 -1q7 0 13 2t13 2q11 0 22 -1t22 -1q29 0 61 1t61 3q5 0 10 1t10 1q26 0 37 -11.5t11 -37.5zM182 185v20.5v26t-0.5 26t-2.5 18.5l-4 6q-3 -24 -3 -47v-12.5t1 -17.5t1.5 -17.5t2.5 -11.5q5 2 5 9zM359 358q-2 1 -3.5 2t-3.5 1
h-23t-31.5 -1t-30 -3.5t-17.5 -7.5q4 -2 7 -2q14 0 26.5 2t26.5 2q15 0 25 2.5t24 4.5zM373 649q-2 1 -4.5 3t-4.5 2q-15 0 -31 -3t-30 -8q3 -3 5 -3q14 0 28.5 1t27.5 3q2 1 4.5 2.5t4.5 2.5zM125 68q0 11 -9 16q-5 -10 -5 -21q0 -9 3 -16q11 8 11 21zM146 425
q0 6 -2.5 8.5t-8.5 5.5q-1 -2 -1 -5.5v-5.5v-5v-8.5t1 -8.5q8 2 9.5 6.5t1.5 12.5zM172 617q-8 4 -12 4q-3 0 -8.5 -2t-5.5 -6q0 -2 2.5 -3t4.5 -1q5 0 10.5 2t8.5 6zM438 420q-2 1 -8 2.5t-8 1.5q-7 0 -7 -6q0 -4 4 -4.5t7 -0.5q8 0 12 7zM460 592l-2 2h-5v1l-8 -2l-2 -2
l2 -3q1 0 2 -0.5t3 -0.5q3 0 9 2z" />
    <glyph glyph-name="g" unicode="g" horiz-adv-x="671" 
d="M600 63v-10t-3 -10q-6 -13 -27 -21.5t-46.5 -14t-50 -7.5t-37.5 -2q-22 0 -45.5 3t-43.5 9l-12 4l-12 4q-22 4 -48.5 17t-44.5 25q-41 26 -73 52.5t-55 69.5q-11 22 -18 45.5t-12 47.5l-2 8q-8 17 -8.5 33.5t-0.5 33.5q0 16 1 32t3 32q1 9 4.5 18.5t5.5 19.5
q7 31 23.5 62.5t39 59t49.5 50t56 35.5q17 8 41 17.5t41 11.5q20 2 38.5 7t39.5 5q16 0 31.5 1t31.5 1q5 0 7 -1q27 -7 54.5 -11t53.5 -15l7 -3.5t3 -6.5q0 -3 -1.5 -6t-1.5 -6q0 -6 1 -12t1 -12q0 -23 -4 -48t-8 -49q-2 -10 -5.5 -16.5t-15.5 -6.5q-7 0 -10 1
q-39 8 -78 18.5t-79 10.5q-14 0 -28 -3l-28 -6q-10 -2 -18 -8l-16 -12q-14 -11 -27 -23.5t-24 -27.5q-10 -14 -17.5 -34.5t-7.5 -37.5t3 -32.5t5 -32.5q2 -14 7 -26.5t11 -25.5q12 -23 30 -38l10 -11q14 -20 34.5 -27t41.5 -17q14 -8 33.5 -11t35.5 -3q6 0 7.5 1.5t2.5 6.5
q2 14 2 29v29l-1 4q0 7 -1 9t-9 3q-8 2 -17 2h-18v-1q-14 1 -25 1t-18.5 4t-11.5 13t-4 27q0 7 1 20.5t2.5 28t3 28t2.5 20.5q2 16 9 20t22 4q16 0 32 -1t32 -1q29 0 57 0.5t56 0.5q12 0 24 -7.5t14 -20.5q3 -18 3 -37q0 -10 -1 -19t-1 -19v-164q0 -20 1 -40.5t1 -40.5z
M459 638q-6 6 -16 6q-14 1 -27 1.5t-27 0.5q-8 0 -12 -4q-4 -3 -12.5 -3h-13.5q-2 0 -5 -1t-4 -4q5 -7 11 -7q7 0 18.5 3.5t19.5 4.5q8 0 11 2q6 3 13 3q9 0 18 -1.5t18 -1.5q6 0 8 1zM292 130q-1 6 -8 9q-11 5 -23 11t-18 16q-5 9 -13 12.5t-16 8.5q0 -10 6 -15
q10 -8 19.5 -16.5t22.5 -11.5q4 -2 6 -4q3 -2 10 -6t11 -4h3zM137 395v3l-6.5 -6.5t-3.5 -8.5q0 -8 -0.5 -15t-0.5 -15q0 -23 7 -41q3 1 3 4t-0.5 6.5t-0.5 6.5q0 17 1 33t1 33zM484 333l-2 1q-10 0 -20 -1t-20 -1q-4 0 -7.5 0.5t-8.5 0.5l-1 -1q1 -3 2.5 -6.5t5.5 -3.5
q11 0 26.5 1.5t24.5 9.5zM463 57q-4 14 -15 20q-2 -5 -4 -8.5t-7 -6.5q1 -4 2.5 -8t6.5 -4t9 2.5t8 4.5zM237 549q0 2 -2 6h-6q-5 0 -11 -9.5t-8 -13.5q2 -1 6 -1q6 0 13.5 6t7.5 12zM540 562q0 7 -6.5 7.5t-11.5 1.5h-5.5t-4.5 -2v-5q4 -2 11 -6t11 -4q3 0 4.5 3t1.5 5z
M537 198q0 6 -3.5 8t-8.5 4q-5 -4 -4.5 -9t-1.5 -10q1 -5 7 -5q11 0 11 12z" />
    <glyph glyph-name="h" unicode="h" horiz-adv-x="712" 
d="M642 513q0 -13 -0.5 -26t-0.5 -27q0 -16 0.5 -31.5t0.5 -32.5q0 -2 -0.5 -5t-0.5 -5q-2 -23 -2.5 -45.5t-0.5 -45.5q0 -5 1 -11t1 -11q0 -24 -2 -48t-2 -48q0 -12 1 -24t1 -24q0 -5 -0.5 -10t-0.5 -10q0 -9 0.5 -18.5t0.5 -18.5q0 -12 -1 -24.5t-3 -24.5q-3 -19 -25 -21
q-11 0 -22.5 -0.5t-22.5 -0.5t-20.5 1.5t-20.5 1.5q-12 0 -21.5 0.5t-15.5 4.5t-9.5 12t-3.5 22q0 25 1.5 49t2.5 48q1 25 1 49v48v16v20.5t-1 20t-2 14.5q-2 9 -11 9q-34 0 -67 -2.5t-66 -2.5q-9 0 -18 1t-17 1q-4 0 -7.5 -0.5t-7.5 -0.5q-8 0 -16.5 2t-16.5 2
q-7 0 -10 -3.5t-4 -8.5t-1 -11v-11q0 -11 0.5 -22.5t0.5 -22.5t1.5 -19.5t1.5 -18.5q0 -8 -1 -14.5t-1 -14.5q0 -7 0.5 -13.5t0.5 -14.5q0 -29 -0.5 -64.5t-5.5 -63.5q-2 -14 -15.5 -16t-24.5 -2q-13 0 -25 2t-24 2h-26t-25 3q-15 3 -16 19l-2 52t-1 52q0 11 1.5 23t1.5 23
v13q-2 46 -2 91.5t-1 91.5q0 9 -0.5 18t-0.5 18q0 8 0.5 16.5t0.5 16.5v91t1 90q0 15 1 29.5t3 29.5q1 12 6.5 13.5t16.5 1.5l53 -1h61q9 0 12.5 -8t4.5 -19t0.5 -22t-0.5 -17q0 -18 -1 -36t-1 -36t0.5 -36t1.5 -36q1 -6 2 -7.5t8 -1.5h67q4 0 8 -1t8 -1q8 0 16 1l16 2
t15 0.5t15 -0.5q15 0 30.5 0.5t31.5 0.5q11 0 15.5 1t6.5 13q3 29 3.5 58t0.5 58q0 17 -0.5 33.5t-0.5 33.5q0 12 4.5 17.5t11.5 7.5t16 2h17h23t33 -1t31.5 -2.5t19.5 -4.5t7 -10q3 -10 4 -26t1.5 -33.5t0 -34.5t-0.5 -28t1 -22.5t1 -23.5zM144 255q0 11 -5 15
q-2 -16 -2 -41v-42q0 -21 3 -42q3 1 3.5 4.5t0.5 5.5v100zM601 497q-1 12 -1.5 23.5t-0.5 23.5q0 23 0.5 45t-0.5 45l-1 -1q-1 -8 -2.5 -13t-4.5 -12v-1v-21t1 -21q0 -11 1.5 -22t1.5 -22q0 -5 0.5 -13.5t5.5 -10.5zM358 407q-5 2 -17.5 2.5t-18.5 0.5q-5 0 -10 -0.5
t-10 -0.5t-10 2t-10 2q-2 0 -9 -1t-15 -2t-15 -2.5t-8 -2.5q4 -2 7 -2q16 0 31 0.5t31 0.5q11 0 22.5 -0.5t23.5 -0.5q6 0 8 4zM190 507v15.5t-2 15.5q-9 -20 -9 -40q0 -4 0.5 -7t1.5 -7q9 4 9 15v8zM465 360q-5 3 -10.5 3.5t-11.5 0.5q-5 0 -17 -0.5t-15 -3.5q2 -6 11 -6
q11 0 22 0.5t21 5.5zM551 359q0 8 -1 16.5t-5 15.5q-5 0 -5 -5q0 -10 1.5 -23t6.5 -21q3 7 3 17zM133 642q0 9 -9 16q-5 -4 -5 -11q0 -5 0.5 -8.5t4.5 -7.5q9 4 9 11zM203 33q0 6 -6 12q-3 -4 -5.5 -8t-2.5 -9q0 -6 3 -10q4 3 7.5 6.5t3.5 8.5zM542 52q0 5 -3 9.5l-5 7.5
q-3 -3 -3 -9q0 -3 0.5 -6t0.5 -7v-2l4 -3q6 6 6 10zM529 651q0 2 -1 5.5t-3 3.5q-7 0 -7.5 -5t-2.5 -10h6q8 0 8 6zM605 187q0 2 -1.5 6.5t-4.5 4.5q-1 0 -1 -0.5t-1 -0.5q0 -2 -0.5 -3t-0.5 -3v-3q0 -6 5 -9q4 4 4 8z" />
    <glyph glyph-name="i" unicode="i" horiz-adv-x="314" 
d="M244 222q0 -11 -1 -21.5t-1 -21.5v-146q0 -14 -5 -25t-22 -11h-28q-18 0 -35 1.5t-34 1.5t-31 13.5t-14 30.5q0 8 -1 15.5t-1 15.5t2 15.5t2 15.5q0 11 -2.5 21.5t-2.5 21.5q0 10 1 20t1 21q2 43 3 85.5t1 85.5q0 14 -1 28t-1 28q0 8 0.5 16t0.5 16v13q0 5 1 10t1 10
q0 7 -1 13t-1 12v44v61.5t4 61.5q2 13 9 16t18 3h12q11 1 22.5 1.5t22.5 0.5h24.5t24.5 -1q14 -2 18.5 -5.5t6.5 -17.5q1 -3 1 -6.5v-6.5q0 -22 0.5 -43t1.5 -43q1 -17 2 -33t1 -32q0 -9 -0.5 -17.5t-1.5 -17.5q0 -11 0.5 -23t-0.5 -23q0 -13 -1.5 -25.5t-1.5 -25.5
q0 -9 2 -18t2 -18q0 -8 0.5 -16.5t0.5 -16.5t-1.5 -16.5t-1.5 -16.5q0 -13 2 -25.5t2 -25.5zM136 337v18.5t-1 19.5l-2 3q-2 0 -3 -2t-1 -4q0 -3 1 -6.5t1 -7.5q0 -3 -1.5 -6t-1.5 -7q0 -6 1 -12t1 -11q0 -14 -2 -28.5t-2 -28.5q0 -2 1 -4q4 -8 4.5 -16.5t2.5 -16.5q2 4 2 7
q0 5 -1 9t-1 8q0 15 1 29.5t1 29.5v26zM211 101v8t-1 10.5t-2 10t-4 4.5l-1 -1l2 -69q0 -3 3 -3q1 0 1 1q1 8 1.5 15.5t0.5 15.5v8zM119 619q0 3 -0.5 6.5t-0.5 6.5l-3 3l-5 -10t-3 -11q0 -2 0.5 -5.5t2.5 -4.5q4 0 6.5 6t2.5 9zM201 495q0 2 -1 7t-5 5t-5 -4t-1 -7
q0 -7 1.5 -10t7.5 -5q3 7 3 14z" />
    <glyph glyph-name="j" unicode="j" horiz-adv-x="519" 
d="M459 340q0 -8 -1 -15.5t-1 -15.5q0 -5 1 -8.5t1 -8.5q0 -17 -2 -33t-2 -33q0 -8 -1.5 -19t-4 -22.5t-5 -22.5t-3.5 -20q-5 -23 -14 -42q-4 -6 -5.5 -11.5t-3.5 -11t-5 -10.5t-10 -11q-5 -5 -8 -9.5t-8 -9.5q-9 -9 -24 -17t-31.5 -13.5t-33.5 -8.5t-30 -3q-14 0 -31.5 1
t-35.5 4t-35 8t-29 13q-31 18 -55 36.5t-38 53.5q-2 5 -3 9.5t-1 9.5q0 11 6 19t14 14q5 3 17 11.5t25.5 17t25.5 15t17 6.5q13 0 18 -6.5t10.5 -15t14 -18t27.5 -15.5q7 -3 15 -3q3 0 8 0.5t11 1.5t11.5 2t7.5 2q8 3 10.5 9.5t4.5 13.5q1 7 3.5 18.5t4.5 24t3.5 24
t1.5 18.5q0 20 -2.5 41t-2.5 42q0 5 0.5 9.5t0.5 9.5q0 4 -2 14q0 16 0.5 31.5t-0.5 32.5q0 11 -1 22t-1 22q0 19 -0.5 37.5t-0.5 37.5v52.5t4 51.5q1 10 7 16.5t17 6.5q15 0 29.5 2t29.5 2q9 0 18 -2.5t19 -2.5q5 0 11 0.5t11 0.5q16 0 17 -14q2 -11 3.5 -21.5t1.5 -21.5
h-1q1 -11 2 -21.5t1 -21.5q0 -14 -1 -27t-1 -27q0 -23 1 -46.5t1 -46.5q0 -6 0.5 -11.5t0.5 -11.5q0 -5 -1 -10.5t-1 -10.5q0 -4 1 -7.5t1 -7.5q0 -11 0.5 -24.5t0.5 -24.5zM329 625q0 7 -0.5 13.5t-1.5 13.5l-3 4q-2 -2 -4 -5.5t-2 -6.5q0 -14 1 -26.5t2 -25.5q0 -6 4 -7
q2 1 2 5q0 9 1 17.5t1 17.5zM419 507q0 8 -1.5 12.5t-10.5 6.5q0 -7 -2.5 -12.5t-2.5 -11.5q0 -7 5 -12q12 6 12 17zM359 362q0 9 0.5 17.5t-1.5 16.5q-7 -4 -7 -13q0 -3 0.5 -5.5t0.5 -5.5q0 -12 -2 -24t-2 -24q0 -4 3 -10q1 -1 1.5 -6t0.5 -11t0.5 -11.5t0.5 -7.5
q5 7 5 14q0 4 -0.5 8t-0.5 9q0 8 0.5 15t0.5 15v23zM336 102q0 5 -5 5q-7 0 -10 -6.5t-3 -11.5q0 -4 5 -4q4 0 8.5 7t4.5 10zM108 95q0 4 -8 10.5t-11 8.5q-2 2 -5 2t-6 2v-3q0 -7 8.5 -16t16.5 -9q5 0 5 5z" />
    <glyph glyph-name="k" unicode="k" horiz-adv-x="621" 
d="M571 680q0 -9 -8 -25t-13 -24q-20 -31 -40 -61t-40 -62q-14 -22 -26.5 -44t-27.5 -44q5 -15 10 -29.5t10 -29.5q14 -43 30.5 -84t31.5 -84q6 -7 9 -14q4 -9 14.5 -33.5t21 -51.5t19 -50t8.5 -28q0 -9 -7 -12t-15 -3t-17 1t-18 1q-22 0 -43.5 -1t-43.5 -1q-9 0 -15 3
q-8 3 -13 12.5t-8 16.5q-12 30 -25 59.5t-26 59.5q-6 15 -11.5 30.5t-11.5 31.5l-16 38q-14 -21 -30 -42t-27 -44q2 -20 3 -39t1 -38q0 -5 -0.5 -9.5t-1.5 -9.5q-2 -9 -1 -19t1 -20v-13q0 -7 -4.5 -10.5t-10.5 -4.5t-13 -1h-12t-9 -0.5t-9 -0.5q-7 0 -14 0.5t-14 0.5
q-14 0 -26.5 -0.5t-25.5 -0.5q-18 0 -23 8t-5 24q0 7 -0.5 13t-0.5 13q-2 38 -3 76.5t-1 76.5q0 62 1 123.5t-1 124.5q-1 38 -1.5 76.5t-0.5 76.5q-1 8 -1.5 17t-0.5 18q0 5 1 10t1 10q1 23 8.5 26.5t26.5 3.5q10 0 19.5 0.5t19.5 0.5q12 0 26.5 1t25.5 -1q2 0 4 0.5t4 0.5
q24 0 29 -9.5t5 -31.5q0 -35 -1 -70t-1 -70q0 -17 1.5 -33.5t1.5 -33.5q38 51 70.5 106t66.5 109q5 8 10 17t15 14q7 4 17 4q5 0 9.5 -0.5t9.5 -1.5q17 -2 35 -2h35h16t20.5 -1.5t18 -5t7.5 -11.5zM138 633q0 8 -0.5 16.5t-0.5 16.5h-2q-5 -13 -5 -24q0 -4 0.5 -7.5
t-1.5 -7.5q-3 -8 -3 -17q0 -18 7 -33q3 1 4 6t1 12v13.5v9.5v15zM433 166q-5 14 -11.5 28t-9.5 28q0 3 -2 10.5t-4.5 15.5t-5 14.5t-4.5 7.5l-1 -1q1 -6 1 -12.5t3 -12.5q6 -9 9 -20l5 -23q2 -11 7.5 -19.5t10.5 -18.5q2 0 2 1v2zM423 655l-4 5q-8 -8 -20 -25t-14 -28
q6 1 9 8q6 11 14 19.5t15 19.5v1zM179 192q0 5 -1.5 20t-3.5 19q0 -14 -1.5 -27t-1.5 -27t3 -27q2 1 3 3q-2 10 0 19.5t2 19.5zM139 45q0 7 -10 9l-13 -9q0 -1 -0.5 -1.5t-0.5 -1.5q0 -6 8 -12l15 7q1 3 1 8zM460 40q0 2 -1 7t-2.5 10.5t-4 9.5t-4.5 4t-3 -1.5t-2 -2.5l2 -1
v-8t0.5 -10t3 -8.5t7.5 -3.5q4 0 4 4zM254 336q0 3 -5 6q-1 -2 -5 -7t-8 -10.5t-7 -10t-3 -5.5l2 -1l1 -1q7 0 16 11.5t9 17.5zM174 443q0 3 -2 7.5t-6 4.5t-6 -4.5t-2 -7.5q0 -4 1.5 -8.5t5.5 -4.5q5 0 7 4.5t2 8.5zM498 626q0 4 -2 5q-1 1 -3 1q-6 0 -9.5 -8.5t-3.5 -13.5
v-3q5 2 11.5 7.5t6.5 11.5zM362 428q-2 1 -5 1q-6 0 -6 -8q0 -4 3 -5.5t6 -1.5z" />
    <glyph glyph-name="l" unicode="l" horiz-adv-x="470" 
d="M420 23q0 -9 -5 -14t-12 -8t-15.5 -3.5t-15.5 -0.5q-23 0 -49 2t-50 2q-14 0 -28 -1t-28 -1q-25 0 -49 0.5t-48 0.5q-9 0 -18 1t-18 4q-5 2 -8.5 14t-3.5 17v30h1q-1 10 -1.5 19.5t-0.5 20.5t2 23t2 23q0 15 -2.5 30t-2.5 31q0 24 3.5 47.5t3.5 47.5q0 11 -1 22.5
t-1 22.5q0 14 -1 28t-1 28q0 11 0.5 21t0.5 21q0 19 -0.5 37t-0.5 37v22t1 22q1 3 2.5 6t1.5 7q0 19 -0.5 38t-0.5 39v23q1 8 6.5 13t13.5 5q21 1 42.5 1h43.5q4 0 12 -0.5t16.5 -2t15.5 -4t9 -6.5q1 -4 2 -13t1.5 -19.5t1 -20t0.5 -14.5q0 -6 -1.5 -11.5t-1.5 -11.5
q0 -2 0.5 -5t0.5 -5q0 -8 -1 -15.5t-1 -15.5q0 -23 1.5 -45.5t1.5 -45.5q0 -11 -1.5 -22t-1.5 -22q1 -5 1 -10.5v-11.5q0 -14 -0.5 -27.5t-0.5 -27.5q0 -11 1.5 -21t1.5 -21t-2 -22.5t-2 -22.5q0 -6 2.5 -11.5t2.5 -11.5q0 -17 -2.5 -34t-2.5 -34q0 -12 12 -12q17 0 34 0.5
t34 0.5q4 0 7.5 -0.5t8.5 -0.5q14 0 27.5 0.5t27.5 0.5q19 0 26 -11t7 -29q0 -10 -1.5 -20t-1.5 -21q0 -14 1.5 -26.5t1.5 -25.5zM141 336q0 3 -2 8.5t-6 5.5q-2 0 -2.5 -2.5t-0.5 -4.5q-2 -15 -4 -30.5t-2 -31.5q0 -8 1.5 -14t3.5 -13q2 -4 2 -9t1 -9h2q3 12 3 23v23
q0 14 2 27t2 27zM316 97q-3 8 -12.5 6.5t-16.5 3.5q-5 1 -9.5 0.5t-8.5 -0.5q-13 0 -20.5 -3t-18.5 -8q11 -1 20.5 -1h19.5h23t23 2zM212 654q0 7 -4 11h-14q-1 -6 -1.5 -12t-0.5 -11t4 -5q7 0 11.5 5.5t4.5 11.5zM372 54q0 6 -3 11l-16 -11q2 -3 4 -7.5t7 -4.5t6.5 4t1.5 8
zM149 79q0 5 -4 5q-3 0 -5 -4.5t-2 -7.5q0 -4 4 -4q1 0 1.5 0.5t1.5 0.5q4 4 4 10zM175 478q-2 0 -2.5 0.5t-2.5 0.5q-6 0 -6 -8q0 -4 3 -5.5t6 -1.5z" />
    <glyph glyph-name="m" unicode="m" horiz-adv-x="796" 
d="M736 14q0 -5 -4.5 -8t-11 -4.5t-13 -2.5t-9.5 -1q-10 0 -19.5 -0.5t-18.5 -0.5q-14 0 -29 1t-29 3q-23 4 -26 30q-2 14 -2 26.5t-5 26.5q-2 4 -2 12q0 23 -2 45t-5 45q-1 3 -1 9q0 4 1 7.5t1 7.5q0 5 -2 15q-5 26 -9.5 50.5t-7.5 50.5q0 1 -0.5 2t-0.5 2l-3 -1
q-16 -23 -29 -47.5t-22 -50.5q-4 -12 -12 -20.5t-13 -19.5q-13 -29 -24 -59t-28 -56q-3 -5 -9 -8.5t-12 -3.5q-5 0 -8.5 3t-6.5 7q-9 11 -15.5 23.5t-11.5 26.5q-5 17 -16 32.5t-17 33.5q-3 8 -7.5 15t-9.5 14q-10 12 -13.5 26.5t-12.5 27.5q-7 8 -11 19t-9 20
q-4 -2 -4.5 -4.5t-1.5 -6.5q-3 -30 -5.5 -60.5t-4.5 -61.5q-2 -13 -4 -25t-2 -26q0 -8 -0.5 -24.5t-1.5 -34.5t-3 -33.5t-5 -21.5q-4 -9 -17 -11q-20 -2 -39.5 -3t-39.5 -1h-20t-20.5 2t-16 8.5t-6.5 20.5t1 28.5t1 29.5q1 19 3.5 38t5.5 38q1 5 1.5 9t0.5 9q0 14 -1 26.5
t3 26.5q3 9 3 19q0 6 -1.5 12t-1.5 11q0 20 6.5 45t8.5 46q3 28 3 59q0 10 -0.5 20t0.5 20q1 13 3.5 26t2.5 25q0 13 1.5 25t2.5 25q2 23 2.5 45t2.5 45q2 13 8 23.5t18 16.5q4 2 14 3t21.5 2t21.5 1h16q14 0 24 -10q12 -12 25.5 -36t26.5 -51.5t25 -54t21 -43.5
q5 -11 11.5 -21.5t12.5 -21.5q11 -19 18 -41.5t21 -39.5q8 14 14 28.5t12 28.5t12.5 21.5t10.5 18.5q5 11 9.5 23t9.5 24q4 11 11 19.5t12 19.5q11 29 26.5 62t36.5 56q11 14 27.5 17t32.5 3q11 0 22 -0.5t22 -1.5q11 0 12 -10q8 -32 10 -66.5t5 -68.5q4 -33 7.5 -66.5
t5.5 -66.5q3 -42 9 -84q2 -20 5.5 -41t3.5 -41v-20.5t2 -20.5q3 -15 5 -30.5t3 -30.5q0 -14 5 -31q6 -33 6 -66q1 -11 4 -23t3 -24zM634 289l-1 3q-2 33 -8.5 66t-10.5 65h-11q1 -8 5 -30t8 -46t8 -44.5t6 -24.5h3q0 3 0.5 6t0.5 5zM150 460v13.5t-2 13.5h-2l-2 -3
q-2 -17 -1.5 -34t-2.5 -34q-3 -21 -3 -42.5t-1 -43.5l1 -2q2 8 2.5 17t2.5 17q5 20 6.5 39t1.5 39v20zM341 334q0 4 -4.5 12.5t-10 17.5t-11 17.5t-8.5 12.5h-9q1 -1 6.5 -11t12 -21.5t12 -21t7.5 -9.5q5 0 5 3zM490 351l-9 -1q-11 -17 -21 -31.5t-15 -34.5q3 -1 5 3
q10 16 20 31.5t20 32.5zM214 575q0 7 -2.5 13t-4.5 12l-2 1q-4 -8 -4 -16t-1 -16v-5q0 -4 3 -8h1q5 2 7.5 8t2.5 11zM590 635q0 4 -5 4t-11.5 -11t-6.5 -15q0 -7 7 -7q7 4 11.5 12.5t4.5 16.5zM689 56q0 10 -7 14q-1 -5 -1.5 -9t-0.5 -9q0 -14 7 -25q1 8 1.5 14.5t0.5 14.5z
M155 191q0 4 -1 7q-6 0 -9 -6.5t-3 -11.5t5 -7q3 4 5.5 8.5t2.5 9.5zM201 44q0 2 -2 4t-4 2q-5 0 -9 -6l-6 -9q1 -1 4 -1q4 0 10.5 2.5t6.5 7.5zM398 145q0 4 -4 4q-3 0 -6 -4t-3 -7q0 -4 4 -4q3 0 6 4.5t3 6.5zM524 483l-3 13l-3 1l-8 -14h14z" />
    <glyph glyph-name="n" unicode="n" horiz-adv-x="681" 
d="M611 538q0 -4 -1 -7t-1 -7q-3 -15 -3 -31q0 -8 0.5 -16t0.5 -16q0 -5 -1 -10.5t-1 -10.5q0 -9 1 -18.5t1 -19.5q0 -7 -0.5 -13.5t-0.5 -12.5q0 -3 0.5 -6.5t0.5 -6.5q0 -5 -0.5 -10.5t-0.5 -11.5q0 -5 2 -11t2 -11q0 -6 -2 -16.5t-2 -21.5q0 -20 1 -38.5t1 -38.5
q0 -8 -1.5 -16.5t-1.5 -17.5q0 -7 0.5 -13.5t0.5 -13.5q0 -3 -0.5 -6.5t-0.5 -7.5q0 -12 1.5 -24t1.5 -24v-30q0 -5 1 -11t1 -12q0 -11 -5.5 -19.5t-16.5 -8.5q-13 -1 -25.5 -1h-25.5q-16 0 -31 2t-31 4q-20 3 -34 23q-13 16 -24.5 32.5t-22.5 33.5q-9 14 -19 26.5t-20 26.5
q-14 18 -26 35.5t-27 35.5q-9 10 -22.5 32t-22.5 35q-12 17 -26 35l-3 -1q0 -4 -0.5 -8t-0.5 -9q0 -8 1 -16.5t1 -17.5q0 -8 -0.5 -16t-0.5 -16q0 -11 1 -21.5t1 -21.5q0 -40 2 -79.5t2 -79.5v-14q-1 -8 -7.5 -12.5t-15 -6t-17.5 -1.5h-15q-8 0 -14 1.5t-13 1.5
q-8 0 -17 -1.5t-17 -1.5q-15 0 -28.5 7t-13.5 24q0 4 0.5 7.5t0.5 7.5q0 11 -0.5 22.5t-0.5 22.5q0 12 0.5 24.5t0.5 24.5q0 19 -1 37.5t-1 37.5q0 8 0.5 16.5t0.5 16.5q0 3 -1 6.5t-1 6.5t1 6.5t1 7.5q0 5 -1 11t-1 11q0 3 0.5 6t0.5 6q0 12 -1.5 23.5t-1.5 23.5
q0 5 0.5 9.5t0.5 9.5q0 8 -1 16.5t-1 16.5t1 14.5t1 13.5q0 8 -1 15.5t-1 15.5q0 4 0.5 7.5t0.5 7.5q0 10 -1 19.5t-1 19.5v54q0 9 1 18t3 18q2 14 1.5 29t0.5 29q0 14 12 19t24.5 8.5t25.5 3.5q18 0 39 -8q10 -5 17 -12.5t12 -16.5q14 -23 27 -46t27 -46q4 -7 18.5 -28
t34 -48t41.5 -57t42 -56t35 -44.5t20 -21.5q1 7 1.5 14t0.5 14v203v10t-2 10q-2 12 -2.5 24.5t-0.5 25.5v15v20.5t0.5 19.5t1.5 14q2 14 15 14q28 0 55.5 -1t55.5 -1q15 0 24 -9q6 -4 7.5 -8.5t1.5 -11.5q0 -13 -0.5 -25t-0.5 -24q0 -11 1 -22t1 -22q0 -10 0.5 -19.5
t0.5 -18.5zM419 234q-10 20 -18.5 31t-21.5 28l-8 12t-8 13q-8 16 -21.5 28.5t-27.5 23.5v-2q0 -2 5 -9t7 -9q8 -11 16.5 -22.5t16.5 -22.5t14.5 -22t16.5 -20q7 -8 12 -17.5t13 -14.5l3 -1q1 0 1 4zM546 443v28t-1 28l-3 4q-3 -1 -4 -4q-1 -2 -1 -8v-13v-13v-9
q0 -24 -1.5 -47.5t-1.5 -47.5q0 -7 4 -9q2 4 3.5 16.5t2.5 27.5t1.5 28.5t0.5 18.5zM165 336q0 3 -2 5q-5 -14 -6.5 -37t-1.5 -38q0 -10 0.5 -27t5.5 -26q4 3 4 14.5v17.5q0 10 -1.5 19.5t-1.5 19.5q0 8 1.5 16t1.5 16v20zM233 477q-2 2 -4 7.5t-5 5.5q-6 0 -7 -9t-1 -13v-4
q0 -2 1 -4.5t2 -4.5h1zM503 653q0 5 -1.5 6.5t-3.5 5.5q-3 -5 -5.5 -10t-2.5 -10q0 -3 0.5 -8t5.5 -5t6 5.5t1 10.5v5zM141 626q0 3 -1 7.5t-6 4.5q-4 0 -5 -3.5t-1 -5.5q0 -3 1 -9.5t5 -6.5q3 0 4.5 5t2.5 8zM137 61q0 8 -6 11q-4 0 -5 -6t-2 -9h1v-5q2 -4 4 -5q8 3 8 14z
M523 87q0 3 -2 7q-6 0 -8.5 -6t-2.5 -11t5 -8q2 4 5 8.5t3 9.5z" />
    <glyph glyph-name="o" unicode="o" horiz-adv-x="822" 
d="M762 410q0 -19 -0.5 -38.5t-3.5 -38.5v-4q0 -5 0.5 -10.5t0.5 -10.5q0 -17 -2.5 -34.5t-7.5 -34.5l-10 -30q-3 -13 -11.5 -28t-19 -30t-22 -29t-20.5 -24q-6 -8 -14 -16.5t-16 -14.5q-8 -5 -17 -10.5t-15 -11.5q-7 -8 -18.5 -14.5t-24.5 -12t-25.5 -9t-22.5 -4.5
q-8 -1 -14.5 -3t-13.5 -3q-10 -1 -20 -1.5t-20 -0.5q-11 0 -22 3t-17 3q-15 0 -30 2l-30 4q-19 2 -36 7.5t-35 9.5q-14 3 -29.5 12t-28.5 17q-13 7 -25.5 14t-25.5 15q-8 5 -14 14q-12 16 -27 28t-23 32q-3 11 -8.5 20.5t-9.5 19.5q-5 12 -9 23.5t-7 23.5q-6 25 -6.5 54
t-0.5 54q0 24 2 49t9 48q2 9 6.5 17.5t8.5 16.5q9 20 19 39t22 38q3 5 11.5 14t19 18t20.5 17t16 12q23 16 43 30t41 24t45 15.5t55 5.5q14 0 28.5 1.5t28.5 1.5q25 0 50.5 -5t48.5 -12q40 -12 67.5 -27.5t49 -36.5t39.5 -47.5t38 -59.5q5 -8 9 -22t7 -25q1 -4 4 -12
t6 -16.5t5 -16t2 -10.5zM597 372q0 9 -2 20.5t-5 23t-7.5 22t-10.5 16.5q-13 15 -22.5 33.5t-29.5 26.5q-16 6 -31.5 12.5t-32.5 12.5q-19 7 -33 7q-17 0 -34 -6.5t-34 -10.5t-33.5 -13.5t-31.5 -17.5q-10 -5 -15 -15q-5 -7 -10.5 -12t-10.5 -13q-12 -21 -22.5 -48
t-10.5 -52q0 -20 1.5 -39t10.5 -37q8 -15 18 -27.5t21 -25.5q17 -21 39 -32t47 -20q5 -2 9.5 -3.5t9.5 -1.5q4 0 6.5 1t5.5 1q7 0 15.5 -3t18.5 -3q16 0 36 5q8 2 14 5.5t14 3.5h3q5 2 18.5 10.5t28 18.5t25.5 19.5t11 14.5q0 12 7 21t9 21q5 21 6.5 42.5t1.5 42.5zM149 443
q0 3 -3 3l-2 -1q-12 -27 -16.5 -47t-4.5 -49q0 -9 8 -17q2 8 2 12q0 16 0.5 29.5t5.5 28.5q0 2 2 8t3.5 13t3 12.5t1.5 7.5zM473 81l-1 3q-8 1 -17 0.5t-17 1.5t-12 2q-7 0 -14 -2l-14 -4q4 -3 8.5 -6t9.5 -3t13 0.5t16.5 1.5t16 2.5t11.5 3.5zM228 105q0 6 -4.5 12t-11 12
t-13.5 11t-11 8q0 -13 11 -28t26 -15h3zM551 621q0 5 -2.5 6t-5.5 2q-5 2 -14 5.5t-14 3.5q-6 0 -10 -3q9 -10 21 -13t24 -7q0 2 0.5 3t0.5 3zM678 371q0 11 -2.5 25t-4.5 25q0 5 -6 5q-2 0 -4 -1l13 -62q4 4 4 8zM223 575q0 3 -2 7.5t-6 4.5t-10 -9.5t-6 -13.5q0 -3 3 -4
t5 -1h3q6 0 9.5 5.5t3.5 10.5zM633 179q0 2 -0.5 3.5t-0.5 3.5q-7 0 -9.5 -6.5t-2.5 -11.5t5 -7q3 4 5.5 8.5t2.5 9.5zM386 616q-3 7 -10 7q-5 0 -9.5 -0.5t-6.5 -6.5q10 -4 15 -4t11 4zM623 536q0 6 -5 13q-6 -3 -6 -9q0 -5 1.5 -10.5t7.5 -6.5q1 4 1.5 7t0.5 6zM202 272
q0 5 -4 11q-6 -2 -6.5 -7t-0.5 -10q0 -8 7 -9q1 4 2.5 7.5t1.5 7.5z" />
    <glyph glyph-name="p" unicode="p" horiz-adv-x="629" 
d="M579 418q0 -6 -1.5 -15.5t-4 -19.5t-5 -19.5t-5.5 -15.5q-4 -8 -6 -16.5t-4 -16.5q-4 -15 -12.5 -21t-15.5 -19q-14 -22 -33 -35q-16 -11 -36.5 -25.5t-38.5 -19.5q-11 -3 -22.5 -7.5t-22.5 -8.5q-42 -14 -88 -14q-8 0 -15 0.5t-15 0.5t-10 -1.5t-3 -9.5q-3 -14 -3 -30
q0 -9 1 -18.5t1 -19.5v-33t-2 -33q-2 -12 -6.5 -16.5t-17.5 -5.5q-9 0 -18.5 -1t-19.5 -1q-17 0 -33 1t-33 3q-24 2 -29.5 19.5t-5.5 37.5q0 8 1 14.5t1 13.5q0 20 -3 40.5t-3 40.5q0 9 1 18t1 17q0 17 -0.5 32.5t-0.5 31.5v39t-1 39q-1 11 0.5 23t1.5 24q0 29 0.5 58
t0.5 58q0 8 -1 17t-1 17q0 11 3 22.5t3 22.5q0 8 -3 17q-2 10 -2.5 21.5t-0.5 21.5q0 24 9.5 33.5t33.5 9.5q6 0 12.5 -0.5t12.5 -0.5q9 0 20 3.5t22 4.5q13 1 26 1.5t26 0.5q23 0 46.5 -2.5t46.5 -3.5q54 -2 104.5 -26t87.5 -62q6 -5 11 -15q11 -17 22 -36t15 -40
q2 -11 3.5 -21t3.5 -21q2 -13 3.5 -26t1.5 -27zM412 445q0 21 -9 39.5t-25 32.5q-2 2 -5.5 3t-6.5 2q-7 3 -16.5 7t-15.5 6q-14 2 -28 3.5t-28 1.5h-18.5t-14.5 -8q-4 -7 -6 -25.5t-2.5 -40t-0.5 -41.5v-30t0.5 -19.5t1.5 -20.5v-26q1 -13 6.5 -15t17.5 -2q17 0 35 3t35 7
q31 6 52 25q9 7 12.5 17.5t8.5 20.5q2 4 3.5 12t2 17t1 17.5t0.5 13.5zM187 440v26t-4 25q-5 -8 -5.5 -17t-0.5 -18v-39t2 -39q8 11 8 30v32zM190 155v10q0 14 -1 27t-1 27l-4 -3q-3 -16 -5 -31t-2 -31q0 -6 0.5 -15.5t6.5 -12.5l4 14t2 15zM507 529q0 5 -3.5 11.5t-8.5 9.5
t-10 12t-18 11q0 -1 -0.5 -2t-0.5 -2q0 -3 4 -8.5t6 -7.5q7 -5 11 -11t9 -13l6 -7q5 2 5 7zM344 627q0 5 -3 5t-6 1q-14 2 -30 1t-31 -1l-5 -2q16 -3 33.5 -6t33.5 -3q8 0 8 5zM491 327q-2 2 -4 3.5t-4 1.5q-6 0 -14 -6t-8 -12q0 -5 4 -5q3 0 10.5 4.5t10.5 6.5q2 1 2.5 3
t2.5 4zM145 620q0 8 -6 8q-5 0 -8 -5t-3 -10q0 -8 5 -8q8 0 10 4.5t2 10.5zM324 258q-2 2 -5 2q-6 0 -6 -8q0 -5 3 -6l6 -2zM124 35l-3 12l-3 1l-8 -13h14z" />
    <glyph glyph-name="q" unicode="q" horiz-adv-x="883" 
d="M823 5q0 -7 -4.5 -12t-12.5 -5q-21 -3 -43 -3q-5 0 -9.5 0.5t-9.5 0.5q-13 0 -25.5 -2t-25.5 -2q-5 0 -10.5 1.5t-10.5 1.5t-10.5 -0.5t-10.5 0.5q-12 1 -21.5 9t-17 16.5t-13.5 15.5t-10 7q-3 0 -10.5 -2t-16 -5t-16.5 -6t-11 -4q-27 -9 -54.5 -13t-55.5 -4
q-40 0 -74 10q-5 2 -9.5 2t-9.5 1q-20 2 -37.5 8.5t-34.5 15.5l-12 6q-19 8 -33.5 19.5t-31.5 21.5q-7 4 -10 7t-4.5 5.5l-3 5t-5.5 5.5q-17 16 -29 32.5t-21 34t-17 36.5t-16 40l-2 6q-6 28 -10.5 56t-4.5 57q0 9 1.5 22.5t4 27.5t5 27t5.5 21l3 5q6 5 8 9.5t4 11.5
q9 23 27.5 50t36.5 44q6 5 10.5 11.5t9.5 12.5q19 19 38 34q6 5 13 7.5t14 6.5q5 3 11 6.5t12 5.5q29 14 63.5 22.5t66.5 8.5q36 0 78.5 -2.5t76.5 -17.5q11 -5 22.5 -11.5t22.5 -12.5l18 -7q7 -3 16.5 -9t19.5 -13t18.5 -14.5t14.5 -13.5q18 -18 31.5 -40t27.5 -44
q5 -8 10 -15.5t8 -16.5q2 -4 6 -14.5t8 -21.5t7 -21t3 -14q0 -24 4.5 -48t4.5 -48q0 -17 -4 -34l-8 -34q-3 -14 -11 -27q-2 -4 -10 -17.5t-16 -29.5l-14.5 -29t-6.5 -16q0 -4 11 -17.5t25 -29t27 -29.5t18 -18q3 -4 11 -8q11 -7 11 -23zM609 324q0 6 -0.5 11.5t-0.5 11.5
q0 22 -4.5 35.5l-11.5 34.5q-5 13 -10.5 25t-14.5 23q-3 4 -6.5 7.5t-6.5 8.5q-15 22 -36 35q-18 10 -31.5 14.5t-26.5 6.5t-27 2.5t-33 3.5q-2 1 -7 1q-6 0 -12 -3q-11 -6 -23 -8.5t-23 -7.5q-5 -2 -8 -4.5t-7 -4.5q-22 -12 -42.5 -30t-29.5 -43q-4 -10 -9.5 -20t-5.5 -21
q0 -2 1 -5t1 -6q0 -12 -4 -24.5t-4 -25.5q0 -11 3 -19.5t5 -19.5q3 -15 12.5 -35.5t20.5 -31.5q6 -5 12.5 -10.5t12.5 -12.5q5 -6 15.5 -12t22 -12t22.5 -10t19 -5l32 -4t32 -2q3 0 10 1.5t13.5 3.5t12 5.5t5.5 6.5q0 4 -14 20t-31 35.5t-31 37t-14 23.5q0 7 5.5 11t12.5 4
q20 1 40 0.5t40 0.5q15 1 30.5 2t30.5 1q9 0 16 -5t13 -12.5t11.5 -16t11.5 -14.5q5 10 8 26t3 27zM621 122q-2 10 -4 14q-8 12 -18 24t-19 23l-7 -5l44 -58zM187 550q-1 1 -5 1q-6 -3 -10 -8.5t-9 -8.5q-4 0 -7 -4.5t-6 -11t-4.5 -12.5t-2.5 -9l1 -1q5 2 6 4.5t4 5.5
q5 1 7 9q3 11 10.5 17t14.5 14zM721 335q0 8 -7 6h-2v-63q1 1 3 2.5t2 3.5q2 11 3 25t1 26zM544 605q-1 2 -1 4.5t-2 3.5t-9 6t-14.5 10.5t-14.5 9.5t-8 4q-4 0 -6 -6zM156 177l-29 57q-2 -6 -2 -8l3 -7t6.5 -15.5t7 -16t4.5 -8.5q2 -4 5 -4t5 2zM500 240q0 8 -8 11.5
t-15 3.5q0 -6 4.5 -13.5t11.5 -7.5q2 0 6 2q0 1 0.5 1.5t0.5 2.5zM153 367q0 5 -5 5t-10 -5t-5 -10q0 -6 7 -6q5 0 9 6t4 10zM350 576q0 3 -4 3q-5 0 -12.5 -5t-9.5 -10q4 -4 8 -4t11 6t7 10zM652 454q-2 7 -4 13t-10 8q-3 -2 -3 -6t4.5 -10t8.5 -6q3 0 4 1zM744 51
q-1 1 -5 1q-6 0 -6 -8q0 -7 10 -7zM308 136q-2 1 -5 1q-6 0 -6 -7q0 -5 3 -6l6 -2zM439 56l-3 13h-2l-9 -13h14z" />
    <glyph glyph-name="r" unicode="r" horiz-adv-x="687" 
d="M627 14q0 -10 -8.5 -11t-15.5 -1q-11 0 -20.5 0.5t-20.5 0.5q-5 0 -9.5 -0.5t-9.5 -0.5q-20 0 -40.5 0.5t-40.5 3.5q-19 1 -32 19q-11 14 -20.5 28t-19.5 28l-60 87q-10 13 -23 13h-25.5t-23.5 -2q-11 -1 -11 -12q0 -16 0.5 -32t1.5 -32q0 -16 0.5 -31.5t0.5 -31.5
t-2.5 -30t-22.5 -14q-12 0 -24 -0.5t-23 -0.5q-5 0 -9.5 1t-9.5 1q-8 0 -16.5 -1t-17.5 -1q-23 0 -35 18q-3 4 -5 25.5t-3 47t-1.5 48.5t-0.5 31q0 12 2 23.5t2 23.5q0 4 -1 7.5t-1 7.5q-1 17 -1 33v33q0 93 -5.5 184t-5.5 184q0 13 4 25t21 12q5 0 9 -0.5t9 -0.5q7 0 14 1
t14 1q6 0 12 -1t12 -1q42 -2 83 -1t83 -2q25 -2 50 -6.5t49 -9.5q18 -4 27.5 -10.5t23.5 -11.5q23 -9 37 -23t27 -35q11 -16 20 -33t14 -36q2 -7 2.5 -13.5t2.5 -13.5q3 -14 6.5 -28.5t3.5 -29.5q0 -24 -6.5 -48t-11.5 -48q-5 -17 -14 -32.5t-18 -31.5q-5 -7 -9 -11.5
t-12 -7.5q-7 -3 -18.5 -15t-18.5 -17l-4.5 -4.5t-2.5 -5.5t5.5 -9.5t13 -14l14 -14l9.5 -9.5q11 -12 21 -29t22 -31.5l24 -29t22 -30.5t16 -35q1 -2 1 -7zM412 432q0 26 -6 42t-20 38q-9 14 -21.5 22.5t-27.5 13.5t-31 6.5t-31 1.5q-10 0 -19.5 -1t-19.5 -3l-2 -3v-15
q0 -19 0.5 -37t0.5 -36q0 -7 -0.5 -13.5t-0.5 -13.5q0 -26 1.5 -52.5t3.5 -52.5q0 -15 14 -16q5 0 10.5 -0.5t11.5 -0.5q21 0 41 6.5t39 14.5q31 14 43 43q3 8 5 15t7 15q2 2 2 12.5v13.5zM478 579q0 5 -6.5 13.5t-15.5 16.5t-17.5 13.5t-11.5 5.5q-5 0 -8 -1v-2
q0 -6 6.5 -10t11.5 -6q11 -6 19.5 -12t15.5 -17l6 -5v4zM143 214q0 6 -1 11.5t-2 10.5q-1 9 0 18.5t-1 20.5h-1q-1 -3 -1.5 -14.5t-1 -26t-1 -27.5t-0.5 -18t0.5 -9t0.5 -9h2q3 0 4.5 6t1.5 9v28zM401 260l-4.5 3t-6.5 1q-14 0 -30 -3.5t-26 -13.5h5q14 0 29 2.5t29 6.5
q2 1 2.5 2t1.5 2zM192 432q0 11 -0.5 23t-5.5 22q-5 -5 -5 -11v-24q0 -8 1 -17t4 -17q5 5 5.5 11t0.5 13zM492 79q0 2 -4.5 9t-6.5 10l-16 27q-1 1 -3.5 5.5t-5 9.5t-5 9.5t-3.5 4.5q1 -5 3 -8t2 -7q0 -3 -2 -7q4 -11 8.5 -18t9 -13t9.5 -11.5t11 -13.5q3 0 3 3zM145 654
q0 3 -3 4.5t-5 1.5q-5 0 -7 -6.5t-2 -10.5q0 -7 1 -12.5t3 -11.5h3q0 2 2 7t3.5 11t3 11t1.5 6zM214 45q0 7 -4.5 12t-9.5 9q-1 -4 -1 -11q0 -8 3 -15h12v5zM503 424q0 10 -10 14q-1 -2 -2 -6.5t-1 -6.5q0 -7 6 -7q7 0 7 6zM302 604q0 3 -1.5 5t-3.5 4q-4 -2 -6.5 -3.5
t-2.5 -6.5t1 -8q2 1 7.5 3t5.5 6zM576 49q0 6 -5 6t-5.5 -3.5t-0.5 -6.5q0 -6 4 -10q7 4 7 14z" />
    <glyph glyph-name="s" unicode="s" horiz-adv-x="620" 
d="M560 224q0 -14 -2.5 -28t-6.5 -28q-4 -15 -11 -27.5t-15 -25.5q-8 -14 -20 -29.5t-26.5 -29t-30 -25t-30.5 -18.5q-7 -3 -19.5 -6t-26 -5t-26 -3.5t-20.5 -1.5q-20 0 -40 2t-40 6l-42 13q-23 6 -41.5 18.5t-36.5 27.5q-19 15 -27.5 37t-19.5 43q-7 14 -13 36.5t-6 37.5
q0 13 9 27q6 8 16.5 9.5t19.5 0.5h19l1 -1q18 2 36.5 4t37.5 2t33 -11q3 -2 5.5 -10t5.5 -17t5 -17.5t3 -12.5q3 -8 5.5 -12.5t5.5 -7t6 -4.5t5 -5q5 -8 10.5 -10t13.5 -4q11 -2 21 -4.5t21 -2.5q27 0 48.5 15t21.5 45q0 17 -8.5 30t-22.5 21q-20 12 -46.5 24t-50.5 12
q-4 0 -10 2q-18 6 -38 12t-39.5 14.5t-37.5 19.5t-31 26q-12 13 -19.5 22.5t-13 19t-8.5 21t-6 29.5q-1 6 -1.5 11.5t-0.5 11.5q0 7 2 22t5.5 32t7.5 31.5t8 19.5l16 21q5 5 8 10.5t6 11.5q8 14 22 23.5t27 17.5q26 18 58.5 25t63.5 7q11 0 22.5 -1t22.5 -2q8 0 15 -3t14 -3
q18 0 27 -7t24 -12q29 -11 57 -36t38 -54q2 -5 4 -8t4 -8q2 -7 5.5 -17.5t6.5 -22.5t5.5 -22.5t2.5 -17.5q0 -16 -14 -24t-28 -8q-9 0 -22 1t-27 2.5t-27.5 3.5t-23.5 3q-11 1 -15.5 8.5t-7 17t-5.5 19t-11 16.5q-14 13 -30.5 23.5t-36.5 10.5q-7 0 -16.5 -3t-18.5 -8.5
t-15 -12.5t-6 -15q0 -6 2 -13t3 -13q2 -12 7 -20t17 -13q23 -8 47.5 -17.5t47.5 -17.5q15 -5 30 -9.5t31 -9.5q12 -3 23 -8.5t22 -13.5q29 -20 45 -38t27 -52q5 -17 9.5 -35t4.5 -35zM293 371q0 1 -0.5 1t-0.5 1q-22 7 -42.5 17.5t-42.5 18.5q14 -12 25 -17q3 -1 12 -5
t19 -8t18 -7t10 -3t2 2zM450 83q0 1 -0.5 2t-0.5 3q-2 -1 -7.5 -4l-11 -6t-10 -6.5t-4.5 -4.5q0 -2 2 -3.5t4 -1.5q7 0 17.5 7t10.5 14zM526 504q0 4 -4 9.5t-7 7.5q-2 -5 -3.5 -11t-1.5 -11t6 -5q10 0 10 10zM456 605q-5 8 -11 15.5t-17 10.5q0 -3 3 -7.5t6.5 -9t7.5 -8
t6 -3.5t2.5 1t2.5 1zM145 511q0 5 -3 10q-2 -1 -2.5 -3.5t-3.5 -2.5h-2q-1 -2 -2 -5.5t-1 -5.5q0 -8 6 -8q5 0 6.5 5.5t1.5 9.5zM440 310q0 5 -9 8.5t-14 5.5l-3 -1q0 -1 -0.5 -1t-0.5 -1q0 -4 10.5 -8.5t14.5 -4.5h2v2zM141 192q0 2 -2 3.5t-4 1.5q-5 0 -9 -6l-6 -9
q1 -1 4 -1q4 0 10.5 3t6.5 8zM245 78q0 2 -1 4.5t-1 4.5l-15 -3q2 -4 4.5 -8.5t7.5 -4.5t5 7zM301 643q-5 5 -9 5t-7 -2.5t-5 -4.5q6 -4 11 -4q7 0 10 6zM495 214q-2 1 -6 1q-5 0 -5 -7q0 -5 2.5 -6t6.5 -2z" />
    <glyph glyph-name="t" unicode="t" horiz-adv-x="592" 
d="M541 640v-20t-0.5 -25t-1.5 -24t-4 -18q-5 -11 -16 -14t-22 -3q-13 0 -25.5 -1t-25.5 -1h-42q-9 0 -13.5 -10t-6.5 -22.5t-2 -25v-18.5q0 -24 1.5 -48t1.5 -49q0 -16 -1 -32t-1 -33q0 -5 0.5 -11t0.5 -12q0 -5 -1.5 -11.5t-1.5 -12.5q0 -10 1 -19.5t1 -19.5
q0 -14 2.5 -29t2.5 -30q0 -5 -1 -10.5t-1 -11.5q0 -15 2 -30t2 -31q0 -11 -0.5 -22.5t-1.5 -22.5q-1 -8 -6.5 -13.5t-13.5 -6.5q-26 -3 -52.5 -5.5t-52.5 -2.5q-16 0 -33 10q-11 5 -12.5 15.5t-1.5 21.5q0 10 1 19t1 19q0 23 -2.5 45t-2.5 45q0 11 0.5 21t0.5 20q0 4 -0.5 7
t-0.5 6q0 6 2 11t2 10q0 10 1 19t1 19q0 11 -1 22t-1 22q0 30 0.5 60.5t-0.5 60.5v19.5t-1 18.5q-1 8 -3.5 15t-2.5 15q0 19 -7 20.5t-24 1.5q-22 0 -43.5 -1t-42.5 -1q-4 0 -10 1t-12 2.5t-10.5 4.5t-5.5 8q-5 25 -5 46v9h1q0 18 -0.5 37t2.5 36q0 11 11 11q11 1 18.5 2
t17.5 3l3 1q8 0 15 -1t15 -1q31 0 61 3q12 -5 27 -5.5t28 -0.5q16 0 31.5 2.5t30.5 2.5q4 0 7.5 -0.5t7.5 -0.5q8 0 15 1.5t15 1.5h60q19 0 38 -2t39 -1h15q13 0 20 -5t10 -13t3 -18v-20zM276 264q0 20 -0.5 38.5t-0.5 38.5h-8v-153l4 -1q2 8 3.5 16t1.5 16v45zM326 616
q-3 1 -9.5 1.5t-14 1t-14 0.5h-9.5h-12q-8 0 -24.5 -0.5t-22.5 -2.5q5 -5 11 -6t13 -1h13h30t30 1q8 0 9 6zM335 47q0 6 -2.5 12.5t-7.5 9.5q-3 -6 -3 -14v-4q0 -3 0.5 -6.5t-0.5 -7.5q2 1 7.5 4.5t5.5 5.5zM89 651q0 5 -4.5 9.5t-7.5 6.5q-2 -4 -2.5 -5.5t-0.5 -6.5v-4
q0 -2 0.5 -5t3.5 -3q2 0 5 1t5 2q0 2 0.5 2.5t0.5 2.5zM350 483l-2 4l-16 -3q-2 -4 -2 -5q2 -8 8 -8q7 0 9 3t3 9zM500 658q-2 2 -5 2q-4 0 -10 -4.5t-6 -9.5q0 -3 1 -4q7 2 12.5 5t7.5 11z" />
    <glyph glyph-name="u" unicode="u" horiz-adv-x="608" 
d="M548 304q0 -5 -1.5 -10.5t-1.5 -11.5q0 -23 -2.5 -38t-6.5 -38q-3 -16 -4.5 -32.5t-6.5 -32.5q-3 -10 -9 -19.5t-11 -19.5q-12 -25 -24 -39t-34 -31q-14 -12 -30.5 -20.5t-36.5 -8.5q-23 0 -42 -4q-2 -2 -6 -2h-51v1h-32q-10 1 -19 4t-19 5q-11 2 -28.5 7.5t-25.5 12.5
q-11 10 -22.5 20.5t-20.5 21.5q-13 15 -21.5 42t-13.5 57.5t-7 59.5t-3 49q0 15 -1.5 30t-2.5 31q-1 10 -2 19.5t-1 19.5q0 11 1 20.5t1 19.5q0 17 -2 34t-2 34q0 23 1.5 45t1.5 45q0 11 -0.5 21t-0.5 21q0 15 1 31.5t6 31.5q4 10 15 13q30 8 59 8q10 0 19.5 -1t18.5 -1
h19.5t18.5 -6q7 -5 8 -15.5t2 -18.5q0 -18 0.5 -36t1.5 -36q1 -14 2.5 -27t1.5 -27v-18h-1q0 -17 -0.5 -34.5t-0.5 -34.5v-21.5t-2 -21.5q-1 -2 -1 -8q0 -17 3 -34.5t3 -35.5v-37.5t1.5 -46t5 -44.5t11.5 -34t23.5 -17.5t29.5 -4.5q21 0 35.5 9.5t23.5 24t13 32.5t4 36v8
q3 6 3.5 21.5t0.5 23.5q0 15 -0.5 32.5t-4.5 32.5q0 2 0.5 4.5t0.5 4.5q0 8 -1 17t-1 17v47.5t-2 47.5q0 5 -1 9.5t-1 9.5q0 3 1.5 6t1.5 7q0 5 0.5 10t0.5 10q0 23 -2 46t-2 46v17t2 17q2 11 13 14q7 2 18 3.5t23 3t23 2t19 0.5q7 0 14 -1t15 -3q21 -3 27.5 -11.5
t11.5 -26.5q3 -14 3 -26q0 -14 -1.5 -28t-1.5 -28q0 -10 1 -19.5t1 -19.5q0 -14 -0.5 -27t-0.5 -27q1 -14 1.5 -28.5t0.5 -28.5q0 -5 -1.5 -9.5t-1.5 -9.5q0 -10 1 -20t1 -20q0 -6 -1 -11.5t-1 -10.5q0 -11 2.5 -20.5t2.5 -20.5zM164 410q0 15 -0.5 29.5t-1.5 28.5q0 1 -1 2
q0 -1 -3 -9t-3 -9q0 -5 1 -11t1 -11q0 -7 -2 -8t-2 -6v-14q0 -4 -1 -7t-1 -7t2 -12l3 -12q4 1 4 6q0 7 -0.5 13.5t-0.5 13.5t2.5 7.5t2.5 5.5zM498 450q0 11 -1 23.5t-4 23.5l-1 2l-1 -1q2 -10 0.5 -22.5t-4.5 -22.5q-2 -6 -2 -8q0 -10 1.5 -21.5t9.5 -19.5v7q-3 4 -3 9
q0 8 2.5 15t2.5 15zM266 29l-2 3q-3 2 -5.5 3t-6.5 1q-12 0 -21.5 5t-14.5 5q-4 0 -4 -5q0 -4 7 -6.5t15.5 -4t17 -2.5t11.5 -2zM491 221q0 2 -1.5 3t-2.5 3l-3 -1q1 -11 -2 -20.5t-3 -20.5q0 -5 2 -13l3 2q4 10 5.5 23t1.5 24zM109 635q-1 7 -2 13t-6 11q-2 -5 -5 -11.5
t-3 -12.5t4 -10zM440 622q0 7 -4 11q-7 -2 -7 -9q0 -5 1 -10t7 -7q3 7 3 15zM162 190q0 6 -5 11l-10 -12q1 -3 2.5 -6t4.5 -3q4 0 6 3.5t2 6.5zM398 70q0 5 -4 5h-2q-2 0 -5 -1.5t-3 -4.5t3.5 -5.5t6.5 -2.5q4 0 4 6v3z" />
    <glyph glyph-name="v" unicode="v" horiz-adv-x="639" 
d="M609 685q0 -3 -1.5 -9t-3.5 -12.5l-4 -13t-3 -9.5q-10 -27 -19 -54.5t-14 -56.5q-3 -12 -7 -24t-8 -23q-5 -14 -7 -31t-9 -44t-12 -45l-2 -4q-9 -18 -15 -37t-11 -39q-3 -12 -4.5 -24.5t-4.5 -24.5q-2 -8 -5 -15t-7 -15q-9 -16 -12.5 -40t-8.5 -43l-4 -10l-4 -10
q-8 -20 -14 -39.5t-15 -38.5q-11 -20 -31.5 -25.5t-41.5 -5.5q-24 0 -49 5q-24 3 -33 25q-8 21 -16 40.5t-18 39.5q-5 11 -7.5 21t-4.5 22q-2 17 -11 32.5t-14 32.5q-6 21 -13 41.5t-15 41.5q-4 8 -6 16.5t-4 17.5q-4 10 -7.5 20t-6.5 21q-4 11 -10 21t-11 21
q-4 9 -5.5 18.5t-4.5 18.5q-5 13 -8.5 26.5t-9.5 26.5q-5 11 -8 24t-8 25q-3 8 -10 24t-13.5 33.5t-12 33t-5.5 21.5q0 9 5 18t15 11q19 4 37.5 6.5t37.5 6.5q10 2 18.5 3.5t18.5 1.5t21 -3t16 -14q2 -8 6 -14t7 -13q2 -4 7 -17.5t10 -28.5t9.5 -28t4.5 -17q2 -12 5.5 -23
t8.5 -22q6 -14 10 -28.5t7 -29.5q4 -18 11 -35t13 -34l22 -70q2 -3 4 -9t6 -6q6 0 8.5 7t2.5 12q1 20 9 43q16 43 26.5 86t21.5 88q2 7 4 17q0 6 3.5 21t7.5 31.5t8.5 30.5t6.5 20q6 14 12.5 20.5t22.5 6.5q21 0 42 -1t42 -3q1 -1 5 -1q8 0 15 0.5t15 0.5q7 0 17 -0.5
t10 -9.5zM475 478q0 1 -3 4q-2 -2 -6.5 -13.5t-9 -24.5t-8.5 -24.5t-4 -12.5q0 -4 4 -8q5 2 5 7q2 9 5.5 17.5t4.5 17.5q0 3 2 5q2 4 6 15.5t4 16.5zM259 266q0 1 -2.5 8.5l-5.5 16.5t-6 17t-4 10q-2 7 -9 11v-2q-1 -7 3 -13.5t6 -13.5q2 -10 5 -19t7 -19q2 -2 3 -2h1
q2 4 2 6zM113 614q0 3 -1.5 9.5l-3 13t-4 12t-4.5 7.5t-4 2.5t-4 2.5q1 -8 1.5 -11.5t1.5 -5.5t2 -4.5t3 -8.5q6 -3 5.5 -9t7.5 -8zM312 72h-1v5t-3 3q-4 0 -7.5 -12t-3.5 -15q0 -5 5 -5t7 10t3 14zM192 520q-2 5 -5 11t-9 6q-5 0 -5 -6q0 -4 3.5 -10.5t8.5 -6.5q3 0 4 2
t3 4zM486 628q0 9 -8 9q-2 -2 -3.5 -5t-3.5 -5q1 -2 2 -6.5t4 -4.5q4 0 6 4q3 3 3 8zM408 257q0 3 -2.5 8.5t-6.5 5.5q-3 0 -4 -1v-7q0 -5 2.5 -9t5.5 -7q2 2 3.5 4.5t1.5 5.5z" />
    <glyph glyph-name="w" unicode="w" horiz-adv-x="769" 
d="M739 676q0 -11 -2 -21.5t-4 -21.5q-6 -30 -12.5 -59.5t-13.5 -59.5q-12 -55 -21.5 -110.5t-20.5 -111.5q-9 -45 -19 -88t-19 -88q-2 -9 -4 -22t-4 -26.5t-5 -25.5t-7 -20t-10.5 -10.5t-14.5 -4.5q-14 -1 -27 -2t-27 -1q-12 0 -24 1t-23 4q-14 5 -21.5 13.5t-11.5 22.5
q-7 22 -10 44t-8 44q-6 29 -11.5 57.5t-13.5 57.5q-2 6 -4 17t-4.5 23t-5.5 22t-7 14q-5 -14 -6.5 -31t-4.5 -32q-4 -20 -8 -39.5t-9 -39.5q-4 -14 -7.5 -28t-3.5 -29q0 -4 -3.5 -20t-8 -34.5t-8.5 -35t-6 -20.5q-4 -10 -9 -14t-16 -4q-21 0 -49.5 2t-48.5 7q-17 4 -24.5 13
t-11.5 26q-2 9 -4 17.5t-4 17.5q-5 23 -10 47t-11 48q-5 20 -10.5 40.5t-10.5 41.5q-3 12 -6 23t-5 23q-1 11 -3.5 21.5t-4.5 21.5q-6 34 -15 69q-1 3 -3 10t-4.5 14.5t-4 14t-1.5 9.5q0 30 -7 59.5t-12 59.5q-3 16 -4.5 32t-3.5 32q-2 8 -4 17t-2 17t7 12t17 5.5t19.5 1.5
h15.5q14 0 27.5 -1.5t27.5 -1.5q15 0 23.5 -0.5t14 -4t8.5 -11t7 -21.5q3 -9 4 -18.5t3 -18.5q3 -34 11 -66.5t16 -65.5q6 -25 9 -49.5t10 -48.5h2q3 6 6 17.5t5.5 25t4 26.5t1.5 20q0 2 0.5 4t0.5 4q6 35 13 70.5t9 72.5q1 9 4 18t3 18t3.5 14.5t10.5 10.5q11 8 22.5 10
t25.5 2q19 0 37.5 -2t37.5 -5q17 -3 22 -22q4 -14 7.5 -29t5.5 -30l22 -112t30 -110q3 7 5.5 19t4.5 25t4 25.5t4 21.5q4 19 8.5 37t8.5 37q6 30 10.5 61t14.5 60q6 18 26 18q26 2 52 1.5t52 -0.5t26 -24zM170 402q0 1 -5.5 23t-12.5 48q-8 31 -17 70h-1q0 -3 0.5 -6.5
t0.5 -6.5q1 -2 -0.5 -4t-1.5 -4q0 -9 3 -18t3 -18q0 -3 -0.5 -6t-0.5 -5q0 -6 5 -21t10 -18q2 -2 4 -8q2 -7 4 -17t7 -16q2 4 2 7zM562 187q0 3 -3 5l-2 -2q-4 -15 -7 -26.5t-5 -22.5t-4 -23t-3 -28q-1 -5 -1.5 -9.5t-0.5 -9.5q0 -4 3 -7q3 3 3.5 6.5t1.5 6.5q3 17 6 33.5
t5 33.5q2 11 4.5 22t2.5 21zM295 204q0 5 -1 7h-1q-2 -10 -3.5 -20t-5.5 -19q-2 -5 -5.5 -18.5t-7 -28.5t-6 -29t-2.5 -19q0 -2 2 -4q3 1 8.5 19t10 41t8 44t3.5 27zM661 618q0 8 -4 13q-4 -6 -5 -9q-2 -8 -3 -15.5t-3 -15.5q-5 -17 -7.5 -34t-3.5 -34q4 8 3.5 16t7.5 15
q3 14 9 33.5t6 30.5zM408 563q0 2 -1 8t-2.5 12.5l-3 13t-2.5 8.5q-2 5 -4 8t-4 7v-1q-1 -5 0.5 -14.5t3.5 -19.5t4.5 -19t4.5 -13q4 6 4 10zM354 435h-3q-5 0 -5 -1.5t-2 -5.5q-3 -10 -6 -19t-3 -20l1 -7q3 1 5.5 8t5 16t4.5 17.5t3 11.5zM189 242q-2 11 -3.5 20t-9.5 17
q-2 -6 -2 -10v-13q0 -8 4.5 -10t10.5 -4zM71 647q0 5 -3 13.5t-10 7.5h-1q0 -1 -2 -5q1 -3 2.5 -13t5.5 -10q8 0 8 7zM616 364q0 3 -2 9q-5 -4 -8 -12t-3 -15q0 -4 1 -6q12 9 12 24zM478 319q0 5 -4 7.5t-8 4.5q-3 -5 -3 -9q0 -2 0.5 -3.5t0.5 -3.5q3 -1 9 -1q5 0 5 5z" />
    <glyph glyph-name="x" unicode="x" horiz-adv-x="709" 
d="M679 20q0 -10 -12 -14t-27.5 -5.5t-29.5 -1t-18 0.5v-1l-59 3q-3 0 -6.5 -1t-7.5 -1q-6 0 -12.5 1t-12.5 2q-11 2 -18.5 8.5t-13.5 15.5q-26 39 -52 77.5t-52 77.5q-2 3 -7.5 11t-9.5 8q-2 0 -5 -3t-5 -6l-4 -6q-25 -38 -49.5 -76.5t-48.5 -76.5q-4 -5 -6.5 -10.5
t-7.5 -10.5t-12.5 -10t-15.5 -5t-15.5 1.5t-15.5 1.5q-13 0 -25.5 -1t-24.5 -1q-9 0 -18.5 1t-18.5 1h-17t-16 2q-4 1 -5 4t-1 6q0 7 1.5 13t3.5 12q1 8 3.5 13t7.5 10q7 7 16 20.5t18.5 28t18 28.5t14.5 23q3 5 13 22.5t22.5 40.5t27 49t26 48.5t19.5 38t8 17.5
q0 3 -4.5 11.5t-10.5 18.5t-12 19l-8 12q-7 10 -18.5 23.5t-16.5 22.5q-9 18 -21.5 32.5t-23.5 31.5q-8 14 -16.5 27.5t-18.5 25.5q-12 15 -18 32.5t-17 33.5q-5 7 -5 13q0 8 6.5 13t14.5 6q11 1 23 1.5t23 0.5q25 0 50 -3t50 -3q11 0 18.5 -2t15.5 -12q22 -25 38.5 -53.5
t39.5 -52.5q2 -2 6 -8t8.5 -12t9 -11t6.5 -5q3 0 17 22t30.5 49.5t32 53t22.5 31.5q10 10 23 10q10 0 19.5 -0.5t19.5 -0.5q27 -1 53.5 -0.5t53.5 -1.5q8 -1 17 -10.5t9 -17.5q0 -4 -1.5 -7t-3.5 -6l-8 -10q-15 -15 -25.5 -32.5t-20.5 -36.5q-5 -10 -13.5 -17.5t-13.5 -15.5
q-7 -13 -15.5 -23.5t-15.5 -21.5l-32 -55q-6 -11 -17 -28.5t-16 -27.5q-2 -4 -2 -7q0 -8 7.5 -22t12.5 -19q3 -3 10 -15t15 -26t15.5 -26.5t11.5 -18.5q11 -17 22.5 -33.5t22.5 -33.5q9 -15 19.5 -33.5t16.5 -34.5q8 -18 18.5 -32.5t21.5 -30.5q2 -3 6.5 -8.5t8.5 -11.5
t7 -11.5t3 -8.5zM512 601q-7 -3 -12.5 -10t-10.5 -14.5t-8.5 -13.5t-5.5 -7q-15 -6 -22 -19q-4 -8 -8.5 -16t-8.5 -16h2q6 0 16.5 12t21.5 28t20.5 31t14.5 21zM520 174q0 10 -2 15q-7 14 -15.5 26.5t-16.5 25.5l-7 -4l38 -65zM212 513q0 17 -12 32t-23 27v-4q0 -3 4.5 -12
t10.5 -19t12 -19t8 -11v6zM541 45q-2 4 -4.5 8t-5.5 6q-2 2 -4.5 3.5t-3.5 3.5h-7.5t-4 0.5t-3.5 2.5t-6 5q2 -10 7 -14q5 -2 11.5 -10.5t9.5 -8.5q2 0 5.5 1.5t5.5 2.5zM215 265q0 2 -2 6q-1 -1 -5 -6.5t-8 -12t-7 -12t-3 -6.5t0.5 -2t0.5 -2q9 3 16.5 14t7.5 21zM167 71
q-12 0 -17 -6.5t-8 -17.5l4 -2t4 -1q6 0 10.5 11t6.5 16zM394 424q0 2 -2 2q-2 -2 -7 -9.5t-7 -7.5h-2l-3 -2q-3 -5 -8 -12.5t-7 -12.5l3 -1q3 0 5.5 6t9.5 8l10.5 14t7.5 15zM370 283q0 8 -8 8q-3 0 -7 -3t-4 -7q0 -3 3.5 -4.5t5.5 -1.5q10 0 10 8zM222 666l-8 15
q-4 -1 -10 -1.5t-6 -5.5v-2q7 2 11 -2t9 -6zM573 656q-1 1 -5 1q-6 0 -6 -8q0 -7 10 -7z" />
    <glyph glyph-name="y" unicode="y" horiz-adv-x="670" 
d="M640 683q0 -14 -6 -26.5t-12 -24.5q-10 -17 -20 -34.5t-23 -34.5q-8 -10 -12 -24t-12 -27q-11 -17 -21 -34t-18 -36q-4 -8 -7 -11q-14 -21 -28 -43.5t-24 -45.5q-4 -8 -5.5 -15.5t-10.5 -13.5q-5 -11 -10 -20.5t-5 -22.5q0 -18 -1.5 -36t-1.5 -37q0 -14 1.5 -27t1.5 -27
q0 -24 0.5 -48t0.5 -48q0 -19 -4 -32q-2 -9 -5 -11t-12 -3h-15q-17 0 -35 1t-35 1q-4 0 -7 -1t-7 -1h-19.5t-17 3t-12 9.5t-4.5 20.5q0 12 1.5 25t2.5 26q2 29 2 59v60q0 11 -1 20t-3 19q0 2 0.5 3t0.5 3q0 8 -3 14t-8 13l-39 69q-23 38 -46.5 74t-46.5 73q-2 2 -2.5 3.5
t-1.5 3.5q-8 21 -18.5 41t-21.5 40q-3 7 -10 20t-13.5 27.5t-11 27.5t-4.5 21v2q5 5 9 10.5t12 7.5q4 1 16 2t25.5 1.5t26 0.5h18.5q11 0 23.5 -1t23.5 1q3 1 5.5 1.5t5.5 0.5q10 0 19 -5t16 -11q3 -3 9 -14.5t13 -25.5l13.5 -27t8.5 -18q7 -13 15 -24.5t16 -24.5
q3 -4 5 -8.5t4 -9.5q5 -12 12 -22.5t15 -21.5l35 55q10 14 17.5 28t14.5 28q8 20 19 38.5t21 37.5q5 10 13 14q11 6 17.5 9t12 3.5t12.5 0.5h20q7 0 24.5 -0.5t36.5 -1.5t34 -3t18 -6q3 -5 3 -10zM377 187v9v13t-1 12t-4 7q-2 -8 -3.5 -13.5t-1.5 -13.5q0 -5 0.5 -8.5
t0.5 -7.5q0 -6 -1 -11.5t-1 -11.5t1 -8q0 -2 -0.5 -4.5t-0.5 -4.5q0 -5 1.5 -10.5t1.5 -10.5l2 -3l3 4q1 4 1.5 7t0.5 7q0 5 -0.5 10t-0.5 10q0 8 1 14.5t1 13.5zM473 472q0 1 -1 2l-1 1q-3 0 -5 -4q-8 -14 -16.5 -28.5t-19.5 -27.5q-6 -6 -6 -14q0 -1 0.5 -2t0.5 -2l3 1
q3 3 10 13.5t15 23.5t14 23.5t6 13.5zM498 649q0 1 -2 1h-2q-10 -21 -23.5 -39.5t-24.5 -39.5q6 5 11 10.5t10 12.5q1 2 6.5 10.5t10.5 18t9.5 17t4.5 9.5zM232 432q-1 5 -4.5 12.5t-7.5 12.5q-2 2 -8 10t-7 7h-1v-5q0 -2 3.5 -8.5t8 -13.5t8.5 -12.5t5 -5.5q3 0 3 3z
M302 35q0 2 -3.5 12t-4.5 14h-2q-4 -5 -4 -10v-11q0 -2 3 -5.5t6 -3.5q5 0 5 4zM92 635q-2 4 -5.5 15.5t-9.5 11.5q-3 0 -3 -2t2 -6l4.5 -9t5 -8.5t4.5 -3.5t2 2zM349 369q0 4 -4 4t-8 -4.5t-4 -8.5q0 -5 5 -5q4 0 7.5 5t3.5 9zM218 589q0 2 -1 7t-5 5t-5 -3q-1 -1 -1 -2v-1
q0 -4 3 -9t5 -8q4 4 4 11z" />
    <glyph glyph-name="z" unicode="z" horiz-adv-x="552" 
d="M492 111q0 -7 -0.5 -20.5t-1.5 -28t-2.5 -27.5t-3.5 -19q-2 -5 -5 -6q-12 -3 -23 -3t-22.5 0.5t-23.5 0.5q-8 0 -16.5 -3t-19.5 -2q-11 0 -22.5 -0.5t-22.5 -0.5q-8 0 -14 3t-12 3q-9 0 -18.5 -1t-18.5 -1h-22.5t-22.5 -2q-8 -2 -15 -2t-15 -1q-6 2 -12 2.5t-11 0.5
q-8 0 -14.5 -0.5t-14.5 -0.5q-9 1 -17.5 1.5t-17.5 0.5h-14q-5 -1 -10 1.5t-9 5.5q-5 4 -7 13t-2.5 19.5t-0.5 20.5v16q0 14 0.5 28t2.5 28q0 3 1.5 6t3.5 5q9 11 14.5 23.5t13.5 25.5q7 11 12.5 23.5t13.5 23.5q3 5 6 10.5t5 10.5q4 9 15 31t25 50.5t29.5 59.5t28 58.5
t20.5 47t8 25.5q0 7 -5.5 8t-10.5 1q-9 0 -18.5 0.5t-18.5 0.5q-4 0 -7.5 -0.5t-7.5 -0.5q-23 -1 -46.5 -1h-46.5q-11 0 -24 1.5t-13 17.5q0 5 1 10t1 10q0 9 -2 18t-2 17q0 4 1 7t1 7q0 14 0.5 25t4.5 24q3 10 11 10q18 1 36.5 1h36.5q23 1 46.5 1.5t46.5 0.5q14 0 27 -1.5
t27 -1.5q35 0 69.5 3t69.5 3q18 0 29 -9.5t11 -28.5q0 -22 -1.5 -43.5t-3.5 -42.5q0 -5 -1.5 -9t-3.5 -8q-5 -14 -11 -26.5t-11 -25.5l-11 -20q-18 -32 -37 -64.5t-37 -65.5q-19 -35 -37 -70t-35 -70q-7 -15 -14 -29.5t-12 -30.5q23 -3 44.5 -4t43.5 -1q26 0 50.5 2t49.5 2
q42 0 42 -43zM418 623q-6 4 -13.5 4h-15.5q-3 0 -6 -0.5t-6 -0.5q-5 0 -9.5 2t-9.5 2q-7 0 -12.5 -0.5t-11.5 -2.5q1 -6 9 -6q4 0 7.5 0.5t8.5 0.5q4 0 8.5 -2t9.5 -2q4 0 6 1q4 -1 7 -1.5t7 -0.5q14 0 21 6zM222 665l-1 2q-23 -4 -46.5 -3t-46.5 -1q15 -5 28 -5q15 0 30 1
t29 3q2 0 4.5 0.5t2.5 2.5zM349 80l-1 2q-23 -4 -46 -2.5t-46 -1.5q15 -5 27 -5q15 0 30 1.5t30 3.5h3.5t2.5 2zM368 508q-2 2 -3 2q-2 0 -6.5 -6.5t-9 -15t-8.5 -16.5t-4 -10h2q11 8 12 16t6 13q4 4 6.5 8t4.5 9zM230 262q0 3 -3 3h-2l-23 -57q2 3 6.5 10.5t9.5 16
t8.5 16.5t3.5 11zM264 391q0 7 -6 7q-4 0 -7.5 -2.5t-3.5 -7.5q0 -8 8 -8q9 0 9 11zM448 42l-3 2l-5 1q-4 0 -11 -1.5t-10 -3.5q6 -6 16 -6q4 0 8 1.5t5 6.5zM121 593q0 4 -3.5 4.5t-5.5 0.5t-6.5 -2t-4.5 -6q0 -6 8 -6q3 0 7.5 2.5t4.5 6.5zM126 76q0 3 -3 3q-4 0 -7 -3.5
t-3 -6.5q0 -4 4 -4q3 0 6 4t3 7z" />
    <glyph glyph-name="braceleft" unicode="{" horiz-adv-x="372" 
d="M322 -85q0 -9 -9 -14.5t-21 -8t-24.5 -3t-18.5 -0.5q-23 0 -46 3.5t-44 11.5t-39 21.5t-30 33.5l-8 14q-8 14 -13 33.5t-5 35.5q0 4 1 7q2 10 4 28t2 28q0 4 -1 7t-1 7q0 5 3 11t3 12q0 5 -1 9.5t-1 9.5q0 18 -6 41.5t-25 32.5q-16 10 -32 11q-9 2 -16 6t-7 14
q-1 19 -1.5 38t-0.5 38q0 9 2 16.5t13 9.5q32 4 45 28.5t13 53.5q0 9 -2 18t-2 19q0 3 0.5 7t-0.5 8q-2 6 -2 11q0 14 3 28.5t5 28.5t3.5 27t3.5 27q2 8 5.5 15t5.5 15q4 11 12 19t16 17q9 11 21 16t25 8q9 2 18 3.5t18 3.5q20 4 39 8.5t39 4.5q6 0 12 -3q4 -3 9.5 -3.5
t10 -2t7.5 -5t3 -11.5q3 -42 3 -86q0 -12 -8 -18t-19.5 -8t-24 -3t-20.5 -2q-8 -2 -16.5 -11t-10.5 -17q-3 -14 -3 -29q0 -7 1.5 -13.5t1.5 -12.5t-1 -12t-1 -12q0 -12 2.5 -24t2.5 -25v-6.5t-1 -6.5q0 -6 1.5 -12.5t1.5 -12.5q0 -12 -7 -22q-2 -3 -3.5 -7t-3.5 -8
q-7 -18 -14 -27t-19 -23q35 -22 39 -61q2 -18 4.5 -36.5t2.5 -36.5q0 -10 -1 -20t-1 -20q0 -5 1 -10.5t1 -10.5q0 -12 -3.5 -23.5t-3.5 -23.5q0 -20 15 -34.5t34 -14.5h18t18 -1q16 -1 21 -20q3 -17 2.5 -34.5t1.5 -34.5q0 -4 1.5 -7.5t1.5 -7.5zM138 466q0 8 -5 10
q-5 -5 -5 -9q0 -7 0.5 -18t1 -22.5t1.5 -22.5t2 -17q1 1 2 12t2 24.5t1 26v16.5zM180 212q0 5 -4.5 18.5t-8.5 15.5q-6 3 -13 3h-6q1 -3 4 -4.5t6.5 -4t6.5 -6t4 -11.5t2.5 -19t5.5 -17h1q1 6 1.5 12.5t0.5 12.5zM267 -39q0 3 -2 5q-4 -1 -7.5 -3t-3.5 -7q0 -4 1.5 -9.5
t6.5 -5.5t5 8v12zM21 285q0 6 -1.5 12t-6.5 11q-4 -5 -4 -12q0 -12 11 -21q1 3 1 10zM128 605q0 3 -1 4h-2q-7 0 -7 -6q0 -5 1 -11t2 -11l2 -1q5 13 5 25zM270 691q0 8 -7 8q-3 0 -6 -3v-2q1 -4 2 -7.5t5 -5.5q6 6 6 10zM149 31q0 7 -4 12l-4.5 -4.5t-2.5 -5.5q0 -7 7 -10
q2 0 3 3t1 5z" />
    <glyph glyph-name="bar" unicode="|" horiz-adv-x="306" 
d="M236 725q0 -8 -0.5 -14.5t-0.5 -14.5q0 -20 -1.5 -41t-1.5 -41v-30.5t1 -30.5q0 -4 1 -7t1 -7q0 -31 -0.5 -61.5t-1.5 -60.5q-1 -19 -2 -37.5t-1 -37.5q0 -16 0.5 -31t0.5 -30q0 -9 -0.5 -18t-0.5 -17q0 -22 1 -43.5t1 -43.5q0 -42 -2 -82.5t-2 -82.5q0 -11 1 -21t1 -20
v-33t-2 -32q-3 -22 -24 -22q-8 0 -16.5 0.5t-16.5 0.5q-18 0 -35.5 3t-35.5 4q-11 2 -15 5.5t-7 14.5q-4 17 -3 35t-2 35q0 2 -0.5 2.5t-0.5 2.5q0 16 -1 31.5t-1 31.5q0 11 3 21.5t3 21.5q0 14 0.5 26.5t0.5 26.5q0 11 -0.5 23t1.5 23q0 4 0.5 7.5t0.5 7.5q0 5 -1 8.5
t-1 8.5q0 12 1.5 24t1.5 24q0 9 -1 18.5t-1 18.5q0 5 0.5 11t0.5 11q0 7 -0.5 13.5t-0.5 14.5q0 10 1 19.5t1 19.5q0 4 -1 7.5t-1 7.5q0 13 1 25t1 25q0 20 -1 40.5t-2 41.5v84q-1 24 -2 47.5t-1 47.5q0 21 7 31.5t19 14.5t27 4h31h49q18 0 23.5 -7t5.5 -24zM130 601
q0 5 -1.5 9t-2.5 9l-1 2q-2 -11 -2 -23v-24q-1 -11 -2 -22.5t-1 -22.5q0 -10 -1.5 -19.5t-1.5 -18.5q0 -3 0.5 -9.5t1 -13.5t1.5 -13t2 -9q4 8 4 12q0 7 -1 13t-1 13t2 13t2 12q0 13 -1.5 25t-1.5 24q0 8 2 15t2 15q0 4 0.5 7t0.5 6zM173 127q0 8 -1 21.5t-3 21.5q-1 1 -1 2
q-1 1 -1 2q-1 0 -2 -2.5t-1 -3.5v-31q0 -8 0.5 -16t0.5 -16q0 -6 -1 -12t-1 -12v-6.5t0.5 -9.5t1.5 -9t2 -4q4 0 4 7v14t-1 14q0 11 1.5 20.5t1.5 19.5zM117 -60q0 5 -3 7t-7 4q-2 -4 -2 -7q0 -8 0.5 -15.5t6.5 -12.5q5 5 5 11.5v12.5zM183 661q-2 10 -1 20.5t-3 20.5
q-2 -8 -2 -13q0 -6 1 -12t1 -12v-4.5t3 -3.5q1 1 1 4zM133 320q0 4 -3 9q-2 -2 -4 -6t-2 -6t3.5 -3.5t5.5 -2.5v9z" />
    <glyph glyph-name="braceright" unicode="}" horiz-adv-x="372" 
d="M50 -85q0 4 1.5 7.5t1.5 7.5q2 17 1.5 34.5t2.5 34.5q5 19 21 20q9 1 18 1h18q19 0 34 14.5t15 34.5q0 12 -3.5 23.5t-3.5 23.5q0 5 1 10.5t1 10.5q0 10 -1 20t-1 20q0 18 2.5 36.5t4.5 36.5q4 39 39 61q-12 14 -19 23t-14 27q-2 4 -3.5 8t-3.5 7q-7 10 -7 22
q0 6 1.5 12.5t1.5 12.5q-1 3 -1 6.5v6.5q0 13 2.5 25t2.5 24q0 6 -1 12t-1 12t1.5 12.5t1.5 13.5q0 15 -3 29q-2 8 -10.5 17t-16.5 11q-8 1 -20.5 2t-24 3t-19.5 8t-8 18q0 44 3 86q0 8 3 11.5t7.5 5t9.5 2t10 3.5q6 3 12 3q20 0 39 -4.5t39 -8.5q9 -2 18 -3.5t18 -3.5
q13 -3 25 -8t21 -16q8 -9 16 -17t12 -19q2 -8 5.5 -15t5.5 -15q2 -14 3.5 -27t3.5 -27t5 -28.5t3 -28.5q0 -5 -2 -11q-1 -4 -0.5 -8t0.5 -7q0 -10 -2 -19t-2 -18q0 -29 13 -53.5t45 -28.5q11 -2 13 -9.5t2 -16.5q0 -19 -0.5 -38t-1.5 -38q0 -10 -7 -14t-16 -6
q-16 -1 -32 -11q-19 -9 -25 -32.5t-6 -41.5q0 -5 -1 -9.5t-1 -9.5q0 -6 3 -12t3 -11q0 -4 -1 -7t-1 -7q0 -10 2 -28t4 -28q1 -3 1 -7q0 -16 -5 -35.5t-13 -33.5l-8 -14q-12 -20 -30 -33.5t-39 -21.5t-44.5 -11.5t-45.5 -3.5q-6 0 -18.5 0.5t-24.5 3t-21 8t-9 14.5zM234 466
v-16.5t1 -26t1.5 -24.5t2.5 -12q1 6 2 17t1.5 22.5t1 22.5t0.5 18q0 4 -5 9q-5 -2 -5 -10zM192 212q0 -6 0.5 -12.5t1.5 -12.5h1q4 6 5.5 17t2.5 19t4 11.5t6.5 6t6.5 4t4 4.5h-6q-7 0 -13 -3q-4 -2 -8.5 -15.5t-4.5 -18.5zM105 -39v-12t5 -8t6.5 5.5t1.5 9.5q0 5 -3.5 7
t-7.5 3q-2 -2 -2 -5zM351 285q0 -7 1 -10q11 9 11 21q0 7 -4 12q-5 -5 -6.5 -11t-1.5 -12zM244 605q0 -12 5 -25l2 1q1 5 2 11t1 11q0 6 -7 6h-2q-1 -1 -1 -4zM102 691q0 -4 6 -10q4 2 5 5.5t2 7.5v2q-3 3 -6 3q-7 0 -7 -8zM223 31q0 -2 1 -5t3 -3q7 3 7 10q0 3 -2.5 5.5
l-4.5 4.5q-4 -5 -4 -12z" />
    <glyph glyph-name="asciitilde" unicode="~" horiz-adv-x="610" 
d="M559 373q0 -32 -11 -66t-31 -58q-5 -6 -11 -10.5t-12 -9.5q-11 -9 -22.5 -16.5t-25.5 -10.5q-19 -4 -41 -4q-33 0 -62 18.5t-53 41t-43.5 41t-33.5 18.5q-11 0 -19 -8.5t-13 -20t-8 -24t-4 -21.5q-3 -25 -30 -25q-3 0 -13.5 2t-22.5 4t-22.5 4.5t-13.5 3.5q-8 2 -12.5 6
t-4.5 12q0 16 4.5 34.5t8.5 34.5q8 41 39 74.5t70 47.5l9 3q5 1 11 1h11q37 0 65.5 -19t52.5 -41.5t45.5 -41.5t42.5 -19q13 0 18.5 8t7 19.5t1 24t-0.5 20.5q1 15 13 20q4 2 15 3.5t23.5 2.5t24 1.5t17.5 0.5q12 0 18.5 -4.5t9 -12t3 -16.5t0.5 -18zM202 398q0 3 -4 3.5
t-6 0.5q-3 0 -8.5 -2t-11 -5t-9.5 -6.5t-4 -6.5l-1 -3l1 -1q5 4 13 9.5t15 5.5q6 0 7.5 1.5t3.5 1.5q3 0 4 -1v3zM491 362v5q-8 -5 -11.5 -12.5t-7.5 -15.5h1q8 0 13 8t5 15zM366 267q0 5 -5 7t-8 2q-4 0 -6 -2v-4q0 -4 6 -5.5t9 -1.5q1 1 2.5 2t1.5 2zM104 278v5l-2 1
l-3.5 -7t-2.5 -7t2 -6q6 6 6 14z" />
    <glyph glyph-name="uni00A0" unicode="&#xa0;" horiz-adv-x="320" 
 />
    <glyph glyph-name="exclamdown" unicode="&#xa1;" horiz-adv-x="307" 
d="M237 345q0 -11 -3.5 -22.5t-3.5 -24.5v-27q0 -11 -1 -20.5t-1 -20.5q0 -7 0.5 -13.5t0.5 -13.5q0 -5 -0.5 -8.5t-0.5 -7.5q0 -11 1.5 -22t1.5 -22v-20q0 -5 1 -9.5t1 -9.5q0 -10 0.5 -19t0.5 -19q0 -9 -1 -14q-2 -8 -2 -16v-16q0 -7 -7.5 -11t-17.5 -6t-20 -2.5t-15 -0.5
t-9 0.5t-8 0.5l-18 -2t-17 -1q-26 0 -41 21q-2 4 -2.5 15t-0.5 16q0 6 1.5 12t1.5 12v25.5t-1 25.5l-2 10t-1 10q0 18 -0.5 35.5t-0.5 34.5q0 8 1 16.5t1 16.5q2 33 1 66.5t1 66.5q0 6 1.5 11.5t1.5 10.5q0 9 -3 17t-3 16q0 24 6.5 36t18 16.5t27.5 4t35 -0.5q8 0 16.5 -1
t16.5 -1q17 0 27 -6t12 -25q0 -6 1 -12t1 -11q0 -9 -0.5 -18t-0.5 -17q0 -6 -0.5 -12t-0.5 -12q0 -8 2 -16t2 -16zM232 618q0 -7 -4 -14q-2 -3 -4 -11q-11 -21 -27 -33t-40 -12q-7 0 -13.5 1.5t-12.5 3.5q-32 11 -46.5 30.5t-14.5 52.5q0 20 13.5 37.5t29.5 27.5q6 4 13 4.5
t14 0.5q13 0 19 -3t17 -6q22 -7 39 -31.5t17 -47.5zM140 185q0 28 -4 51q-3 -50 -3 -99q0 -11 1 -21.5t2 -21.5l2 1q1 23 1.5 45t0.5 45zM136 447v11q-7 -2 -7 -12v-54q0 -9 3 -15q3 17 3.5 35t0.5 35zM121 633q0 7 -1 11q-6 -4 -7 -8.5t-1 -12.5v-10q5 4 7 9.5t2 10.5z
M176 307q0 7 -8 11q-2 -3 -3 -5.5t-1 -5.5q0 -4 4 -12q8 6 8 12zM217 34v12h-10q0 -3 1 -6.5t2 -6.5t3 -3q3 1 4 4zM188 622q0 6 -4 6q-5 0 -5 -4v-1q0 -7 5 -7q4 0 4 6z" />
    <glyph glyph-name="cent" unicode="&#xa2;" horiz-adv-x="598" 
d="M548 201q0 -6 -1 -8q-8 -45 -30 -78.5t-56 -62.5q-5 -4 -15.5 -10t-23 -12.5t-24 -12t-18.5 -8.5q-8 -4 -14.5 -4.5t-6.5 -11.5t0.5 -21.5t0.5 -21.5t-7.5 -18.5t-18.5 -7.5q-14 0 -29 1t-29 2q-15 0 -20 7.5t-5 21.5q0 6 1 12.5t1 12.5q0 5 -1.5 12t-7.5 7q-11 0 -20 5
q-20 11 -40.5 23t-40.5 24q-4 3 -9.5 8.5t-11 12t-10 12.5t-6.5 11l-3 5q-10 12 -19.5 28.5t-17 35t-12 37.5t-4.5 34q0 13 2 25.5t2 25.5q0 20 5 45t14 49.5t21.5 46.5t27.5 36q16 15 29 24.5t25.5 16.5t27 13t33.5 14q5 2 6.5 3.5t1.5 7.5q0 12 -0.5 25t0.5 25
q0 9 2.5 11.5t11.5 3.5l61 2q5 0 8.5 0.5t8.5 0.5q8 0 13.5 -3t6.5 -11l2 -47q0 -7 1.5 -8.5t7.5 -3.5q14 -4 26.5 -5.5t26.5 -9.5q53 -28 82.5 -67t28.5 -101v-4q0 -11 -4 -15.5t-15 -6.5t-23 -2h-24h-29.5t-29.5 2q-13 2 -17 9.5t-6.5 18t-6.5 22t-16 21.5l-3 -1
q4 -66 4 -130.5t4 -130.5q1 1 2.5 1t2.5 2q15 14 17.5 29.5t5.5 28t13 21t40 8.5q9 0 18 -0.5t18 -0.5q8 0 17 0.5t18 0.5q13 0 21.5 -7t8.5 -20zM254 272q0 26 -1 52l-2 52q0 5 -0.5 9.5t-3.5 9.5q-14 -6 -23 -23.5t-15 -38.5t-8.5 -42t-2.5 -34q0 -19 1.5 -33.5t5.5 -27
t12 -24.5t20 -27q6 -8 13 -8h2q1 3 1 8q0 11 -0.5 21t-0.5 21q0 22 1 43t1 42zM301 327q0 10 -1 19.5t-2 19.5q-1 8 -0.5 16.5t-1.5 16.5q-3 -15 -3.5 -32t-0.5 -33q0 -3 0.5 -18t1 -31.5t1 -30t0.5 -14.5q2 -10 2 -21t1 -21q1 1 2 14.5t1 29v30v18.5v37zM459 115l-3 2
q-2 -5 -7.5 -11t-12.5 -12t-14 -11.5t-11 -8.5t-4 -8q16 5 33 17.5t19 31.5zM149 213q1 2 -3 13.5t-4 19.5t2.5 16.5t2.5 16.5q0 2 -2 2l-3 -7q-4 -1 -5 -14.5t-1 -18.5q0 -2 1 -8.5t2.5 -13.5t4 -12.5t5.5 -5.5v12zM457 415q-5 13 -16.5 26.5t-27.5 13.5l-1 -2
q8 -4 20 -15.5t18 -19.5q3 -3 7 -3zM316 14q0 5 -0.5 9.5t-1.5 9.5v5t-2 4t-3 -4.5t-1 -5.5v-12v-7.5t0.5 -11.5t1 -11.5t2.5 -6.5q2 2 2 5q1 6 1.5 13t0.5 13zM306 542q0 6 -0.5 12t-1.5 11q-7 -3 -8 -6.5t-1 -11.5t3 -17q8 3 8 12zM152 416l-1 2q-6 -1 -12.5 -10t-6.5 -14
v-3q7 2 13.5 10t6.5 15zM527 189q0 3 -3 6.5t-5 5.5q-4 -6 -4 -12q0 -5 3 -9q3 2 6 3.5t3 5.5zM209 81q0 10 -9 14h-4q0 -1 -0.5 -1.5t-0.5 -1.5q0 -2 1.5 -4.5t2.5 -4.5q5 -5 7 -5h2q1 1 1 3z" />
    <glyph glyph-name="sterling" unicode="&#xa3;" horiz-adv-x="566" 
d="M516 79q0 -8 -0.5 -15.5t-0.5 -15.5q0 -17 -5 -30.5t-26 -15.5q-14 -2 -28 -3.5t-28 -1.5q-18 0 -36 2.5t-37 3.5q-24 0 -48 0.5t-48 0.5q-20 0 -40.5 -3t-40.5 -3q-6 0 -16.5 1t-21 4t-18 8t-7.5 13q0 13 2 25.5t2 25.5q0 11 -1.5 21.5t-1.5 21.5q0 19 9 27.5t20.5 16
t20.5 17.5t9 31q0 12 -7 28t-26 18t-39.5 2.5t-36.5 5.5t-16 27q0 7 1 13.5t1 14.5q0 13 -1 25.5t-1 26.5q0 5 1 12.5t3 14.5t6.5 12t11.5 5q5 0 9 -1t9 -1q7 0 7 8q0 9 -1 14q-8 20 -8 46q0 10 1 19.5t1 19.5v22.5t3 21.5q5 16 11 31t17 29l18 23q7 8 18 16t24 15t26 11.5
t24 6.5l50 8q5 1 11 1h11q59 0 107 -30.5t79 -78.5q6 -11 11.5 -20t5.5 -22q0 -4 -5 -10t-12 -12t-14 -11t-11 -6l-10 -6t-10 -8q-4 -3 -10.5 -7.5t-14 -8t-14.5 -6.5t-11 -3q-10 0 -19 10.5t-19 23.5t-21 23.5t-26 10.5q-9 0 -20 -2.5t-19 -6.5q-11 -5 -14 -18t-3 -24
q0 -20 2.5 -34.5t11.5 -32.5q2 -4 9 -6.5t15 -4.5t16 -3t13 -1q2 0 5 0.5t6 0.5q7 0 13.5 -0.5t13.5 -0.5q17 0 33.5 2t33.5 2q16 0 24 -6t12 -15t4.5 -21t0.5 -24q0 -4 -0.5 -15t-1 -23t-2 -22t-3.5 -12q-10 -12 -25 -12h-52.5t-52.5 -2q3 -21 3 -41q0 -34 -12 -64
q2 -1 3 -2t3 -1q7 -1 13 -0.5t13 0.5q8 -1 16.5 -1.5t17.5 -0.5q27 -1 54.5 -1t54.5 -2q18 -1 19 -18q1 -14 1.5 -26.5t0.5 -26.5zM308 59q0 4 -6 4q-2 0 -5 -1t-6 -1q-9 0 -18.5 -0.5t-18.5 -0.5q-8 0 -15.5 1t-15.5 1h-29.5t-29.5 -3q-1 -2 5 -2.5t8 -0.5q12 -1 24 -1.5
t24 -0.5q14 0 28.5 -0.5t28.5 -0.5h14t12 4v2zM412 349q-3 1 -9 1q-26 0 -51.5 -1.5t-51.5 -2.5q-14 0 -27 0.5t-26 -1.5q6 -2 8 -2q5 0 9 0.5t9 0.5q6 0 11.5 -1t11.5 -1q7 0 14 0.5t13 -3.5h11t17.5 0.5t17 1.5t9.5 3q7 3 16.5 3t17.5 2zM386 568q0 8 -7.5 17t-19 16.5
t-23.5 12t-19 4.5q-3 0 -5 -4q5 -3 10.5 -4t10.5 -2q7 -2 13 -5.5t12 -7.5q5 -3 9 -7t6 -10q1 -3 5.5 -9t7.5 -6v5zM183 451q0 5 -0.5 9.5t-1.5 9.5l-7 2q2 -4 1 -8t-1 -8q0 -9 1 -17.5t3 -17.5h2q3 10 3 22v8zM281 176h-11q-4 -9 -9 -18t-10 -17q4 0 8.5 4t8.5 10t7.5 12
t5.5 9zM130 296q-9 6 -21 6q-13 0 -23 -6q5 -1 10 -1.5t10 -0.5h5h9.5t9.5 2zM230 634l-3 7h-1q-5 0 -7.5 -4t-2.5 -8v-2q0 -5 3 -7h1q5 -1 6.5 4.5t3.5 9.5zM428 77q-4 9 -10 9q-5 0 -9 -4l6 -8q4 -2 5 -2q2 0 8 2v3z" />
    <glyph glyph-name="currency" unicode="&#xa4;" horiz-adv-x="649" 
d="M609 129q0 -6 -4 -11t-9 -9q-5 -5 -15.5 -13.5t-22.5 -17t-23.5 -15t-17.5 -6.5q-8 0 -17 7q-14 11 -27 23.5t-27 23.5q-63 -27 -128 -27q-44 0 -86 12q-3 2 -12.5 4t-12.5 2q-5 0 -8 -5q-3 -4 -11.5 -12.5t-18 -17t-18.5 -15t-14 -6.5q-4 0 -7.5 2.5t-6.5 4.5
q-8 8 -16 15l-16 14q-9 8 -18.5 15t-18.5 15q-4 2 -7 5.5t-3 8.5t3.5 8.5l6.5 6.5q14 11 26.5 23.5t23.5 26.5q-15 27 -21.5 54t-6.5 58q0 17 2.5 34.5t8.5 34.5l3.5 7t5 10.5t4.5 10t2 6.5q0 3 -9.5 10.5t-21.5 17t-21.5 19t-9.5 16.5q0 5 3 9l6 8l15 15t26 24.5t26 22.5
t14 10q7 0 17.5 -8.5t21.5 -18.5t20 -18.5t13 -8.5q3 0 13 4.5t15 6.5q24 7 48 10.5t50 3.5q10 0 20 -1t21 -1q4 0 8 1t9 1q4 0 12 -3.5t16.5 -7t16 -7t10.5 -3.5q5 0 15 9.5t22 20.5t23.5 20.5t20.5 9.5q7 0 21 -12t28 -28t24 -32t10 -23q0 -8 -11 -17q-12 -11 -25 -21
t-25 -21q15 -26 24.5 -49t9.5 -55q0 -21 -1 -35t-4 -26t-7 -25t-10 -32q4 -5 13 -12.5t18 -16t15.5 -18t6.5 -16.5zM424 309q0 20 -5.5 33t-16 21.5t-25 13.5t-31.5 9q-11 3 -24 3q-32 0 -52.5 -13t-34.5 -41q-8 -14 -8 -31q0 -12 4.5 -23t10.5 -22q25 -42 76 -42q21 0 48 7
t39 26q19 27 19 59zM420 172h-1l-6 -3q-8 -4 -12 -5q-37 -11 -71 -14l2 -5q13 4 31 4.5t29 3.5q5 1 15.5 9.5t12.5 9.5zM236 180l-43 20l-1 -2q2 -7 13.5 -13.5t17.5 -6.5q4 0 12 2h1zM178 396l-4 6h-1q-7 -2 -8 -9.5t-2 -14.5l3 -3l3 2zM92 474q-1 2 -3 4.5t-4 2.5
q-4 0 -6.5 -6t-2.5 -8t1 -4t3 -2q5 0 8.5 4.5t3.5 8.5zM514 301q0 3 -1.5 8.5t-4.5 5.5q-4 0 -5.5 -4.5t-1.5 -6.5q0 -7 5 -12q6 1 8 9zM340 459q-13 5 -32 5q-5 0 -10 -0.5t-10 -2.5q15 -3 31 -3zM553 483l-1 2v1q-1 0 -1.5 -0.5t-1.5 -0.5q-5 -5 -11.5 -9.5t-11.5 -9.5v-4
l3 -1q1 0 1.5 0.5t1.5 0.5zM98 133l-1 3l-2 1q-3 -1 -7 -6t-5 -9q6 1 10.5 2.5t4.5 8.5zM526 126q0 3 -3 6.5t-6 3.5q-4 0 -4 -4t3.5 -7t7.5 -3l2 3v1z" />
    <glyph glyph-name="yen" unicode="&#xa5;" horiz-adv-x="649" 
d="M619 684q0 -6 -9.5 -27t-24.5 -50t-33 -62.5t-35 -65t-30.5 -58t-18.5 -40.5q13 -2 27 -2t27 -2q12 -3 13 -15q1 -16 1 -32v-32t-5.5 -20.5t-19.5 -4.5t-27 -1t-27 -1q-6 0 -12 0.5t-12 0.5q-8 0 -10 -2t-2 -10v-7q-1 -15 -0.5 -21.5t16.5 -6.5q8 0 21 0.5t27 0.5
t26.5 -1t18.5 -3q8 -3 10 -12q1 -7 1.5 -14t0.5 -14q0 -18 -1 -28.5t-6 -16.5t-15 -7.5t-28 -1.5q-16 0 -31 1t-30 1q-7 0 -7 -7q0 -11 1.5 -21t1.5 -21q0 -14 -1 -27t-3 -27q-3 -20 -24 -22q-23 -2 -46 -3t-46 -1q-20 0 -35 7q-13 7 -13 22v46.5t-2 46.5q-6 2 -9 2
q-21 0 -42.5 -1t-42.5 -1q-9 0 -16 3t-7 14q0 14 -1 29t-1 30q0 11 3.5 16.5t9.5 8t14 2.5h17q5 1 11 1.5t11 0.5q11 0 21 -1.5t21 -1.5q4 0 6 4.5t2.5 10.5t0 12t-0.5 9q0 5 -6 7q-11 1 -22.5 1h-22.5q-8 0 -15 -0.5t-15 -0.5q-6 0 -12.5 0.5t-12.5 1.5q-8 1 -11.5 8.5
t-5 17t-1 19t0.5 15.5q0 15 1.5 26t20.5 12h10.5t15.5 1t14 2.5t6 3.5q0 1 -2 5q-16 30 -33 61t-36 60l-34 50q-17 26 -31.5 54t-28.5 56q-4 5 -4 12q0 9 7 14.5t16.5 8t19.5 3t17 0.5q5 0 9 -0.5t9 -0.5q12 0 24.5 1t24.5 1h16t16 -1q12 -2 19 -13q31 -46 55.5 -95.5
t50.5 -97.5q2 -2 4 -5t5 -3q2 0 8.5 8.5t13.5 19t13 21t8 13.5q15 26 29.5 51.5t26.5 52.5q1 3 5.5 10t9 14.5t8.5 13.5t6 7q12 5 22 5q16 0 31 1.5t30 1.5h34t33 -3q8 -2 13 -5.5t5 -11.5zM342 187v5t-0.5 8.5t-1 8t-1.5 3.5q-2 0 -3.5 -4t-2.5 -9t-1 -10v-6v-27.5v-34
t1 -33.5t3 -25q4 30 5 61.5t1 62.5zM206 463v3q-3 5 -13 23t-21.5 37.5t-21.5 34.5t-13 15q2 -8 4.5 -15.5t7.5 -14.5q10 -14 19 -31.5t20 -30.5q6 -2 8.5 -6.5t5.5 -9.5q0 -1 2 -3zM515 153q-5 4 -14 4q-11 0 -22 1t-22 1t-23 -5l-9 -3q2 -1 5 -1q5 0 9.5 1t9.5 1
q6 0 12 -1.5t13 -1.5h8t13 0.5t12.5 1.5t7.5 2zM344 354q0 5 -2 10.5t-7 5.5t-5.5 -4t-0.5 -7q0 -14 7 -25q8 8 8 20zM475 528l-3 1q-3 0 -4 -3q-8 -11 -11.5 -15.5t-5.5 -9.5l-9 -29v-1q10 14 17.5 28.5t15.5 28.5zM222 313l-1 1h-12q-3 0 -8.5 -0.5t-11.5 -1t-11 -1.5
t-6 -2l1 -3q6 -2 9 -2q5 0 9.5 1t9.5 1h11t10 7zM210 625q-5 26 -25 40q2 -10 8.5 -23.5t16.5 -16.5zM569 660q0 5 -4 5.5t-6 0.5h-4q-2 0 -5 -2.5t-3 -4.5q0 -4 3.5 -6t6.5 -2q4 0 8 2.5t4 6.5zM192 155q0 4 -3.5 4.5t-5.5 0.5h-4q-2 0 -5 -2.5t-3 -4.5q0 -3 3.5 -5.5
t6.5 -2.5q4 0 7.5 3t3.5 7zM509 307q-2 2 -5 4.5t-6 2.5q-8 0 -8 -8q0 -6 6 -6q3 0 6.5 2.5t6.5 4.5z" />
    <glyph glyph-name="brokenbar" unicode="&#xa6;" horiz-adv-x="309" 
d="M239 204q0 -11 -1 -22.5t-1 -22.5v-130q0 -9 -0.5 -18t-0.5 -18q0 -17 1 -34.5t1 -35.5t-3.5 -33t-25.5 -17q-17 -2 -36.5 -3t-36.5 -1q-14 0 -28.5 4t-25.5 12q-8 6 -10 16.5t-2 20.5q0 36 1 72.5t1 73.5q0 29 -1 58.5t-1 58.5q0 20 2 39.5t5 39.5q2 11 6 17t16 6
q2 0 4.5 -0.5t4.5 -0.5v-2q14 0 27 3t27 3q8 0 16 -2t16 -2h15t15 -2q7 -1 11 -11q1 -3 1.5 -12.5t1 -20.5t1 -21.5t0.5 -14.5zM239 704q0 -13 -1 -25t-1 -24v-102q0 -8 -0.5 -15.5t-0.5 -15.5q0 -14 1 -29t1 -30v-12q-1 -16 -6.5 -23t-22.5 -9q-18 -1 -36.5 -2t-36.5 -1
q-14 0 -28.5 3t-25.5 11q-8 5 -10 13.5t-2 17.5q0 32 1 63t1 62q0 26 -1 50.5t-1 50.5q0 17 2 34t5 34q3 19 22 19h9v-2q14 0 27 2.5t27 2.5q8 0 16 -2t16 -2t15 0.5t15 -1.5q7 -1 11 -9q1 -2 1.5 -10.5t1 -18.5t1 -18.5t0.5 -11.5zM209 100q0 10 -1.5 20t-1.5 20
q0 15 1.5 30.5t1.5 31.5v34h-1q-10 -9 -10 -28q0 -14 1.5 -29t1.5 -29q0 -15 1 -28.5t3 -27.5q4 1 4 6zM209 614q0 9 -1.5 17.5t-1.5 16.5q0 14 1.5 27t1.5 27v28l-1 1q-10 -9 -10 -24q0 -13 1.5 -25.5t1.5 -24.5q0 -25 4 -48q1 0 3 2q1 1 1 3zM125 -54q0 9 -5 14
q-4 -2 -4 -11v-18l1 -1l8 6v10zM125 482q0 8 -5 12q-4 -2 -4 -9v-16l1 -1l8 5v9z" />
    <glyph glyph-name="section" unicode="&#xa7;" horiz-adv-x="592" 
d="M542 122q0 -17 -5 -38t-13 -37q-4 -7 -4.5 -11.5l-1 -9t-3.5 -9.5t-12 -13t-14 -15.5t-17 -12.5q-5 -2 -10 -3.5t-10 -4.5q-8 -5 -26 -10t-38.5 -9t-39 -6.5t-27.5 -2.5q-16 0 -32.5 2t-32.5 4q-17 2 -41.5 8t-50 15.5t-47.5 21t-34 24.5q-7 8 -20 16.5t-13 20.5
q0 4 7.5 16.5t17 26t19 25.5t13.5 15t8 5.5t9 2.5t8.5 -2.5t6.5 -4.5q12 -10 28.5 -20t34.5 -18t36.5 -13t34.5 -5q24 0 40 5.5t33 22.5q2 2 2 5q0 5 -2 11t-3 11q-2 8 -5.5 13.5t-12.5 7.5q-11 4 -22.5 6.5t-23.5 4.5q-5 0 -9 1.5t-9 2.5q-25 6 -49.5 11t-48.5 13
q-2 1 -4 1q-20 3 -33 11.5t-27 22.5q-5 5 -10 9.5t-8 9.5q-18 29 -18 60q0 14 1.5 27t3.5 27q3 15 11 28.5t16.5 24.5t15.5 19t7 11q0 4 -4.5 8t-6.5 6q-20 19 -31.5 48.5t-11.5 56.5q0 46 26 77t68 47q13 5 26 8l26 6q2 0 4 0.5t4 0.5q17 1 33 1h33q47 0 90 -9.5t88 -22.5
q14 -5 25.5 -13.5t19.5 -21.5q2 -4 2 -8q0 -5 -3 -8q-11 -14 -16.5 -27.5t-12 -24t-17 -17.5t-31.5 -7q-16 0 -33 10q-23 15 -50 19q-19 4 -37 7.5t-37 3.5q-12 0 -27.5 -4.5t-15.5 -20.5q0 -13 9 -17q17 -11 34.5 -15t37.5 -9q19 -5 48.5 -13t58.5 -19t52.5 -27t31.5 -38
q6 -17 10 -36.5t4 -37.5q0 -6 -2 -12t-2 -13q-1 -14 -4 -24t-7.5 -18.5t-10.5 -17t-13 -19.5q2 -1 2.5 -2t1.5 -2q11 -6 18.5 -12.5t14.5 -16.5q29 -40 29 -90zM356 331q0 10 -6.5 19.5t-16.5 16.5t-21 11t-20 4q-8 0 -19.5 -2.5t-22 -8t-18 -13t-7.5 -17.5q0 -12 14 -19
t37.5 -15.5t39.5 -8.5q13 0 26.5 9.5t13.5 23.5zM308 229v1q-4 2 -6.5 4t-7.5 4q-5 1 -13.5 3.5t-17.5 4.5t-17 3.5t-12 1.5h-2q2 -8 11.5 -10t16.5 -2q12 0 22.5 -5.5t21.5 -4.5h4zM322 642q-1 5 -8.5 8.5t-17.5 5t-19.5 2.5t-13.5 1l-3 -3l3 -5q11 -3 28 -5t31 -4zM484 77
q0 7 -0.5 16.5t-4.5 15.5q-2 -8 -3 -16l-2 -16q-1 -10 -3.5 -17.5t-4.5 -15.5l2 -1h1q5 5 10 16t5 18zM141 629q-8 -7 -14 -17.5t-6 -21.5v-11q0 -13 7 -21l2 4t1 4q0 6 -1.5 12t-1.5 12q0 12 6 21t7 18zM377 429q-8 3 -18 6.5t-21 6.5t-21 5.5t-17 2.5h-2
q14 -10 25.5 -10.5t15.5 -3.5q11 -8 27 -8h11v1zM291 -5l-2 2q-11 3 -22.5 7t-22.5 4q-2 -2 -5.5 -2t-3.5 -3q0 -2 2.5 -2.5t4.5 -1.5q11 -1 21.5 -3t20.5 -2h7v1zM145 326q0 3 -3 5.5t-5 2.5q-6 0 -6 -6q0 -3 2 -6.5t6 -3.5q6 0 6 8zM455 604q0 3 -3.5 5.5t-5.5 2.5
q-6 0 -6 -6q0 -3 1 -6t4 -3q2 0 6 2.5t4 4.5zM97 62q0 7 -6 7q-4 0 -4 -4v-2q0 -2 1 -5t4 -3l3 1q2 2 2 6zM421 187q0 7 -7 7q-3 0 -3 -5v-2q0 -7 4 -7h1l3 1q2 4 2 6zM458 370q0 8 -6 8q-4 0 -4 -5v-2q0 -7 4 -7h1l3 1q2 2 2 5zM217 462q-1 4 -1.5 6.5t-4.5 4.5
q-5 -2 -5 -6q0 -7 7 -7q2 0 4 2z" />
    <glyph glyph-name="dieresis" unicode="&#xa8;" horiz-adv-x="353" 
d="M353 623q0 -31 -19 -50.5t-50 -19.5t-51.5 19.5t-20.5 50.5q0 30 19 52t50 22t51.5 -22t20.5 -52zM301 610q-2 2 -3.5 4t-3.5 2q-5 0 -9.5 -7t-4.5 -12t5 -5q4 0 9 7.5zM146 616q0 -31 -17.5 -50t-49.5 -19q-12 0 -21 3.5t-20 7.5q-19 6 -28.5 21t-9.5 35q0 14 6 28
t16 25.5t23.5 19t27.5 7.5q33 0 53 -23t20 -55zM90 656q-7 0 -9 -8q-2 -11 -3.5 -22.5t-1.5 -22.5q0 -3 1 -5l3 -1q7 14 8 29z" />
    <glyph glyph-name="copyright" unicode="&#xa9;" horiz-adv-x="827" 
d="M767 364q0 -12 -1.5 -25t-3.5 -25q-2 -13 -3.5 -26t-3.5 -26q-5 -26 -17 -53.5t-28 -53.5t-34.5 -50t-36.5 -43q-8 -8 -17 -15t-17 -14q-13 -11 -27 -16.5t-30 -9.5q-27 -5 -55 -10t-56 -5h-8.5t-8.5 1q-10 2 -19 1.5t-19 1.5q-26 4 -52.5 10t-52.5 13q-20 6 -42.5 17.5
t-44.5 26.5t-41 32t-32 34q-26 32 -34.5 71t-14.5 78q-3 17 -5.5 35t-2.5 35q0 29 7 58t18 55q5 11 8 22t8 22q8 17 17 33t19 32q11 17 29 33q30 26 59.5 45.5t68.5 30.5q17 5 35 6.5t35 4.5q17 2 42 3.5t42 1.5q10 0 23 -1.5t26.5 -4t26.5 -6t23 -6.5q9 -4 21 -8t20 -9
q30 -21 57.5 -44.5t50.5 -53.5q24 -32 38.5 -69t24.5 -76q8 -27 8 -53zM640 343q0 19 -4.5 48.5t-13.5 59.5t-22 55t-30 37l-43 29q-24 16 -55 17t-59 1q-23 0 -49 -8q-20 -5 -39 -11.5t-36 -17.5l-22 -16t-19 -18q-2 -4 -4.5 -7.5t-5.5 -6.5q-18 -19 -28 -49t-14 -56
q-2 -15 -3.5 -31.5t-1.5 -31.5q0 -28 5 -54t13 -52q7 -24 22.5 -43.5t35 -34t42.5 -24.5t47 -16q14 -4 28.5 -6.5t29.5 -2.5q19 0 38.5 3t39.5 6t38.5 12t31.5 26l10 11q9 7 17 20.5t15 29t13 31t10 26.5q13 35 13 74zM518 252q0 -6 -0.5 -12t-1.5 -12q-2 -10 -10.5 -17.5
t-20.5 -13t-24 -8t-21 -2.5q-22 0 -43.5 4t-40.5 15q-11 7 -18 9.5t-12 5.5t-10 8.5t-13 18.5l-10 17q-7 17 -12 34t-5 35q0 23 5.5 51.5t19.5 48.5q8 10 14.5 20.5t15.5 18.5q2 2 4 2.5t4 2.5q18 13 48.5 19.5t51.5 6.5q12 0 24 -3q19 -5 29.5 -8t15.5 -8.5t6 -16.5t1 -32
q0 -3 -0.5 -9.5t-2 -12.5t-4.5 -10.5t-7 -4.5q-5 0 -11 4.5t-14 9.5t-16.5 9.5t-17.5 4.5q-34 0 -56.5 -22t-22.5 -57q0 -14 4 -26q6 -21 28.5 -36.5t43.5 -15.5q13 0 22 3t15.5 6.5t12.5 6.5t13 3q12 0 13 -11q3 -12 3 -26zM363 47l-1 10l-24 2q-20 3 -39.5 9.5t-37.5 15.5
q-2 2 -5 2q-1 0 -1.5 -0.5t-1.5 -0.5l8 -8t6 -4.5t7 -3l12 -4.5q14 -5 30.5 -12.5t33.5 -7.5q5 0 13 2zM717 255q0 4 -4 5q-8 -8 -10.5 -23t-7.5 -25q-1 -2 -4 -8.5t-7 -14.5q-4 -9 -10 -19q0 -3 4 -3q1 0 4.5 5.5t8 12.5t8 13t4.5 8q5 11 9.5 24t4.5 25zM457 650l-2 2
q-5 0 -8.5 0.5t-8.5 0.5q-17 0 -32.5 -3.5t-31.5 -9.5l-3 -3h4h10.5t15 0.5t14 2t8.5 3.5q1 5 9 5h25v2zM432 451q-3 4 -8 4q-10 0 -23.5 -1.5t-15.5 -13.5l1 -2q5 2 17 7t17 5q3 0 6 -0.5t6 1.5zM127 306v10t-2 9q-2 6 -2 10q0 5 -0.5 6.5t-2.5 5.5h-1q-1 -4 -1 -10
q0 -20 5 -38l1 -3l1 -1q1 3 1.5 5.5t0.5 5.5zM398 244q-7 5 -13 5q-10 2 -18 8t-18 9v-1q2 -3 12 -11t14 -9l22 -3zM663 554q0 2 -1 6t-5 4q-2 0 -6.5 -3t-6.5 -5q2 -3 4.5 -7t6.5 -4q2 0 8 2v7zM185 508l-1 3q-7 -4 -11 -7t-4 -13v-4q8 2 12 7.5t4 13.5zM602 63q0 2 -2 4
l-4 1q-5 -1 -8 -5.5t-5 -8.5q1 -1 4 -1q4 0 9.5 2.5t5.5 7.5zM331 372q0 5 -3 8q-3 -1 -6 -4t-3 -7q0 -5 6 -5t6 8zM483 233q-4 2 -5 2q-3 0 -6.5 -1.5t-3.5 -4.5q0 -6 7 -6q6 0 8 10zM490 473l-2.5 5t-4.5 3q-5 0 -5 -5q0 -2 1.5 -4.5t3.5 -4.5l2 -1q2 0 3 2.5t2 4.5z" />
    <glyph glyph-name="ordfeminine" unicode="&#xaa;" horiz-adv-x="465" 
d="M415 413q0 -9 -0.5 -18t-1.5 -17q0 -13 -14 -14q-16 -1 -32 -1h-32q-6 0 -14 -0.5t-15.5 1t-12.5 5.5t-6 12v9l-2 3q-14 -6 -28 -13t-29 -10q-25 -4 -44 -8t-45 -4q-16 0 -31.5 7t-27.5 19t-19 27t-7 32q0 15 -3 32q-1 3 -1 7q0 8 2.5 14.5t5.5 13.5q11 27 39.5 43.5
t54.5 26.5q2 1 10.5 2t18.5 2t19.5 1.5t12.5 0.5q17 0 35.5 -5.5t28.5 -5.5q4 0 6 1q-1 13 -7.5 21t-16.5 13t-21.5 7t-21.5 2q-16 0 -31.5 -4t-30.5 -10q-6 -3 -18 -8t-19 -5q-12 0 -17 12q-1 3 -3.5 11t-5 16.5t-4.5 15.5t-2 10q0 11 15.5 20t36 16t40.5 10.5t29 3.5
q8 0 16.5 -1t17.5 -1q23 0 46.5 -3t45.5 -12q13 -5 23 -14.5t21 -18.5q19 -17 21.5 -38.5t7.5 -44.5q5 -17 6.5 -34t1.5 -35q0 -23 1 -46t1 -46zM370 472q0 18 -1 36t-3 36q-5 -3 -5.5 -13t-0.5 -15t0.5 -14.5t1.5 -19.5t2.5 -19t4.5 -13q0 5 0.5 11t0.5 11zM125 665
q-1 0 -2 0.5t-2 0.5q-3 0 -7 -2.5t-4 -6.5t5 -9q9 9 10 17zM239 553l-13 7h-2q-3 0 -12 -1t-18.5 -2.5t-16.5 -4t-7 -6.5q8 2 17.5 4t17.5 2q6 0 11.5 -0.5t11.5 -0.5q2 0 5 0.5t5 0.5zM280 477q0 8 -2.5 12.5t-6 7.5t-8 5t-8.5 6q-4 5 -11 5q-9 0 -18 -1t-19 -1
q-8 0 -18 -3t-18.5 -8.5t-14.5 -13.5t-6 -18q0 -8 5.5 -12.5t14 -7t17 -3t14.5 -0.5q7 0 20.5 1t26.5 4.5t22.5 10t9.5 16.5zM113 393q0 8 -9 15h-4v-4q5 -8 13 -11z" />
    <glyph glyph-name="guillemotleft" unicode="&#xab;" horiz-adv-x="519" 
d="M-5 354q0 5 10 18t22.5 27.5t25 26.5t17.5 15l37 41q5 5 12.5 6.5t13.5 1.5q16 0 32 -1t32 -1q5 0 16 -0.5t11 -5.5q0 -3 -1.5 -5.5t-2.5 -4.5q-2 -10 -11 -16q-4 -3 -12 -12t-17 -20t-17 -21l-12 -15l-38 -42q3 -3 12 -14t21.5 -25.5t25.5 -30.5t24.5 -30t18.5 -23.5
t7 -11.5q0 -3 -5 -5q-8 -2 -16 -2t-16 -3q-11 -4 -25 -4h-26q-11 0 -21.5 0.5t-15.5 11.5q-2 3 -4.5 5t-4.5 5q-9 12 -17 24.5t-17 24.5q-4 5 -14 17t-20 26t-17.5 26t-7.5 17zM230 354q0 5 10 18t22.5 27.5t25 26.5t17.5 15l37 41q5 5 12.5 6.5t13.5 1.5q16 0 32 -1t32 -1
q5 0 16 -0.5t11 -5.5q0 -3 -1.5 -5.5t-2.5 -4.5q-2 -10 -11 -16q-4 -3 -12 -12t-17 -20t-17 -21l-12 -15l-38 -42q3 -3 12 -14t21.5 -25.5t25.5 -30.5t24.5 -30t18.5 -23.5t7 -11.5q0 -3 -5 -5q-8 -2 -16 -2t-16 -3q-11 -4 -25 -4h-26q-11 0 -21.5 0.5t-15.5 11.5
q-2 3 -4.5 5t-4.5 5q-9 12 -17 24.5t-17 24.5q-4 5 -14 17t-20 26t-17.5 26t-7.5 17zM38 339q2 -8 11.5 -21t17.5 -17v2q0 4 -8 15.5t-11 15.5q-3 5 -10 5zM273 339q2 -8 11.5 -21t17.5 -17v2q0 4 -8 15.5t-11 15.5q-3 5 -10 5zM360 462q0 -3 2.5 -6.5t6.5 -3.5t5 3t1 6
t-1.5 6t-5.5 3q-8 0 -8 -8zM125 462q0 -3 2.5 -6.5t6.5 -3.5t5 3t1 6t-1.5 6t-5.5 3q-8 0 -8 -8zM117 236q0 -2 1.5 -5t4.5 -3q8 0 8 6q0 2 -3 5t-5 3q-6 0 -6 -6zM352 236q0 -2 1.5 -5t4.5 -3q8 0 8 6q0 2 -3 5t-5 3q-6 0 -6 -6z" />
    <glyph glyph-name="logicalnot" unicode="&#xac;" horiz-adv-x="567" 
d="M516 295v-7.5t-1 -8.5q-1 -7 -1 -14t-1.5 -13t-5.5 -10.5t-13 -7.5q-8 -2 -17 -4t-18 -2q-5 0 -10.5 1t-10.5 1h-50q-4 0 -7 -0.5t-6 -0.5q-14 0 -19.5 7.5t-6.5 17.5t-0.5 21t-2.5 19q-2 4 -6 4q-5 1 -13.5 2t-18 1.5t-18.5 0.5h-15q-4 0 -8 -1t-9 -1q-8 0 -15 1t-15 1
q-14 0 -27.5 1t-27.5 1q-6 0 -11.5 -0.5t-11.5 -0.5q-11 0 -22 -0.5t-23 -3.5h-6q-6 0 -14.5 1.5t-16 4.5t-12.5 8.5t-5 13.5t1 16t1 16t-1.5 16.5t-1.5 16.5t5 14.5t13 8.5q10 2 17.5 6t18.5 5q11 0 21 1t21 1q9 0 18 -1t18 -1q6 0 12 0.5t12 0.5q30 0 60 -1.5t61 -1.5
q6 0 12 0.5t12 0.5h58.5t58.5 -1q22 0 41 -16q3 -3 4 -15.5t1 -17.5q0 -7 -1.5 -13.5t-1.5 -13.5q0 -2 1 -3q4 -12 4 -24.5v-25.5zM396 385q-3 2 -11.5 3t-19 1h-20.5h-14q-3 0 -10.5 -0.5t-16 -1.5t-15.5 -2.5t-10 -2.5q3 -1 5.5 -2t5.5 -1q6 0 12 1t13 1q11 0 21 -1t21 -1
q8 0 21 0.5t18 5.5zM487 266q-2 5 -3.5 8t-7.5 3q-3 0 -9.5 -2t-6.5 -5q0 -6 8 -6q5 0 9.5 0.5t9.5 1.5zM113 392q-8 6 -15 6q-6 0 -13 -5q4 -7 14 -7q9 0 14 6z" />
    <glyph glyph-name="uni00AD" unicode="&#xad;" horiz-adv-x="443" 
d="M383 312q0 -9 -3 -21.5t-14 -13.5q-12 -1 -25 -2t-25 -1q-20 0 -43.5 1t-44.5 1h-42.5t-29 -0.5t-29 -0.5h-42.5q-9 0 -17 4.5t-8 15.5q0 15 1 30.5t2 30.5q2 19 14.5 22.5t26.5 3.5q13 0 23.5 -0.5t20.5 -0.5q29 0 60 1.5t60 1.5q10 0 20 -1.5t18 -1.5q5 0 11.5 1
t11.5 1q16 0 31 -3q8 -1 10.5 -3t4.5 -10q2 -14 5 -27.5t3 -27.5zM294 348l-1 2q-3 1 -9 1h-44h-15.5t-24.5 -0.5t-23.5 -1.5t-12.5 -2l2 -3q3 0 6 -0.5t6 -0.5h58.5t57.5 5zM143 310q-4 2 -7 2q-5 0 -11 -4q6 -4 9 -4q5 0 9 6z" />
    <glyph glyph-name="registered" unicode="&#xae;" horiz-adv-x="827" 
d="M767 364q0 -12 -1.5 -25t-3.5 -25q-2 -13 -3.5 -26t-3.5 -26q-5 -26 -17 -53.5t-28 -53.5t-34.5 -50t-36.5 -43q-8 -8 -17 -15t-17 -14q-13 -11 -27 -16.5t-30 -9.5q-27 -5 -55 -10t-56 -5h-8.5t-8.5 1q-10 2 -19 1.5t-19 1.5q-26 4 -52.5 10t-52.5 13q-20 6 -42.5 17.5
t-44.5 26.5t-41 32t-32 34q-26 32 -34.5 71t-14.5 78q-3 17 -5.5 35t-2.5 35q0 29 7 58t18 55q5 11 8 22t8 22q8 17 17 33t19 32q11 17 29 33q30 26 59.5 45.5t68.5 30.5q17 5 35 6.5t35 4.5q17 2 42 3.5t42 1.5q10 0 23 -1.5t26.5 -4t26.5 -6t23 -6.5q9 -4 21 -8t20 -9
q30 -21 57.5 -44.5t50.5 -53.5q24 -32 38.5 -69t24.5 -76q8 -27 8 -53zM640 343q0 19 -4.5 48.5t-13.5 59.5t-22 55t-30 37l-43 29q-24 16 -55 17t-59 1q-23 0 -49 -8q-20 -5 -39 -11.5t-36 -17.5l-22 -16t-19 -18q-2 -4 -4.5 -7.5t-5.5 -6.5q-18 -19 -28 -49t-14 -56
q-2 -15 -3.5 -31.5t-1.5 -31.5q0 -28 5 -54t13 -52q7 -24 22.5 -43.5t35 -34t42.5 -24.5t47 -16q14 -4 28.5 -6.5t29.5 -2.5q19 0 38.5 3t39.5 6t38.5 12t31.5 26l10 11q9 7 17 20.5t15 29t13 31t10 26.5q13 35 13 74zM538 202q0 -6 -7.5 -7t-12.5 -1h-24.5t-24.5 2
q-14 2 -23.5 13.5t-17.5 24.5t-16 23.5t-20 10.5q-4 0 -7.5 0.5t-7.5 0.5q-5 0 -5 -3v-6q0 -13 1 -26t1 -26q0 -14 -7 -16.5t-19 -2.5q-8 0 -15.5 0.5t-15.5 1.5q-7 0 -9.5 2t-3.5 10q-2 14 -2.5 32t-0.5 32q0 18 -1 35.5t-1 34.5q0 31 -0.5 62t-0.5 63q0 6 -0.5 12t-0.5 13
q0 6 9 9t20 4.5t22 1.5h16q24 0 51 -4t50.5 -14t41 -28t21.5 -46q1 -5 2 -10.5t1 -10.5v-1q-3 -8 -3.5 -17.5t-5.5 -17.5q-9 -18 -16.5 -30t-26.5 -23q4 -9 13.5 -22.5t19.5 -27t18 -26.5t8 -22zM438 389q0 9 -3 15q-9 19 -24 21.5t-33 2.5q-4 0 -4 -4v-7l1 -49v-1
q0 -5 -0.5 -14.5t7.5 -9.5q23 0 39.5 10.5t16.5 35.5zM363 47l-1 10l-24 2q-20 3 -39.5 9.5t-37.5 15.5q-2 2 -5 2q-1 0 -1.5 -0.5t-1.5 -0.5l8 -8t6 -4.5t7 -3l12 -4.5q14 -5 30.5 -12.5t33.5 -7.5q5 0 13 2zM717 255q0 4 -4 5q-8 -8 -10.5 -23t-7.5 -25q-1 -2 -4 -8.5
t-7 -14.5q-4 -9 -10 -19q0 -3 4 -3q1 0 4.5 5.5t8 12.5t8 13t4.5 8q5 11 9.5 24t4.5 25zM457 650l-2 2q-5 0 -8.5 0.5t-8.5 0.5q-17 0 -32.5 -3.5t-31.5 -9.5l-3 -3h4h10.5t15 0.5t14 2t8.5 3.5q1 5 9 5h25v2zM337 386q0 8 0.5 16.5t-0.5 16.5l-2 2q-2 -2 -3 -2
q-1 -5 -1 -15t-0.5 -24t3.5 -23l2 2q0 5 0.5 10t0.5 10v7zM127 306v10t-2 9q-2 6 -2 10q0 5 -0.5 6.5t-2.5 5.5h-1q-1 -4 -1 -10q0 -20 5 -38l1 -3l1 -1q1 3 1.5 5.5t0.5 5.5zM663 554q0 2 -1 6t-5 4q-2 0 -6.5 -3t-6.5 -5q2 -3 4.5 -7t6.5 -4q2 0 8 2v7zM185 508l-1 3
q-7 -4 -11 -7t-4 -13v-4q8 2 12 7.5t4 13.5zM429 319q-1 0 -1.5 0.5t-1.5 0.5q-4 0 -7 -1.5t-6 -1.5q-6 0 -10 -2.5t-9 -5.5q3 -2 6.5 -1.5t6.5 0.5t11.5 4t10.5 7zM602 63q0 2 -2 4l-4 1q-5 -1 -8 -5.5t-5 -8.5q1 -1 4 -1q4 0 9.5 2.5t5.5 7.5zM411 470q-3 3 -10 4t-11 1
q-7 0 -11 -3q3 -2 12.5 -3t13.5 -1t6 2zM498 393q0 3 -3 8q-3 -1 -6 -4.5t-3 -6.5q0 -5 6 -5t6 8zM461 224l-9 16q-2 2 -3 2t-3 -2v-3l12 -16q1 0 1.5 -0.5t1.5 -0.5v4zM338 216q-1 2 -4.5 5.5t-5.5 3.5l-2 -2q0 -3 4 -6.5t7 -3.5q0 1 0.5 1.5t0.5 1.5z" />
    <glyph glyph-name="macron" unicode="&#xaf;" horiz-adv-x="243" 
d="M243 667q0 -9 -0.5 -17.5t-1.5 -16.5q-1 -11 -3.5 -21.5t-16.5 -12.5q-12 -2 -25 -3t-25 -1h-5q-25 0 -49 1t-49 1q-8 0 -16.5 -1t-16.5 -1q-13 0 -24 4t-11 19v13.5v20t0.5 19.5t1.5 12q2 12 11 13.5t20 1.5q8 0 17.5 -1t17.5 1q11 2 21.5 2.5t21.5 0.5q17 0 33.5 -1
t33.5 -1q9 0 18.5 0.5t18.5 0.5q7 0 13.5 -3t12.5 -5q0 -7 1 -13t1 -12zM202 621q-12 4 -24 4.5t-25 0.5q-9 0 -17.5 -1t-17.5 -2q7 -4 15 -4.5t16 -0.5h14q10 0 20 0.5t19 2.5zM43 655q0 2 -2 2.5t-3 1.5q-5 -2 -10 -5t-5 -9l11 -4q2 2 5.5 7t3.5 7z" />
    <glyph glyph-name="degree" unicode="&#xb0;" horiz-adv-x="358" 
d="M307 576v-20q0 -22 -8 -42t-19 -38q-17 -26 -44.5 -39.5t-59.5 -13.5q-4 0 -7.5 0.5t-8.5 0.5q-4 0 -7 -0.5t-7 -0.5q-13 0 -26 8.5t-24.5 20.5t-20.5 25.5t-13 24.5q-7 16 -9.5 32.5t-2.5 33.5v12t1 11q2 28 18 50t36 39q8 8 18.5 12t20.5 9q10 6 22 6q6 0 12.5 0.5
t13.5 0.5q12 0 25.5 -4.5t26.5 -12t24 -17.5t17 -20q12 -20 17.5 -37.5t4.5 -40.5zM237 654v2q0 2 -1.5 5t-4.5 3q-6 0 -6 -7q0 -2 2 -4.5t4 -2.5t3 1.5t3 2.5zM220 571q0 17 -13 28.5t-30 11.5q-6 0 -13 -4t-13.5 -10.5t-10.5 -13.5t-4 -13q0 -17 11 -25.5t26 -8.5h14
q15 0 24 10t9 25zM215 467q-2 2 -4 2t-5.5 -2t-5.5 -3q3 -3 6 -3q2 0 3.5 1t3.5 2zM98 531v7q0 14 -0.5 26.5t-0.5 26.5l-2 1q-5 -6 -5.5 -13t-0.5 -14q0 -16 1.5 -22t4.5 -20l2 -1q0 2 0.5 4.5t0.5 4.5z" />
    <glyph glyph-name="plusminus" unicode="&#xb1;" horiz-adv-x="546" 
d="M495 351v-17.5v-24t-1 -23.5t-2 -14q-3 -9 -6 -10.5t-12 -2.5q-9 0 -18 -0.5t-18 -0.5q-19 0 -37.5 1t-37.5 1h-17l-1 -17q0 -28 2 -56t2 -56q0 -22 -20 -23q-19 -2 -37.5 -2.5t-37.5 -0.5q-8 0 -19 1t-18 4q-16 7 -17 23q-1 28 -0.5 55.5t-1.5 55.5q0 6 -1.5 9t-8.5 3
q-11 0 -21.5 -2t-20.5 -2q-14 -1 -26.5 -1.5t-26.5 -0.5t-26 3.5t-14 20.5q-2 16 -2 31.5v30.5q0 10 -0.5 20t1.5 20q1 10 4.5 13t13.5 3q21 1 42.5 1h43.5q13 0 22 0.5t13.5 4.5t6.5 11.5t2 22.5q0 17 -1.5 32.5t-1.5 31.5q0 17 4 30q4 12 8.5 18t18.5 6h59h20.5t20.5 -1
t15 -6t5 -15q1 -17 1 -32.5v-31.5t-1 -33t3 -32q11 -2 23 -3t24 -1q19 0 37.5 0.5t36.5 -1.5q11 -2 16 -6.5t6 -15.5q1 -5 1 -10.5v-10.5zM495 -37v-17.5v-24t-1 -23.5t-2 -14q-3 -9 -6 -10.5t-12 -2.5q-9 0 -18 -0.5t-18 -0.5q-19 0 -37.5 1t-37.5 1q-29 0 -59 -1.5t-59 -3
t-54.5 -2.5t-44.5 -1q-14 -1 -26.5 -1.5t-26.5 -0.5t-26 3.5t-14 20.5q-2 16 -2 31.5v30.5q0 10 -0.5 20t1.5 20q1 10 4.5 13t13.5 3h43t62 0.5t70 1t67.5 1t54.5 0.5h31q19 0 37.5 0.5t36.5 -1.5q11 -2 16 -6.5t6 -15.5q1 -5 1 -10.5v-10.5zM258 275v17.5v26.5t-0.5 25.5
t-1.5 14.5q-3 -3 -3.5 -6t-1.5 -6q0 -19 -1.5 -37.5t-1.5 -37.5q0 -7 6 -7q2 0 3 4t1 6zM217 -48h17.5h26.5t25.5 0.5t14.5 1.5q-3 3 -6 3.5t-6 1.5q-19 0 -37.5 1.5t-37.5 1.5q-7 0 -7 -6q0 -2 4 -3t6 -1zM315 503q0 8 -3 16q-5 -3 -6 -10.5t-1 -12.5q0 -20 2 -40.5
t2 -40.5v-3q1 1 2.5 13.5t2 28.5t1 30.5t0.5 18.5zM445 -65q-11 4 -27.5 5t-27.5 1h-8.5t-9.5 -2l2 -6q10 0 19 -0.5t18 -0.5h16q4 0 9.5 0.5t8.5 2.5zM445 323q-11 4 -27.5 5t-27.5 1h-8.5t-9.5 -2l2 -6q10 0 19 -0.5t18 -0.5h16q4 0 9.5 0.5t8.5 2.5zM108 323
q-2 4 -3.5 11.5t-6.5 7.5q-9 0 -9 -10q0 -5 3 -8zM108 -65q-2 4 -3.5 11.5t-6.5 7.5q-9 0 -9 -10q0 -5 3 -8zM308 153q0 2 -1.5 4.5t-3.5 4.5q-2 -2 -4.5 -5t-2.5 -7q0 -3 4 -7q2 2 5 4.5t3 5.5z" />
    <glyph glyph-name="uni00B2" unicode="&#xb2;" horiz-adv-x="403" 
d="M343 581q0 -14 -4 -27t-9 -25q-21 -47 -60 -74l-7 -5l-16 -16l-16 -16q-5 -4 -9.5 -8t-8.5 -9q33 -3 65 -3q8 0 17 0.5t18 0.5q15 0 20.5 -4.5t7.5 -19.5q1 -14 1.5 -28.5t0.5 -28.5q0 -19 -19 -19q-42 0 -82.5 -3t-82.5 -3q-18 0 -36 1t-36 1q-14 0 -15 14q-1 4 -1 8v8
q0 32 8 65.5t31 58.5q8 8 18 14.5t20 12.5q14 9 29.5 19t28.5 21.5t21.5 26t8.5 34.5q0 12 -10 21t-21 9t-15.5 -7.5t-9 -17t-12 -18t-23.5 -9.5h-6q-9 -3 -18 -3q-8 0 -15 1t-15 1q-12 0 -21.5 4.5t-9.5 19.5q0 4 2.5 12t6 16t7.5 16l6 12q5 9 13 20.5t18.5 21t22 17
t22.5 9.5q16 2 32.5 3.5t33.5 1.5q10 0 19 -0.5t19 -2.5q21 -3 36.5 -15.5t25 -30t14.5 -38t5 -39.5zM283 332q-9 4 -18.5 5t-19.5 1h-15q-13 0 -21 -4q3 -5 7 -5q11 0 22 1t22 1q4 0 12.5 -0.5t10.5 1.5zM273 515h-2q-3 0 -3 -2q-5 -9 -14.5 -16.5t-12.5 -15.5l1 -2l4 4
t5 2q1 -1 2 -1h1q6 7 11.5 14.5t7.5 16.5zM135 616q0 1 -0.5 2t-0.5 3q-4 -5 -9 -10.5t-5 -11.5q0 -3 2 -7q13 8 13 24zM114 327v11l-4 1h-1q-5 0 -5 -7v-3q0 -6 4 -6h2q4 0 4 4zM244 667l-2.5 7.5t-4.5 4.5q-2 0 -4 -1.5t-2 -3.5q0 -4 3.5 -7t6.5 -4h1q2 2 2 4z" />
    <glyph glyph-name="uni00B3" unicode="&#xb3;" horiz-adv-x="413" 
d="M353 423q0 -23 -7 -44t-20 -39t-31 -31t-40 -18q-28 -7 -62 -7q-21 0 -42.5 4t-39.5 14t-30.5 25.5t-15.5 39.5q-2 12 -3.5 24t-1.5 23q0 20 5 25t25 5q10 0 20 -0.5t20 -0.5q6 0 11.5 -1t10.5 -1q3 0 5.5 0.5t5.5 0.5q7 0 9.5 -10.5t5.5 -23.5t9.5 -23.5t22.5 -10.5
q5 0 13 4q14 7 19.5 14.5t5.5 23.5q0 17 -6 26.5t-16 14t-23 5.5t-26 1q-12 0 -22.5 -0.5t-18.5 2t-13 10t-5 23.5q0 6 0.5 13t3 13.5t6.5 11t11 4.5t23.5 0.5t33 3t29 8t12.5 16.5q0 13 -10.5 23.5t-23.5 10.5q-15 0 -21.5 -5t-10 -11.5t-7 -11.5t-12.5 -5q-10 0 -19.5 1.5
t-20.5 1.5q-5 0 -10.5 -0.5t-10.5 -0.5q-7 0 -15 2t-8 11q0 6 4.5 19t6.5 19q12 31 40 55t63 24q8 0 16 1t16 1q34 0 69 -11q17 -5 25 -20t15 -30q11 -25 11 -51q0 -25 -8.5 -40t-22.5 -34q21 -21 35.5 -41.5t14.5 -52.5zM298 637q0 10 -8 15h-3l10 -23v1q1 2 1 7zM144 664
q-1 0 -1.5 0.5t-2.5 0.5q-6 0 -11 -5.5t-5 -11.5q0 -3 1 -4q6 4 10 9.5t9 10.5zM315 427q0 8 -4 18t-9 15l-2 -4q0 -4 4.5 -10.5t4.5 -15.5q0 -4 -0.5 -7.5t-0.5 -7.5l5 -4q2 3 2 11v5zM201 481l-4 2q-2 1 -6 1h-10q-8 0 -12 -3q6 -3 13 -3h7q2 0 4.5 0.5t4.5 0.5zM183 312
q-4 5 -14 5q-6 0 -6 -3q0 -6 7 -6h6q6 0 7 4z" />
    <glyph glyph-name="acute" unicode="&#xb4;" horiz-adv-x="229" 
d="M229 689q0 -3 -16 -24.5t-37 -48.5t-40 -51t-25 -31q-9 -10 -23 -10q-6 0 -12.5 -1t-13.5 -1h-14t-20.5 1t-19 3.5t-8.5 7.5t13 27.5t29.5 48t30.5 47.5t17 26q8 11 19 13.5t24 2.5q5 0 20.5 0.5t32.5 -0.5t30 -3t13 -7zM183 663q0 2 -0.5 3.5t-0.5 3.5q-5 -2 -9.5 -5.5
t-4.5 -9.5v-2l3 -1q12 0 12 11zM69 588q0 4 -4 4q-2 0 -5.5 -4t-6.5 -9t-5.5 -10l-3.5 -7l-1 -4l2 -2q3 2 6.5 3.5t5.5 3.5q2 3 7 13t5 12z" />
    <glyph glyph-name="mu" unicode="&#xb5;" horiz-adv-x="634" 
d="M564 489q0 -9 -1 -18t-1 -18q0 -10 1 -19.5t1 -19.5q0 -32 -3 -62.5t-3 -61.5q0 -23 2 -45.5t2 -45.5q0 -12 -0.5 -24.5t-2.5 -24.5v-10q0 -10 1.5 -19t1.5 -19q0 -9 -1.5 -18.5t-2.5 -20.5v-21t-1 -21q0 -11 -9 -16.5t-20.5 -7.5t-24 -2h-19.5q-6 0 -11.5 1t-11.5 2h-26
t-26 2q-12 1 -12 13v14t-1 14q-14 -6 -23.5 -11.5t-19.5 -9.5t-21 -6t-26 -2q-12 0 -24 1.5t-24 3.5q-2 -5 -3.5 -8t-1.5 -8t1 -10t1 -10q0 -10 -1 -19.5t-1 -19.5q0 -8 1 -15t2 -15q1 -11 1 -22v-22q0 -12 -2 -24.5t-18 -12.5q-14 0 -27 2t-27 2h-19q-10 0 -19.5 -0.5
t-19.5 -0.5q-25 0 -34 15t-9 36q0 5 1 9.5t1 9.5q0 2 -0.5 8.5t-1.5 13.5t-2.5 12.5t-2.5 7.5q-2 3 -3 9t-1 13v13.5v10.5v23.5t2 22.5q2 5 2 11v11q0 14 -2.5 28.5t-2.5 28.5q0 5 1.5 9.5t1.5 9.5q0 10 0.5 20t0.5 21q0 10 -1 20l-2 20q0 6 -1.5 11.5t-1.5 11.5
q0 54 1.5 106.5t1.5 106.5q0 8 -1.5 16.5t-1.5 16.5t6 16.5t12 13.5q2 2 14 3.5t27 3t28.5 2t17.5 0.5q3 0 10 -0.5t15.5 -1t15 -2t8.5 -3.5q11 -9 11 -25q0 -18 -2 -36t-2 -36q0 -9 1 -18.5t1 -19.5q1 -10 0.5 -19t0.5 -19q0 -8 1 -15t1 -14q0 -17 1.5 -32t2.5 -31
q1 -10 3 -24t2 -22q0 -41 14 -58.5t58 -17.5q26 0 46.5 13.5t22.5 42.5q2 27 6 52q2 11 3 21t1 21q0 21 -1 42t-1 42q0 33 -3 66.5t-3 66.5q0 14 7 18t18 6q6 2 12 3.5t12 1.5q9 0 17.5 -2.5t17.5 -2.5q12 0 24.5 -1.5t25.5 -1.5q4 0 7 1t7 1q5 0 7.5 -3.5t6.5 -5.5
q14 -7 14 -23zM484 334q0 5 -0.5 11t-1.5 11q0 1 -0.5 2t-0.5 2l-1 1v-1l-2 -6q-1 -5 -1.5 -10.5t-0.5 -10.5v-102q0 -5 0.5 -9t1.5 -9q2 3 3 7.5t1 9.5q0 8 -0.5 16t-0.5 16q0 11 1 20.5t1 20.5v16q0 4 0.5 7.5t0.5 7.5zM134 -43v13t-0.5 18.5t-2 17.5t-4.5 11
q-2 -4 -2 -12t1.5 -15.5t1.5 -15.5q0 -14 -1.5 -28.5t-1.5 -28.5q0 -9 0.5 -18t3.5 -17q1 4 2 14.5t1.5 22t1 22t0.5 16.5zM167 324v14.5t-5 11.5l-3 -4v-53v-16.5t6 -13.5q2 12 2 26v26v9zM505 60q0 13 -4 21q-2 0 -2 -3q-1 -11 -1 -21.5v-21.5q0 -2 2 -4q4 7 4.5 14
t0.5 15zM384 70l-2 4h-2q-5 0 -12 -9.5t-10 -12.5l3 -1q6 2 14.5 6.5t8.5 12.5zM125 468v7t-4 5q-3 0 -6 -3.5t-3 -6.5q0 -4 2.5 -7.5t7.5 -3.5h1q1 2 1.5 4t0.5 5zM229 93q0 2 -1.5 6.5t-4.5 4.5q-7 0 -7 -6q0 -2 1 -7.5t5 -6.5q7 1 7 9zM431 477v16l-2 3q-5 -5 -5 -13
q0 -11 6 -18q1 4 1 12z" />
    <glyph glyph-name="paragraph" unicode="&#xb6;" horiz-adv-x="710" 
d="M640 231q0 -7 -2 -13.5t-2 -13.5q0 -4 1 -7t1 -6q0 -5 -1 -10t-1 -10l-1 -44q0 -6 0.5 -11.5t0.5 -11.5t-1.5 -12.5t-1.5 -12.5q0 -13 1 -25.5t2 -25.5q3 -62 3 -126q0 -11 -3 -19t-12 -16q-1 -1 -2 -1.5t-2 -2.5q-6 -11 -21.5 -13t-26.5 -2q-8 0 -15 0.5t-15 0.5
t-17 -0.5t-18 -0.5q-19 0 -33 17q-2 4 -4 16.5t-2 17.5q0 7 3 17t3 21q0 19 -1.5 37t-0.5 37v26q0 10 -1 19.5t-1 19.5v24q0 7 -1 12.5t-1 11.5q0 5 0.5 9t0.5 8q0 11 -1 21t-2 21v92q0 17 1 33.5t1 33.5q0 23 -1 47t-1 48q0 9 1 18.5t1 18.5q0 17 -1 35t-2 35q-1 8 -2.5 9
t-9.5 2l-8 2t-9 1q-7 0 -9 -9q-1 -3 -1.5 -11t-1 -17t-0.5 -17v-12q0 -5 0.5 -9t0.5 -9q0 -4 -0.5 -7.5t-0.5 -7.5t0.5 -7.5t0.5 -7.5q0 -8 -0.5 -14.5t-0.5 -14.5q0 -5 0.5 -8.5t0.5 -8.5q0 -11 -1.5 -20.5t-1.5 -20.5t1 -23t1 -23q0 -7 -1.5 -13t-1.5 -12q0 -7 1.5 -14
t1.5 -14q0 -23 1.5 -45t1.5 -45q0 -8 -1 -16.5t-1 -17.5q-2 -36 -3.5 -72t-1.5 -73q0 -12 2 -24.5t2 -24.5q0 -3 -0.5 -6t-0.5 -7q0 -13 2 -25.5t2 -25.5q0 -11 -10 -19t-21 -8q-10 0 -19.5 1t-19.5 1q-11 0 -21.5 -2.5t-21.5 -2.5q-45 0 -45 46q0 19 1.5 37t1.5 37
q0 32 -2.5 64.5t-2.5 65.5q0 9 1 18t1 18h-1q1 19 2 37.5t1 37.5v46q0 7 -8 10q-17 8 -32 16t-31 16q-13 7 -26 12.5t-26 12.5q-6 3 -15 11.5t-18.5 19t-17.5 20.5t-11 16l-30 52q-6 13 -6 30q0 5 0.5 8.5t0.5 7.5q0 5 -0.5 9.5t-0.5 9.5q0 23 7.5 48t21 48t32 41.5
t40.5 27.5q12 5 20.5 8.5t16 5.5t16 4t22.5 4l22 4t22 2h68t68 2q14 0 27.5 1.5t27.5 1.5q5 0 9.5 -1t9.5 -1q4 0 8 0.5t9 0.5q17 0 34.5 -1t34.5 -1q5 0 11 1.5t11 1.5q6 0 13 -5q10 -8 16.5 -13.5t10.5 -12t5 -15.5t1 -22q0 -20 1 -40.5t1 -40.5q0 -16 -0.5 -31t-0.5 -30
q0 -33 2 -66t2 -66q0 -8 -1 -16.5t-1 -16.5t0.5 -17t0.5 -17q0 -15 1 -30.5t1 -31.5zM522 176q0 15 -1 29.5t-3 29.5h-1q-3 -4 -4 -13.5t-1 -14.5q0 -17 0.5 -35.5t3.5 -35.5q1 -2 1 -8l2 -60q0 -1 0.5 -2t0.5 -3q2 6 2 8v105zM386 23q0 5 -0.5 10t-4.5 10q-6 -9 -6 -19
v-19.5t0.5 -28t1 -27t1.5 -16.5h1q1 4 2.5 17t2.5 27t1.5 27t0.5 19zM147 586q-13 -2 -21.5 -17t-8.5 -27q-1 -11 -3 -22t-3 -22l3 -3q5 2 5.5 7.5t1.5 10.5q2 12 4 25.5t11 23.5q8 9 11 24zM587 532q0 4 -0.5 8t-4.5 6q-2 -3 -3.5 -5.5t-1.5 -7.5q0 -11 0.5 -20.5
t1.5 -20.5q1 -18 1 -37t3 -37q1 2 2 18t1.5 35.5t0.5 37v23.5zM382 421l-4 6q-2 -11 -2.5 -22.5t-0.5 -22.5v-19q0 -16 0.5 -32t3.5 -31h1q1 7 1.5 23.5t0.5 35v36v26.5zM514 673q-2 2 -5 2h-44q-2 0 -5.5 -1t-3.5 -4l2 -1q6 -2 12 -3t12 -1t18.5 1t13.5 7zM592 -83v9t-2 9
q-8 -1 -9 -5t-1 -11q0 -12 7 -24q3 5 4 8t1 10v4zM245 437q0 12 -10 16q-4 -6 -4 -11q0 -4 2.5 -8t6.5 -4v-1l1 1l3 1q1 2 1 6zM317 61q0 2 -3.5 5t-6.5 3q-6 0 -6 -8q0 -2 2.5 -3.5t4.5 -2.5q2 1 5.5 2t3.5 4zM388 623q0 2 -4 5t-6 3q-6 0 -6 -8q0 -2 2.5 -3.5t4.5 -2.5
q2 1 5.5 2t3.5 4zM602 100q0 3 -3.5 6t-6.5 3q-2 0 -4 -3t-2 -5t2.5 -3.5t4.5 -2.5q2 1 5.5 2t3.5 3z" />
    <glyph glyph-name="periodcentered" unicode="&#xb7;" horiz-adv-x="262" 
d="M212 370q0 -7 -4 -14q-2 -2 -2.5 -5t-2.5 -6q-11 -21 -26.5 -33t-40.5 -12q-7 0 -13 2t-13 4q-32 10 -46 30t-14 53q0 20 13.5 37t29.5 27q6 4 12.5 4.5t13.5 0.5q13 0 19 -3t17 -6t21.5 -11.5t18.5 -19.5t12.5 -23.5t4.5 -24.5zM168 374q0 6 -5 6q-4 0 -4 -4v-1
q0 -7 4 -7q5 0 5 6zM101 385q0 3 -0.5 5.5t-1.5 5.5q-6 -4 -6.5 -8.5t-0.5 -11.5v-11q9 7 9 20z" />
    <glyph glyph-name="cedilla" unicode="&#xb8;" horiz-adv-x="210" 
d="M210 -49q0 -17 -8 -36q-14 -39 -43 -53t-67 -14q-22 0 -45 5.5t-40 21.5q-7 5 -7 13q0 2 2.5 9t5.5 14.5t6 14t4 9.5q3 5 6.5 8.5t9.5 3.5q11 0 23.5 -7.5t26.5 -7.5q20 0 20 18q0 5 -4 11.5t-11 6.5q-4 0 -7.5 -1t-7.5 -1q-5 0 -13 1.5t-15 4.5t-12 8t-5 11q0 7 6.5 20
t15.5 27t18 26.5t14 18.5q4 5 12 7.5t17 4t17.5 1.5h14.5q5 0 10 -1.5t5 -7.5q0 -4 -2.5 -10.5t-6.5 -13.5t-7.5 -14t-4.5 -12q32 -13 52 -30.5t20 -55.5zM146 -55q0 7 -2 16t-10 11h-1q-1 -1 -1 -5q0 -5 2 -10.5t2 -10.5t-2.5 -7t-2.5 -6t2 -6q8 5 10.5 7t2.5 11zM48 -84
q0 1 -2 3q-5 -2 -7 -3.5t-2 -7.5q1 0 1.5 -0.5t2.5 -0.5t4.5 3t2.5 6z" />
    </font>
</defs>
</svg>
